<svg xmlns="http://www.w3.org/2000/svg" viewBox="0 0 151.5 113.5"><title>BGTotalWallet</title><path d="M152,9V115h-.46c-69.93-10.87-120.67-20.51-128-24a22.23,22.23,0,0,1-8.75-7.5,20.58,20.58,0,0,1-2.76-8V49a20.58,20.58,0,0,1,2.76-8,22.23,22.23,0,0,1,8.75-7.5c7.36-3.49,58.1-13.13,128-24" transform="translate(-0.5 -1.5)" style="fill:#5fabdb"/><path d="M152,1.5v106h-.5C75.83,96.63,20.92,87,13,83.5A23.37,23.37,0,0,1,3.49,76a19.54,19.54,0,0,1-3-8V41.5a19.54,19.54,0,0,1,3-8A23.37,23.37,0,0,1,13,26c8-3.49,62.87-13.13,138.54-24" transform="translate(-0.5 -1.5)" style="fill:#00d2aa"/></svg>