<?xml version="1.0" encoding="UTF-8"?>
<svg xmlns="http://www.w3.org/2000/svg" xmlns:xlink="http://www.w3.org/1999/xlink" width="300pt" height="150pt" viewBox="0 0 300 150" version="1.1">
<g id="surface1">
<path style=" stroke:none;fill-rule:nonzero;fill:rgb(37.254902%,67.058824%,85.882353%);fill-opacity:1;" d="M 300 9.984375 L 300 149.917969 L 299.089844 149.917969 C 160.613281 135.566406 60.136719 122.839844 45.625 118.234375 C 38.644531 116.007812 32.667969 112.589844 28.296875 108.332031 C 25.398438 105.101562 23.535156 101.507812 22.832031 97.773438 L 22.832031 62.789062 C 23.535156 59.054688 25.398438 55.457031 28.296875 52.226562 C 32.667969 47.96875 38.644531 44.554688 45.625 42.328125 C 60.199219 37.71875 160.671875 24.992188 299.089844 10.644531 "/>
<path style=" stroke:none;fill-rule:nonzero;fill:rgb(0%,82.352941%,66.666667%);fill-opacity:1;" d="M 300 0.0820312 L 300 140.015625 L 299.011719 140.015625 C 149.167969 125.667969 40.4375 112.953125 24.753906 108.332031 C 17.277344 106.195312 10.785156 102.777344 5.921875 98.433594 C 2.796875 95.246094 0.765625 91.640625 -0.0195312 87.871094 L -0.0195312 52.886719 C 0.765625 49.117188 2.796875 45.511719 5.921875 42.328125 C 10.785156 37.980469 17.277344 34.566406 24.753906 32.425781 C 40.59375 27.820312 149.246094 15.09375 299.089844 0.742188 "/>
</g>
</svg>
