<?xml version="1.0" encoding="utf-8"?>
<!-- Generator: Adobe Illustrator 22.0.0, SVG Export Plug-In . SVG Version: 6.00 Build 0)  -->
<svg version="1.1" id="Layer_1" xmlns="http://www.w3.org/2000/svg" xmlns:xlink="http://www.w3.org/1999/xlink" x="0px" y="0px"
	 viewBox="0 0 409.2 289.2" style="enable-background:new 0 0 409.2 289.2;" xml:space="preserve">
<style type="text/css">
	.st0{fill:#3A97D3;}
</style>
<path class="st0" d="M0.1,262.6l9.7,6c9.7,6,29.2,18,48.8,20.3c19.4,2.3,38.9-5.3,58.2-11.3c19.6-6,39.2-10.5,58.5-8.3
	c19.5,2.3,38.9,11.3,58.5,12c19.4,0.8,38.9-6.8,58.5-6c19.4,0.7,38.9,9.7,58.2,9.7c19.6,0,38.9-9,48.9-13.5l9.7-4.5v-9H0.1V262.6z"
	/>
<path class="st0" d="M176.9,0.1H0.1v258h409V0.1H176.9z"/>
</svg>
