<?xml version="1.0" encoding="utf-8"?>
<!-- Generator: Adobe Illustrator 22.0.0, SVG Export Plug-In . SVG Version: 6.00 Build 0)  -->
<svg version="1.1" id="Capa_1" xmlns="http://www.w3.org/2000/svg" xmlns:xlink="http://www.w3.org/1999/xlink" x="0px" y="0px"
	 viewBox="0 0 409.2 156.9" style="enable-background:new 0 0 409.2 156.9;" xml:space="preserve">
<style type="text/css">
	.st0{fill:#3A97D3;}
	.st1{opacity:0.35;}
</style>
<path class="st0" d="M176.9,1H0.1v126h409V1H176.9z"/>
<path class="st0" d="M0.1,130.2l9.7,6c9.7,6,29.2,18,48.8,20.3c19.4,2.3,38.9-5.3,58.2-11.3c19.6-6,39.2-10.5,58.5-8.3
	c19.5,2.3,38.9,11.3,58.5,12c19.4,0.8,38.9-6.8,58.5-6c19.4,0.7,38.9,9.7,58.2,9.7c19.6,0,38.9-9,48.9-13.5l9.7-4.5v-9H0.1V130.2z"
	/>
<g class="st1">
	<path d="M241.7,135.8c-0.9,0.5-1.3,1.6-0.8,2.5s1.6,1.3,2.5,0.8l0.2-0.1c0.9-0.5,1.2-1.6,0.7-2.5l0,0l0,0
		C243.7,135.6,242.6,135.3,241.7,135.8L241.7,135.8z M243.2,138.5c-0.6,0.3-1.4,0.1-1.7-0.5s-0.1-1.4,0.5-1.7
		c0.6-0.3,1.3-0.1,1.7,0.4l0,0C244,137.4,243.8,138.1,243.2,138.5L243.2,138.5L243.2,138.5z"/>
	<path d="M236.7,140.1c-0.6,0.3-0.8,1.1-0.5,1.7s1.1,0.8,1.7,0.5c0.6-0.3,0.8-1.1,0.5-1.7l0,0l0,0C238,140,237.3,139.8,236.7,140.1z
		 M237.6,141.7c-0.3,0.2-0.7,0.1-0.8-0.2l0,0c-0.2-0.3-0.1-0.7,0.2-0.9c0.3-0.2,0.7-0.1,0.8,0.2C238,141.2,237.9,141.6,237.6,141.7
		L237.6,141.7L237.6,141.7z"/>
	<path d="M247.9,133.7c-0.6,0.3-0.8,1.1-0.4,1.7l0,0l0,0c0.3,0.6,1.1,0.8,1.7,0.4l0,0c0.6-0.4,0.7-1.1,0.4-1.7
		C249.2,133.6,248.5,133.4,247.9,133.7L247.9,133.7z M248.8,135.3c-0.3,0.2-0.7,0.1-0.8-0.2c-0.2-0.3-0.1-0.7,0.2-0.8
		c0.3-0.2,0.7-0.1,0.8,0.2C249.2,134.7,249.1,135.1,248.8,135.3L248.8,135.3z"/>
	<path d="M249.7,130.2c-0.2-0.1-0.3,0-0.4,0.2l0,0l0,0l-0.3,1.1l-3.7,2.1c-0.8-1.2-2.1-1.9-3.5-1.9l0.8-0.4c0.1-0.1,0.2-0.3,0.1-0.4
		l0,0c-0.1-0.1-0.3-0.2-0.4-0.1l0,0l-2.4,1.4l-0.5-0.8c-0.1-0.1-0.3-0.1-0.4,0l0,0c-0.1,0.1-0.1,0.2-0.1,0.4l0.5,0.8L237,134
		c-0.1,0.1-0.2,0.3-0.1,0.4l0,0c0.1,0.1,0.3,0.2,0.4,0.1l0.8-0.4c-0.7,1.2-0.7,2.7-0.1,4l-3.7,2.1l-1.1-0.3c-0.2,0-0.3,0.1-0.4,0.3
		c0,0.1,0.1,0.3,0.2,0.3l0,0l1.4,0.4l1-0.6c-0.6,1-0.2,2.4,0.8,2.9c1,0.6,2.4,0.2,2.9-0.8c0.6-1,0.2-2.3-0.8-2.9l0,0
		c-0.3-0.2-0.6-0.3-1-0.3l0.9-0.5c1.3,2,4,2.6,6,1.3c1.9-1.2,2.5-3.6,1.5-5.6l0.9-0.5c-0.6,1-0.3,2.4,0.7,3l0,0l0,0l0,0
		c1,0.6,2.3,0.2,2.9-0.8l0,0c0.6-1,0.3-2.4-0.8-3l0,0l0,0c-0.3-0.2-0.7-0.3-1-0.3l1-0.6l0.4-1.4c0.1-0.1,0-0.3-0.1-0.4L249.7,130.2
		L249.7,130.2z M238.6,140.4c0.4,0.7,0.2,1.7-0.6,2.1s-1.7,0.2-2.1-0.6c-0.4-0.7-0.2-1.7,0.6-2.1
		C237.2,139.4,238.2,139.7,238.6,140.4L238.6,140.4z M243.7,139.3c-1.8,1-4.1,0.4-5.1-1.3s-0.4-4.1,1.3-5.1c1.8-1,4.1-0.4,5.1,1.3
		l0,0l0,0C246,136,245.4,138.3,243.7,139.3L243.7,139.3z M249.9,133.9c0.4,0.7,0.2,1.7-0.6,2.1c-0.7,0.4-1.7,0.2-2.1-0.6
		c-0.4-0.7-0.2-1.7,0.6-2.1C248.5,132.9,249.4,133.2,249.9,133.9L249.9,133.9z"/>
	<path d="M242.9,133.7l-3.8,2.2c-0.1,0.1-0.2,0.3-0.1,0.4c0.1,0.1,0.3,0.2,0.4,0.1l3.7-2.2c0.1-0.1,0.2-0.3,0.1-0.4
		C243.3,133.7,243.1,133.6,242.9,133.7z"/>
	<path d="M245.2,139.5l-0.2,0.1c-0.1,0.1-0.2,0.3-0.1,0.4l0,0c0.1,0.1,0.3,0.2,0.4,0.1l0.3-0.2c0.1-0.1,0.2-0.3,0.1-0.4l0,0
		C245.6,139.4,245.4,139.4,245.2,139.5C245.3,139.4,245.3,139.4,245.2,139.5L245.2,139.5z"/>
	<path d="M244.1,140.1l-0.3,0.2c-0.1,0.1-0.2,0.3-0.1,0.4l0,0c0.1,0.1,0.3,0.2,0.4,0.1l0.3-0.2c0.1-0.1,0.2-0.3,0.1-0.4l0,0
		C244.5,140.1,244.3,140,244.1,140.1z"/>
	<path d="M243.1,140.7l-0.3,0.2c-0.1,0.1-0.2,0.3-0.1,0.4l0,0c0.1,0.1,0.3,0.2,0.4,0.1l0.3-0.2c0.1-0.1,0.2-0.3,0.1-0.4
		C243.4,140.6,243.2,140.6,243.1,140.7L243.1,140.7z"/>
</g>
<g class="st1">
	<path d="M98.7,15.9l-5.1,2.9L93,17.7c-0.4-0.7-1.4-1-2.1-0.6l-3.8,2.2c-0.7,0.4-1,1.4-0.6,2.1l0,0l0,0l0.6,1.1L82,25.4
		c-0.1,0.1-0.2,0.3-0.1,0.4l4.7,8.1c0.1,0.1,0.3,0.2,0.4,0.1l0,0l16.6-9.6c0.1-0.1,0.2-0.3,0.1-0.4l0,0L99,15.9
		C99,15.9,98.9,15.8,98.7,15.9z M87.1,21.2c-0.3-0.4-0.1-1,0.3-1.3l0,0l3.8-2.2c0.4-0.3,1-0.1,1.3,0.3l0.6,1.1l-5.3,3.1L87.1,21.2z
		 M103.1,24.2l-16,9.2l-3.3-5.6l8.6-3.6h0.1l7.4-5.7L103.1,24.2z M99.5,18l-7.4,5.7l-8.6,3.6l-0.8-1.4l16.1-9.3L99.5,18z"/>
	<path d="M101.5,23.2l-0.3,0.1c-0.1,0.1-0.2,0.3-0.1,0.4l0,0c0.1,0.1,0.3,0.2,0.4,0.1l0.3-0.2c0.1-0.1,0.1-0.3,0-0.4l0,0
		C101.7,23.2,101.6,23.2,101.5,23.2L101.5,23.2z"/>
	<path d="M100.4,23.8l-0.3,0.2c-0.1,0.1-0.2,0.3-0.1,0.4l0,0c0.1,0.1,0.3,0.2,0.4,0.1l0.3-0.2c0.1-0.1,0.2-0.3,0.1-0.4l0,0
		C100.8,23.8,100.6,23.8,100.4,23.8z"/>
	<path d="M99.4,24.5l-0.3,0.2C99,24.8,98.9,25,99,25.1l0,0c0.1,0.1,0.3,0.2,0.4,0.1l0.3-0.2c0.1-0.1,0.2-0.3,0.1-0.4l0,0
		C99.7,24.4,99.5,24.4,99.4,24.5z"/>
</g>
<g class="st1">
	<path d="M64.2,85.6l-0.5,0.3l-2.2-3.8c-0.1-0.1-0.3-0.2-0.4-0.1l-15,8.7C46,90.8,45.9,91,46,91.1l0,0l2.1,3.8l-0.5,0.3
		c-0.1,0.1-0.2,0.3-0.1,0.4l1.9,3.2c0.1,0.1,0.3,0.2,0.4,0.1l0,0l0.3-0.1l0.5,0.8c0.1,0.1,0.3,0.2,0.4,0.1l0.8-0.5l0.6,1.1
		c0.1,0.1,0.3,0.2,0.4,0.1l0.8-0.5c0.1-0.1,0.2-0.3,0.1-0.4l0,0l-0.6-1.1l11.3-6.5L65,93c0.1,0.1,0.3,0.2,0.4,0.1l0,0l0.8-0.5
		c0.1-0.1,0.2-0.3,0.1-0.4l-0.6-1.1l0.8-0.5c0.1-0.1,0.2-0.3,0.1-0.4l0,0L66,89.6l0.3-0.2c0.1-0.1,0.2-0.3,0.1-0.4l0,0l-1.9-3.2
		C64.5,85.6,64.3,85.6,64.2,85.6L64.2,85.6z M46.6,91.1L61,82.7l2,3.5l-1.7,1v-0.1c0.1-0.2,0-0.3-0.2-0.4l0,0l0,0l-3-0.8
		c-0.2,0-0.3,0.1-0.4,0.2l-0.8,3c0,0.2,0.1,0.3,0.2,0.4l0,0h0.1l-3,1.7v-0.1c0.1-0.2,0-0.3-0.2-0.4l0,0l0,0l-3-0.8
		c-0.2,0-0.3,0.1-0.4,0.2l-0.8,3c0,0.2,0.1,0.3,0.2,0.4l0,0h0.1l-1.7,1L46.6,91.1z M60.7,87.2l-0.1,0.4L58.1,89l-0.4-0.1l0.6-2.4
		L60.7,87.2z M53.7,91.2l-0.1,0.4L51.1,93l-0.4-0.1l0.6-2.4L53.7,91.2z M53,99.6l-0.3,0.1l-0.5-0.8l0.3-0.2L53,99.6z M65.6,92.3
		l-0.3,0.1l-0.5-0.8l0.3-0.1L65.6,92.3z M65.9,90.3l-15,8.7l-0.3-0.5l15-8.7L65.9,90.3z M65.8,88.9l-16.1,9.3l-1.5-2.7l16.1-9.3
		L65.8,88.9z"/>
	<path d="M64.2,88.1l-0.3,0.1c-0.1,0.1-0.2,0.3-0.1,0.4c0.1,0.1,0.3,0.2,0.4,0.1l0.3-0.1c0.1-0.1,0.2-0.3,0.1-0.4
		C64.5,88,64.4,88,64.2,88.1L64.2,88.1L64.2,88.1z"/>
	<path d="M63.1,88.7l-0.3,0.1c-0.1,0.1-0.2,0.3-0.1,0.4c0.1,0.1,0.3,0.2,0.4,0.1l0.3-0.2c0.1-0.1,0.2-0.3,0.1-0.4
		C63.4,88.7,63.3,88.6,63.1,88.7L63.1,88.7z"/>
	<path d="M62.1,89.3l-0.3,0.2c-0.1,0.1-0.2,0.3-0.1,0.4l0,0l0,0c0.1,0.1,0.3,0.2,0.4,0.1l0.3-0.2c0.1-0.1,0.2-0.3,0.1-0.4l0,0
		C62.4,89.3,62.2,89.2,62.1,89.3L62.1,89.3z"/>
</g>
<g class="st1">
	<path d="M209.5,105.8l-1.6,0.9l-0.8-1.4c0,0,0-0.1-0.1-0.1h-0.3l-4.6,2.6l0,0c0,0-0.1,0-0.1,0.1l0,0v0.1l0,0v0.1l0,0v0.1l0.8,1.4
		l-1.6,0.9c-0.1,0.1-0.2,0.3-0.1,0.4l0,0l5.6,9.7c0.1,0.1,0.3,0.2,0.4,0.1l8.3-4.8c0.1-0.1,0.2-0.3,0.1-0.4l-5.6-9.7
		C209.9,105.7,209.7,105.6,209.5,105.8C209.6,105.7,209.6,105.7,209.5,105.8L209.5,105.8L209.5,105.8z M210.5,118.1l-3.5,2l-5.3-9.1
		l1.6-0.9l0.1-0.1l2.3,0.1h0.1L210.5,118.1z M205.1,108.7l0.3,0.5l0.1,0.3l-2.1-0.1l-0.5-0.8L205.1,108.7
		C205,108.6,205.1,108.6,205.1,108.7z M203.4,107.9l2.7-1.5l-0.9,1.6L203.4,107.9z M206.8,106.2l0.5,0.8l-0.9,1.9l-0.5-0.5v-0.2
		L206.8,106.2z M214.8,115.6l-3.8,2.1l-4.7-8.1c0.1,0,0.2,0,0.3,0s0.1-0.1,0.1-0.1l1-2.1h0.1l1.6-0.9L214.8,115.6z"/>
	<path d="M210.1,108.7l-2.4,1.4c-0.1,0.1-0.2,0.3-0.1,0.4l1.9,3.2c0.1,0.1,0.3,0.2,0.4,0.1l0,0l2.4-1.4c0.1-0.1,0.2-0.3,0.1-0.4l0,0
		l-1.9-3.2C210.4,108.7,210.2,108.6,210.1,108.7L210.1,108.7L210.1,108.7z M211.7,112.1l-1.9,1.1l-1.1-1.9l1.9-1.1L211.7,112.1z
		 M210.3,109.6l-1.8,1l-0.2-0.3l1.9-1.1L210.3,109.6z"/>
	<path d="M216.9,99.4l-7.5,4.3c-0.1,0.1-0.2,0.3-0.1,0.4l0,0l9.6,16.7c0.1,0.1,0.3,0.2,0.4,0.1l2.9-1.7c0.1-0.1,0.2-0.3,0.1-0.4
		l-5.7-11.1l0,0l6.7,10.5c0.1,0.1,0.3,0.2,0.4,0.1l2.9-1.7c0.1-0.1,0.2-0.3,0.1-0.4l-9.6-16.7C217.2,99.3,217,99.3,216.9,99.4z
		 M210,104.1l2.1-1.2l0.3,0.5l-2.2,1.2L210,104.1z M216.2,107.3c-0.1,0.1-0.2,0.3-0.1,0.4l5.7,11.1l-2.4,1.4l-8.7-15.1l3.2-1.9
		L216.2,107.3z M213,103.1l-0.3-0.5l1.6-0.9l0.3,0.5L213,103.1z M226.3,116.2l-2.4,1.4l-6.8-10.5c-0.1-0.1-0.3-0.2-0.4-0.1l-2.3-4
		l3.2-1.9L226.3,116.2z M217.3,100.6l-2.2,1.2l-0.3-0.5l2.1-1.2L217.3,100.6z"/>
	<path d="M223.6,113.4c-0.1,0.1-0.2,0.3-0.1,0.4l0.2,0.3c0.1,0.2,0.2,0.3,0.4,0.2s0.3-0.2,0.2-0.4l0,0v-0.1l-0.1-0.3
		C224,113.4,223.8,113.4,223.6,113.4L223.6,113.4z"/>
	<path d="M224.2,114.5c-0.1,0.1-0.2,0.3-0.1,0.4l0,0l0.1,0.3c0.1,0.1,0.3,0.2,0.4,0.1l0,0c0.1-0.1,0.2-0.3,0.1-0.4l-0.2-0.3
		C224.5,114.5,224.4,114.4,224.2,114.5z"/>
	<path d="M224.8,115.6c-0.1,0.1-0.2,0.3-0.1,0.4l0,0l0.1,0.3c0.1,0.1,0.3,0.2,0.4,0.1c0.1-0.1,0.2-0.3,0.1-0.4l-0.2-0.3
		C225.2,115.6,225,115.5,224.8,115.6z"/>
	<path d="M210.8,120.8l-0.2,0.1l-1.4,0.8l-0.2,0.1c-0.7,0.5-0.8,1.4-0.4,2.1l0.9,1.5c0.1,0.1,0.3,0.2,0.4,0.1l3.8-2.2
		c0.1-0.1,0.2-0.3,0.1-0.4l0,0l-0.9-1.5C212.5,120.8,211.6,120.5,210.8,120.8z M209.7,122.2l1.1-0.6l0.2,0.4l-1.1,0.6L209.7,122.2z
		 M213.1,123.1l-3.2,1.9l-0.2-0.3l3.2-1.9L213.1,123.1z M212.6,122.3l-3.2,1.9l-0.3-0.5c-0.2-0.4-0.2-0.8,0.1-1.1l0.3,0.6
		c0.1,0.1,0.3,0.2,0.4,0.1l0,0l1.6-0.9c0.1-0.1,0.2-0.3,0.1-0.4l0,0l-0.3-0.6c0.4,0,0.8,0.2,1,0.5L212.6,122.3z"/>
	<path d="M215.4,118.2l-0.2,0.1l-1.4,0.8l-0.2,0.1c-0.7,0.5-0.8,1.4-0.4,2.1l0.9,1.5c0.1,0.1,0.3,0.2,0.4,0.1l3.8-2.2
		c0.1-0.1,0.2-0.3,0.1-0.4l0,0l-0.9-1.5C217,118.2,216.2,117.9,215.4,118.2z M214.3,119.5l1.1-0.6l0.2,0.4l-1.1,0.6L214.3,119.5z
		 M217.6,120.5l-3.2,1.9l-0.1-0.3l3.2-1.9L217.6,120.5z M217.2,119.6l-3.2,1.9l-0.3-0.4c-0.2-0.4-0.2-0.8,0.1-1.1l0.3,0.6
		c0.1,0.1,0.3,0.2,0.4,0.1l0,0l1.6-0.9c0.1-0.1,0.2-0.3,0.1-0.4l0,0l-0.3-0.6c0.4,0,0.8,0.2,1,0.5L217.2,119.6z"/>
</g>
<g class="st1">
	<path d="M49.3,26.8l-16.6,9.6c-0.1,0.1-0.2,0.3-0.1,0.4L38.5,47c0.1,0.1,0.3,0.2,0.4,0.1l0,0l5.6-3.2l0.5,1.4
		c0.1,0.2,0.2,0.2,0.4,0.2l0,0l0,0l5.3-3.1c0.1-0.1,0.2-0.3,0.1-0.4l0,0l-1-1.2l5.6-3.2c0.1-0.1,0.2-0.3,0.1-0.4l0,0L49.6,27
		C49.6,26.8,49.5,26.7,49.3,26.8L49.3,26.8L49.3,26.8L49.3,26.8z M45.4,44.8L45,43.6l4.4-2.5l0.8,1L45.4,44.8z M54.9,37.2l-5.6,3.3
		l-10.4,6l-0.8-1.3l16-9.3L54.9,37.2z M53.8,35.3l-16.1,9.3l-4.5-7.8l16.1-9.3L53.8,35.3z"/>
	<path d="M56.2,42.5L55,41c-0.1-0.1-0.3-0.1-0.4-0.1L42.3,48c-0.1,0.1-0.2,0.2-0.1,0.4l0.7,1.8c0.1,0.2,0.2,0.2,0.4,0.2l0,0l0,0
		L56.2,43C56.3,42.9,56.3,42.7,56.2,42.5L56.2,42.5z M43.2,49.7l-0.4-1.2l11.9-6.9l0.8,1L43.2,49.7z"/>
	<path d="M51.3,37.8L51,38c-0.1,0.1-0.2,0.3-0.1,0.4c0.1,0.1,0.2,0.1,0.4,0.1l0.3-0.1c0.1-0.1,0.2-0.3,0.1-0.4l0,0
		C51.7,37.8,51.5,37.7,51.3,37.8L51.3,37.8z"/>
	<path d="M52.4,37.2l-0.3,0.2c-0.1,0.1-0.2,0.3-0.1,0.4l0,0c0.1,0.1,0.3,0.2,0.4,0.1l0.3-0.2c0.1-0.1,0.2-0.3,0.1-0.4l0,0
		C52.7,37.2,52.5,37.1,52.4,37.2z"/>
	<path d="M53.5,36.6l-0.3,0.2c-0.1,0.1-0.2,0.3-0.1,0.4l0,0c0.1,0.1,0.3,0.2,0.4,0.1l0.3-0.2c0.1-0.1,0.2-0.3,0.1-0.4l0,0
		C53.8,36.6,53.6,36.5,53.5,36.6z"/>
</g>
<g class="st1">
	<path d="M13,25.7l-2.3-4c-0.2-0.4-0.8-0.6-1.3-0.4l0,0l-0.8,0.5c-0.1,0.1-0.2,0.1-0.2,0.2l0,0c-0.3-0.4-0.8-0.6-1.3-0.3l-0.8,0.5
		C5.9,22.5,5.7,23,6,23.5l0,0l0.9,1.6l-6.8,3.8v0.7l7-4.1l1,1.6l-8,4.6v0.7l8.3-4.8l0.9,1.6c0.3,0.4,0.8,0.6,1.3,0.4l0,0l0,0
		l0.8-0.5c0.4-0.3,0.6-0.8,0.3-1.3l-0.2-0.3c0.1,0,0.2,0,0.3-0.1l0.8-0.5C13.1,26.8,13.2,26.2,13,25.7L13,25.7z M11.1,28.7l-0.8,0.5
		c-0.1,0.1-0.3,0-0.4-0.1l-3.4-5.9c-0.1-0.2,0-0.3,0.1-0.4l0.8-0.5c0.1-0.1,0.3,0,0.4,0.1l3.4,5.9C11.3,28.4,11.3,28.6,11.1,28.7
		L11.1,28.7z M12.4,26.6l-0.8,0.5c-0.1,0.1-0.3,0.1-0.4-0.1l0,0l0,0l-2.3-4c-0.1-0.1,0-0.3,0.1-0.4l0.8-0.5c0.1-0.1,0.3,0,0.4,0.1
		l2.3,4C12.5,26.3,12.5,26.5,12.4,26.6L12.4,26.6z"/>
	<path d="M7.9,24.4c-0.1,0.1-0.2,0.3-0.1,0.4l0,0L8,25.1c0.1,0.1,0.3,0.2,0.4,0.1c0.1-0.1,0.2-0.2,0.1-0.4l0,0l-0.1-0.3
		C8.2,24.3,8,24.3,7.9,24.4C7.9,24.3,7.9,24.3,7.9,24.4L7.9,24.4z"/>
	<path d="M8.5,25.4c-0.1,0.1-0.2,0.3-0.1,0.4l0.2,0.3c0.1,0.2,0.2,0.3,0.4,0.2s0.3-0.2,0.2-0.4l0,0v-0.1L9,25.6
		C8.9,25.5,8.7,25.4,8.5,25.4L8.5,25.4L8.5,25.4z"/>
	<path d="M9.1,26.5C9,26.6,8.9,26.8,9,26.9l0.2,0.3c0.1,0.1,0.3,0.1,0.4,0l0,0c0.1-0.1,0.1-0.2,0.1-0.4l-0.1-0.2
		C9.5,26.4,9.3,26.4,9.1,26.5C9.2,26.4,9.2,26.4,9.1,26.5L9.1,26.5L9.1,26.5z"/>
</g>
<g class="st1">
	<path d="M23.9,110.5l-0.2-0.3c-2.3-4-7.3-5.3-11.3-3s-5.3,7.3-3,11.3l0,0l0,0l0.2,0.3c-0.6,0.9-0.7,2.1-0.1,3l1.2,2.1
		c0.8,1.3,2.5,1.8,3.8,1l0.3,0.5c0.1,0.1,0.3,0.2,0.4,0.1l1.1-0.6c0.1-0.1,0.2-0.3,0.1-0.4l-4.7-8.1c-0.1-0.1-0.3-0.2-0.4-0.1
		l-0.7,0.4c-1.3-3.4,0.4-7.1,3.8-8.4c2.6-1,5.6-0.2,7.4,2l-0.8,0.4c-0.1,0.1-0.2,0.3-0.1,0.4l0,0l4.7,8.1c0.1,0.1,0.3,0.2,0.4,0.1
		l1.1-0.6c0.1-0.1,0.2-0.3,0.1-0.4l-0.3-0.5c1.3-0.8,1.8-2.5,1-3.8l-1.3-2.2C26,110.9,24.9,110.4,23.9,110.5z M14.2,124.5
		c-1,0.6-2.4,0.3-3-0.7l0,0l0,0l0,0l-1.3-2.2c-0.6-1-0.3-2.4,0.8-3l0,0L14.2,124.5z M11.4,117.1l4.4,7.6l-0.5,0.3l-4.3-7.5
		L11.4,117.1z M26.4,118.5l-0.5,0.3l-4.4-7.5L22,111L26.4,118.5z M22.4,110.2c-2.4-3.1-6.9-3.8-10-1.4c-2.6,2-3.5,5.5-2.3,8.5v0.1
		l0.1,0.1c0.1,0.1,0.1,0.3,0.2,0.4c-0.1,0.1-0.3,0.2-0.4,0.3l-0.1-0.1c-2.1-3.7-0.9-8.3,2.8-10.4s8.3-0.9,10.4,2.8l0,0l0,0
		c0,0,0,0.1,0.1,0.1c-0.2,0.1-0.3,0.1-0.5,0.2l-0.3-0.4l-0.1-0.1C22.4,110.3,22.4,110.3,22.4,110.2L22.4,110.2z M27.3,114.4
		c0.6,1,0.3,2.3-0.7,3l0,0l0,0l0,0l-3.4-6c1-0.6,2.4-0.3,3,0.7l0,0l0,0l0,0L27.3,114.4z"/>
	<path d="M11.9,122.4c-0.1,0.1-0.2,0.3-0.1,0.4l0,0l0.1,0.3c0.1,0.1,0.3,0.2,0.4,0.1l0,0c0.1-0.1,0.2-0.3,0.1-0.4l-0.2-0.3
		C12.2,122.3,12,122.3,11.9,122.4L11.9,122.4z"/>
	<path d="M11.3,121.3c-0.1,0.1-0.2,0.3-0.1,0.4l0,0l0.1,0.3c0.1,0.1,0.3,0.2,0.4,0.1c0.1-0.1,0.2-0.3,0.1-0.4l-0.2-0.3
		C11.6,121.3,11.4,121.2,11.3,121.3z"/>
	<path d="M10.6,120.2c-0.1,0.1-0.2,0.3-0.1,0.4l0.2,0.3c0.1,0.1,0.3,0.2,0.4,0.1l0,0c0.1-0.1,0.2-0.3,0.1-0.4l-0.2-0.3
		C11,120.2,10.8,120.1,10.6,120.2z"/>
</g>
<g class="st1">
	<path d="M124.2,3.4c-0.1,0.1-0.2,0.3-0.1,0.4c0.1,0.1,0.3,0.2,0.4,0.1c1.1-0.6,2.5-0.2,3.1,0.8c0.1,0.2,0.2,0.3,0.4,0.2
		s0.3-0.2,0.2-0.4l0,0v0C127.5,3.1,125.7,2.6,124.2,3.4C124.3,3.4,124.2,3.4,124.2,3.4L124.2,3.4z"/>
	<path d="M139.3,1.7h-0.1c-0.2,0.6-0.7,1.1-1.2,1.5l-1,0.5c-1.4,0.8-3.1,0.3-3.9-1.1l-0.6-0.9h-0.9c0.1,0.1,0.2,0.1,0.3,0.2
		c-0.5-0.1-1.1-0.1-1.6,0.2l-0.5,0.3c-0.5,0.3-0.8,0.7-1,1.3c-0.2-0.7,0-1.4,0.7-1.8l0.4-0.2c-0.1,0-0.3,0-0.4,0h-0.6
		c-0.4,0.3-0.6,0.8-0.7,1.3c-1.1-1-2.7-1.2-4-0.5L123.3,3c-1.7,1-2.2,3.1-1.3,4.8l0.5,0.9c1,1.7,3.1,2.3,4.8,1.3l0.9-0.5
		c1.5-0.9,2.1-2.7,1.5-4.3c0-0.1,0-0.1,0-0.2c-0.4-0.7-0.2-1.6,0.4-2.1l0.5-0.3c0.7-0.4,1.6-0.2,2,0.5l0,0l0,0l0.1,0.1
		c1.1,1.3,3,1.7,4.5,0.8l0.9-0.6c0.8-0.4,1.3-1.2,1.6-2L139.3,1.7z M127.8,9l-0.9,0.5c-1.4,0.8-3.1,0.4-4-1l0,0l0,0l0,0l-0.6-0.9
		c-0.8-1.4-0.4-3.1,1-4l0,0l0,0l0,0l0.9-0.5c1.3-0.8,3.1-0.4,4,0.9l0,0v0.1v0.1l0.5,0.9C129.6,6.4,129.2,8.2,127.8,9
		C127.8,9,127.8,9.1,127.8,9L127.8,9L127.8,9z"/>
	<path d="M127.6,7.3l-0.3,0.2c-0.1,0.1-0.2,0.3-0.1,0.4c0.1,0.1,0.3,0.2,0.4,0.1l0.3-0.2c0.1-0.1,0.2-0.3,0.1-0.4
		C127.9,7.2,127.7,7.2,127.6,7.3z"/>
	<path d="M126.5,7.9l-0.3,0.2c-0.1,0.1-0.2,0.3-0.1,0.4c0.1,0.1,0.3,0.2,0.4,0.1l0,0l0.3-0.2c0.1-0.1,0.2-0.3,0.1-0.4
		C126.8,7.9,126.7,7.8,126.5,7.9z"/>
	<path d="M125.4,8.5l-0.2,0.1c-0.1,0.1-0.2,0.3-0.1,0.4c0.1,0.1,0.3,0.2,0.4,0.1l0,0l0.3-0.2c0.1-0.1,0.2-0.3,0.1-0.4l0,0
		C125.8,8.5,125.6,8.4,125.4,8.5z"/>
</g>
<g class="st1">
	<path d="M303.6,60.2L303.6,60.2c-5.2-1.4-10.5,1.6-11.9,6.8l0,0v0.1l0,0c-0.7,2.6,0.4,4.9,1.6,7c0.1,0.1,0.1,0.1,0.2,0.1l14,3.3
		c0.1,0,0.1,0,0.2,0l0,0c1.7-1.3,2.2-3.3,2.7-5.2v-0.1C311.8,67,308.7,61.7,303.6,60.2z M307.5,76.9l-13.7-3.2
		c-1.1-2-2.1-4.1-1.5-6.4c1.2-4.8,6.1-7.7,10.9-6.5c0,0,0,0,0.1,0h0.2c1.9,0.5,3.6,1.6,4.8,3.2l-7.7,2.6h-0.1
		c-0.9-1-2.5-1.1-3.5-0.2l0,0l0,0c-1,0.9-1.1,2.5-0.2,3.5c0.7,0.8,1.8,1,2.8,0.6h0.1l9.8,2.6C309.2,74.6,308.5,75.9,307.5,76.9
		L307.5,76.9z M300.4,67.4c0.5,0.9,0.2,2-0.7,2.5c-0.9,0.5-2,0.2-2.5-0.7s-0.2-2,0.7-2.5l0,0l0,0C298.7,66.2,299.8,66.5,300.4,67.4z
		 M309.9,72v0.1l-0.1,0.6l-9.3-2.5c0.8-0.8,1.1-2,0.5-3l7.7-2.6c0.1,0.2,0.2,0.4,0.3,0.5C310.2,67.2,310.5,69.7,309.9,72L309.9,72z"
		/>
	<path d="M298.1,66.9c-0.7,0.3-1,1.2-0.6,1.9c0.3,0.7,1.2,1,1.9,0.6l0.1-0.1c0.7-0.4,0.9-1.2,0.5-1.9l0,0l0,0
		C299.6,66.8,298.8,66.5,298.1,66.9L298.1,66.9L298.1,66.9L298.1,66.9z M299.2,68.8c-0.4,0.2-0.8,0.1-1-0.3l0,0
		c-0.2-0.3-0.1-0.8,0.3-1l0,0c0.4-0.2,0.8-0.1,1,0.3l0,0C299.6,68.1,299.5,68.6,299.2,68.8L299.2,68.8L299.2,68.8L299.2,68.8z"/>
	<path d="M293.1,69.8c-0.1,0.1-0.2,0.3-0.1,0.4l0.2,0.3c0.1,0.2,0.2,0.3,0.4,0.2c0.2-0.1,0.3-0.2,0.2-0.4l0,0l0,0v-0.1l-0.1-0.3
		C293.6,69.8,293.4,69.7,293.1,69.8L293.1,69.8z"/>
	<path d="M293.8,70.8c-0.1,0.1-0.2,0.3-0.1,0.4l0.3,0.5c0.1,0.1,0.3,0.2,0.4,0.1l0,0c0.1-0.1,0.2-0.3,0.1-0.4l-0.3-0.5
		C294.1,70.8,293.9,70.8,293.8,70.8z"/>
	<path d="M294.5,72.2c-0.1,0.1-0.2,0.3-0.1,0.4l0,0l0.1,0.3c0.1,0.1,0.3,0.2,0.4,0.1c0.1-0.1,0.2-0.3,0.1-0.4l0,0l-0.1-0.3
		C294.9,72.1,294.7,72.1,294.5,72.2L294.5,72.2L294.5,72.2z"/>
</g>
<g class="st1">
	<path d="M360.8,80.9l-5.3-5.5c-0.1-0.1-0.3-0.1-0.4,0l-3.8,2.2c-0.1,0.1-0.2,0.2-0.1,0.4l2.1,7.4c0,0.2,0.2,0.3,0.4,0.2h0.1
		l3.2-1.9l5.6,9.7l-2.4,1.4c-0.2,0.1-0.3,0.2-0.2,0.4c0.1,0.2,0.2,0.3,0.4,0.2l0,0l0,0h0.1l5.6-3.2c0.1-0.1,0.2-0.3,0.1-0.4l0,0
		c-0.1-0.1-0.3-0.2-0.4-0.1l0,0l-2.7,1.5l-5.6-9.7l1.3-0.8l1.1,1.9c-0.3,0.4-0.3,1,0.1,1.3s1,0.3,1.3-0.1c0.3-0.4,0.3-1-0.1-1.3
		c-0.2-0.2-0.5-0.3-0.8-0.2l-1.1-1.9l1.3-0.8c0.1-0.1,0.2-0.3,0.1-0.4l0,0L360.8,80.9L360.8,80.9z M353.8,84.7l-2-6.8l3.3-1.9
		l4.9,5.1L353.8,84.7z"/>
	<path d="M356.3,81.8L356,82c-0.2,0.1-0.3,0.2-0.2,0.4c0.1,0.2,0.2,0.3,0.4,0.2l0,0h0.1l0.3-0.1c0.2-0.1,0.2-0.3,0.1-0.4
		C356.7,81.8,356.5,81.7,356.3,81.8L356.3,81.8z"/>
	<path d="M355.3,82.4l-0.3,0.2c-0.2,0.1-0.3,0.2-0.2,0.4c0.1,0.2,0.2,0.3,0.4,0.2l0,0l0,0h0.1l0.3-0.1c0.1-0.1,0.2-0.3,0.1-0.4
		c-0.1-0.1-0.3-0.2-0.4-0.1l0,0l0,0V82.4z"/>
	<path d="M354.2,83l-0.3,0.1c-0.1,0.1-0.2,0.3-0.1,0.4c0.1,0.1,0.3,0.2,0.4,0.1l0,0l0.3-0.1c0.1-0.1,0.2-0.3,0.1-0.4
		C354.5,83,354.3,82.9,354.2,83z"/>
</g>
<g class="st1">
	<path d="M105.9,109.8l-11.2,6.5c-0.4,0.2-0.6,0.8-0.3,1.3l0,0l9,15.6c0.3,0.4,0.8,0.6,1.3,0.3L116,127c0.4-0.3,0.6-0.8,0.3-1.3l0,0
		l-9-15.6C106.9,109.7,106.4,109.6,105.9,109.8z M115.7,126.1c0.1,0.2,0,0.3-0.1,0.4l-11.3,6.5c-0.1,0.1-0.3,0.1-0.4-0.1l0,0l0,0
		l-1.2-2.1l11.8-6.8L115.7,126.1z M114.1,123.4l-11.8,6.8l-6.2-10.8l11.8-6.8L114.1,123.4z M107.6,112.1l-11.8,6.8l-0.9-1.6
		c-0.1-0.2,0-0.3,0.1-0.4l11.2-6.5c0.1-0.1,0.3-0.1,0.4,0.1l0,0l0,0L107.6,112.1z"/>
	<path d="M109.6,129.2c0.4-0.2,0.6-0.8,0.3-1.3l0,0c-0.3-0.4-0.8-0.6-1.3-0.3s-0.6,0.8-0.3,1.3C108.7,129.3,109.2,129.5,109.6,129.2
		L109.6,129.2z M109,128.1c0.1-0.1,0.4-0.1,0.5,0.1s0.1,0.4-0.1,0.5l0,0c-0.1,0.1-0.3,0.1-0.4-0.1l0,0
		C108.8,128.5,108.9,128.3,109,128.1C109,128.2,109,128.2,109,128.1L109,128.1L109,128.1z"/>
	<path d="M103,113.3l-3.8,2.2c-0.2,0.1-0.3,0.2-0.2,0.4c0.1,0.2,0.2,0.3,0.4,0.2l0,0l0,0h0.1l3.8-2.2c0.1-0.1,0.2-0.3,0.1-0.4l0,0
		C103.3,113.4,103.1,113.3,103,113.3L103,113.3z"/>
	<path d="M112.5,123.7l0.3-0.2c0.1-0.1,0.2-0.3,0.1-0.4l0,0c-0.1-0.1-0.3-0.2-0.4-0.1l-0.3,0.2c-0.1,0.1-0.2,0.3-0.1,0.4
		C112.2,123.7,112.3,123.8,112.5,123.7L112.5,123.7z"/>
	<path d="M111.4,124.2l0.3-0.2c0.1-0.1,0.2-0.3,0.1-0.4l0,0c-0.1-0.1-0.3-0.2-0.4-0.1l-0.3,0.1c-0.1,0.1-0.2,0.3-0.1,0.4
		C111,124.3,111.2,124.3,111.4,124.2L111.4,124.2L111.4,124.2z"/>
	<path d="M110.3,124.9l0.3-0.2c0.1-0.1,0.2-0.3,0.1-0.4l0,0c-0.1-0.1-0.3-0.2-0.4-0.1l-0.3,0.2c-0.1,0.1-0.2,0.3-0.1,0.4l0,0
		C110,124.9,110.2,125,110.3,124.9z"/>
</g>
<g class="st1">
	<path d="M318.1,9l-4.3-7.4h-0.7l3.2,5.5l-8,4.6l-5.9-10.1h-0.7l7.3,12.6c0.4,0.7,1.4,1,2.1,0.6l0,0l0,0l6.4-3.7
		C318.3,10.8,318.6,9.8,318.1,9C318.1,9.1,318.1,9.1,318.1,9L318.1,9L318.1,9z M317.2,10.6l-6.4,3.7c-0.4,0.3-1,0.1-1.3-0.3l0,0l0,0
		l-0.9-1.6l8-4.6l0.9,1.6C317.8,9.8,317.7,10.3,317.2,10.6L317.2,10.6L317.2,10.6L317.2,10.6z"/>
	<path d="M312.8,10.3c-0.4,0.2-0.6,0.8-0.4,1.3l0,0c0.3,0.4,0.8,0.6,1.3,0.3c0.4-0.3,0.6-0.8,0.3-1.3
		C313.7,10.2,313.2,10,312.8,10.3L312.8,10.3z M313.4,11.4c-0.1,0.1-0.3,0.1-0.4-0.1l0,0l0,0c-0.1-0.1-0.1-0.3,0-0.4
		c0.1-0.1,0.3-0.1,0.4,0l0,0V11C313.5,11,313.5,11.2,313.4,11.4C313.3,11.3,313.3,11.3,313.4,11.4L313.4,11.4L313.4,11.4z"/>
	<path d="M314.9,6.6l-0.3,0.2c-0.1,0.1-0.2,0.3-0.1,0.4s0.3,0.2,0.4,0.1l0.3-0.2c0.2-0.1,0.3-0.2,0.2-0.4c-0.1-0.2-0.2-0.3-0.4-0.2
		l0,0l0,0L314.9,6.6L314.9,6.6z"/>
	<path d="M313.8,7.2l-0.3,0.2c-0.1,0.1-0.2,0.3-0.1,0.4s0.3,0.2,0.4,0.1l0.2-0.2c0.1-0.1,0.2-0.3,0.1-0.4
		C314,7.1,313.9,7.1,313.8,7.2L313.8,7.2z"/>
	<path d="M312.7,7.8L312.4,8c-0.1,0.1-0.2,0.3-0.1,0.4l0,0c0.1,0.1,0.3,0.2,0.4,0.1l0.3-0.2c0.1-0.1,0.2-0.3,0.1-0.4l0,0
		C313.1,7.8,312.9,7.7,312.7,7.8z"/>
</g>
<g class="st1">
	<path d="M335.6,31.1l-5.1,2.9c-1.6,0.9-2.2,3-1.2,4.7l0.9,1.6c0.1,0.1,0.3,0.2,0.4,0.1l0,0l7.8-4.5c0.1-0.1,0.2-0.3,0.1-0.4l0,0
		l-2.5-4.3C336,31.1,335.8,31,335.6,31.1z M337.9,35.6l-7.2,4.2l-0.8-1.4c-0.8-1.3-0.3-3,1-3.8l4.8-2.8L337.9,35.6z"/>
	<path d="M340.2,28.5l-3.5,2c-0.1,0.1-0.2,0.3-0.1,0.4l4.4,7.5c0.1,0.1,0.3,0.2,0.4,0.1l0,0l3.5-2c0.1-0.1,0.2-0.3,0.1-0.4l0,0
		l-4.3-7.5C340.5,28.5,340.4,28.4,340.2,28.5z M344.3,36.2l-3,1.7l-4-7l3-1.7L344.3,36.2z"/>
	<path d="M348.4,35.9l-1.4,0.8l-5.8-10c-0.4-0.7-1.4-1-2.1-0.6l0,0l0,0l-9.6,5.6c-2.5,1.5-3.4,4.7-1.9,7.2l4,7
		c0.1,0.1,0.3,0.2,0.4,0.1l2.9-1.7c0.6,1.2,2.1,1.7,3.3,1.1c1.2-0.6,1.7-2.1,1.1-3.3l0,0l0,0c0-0.1-0.1-0.1-0.1-0.2l8.3-4.8l1.1,1.9
		c0.1,0.1,0.3,0.2,0.4,0.1l0,0c0.1-0.1,0.2-0.3,0.1-0.4l-1.1-1.9l0.5-0.3c0.1-0.1,0.2-0.3,0.1-0.4C348.7,35.9,348.6,35.9,348.4,35.9
		z M338.2,44.7c-0.9,0.5-2,0.2-2.6-0.7c-0.5-0.9-0.2-2,0.7-2.6c0.9-0.5,2-0.2,2.6,0.7l0,0l0,0C339.4,43,339.1,44.1,338.2,44.7
		L338.2,44.7z M346.6,37l-7.6,4.4c-1-1-2.5-1-3.5,0c-0.6,0.6-0.9,1.6-0.6,2.4l-2.8,1.6l-3.9-6.7c-1.3-2.2-0.5-5.1,1.7-6.4l9.6-5.6
		c0.4-0.3,1-0.1,1.3,0.3l0,0l0,0L346.6,37z"/>
	<path d="M333.8,39.7l-0.3,0.2c-0.1,0.1-0.2,0.3-0.1,0.4c0.1,0.1,0.3,0.2,0.4,0.1l0,0l0.3-0.1c0.1-0.1,0.2-0.3,0.1-0.4l0,0
		C334.2,39.7,334,39.6,333.8,39.7L333.8,39.7z"/>
	<path d="M332.8,40.3l-0.3,0.2c-0.1,0.1-0.2,0.3-0.1,0.4l0,0c0.1,0.1,0.3,0.2,0.4,0.1l0,0l0.3-0.1c0.1-0.1,0.2-0.3,0.1-0.4l0,0
		C333.1,40.3,332.9,40.2,332.8,40.3z"/>
	<path d="M331.7,40.9l-0.3,0.1c-0.1,0.1-0.2,0.3-0.1,0.4l0,0c0.1,0.1,0.3,0.2,0.4,0.1l0,0l0.3-0.1c0.1-0.1,0.2-0.3,0.1-0.4l0,0
		C332,40.9,331.8,40.8,331.7,40.9z"/>
</g>
<g class="st1">
	<path d="M409.1,75l-1.7,1l0.1-0.6c0-0.2-0.1-0.3-0.2-0.4l-0.8-0.2l0.4-1.3l2.2,0.6V74c0-0.2,0-0.4,0-0.6l-2.4-0.6
		c-0.2,0-0.3,0.1-0.4,0.2l0,0l0,0l-0.4,1.6l-1.6-0.4c-0.2,0-0.3,0.1-0.4,0.2l0,0l0,0l-0.8,3c0,0.2,0.1,0.3,0.2,0.4l0.5,0.1l-0.7,0.4
		l-1.9-3.2c-0.3-0.4-0.1-1,0.3-1.3l7.4-4.3v-0.7l-7.7,4.5c-0.7,0.4-1,1.4-0.6,2.1l0,0l0,0l0.3,0.5L399,77c-0.1,0.1-0.2,0.3-0.1,0.4
		l2.6,4.6c0.1,0.1,0.3,0.2,0.4,0.1l0.8-0.5l0.8,1.4c0.1,0.1,0.3,0.2,0.4,0.1l0,0l1.1-0.6c0.1-0.1,0.2-0.3,0.1-0.4l0,0l-0.8-1.4
		l4.4-2.6v-0.5l-6.9,4l-2.3-4l1.6-0.9l1.4,2.4c0.1,0.1,0.3,0.2,0.4,0.1l5.8-3.4v-0.5C409.1,75.2,409.1,75.1,409.1,75z M404.1,81.1
		l0.6,1.1l-0.5,0.3l-0.6-1.1L404.1,81.1z M406.8,76.4l-2.2,1.3c0-0.1-0.1-0.1-0.2-0.1l-0.5-0.1l0.6-2.4l2.4,0.6L406.8,76.4
		C406.7,76.3,406.7,76.3,406.8,76.4L406.8,76.4z"/>
</g>
<g class="st1">
	<path d="M377.8,41.5c-2.4-1.5-5.6-0.9-7.1,1.5s-0.9,5.6,1.5,7.1c1.3,0.9,3,1.1,4.5,0.6c0.1-0.1,0.2-0.3,0.1-0.4
		c-0.1-0.1-0.2-0.2-0.3-0.2c-2.4,0.8-5-0.5-5.8-2.9s0.5-5,2.9-5.8s5,0.5,5.8,2.9c0.4,1.3,0.3,2.8-0.5,4c-0.3,0.5-0.7,0.9-1.2,1.3
		c-0.1,0.1-0.2,0.3-0.1,0.4c0.1,0.1,0.3,0.2,0.4,0.1l0,0c0.5-0.4,1-0.9,1.4-1.4C380.8,46.2,380.2,43,377.8,41.5L377.8,41.5
		L377.8,41.5L377.8,41.5z"/>
	<path d="M381,49.7c0.3-0.4,0.3-0.9,0.3-1.3c-0.1-0.4,0.1-0.7,0.3-1c0.3-0.3,0.6-0.7,0.6-1.2s-0.1-0.9-0.4-1.3
		c-0.3-0.3-0.3-0.7-0.2-1.1c0.1-0.4,0.1-0.9-0.1-1.3c-0.2-0.4-0.6-0.7-1-0.9c-0.4-0.1-0.6-0.4-0.7-0.8c-0.1-0.4-0.4-0.8-0.8-1.1
		s-0.9-0.3-1.3-0.2s-0.7-0.1-1-0.3c-0.6-0.7-1.7-0.8-2.5-0.1c-0.3,0.3-0.7,0.3-1,0.2c-0.4-0.1-0.9-0.1-1.3,0.1
		c-0.4,0.2-0.7,0.6-0.9,1c-0.1,0.4-0.4,0.6-0.8,0.7c-0.9,0.2-1.5,1.1-1.3,2.1c0.1,0.4,0,0.8-0.3,1c-0.3,0.3-0.5,0.7-0.6,1.2
		c0,0.5,0.1,0.9,0.4,1.3c0.2,0.3,0.3,0.7,0.2,1c-0.1,0.4-0.1,0.9,0.1,1.3c0.1,0.3,0.4,0.6,0.7,0.7l-0.9,1.4
		c-0.1,0.1-0.1,0.3,0.1,0.4l0,0c0.1,0.1,0.3,0.1,0.4-0.1l0,0l0,0l1-1.5c0.3,0.2,0.4,0.4,0.5,0.7l0,0l-2.8,4.3h-1l1.5-2.3
		c0.1-0.1,0.1-0.3-0.1-0.4l0,0l0,0c-0.1-0.1-0.3-0.1-0.4,0.1l-1.6,2.4c-0.1,0.2-0.1,0.4,0,0.6c0,0.1,0.1,0.2,0.2,0.2
		c0.1,0.1,0.2,0.1,0.3,0.1h2l0.2,0.5l0.6,1.3c0.1,0.2,0.3,0.3,0.5,0.3s0.4-0.1,0.5-0.3l3.2-4.9c0.7,0.5,1.6,0.4,2.2-0.1
		c0.3-0.2,0.6-0.3,1-0.2s0.9,0.1,1.3-0.1c0.4-0.2,0.7-0.6,0.9-1c0.1-0.4,0.4-0.6,0.8-0.7C380.3,50.3,380.7,50.1,381,49.7L381,49.7z
		 M369.3,55.7l-0.2-0.5c0-0.1-0.1-0.2-0.3-0.2h-0.5l2.4-3.7c0.1,0.2,0.3,0.3,0.5,0.4c0.2,0.1,0.4,0.2,0.6,0.2L369.3,55.7z M370,57.2
		l-0.4-0.9l2.8-4.3l0,0c0.3-0.1,0.6,0,0.8,0.2L370,57.2z M379.8,49.9c-0.6,0.1-1,0.5-1.2,1.1c-0.1,0.3-0.3,0.5-0.6,0.7
		c-0.3,0.1-0.6,0.2-0.9,0.1c-0.6-0.2-1.2,0-1.6,0.4c-0.5,0.4-1.2,0.4-1.6-0.1c-0.4-0.4-1-0.6-1.6-0.5s-1.2-0.3-1.3-0.9l0,0
		c-0.1-0.4-0.4-0.8-0.7-1c-0.1-0.1-0.3-0.1-0.4-0.2c-0.3-0.1-0.5-0.3-0.7-0.6c-0.1-0.3-0.2-0.6-0.1-0.9c0.2-0.6,0-1.2-0.4-1.6
		c-0.2-0.2-0.3-0.5-0.3-0.8s0.2-0.6,0.4-0.8c0.4-0.4,0.6-1,0.5-1.6c-0.1-0.3,0-0.6,0.2-0.9c0.2-0.3,0.4-0.4,0.7-0.5
		c0.6-0.1,1-0.5,1.2-1.1c0.1-0.3,0.3-0.5,0.6-0.7c0.3-0.1,0.6-0.2,0.9-0.1c0.6,0.2,1.2,0.1,1.6-0.3c0.2-0.2,0.5-0.3,0.8-0.3
		s0.6,0.2,0.8,0.4c0.4,0.4,1,0.6,1.6,0.5c0.3-0.1,0.6,0,0.9,0.2s0.4,0.4,0.5,0.7c0.1,0.6,0.5,1,1.1,1.2c0.3,0.1,0.5,0.3,0.7,0.6
		c0.1,0.3,0.2,0.6,0.1,0.9c-0.2,0.6-0.1,1.2,0.3,1.6c0.2,0.2,0.3,0.5,0.3,0.8s-0.2,0.6-0.4,0.8c-0.4,0.4-0.6,1-0.5,1.6
		c0.1,0.3,0,0.6-0.2,0.9C380.4,49.7,380.1,49.9,379.8,49.9L379.8,49.9z"/>
</g>
<g class="st1">
	<path d="M285.8,23l-2.1-1.3c1-1.6,0.6-3.7-1-4.7s-3.7-0.6-4.7,1l-2.1-1.4c-0.4-0.3-0.9-0.1-1.2,0.2l0,0l0,0l-6.4,9.8
		c-0.1,0.1-0.1,0.3,0.1,0.4c0.1,0.1,0.3,0.1,0.4-0.1l0.4-0.7l10.4,6.7l-1.9,2.9c-0.2,0.3-0.7,0.4-1,0.2l-9.1-5.9
		c-0.3-0.2-0.4-0.7-0.2-1l0.7-1.1c0.1-0.1,0.1-0.3-0.1-0.4l0,0c-0.1-0.1-0.3-0.1-0.4,0.1l0,0l0,0l-0.7,1.1c-0.4,0.6-0.2,1.5,0.4,1.9
		l9.1,5.9c0.6,0.4,1.4,0.2,1.9-0.4l0,0l7.9-12.2C286.3,23.8,286.2,23.2,285.8,23z M275.6,17.1l2.1,1.4l-1.1,1.7
		c-0.3,0.5-0.1,1,0.3,1.3c0.4,0.2,1,0.1,1.2-0.3l1.1-1.7l2.6,1.7l-0.3,0.4c-0.1,0.1-0.1,0.3,0.1,0.4c0.1,0.1,0.3,0,0.4-0.1l0.5-0.8
		c0.6-1,0.4-2.3-0.6-2.9c-1-0.6-2.3-0.4-2.9,0.6l0,0l0,0l-1.4,2.1c-0.1,0.2-0.3,0.2-0.5,0.1c-0.2-0.1-0.2-0.3-0.1-0.5l0,0l0,0
		l1.4-2.1c0.9-1.3,2.6-1.7,3.9-0.8s1.7,2.6,0.8,3.9l-1.4,2.1c-0.1,0.2-0.3,0.2-0.5,0.1s-0.2-0.3-0.1-0.5l0.1-0.1
		c0.1-0.1,0.1-0.3-0.1-0.4l0,0l0,0c-0.1-0.1-0.3-0.1-0.4,0.1l-0.1,0.1c-0.3,0.4-0.2,1,0.2,1.3s1,0.2,1.3-0.2l0,0l0,0
		c0,0,0.1-0.1,0.1-0.2l1.1-1.7l2.1,1.4c0.1,0.1,0.2,0.2,0.1,0.4l-2.2,3.4L273,20.6l2.2-3.3C275.3,17,275.5,17,275.6,17.1L275.6,17.1
		L275.6,17.1z M279.6,19c0.5-0.7,1.4-0.9,2.1-0.4s0.9,1.4,0.4,2.1L279.6,19z M269.6,25.9l3.2-4.9l10.3,6.7l-3.2,4.9L269.6,25.9
		L269.6,25.9z"/>
</g>
<g class="st1">
	<path d="M218.1,24.8l10.9,7.1c0.3,0.2,0.7,0.1,0.9-0.2l0,0l1.4-2.2c0.2-0.3,0.1-0.7-0.2-0.9l0,0l-8.2-5.3c-0.1-0.1-0.3-0.1-0.4,0.1
		s-0.1,0.3,0.1,0.4l0,0l8.2,5.3v0.1l-1.4,2.2 M229.3,31.4L229.3,31.4l-10.9-7v-0.1l1.4-2.2h0.1l1.5,1c0.1,0.1,0.3,0.1,0.4-0.1l0,0
		c0.1-0.1,0.1-0.3-0.1-0.4l0,0l0,0l-1.5-1c-0.3-0.2-0.7-0.1-0.9,0.2l0,0l-1.4,2.2c-0.2,0.3-0.1,0.6,0.1,0.8L229.3,31.4z"/>
	<path d="M216.9,26l11.5,7.4c0.1,0.1,0.3,0.1,0.4-0.1c0.1-0.1,0.1-0.3-0.1-0.4l-11.5-7.4c-0.1-0.1-0.3,0-0.4,0.1
		C216.8,25.7,216.8,25.9,216.9,26L216.9,26z"/>
	<path d="M216.3,27l11.5,7.4c0.1,0.1,0.3,0,0.4-0.1c0.1-0.1,0-0.3-0.1-0.4l0,0l-11.5-7.4c-0.1-0.1-0.3-0.1-0.4,0.1
		C216.1,26.8,216.1,26.9,216.3,27L216.3,27L216.3,27z"/>
	<path d="M235.7,26.4l-12.6-8.2l14,5.3c0.1,0.1,0.3,0.1,0.4,0c0.1-0.1,0.2-0.2,0.3-0.3l0.8-2.1c0.1-0.3,0-0.6-0.3-0.7l0,0l0,0
		l-17.1-6.5c-0.3-0.1-0.6,0-0.7,0.3l0,0l0,0l-0.9,2.3l-1.3,2c-0.2,0.3-0.1,0.6,0.1,0.8l0,0l0.2,0.1l-5.2,8c-0.2,0.3-0.1,0.7,0.2,0.9
		l13.9,9c0.3,0.2,0.7,0.1,0.9-0.2l0,0l0,0l5.2-8l0.2,0.1c0.3,0.2,0.6,0.1,0.8-0.1l0,0l1.2-1.9c0.2-0.3,0.1-0.6-0.2-0.8L235.7,26.4z
		 M233.9,25.9l-2.3,1.2l-1.1-0.7l2.3-1.2L233.9,25.9z M232.3,24.8L230,26l-1.2-0.8l2.3-1.1L232.3,24.8z M230.5,23.7l-2.3,1.2
		l-1.1-0.7l2.3-1.2L230.5,23.7z M228.9,22.6l-2.3,1.2l-1.2-0.8l2.3-1.1L228.9,22.6z M227.1,21.5l-2.3,1.1l-1.1-0.7l2.3-1.1
		L227.1,21.5z M225.4,20.4l-2.3,1.2l-1.2-0.8l2.3-1.1L225.4,20.4z M223.7,19.2l-2.3,1.1l-1.1-0.7l2.3-1.1L223.7,19.2z M236.5,20.2
		l-0.4,0.3c-0.1,0.1-0.1,0.3,0,0.4c0.1,0.1,0.3,0.1,0.4,0l0.6-0.5l1,0.4l-0.8,2.1l-2.2-0.8l0.3-0.2c0.1-0.1,0.1-0.3,0-0.4
		c-0.1-0.1-0.3-0.1-0.4,0l0,0l0,0l-0.5,0.4l0,0l-1.2-0.4l2-1.6L236.5,20.2z M234.6,19.5l-2,1.6l-1.3-0.5l2-1.6L234.6,19.5z
		 M232.7,18.8l-2,1.6l-0.5-0.2l-0.8-0.3l2-1.6L232.7,18.8z M230.8,18.1l-2,1.6l-1.3-0.5l2-1.6L230.8,18.1z M228.1,17.1l0.8,0.3
		l-2,1.6l-1.2-0.5l2-1.6L228.1,17.1z M227,16.7l-2,1.6l-1.3-0.5l2-1.6L227,16.7z M224.9,15.9l0.2,0.1l-2,1.6l-1.2-0.5l2-1.6
		L224.9,15.9z M220.2,16.5l0.8-2l2.2,0.8l-2,1.6L220.2,16.5z M218.9,18.7L220,17l0.5,0.2l1.5,1l-2.3,1.2L218.9,18.7z M228.1,36.7
		H228l0,0l0,0l-13.9-9v-0.1l0,0l5.2-8l14,9.1L228.1,36.7z M234.2,28.7l-2-1.3l2.3-1.1l0.9,0.6L234.2,28.7z"/>
</g>
<g class="st1">
	<path d="M18.9,76.2C19,76,19,75.8,19,75.7c-0.1-0.2-0.2-0.3-0.4-0.4L17.9,75c-0.8-0.4-1.6-0.8-2.4-1.2l-0.1-0.1
		c0.5-0.2,1-0.4,1.5-0.6c0.7-0.4,1.2-1,1.4-1.7c0.4-1.3-0.4-2.7-1.7-3.1l0,0c-0.5-0.1-0.9-0.1-1.4,0c0.2-0.5,0.3-1.1,0.1-1.6
		c-0.3-1.3-1.6-2-2.8-1.8c-0.5,0.1-1,0.4-1.4,0.8c-0.1-0.5-0.3-1.1-0.7-1.5c-0.9-0.9-2.3-1-3.3-0.3C7,64,6.9,64.2,7,64.3
		c0.1,0.1,0.3,0.2,0.4,0.1l0,0C7.8,64.1,8.2,64,8.7,64s0.9,0.2,1.3,0.6c0.4,0.5,0.6,1.1,0.6,1.7c-0.3,0.5-0.6,1-0.8,1.6H9.5
		c-0.5,0.1-0.8,0.4-1,0.9c-0.3,0-0.6,0.1-0.9,0.3c-0.3-0.3-0.6-0.6-1-0.9V68c-0.2-0.8-0.2-1.7,0-2.6c0.1-0.2,0-0.3-0.2-0.4l0,0l0,0
		c-0.2-0.1-0.3,0-0.4,0.2l0,0l0,0c-0.2,0.8-0.2,1.6-0.1,2.4l-0.1-0.1c-0.7-0.6-1.4-1.2-2.1-1.7l-0.6-0.5c-0.3-0.3-0.7-0.3-0.9,0l0,0
		l-0.1,0.1c-1.2,1.6-1.9,3.5-1.9,5.5C0.3,72,0.7,73.1,1.5,74c0.8,1,1.9,1.7,3.1,2c0.8,0.1,1.5-0.1,2.2-0.5l0,0
		c0.2-0.1,0.4-0.1,0.6,0s0.3,0.3,0.3,0.6l0,0c-0.2,1.4,0.5,2.7,1.7,3.4c0.6,0.4,1.2,0.6,1.8,0.8c1.1,0.3,2.3,0.3,3.4-0.1
		c0.9-0.4,1.8-0.9,2.5-1.6C17.8,77.8,18.4,77,18.9,76.2L18.9,76.2z M14.8,69c0.6-0.3,1.2-0.3,1.8-0.1c0.4,0.2,0.8,0.5,1,0.9
		s0.3,0.9,0.1,1.4c-0.3,1.1-1.7,1.8-3,2h-0.2c-0.4-0.2-0.8-0.4-1.2-0.5c0.1-0.3,0-0.6-0.1-0.9c0.3-0.3,0.5-0.8,0.4-1.3v-0.1
		C14,69.9,14.4,69.5,14.8,69z M12.5,65.4c1-0.1,1.9,0.5,2.2,1.4c0.3,1-0.5,2.2-1.4,3.1c-0.2-0.2-0.3-0.3-0.6-0.4
		c0-0.8-0.6-1.4-1.3-1.4l0,0l0,0c-0.2,0-0.5,0.1-0.7,0.1c-0.2-0.2-0.3-0.3-0.5-0.3C10.6,66.7,11.4,65.6,12.5,65.4L12.5,65.4z
		 M8.7,69.3c0.1,0,0.2,0,0.2,0C9,69.3,9,69.2,9,69.1c0-0.3,0.3-0.6,0.6-0.7c0.2,0,0.4,0,0.6,0.1c0.1,0.1,0.2,0.2,0.2,0.3
		s0.1,0.1,0.2,0.1c0.1,0,0.2,0,0.2-0.1c0.4-0.3,0.9-0.2,1.1,0.2l0,0l0,0c0.1,0.2,0.2,0.4,0.1,0.7c0,0.1,0,0.2,0,0.2
		c0,0.1,0.1,0.1,0.2,0.1c0.4,0.1,0.7,0.5,0.7,0.9l0,0l0,0c0,0.2-0.2,0.4-0.4,0.6c-0.1,0-0.1,0.1-0.1,0.2c0,0.1,0,0.2,0.1,0.2
		c0.1,0.2,0.2,0.4,0.1,0.6c-0.3-0.1-0.6-0.1-0.9-0.1c-0.3,0-0.7,0-1,0c-0.9,0.1-1.7-0.5-2-1.3c-0.1-0.3-0.2-0.7-0.4-1
		c-0.1-0.3-0.3-0.5-0.5-0.8C8.2,69.3,8.4,69.2,8.7,69.3L8.7,69.3z M14.5,79.6c-1,0.4-2,0.4-3,0.1c-1.1-0.3-2.1-0.9-2.8-1.8
		c-0.3-0.6-0.4-1.2-0.4-1.9l0,0c0-0.7-0.5-1.2-1.1-1.3c-0.2,0-0.4,0-0.6,0.1l0,0c-0.6,0.3-1.2,0.5-1.8,0.4c-1.1-0.3-2-0.9-2.7-1.8
		c-0.7-0.8-1.1-1.7-1.2-2.8c0-1.8,0.6-3.6,1.8-5.1c0,0,0,0,0.1,0c0,0,0,0,0.1,0L3.5,66c0.7,0.6,1.4,1.2,2.1,1.8
		c1,0.7,1.8,1.5,2.5,2.5c0.1,0.3,0.2,0.6,0.3,0.9c0.4,1.1,1.5,1.8,2.6,1.7h1c0.5,0,1.2,0.1,3.3,1.2c0.8,0.4,1.7,0.9,2.5,1.2l0.7,0.3
		l0,0 M18.5,75.9c-0.9,1.6-2.3,3-4,3.7L18.5,75.9z"/>
	<path d="M6.2,70.9c-0.4-0.7-1-1.3-1.6-1.8c-0.3-0.2-0.5-0.4-0.8-0.6c-0.3-0.2-0.6-0.2-0.8,0.1l0,0l0,0c-0.4,0.6-0.7,1.3-0.6,2
		c0,0.7,0.3,1.3,0.7,1.8C3.3,72.7,3.6,73,4,73.2c0.5,0.3,1.1,0.6,1.8,0.6H6c0.3,0,0.6-0.2,0.6-0.5C6.7,72.5,6.6,71.7,6.2,70.9
		L6.2,70.9z M6.1,73.2H5.8c-0.9-0.1-1.7-0.5-2.3-1.2C3.2,71.6,3,71.1,3,70.6C3,70,3.2,69.5,3.5,69l0,0c0.2,0.2,0.5,0.4,0.7,0.6
		C5.1,70.3,6.4,71.7,6.1,73.2L6.1,73.2L6.1,73.2z"/>
	<path d="M15.7,76.3c0-0.2-0.1-0.3-0.3-0.4c-0.3-0.1-0.5-0.3-0.9-0.4c-0.7-0.4-1.5-0.6-2.3-0.7c-0.8-0.1-1.7,0.1-2.4,0.5
		c-0.2,0.2-0.3,0.5-0.2,0.8c0.1,0.2,0.1,0.3,0.1,0.3c0.3,0.5,0.8,1,1.3,1.4c0.3,0.2,0.7,0.4,1.1,0.5c0.4,0.1,0.9,0.1,1.3,0.1
		c0.2,0,0.3-0.2,0.3-0.3c0-0.2-0.2-0.3-0.3-0.3c-0.4,0-0.7,0-1.1-0.1c-0.8-0.2-1.6-0.8-2-1.6c0-0.1-0.1-0.1-0.1-0.2l0,0
		c1.3-0.9,3.2-0.3,4.1,0.2l0.8,0.4l0,0c-0.2,0.3-0.4,0.6-0.6,0.8c-0.1,0.1-0.1,0.3-0.1,0.4c0.1,0.1,0.3,0.1,0.4,0.1l0,0l0,0
		c0.3-0.3,0.6-0.6,0.8-0.9C15.7,76.6,15.7,76.5,15.7,76.3L15.7,76.3z"/>
</g>
<g class="st1">
	<path d="M103.1,77.5l-3.7-2.4C99.3,75,99.1,75,99,75.2c-0.1,0.1-0.1,0.3,0.1,0.4l0,0l3.7,2.4c0.1,0,0.1,0.1,0.1,0.2
		c0,0.1,0,0.1-0.1,0.2c-0.6,0.8-1.3,1.4-2.1,1.9c-0.5,0.2-1,0.4-1.5,0.4c-1.4,0-2.7-0.8-3.4-2c-0.3-0.6-0.5-1.2-0.5-1.9
		c0.1-0.9,0.4-1.9,0.8-2.7c0.1-0.1,0.2-0.2,0.3-0.1l0,0l0,0l1.4,0.9c0.1,0.1,0.3,0.1,0.4-0.1c0.1-0.1,0.1-0.3-0.1-0.4l0,0l-1.4-0.9
		c-0.4-0.2-0.9-0.1-1.1,0.2l0,0l-0.1,0.1c-0.5,0.9-0.8,1.9-0.9,2.9c0,1.4,0.6,2.7,1.7,3.5c1.1,0.9,2.6,1.2,3.9,0.8
		c0.2-0.1,0.4-0.1,0.5-0.2c0.9-0.5,1.7-1.2,2.3-2c0.2-0.2,0.2-0.4,0.2-0.7C103.4,77.8,103.2,77.6,103.1,77.5L103.1,77.5z"/>
	<path d="M104.2,84c-0.1,0-0.2-0.1-0.3-0.2c0-0.1,0-0.2,0-0.2c0.3-0.2,0.6-0.3,0.9-0.3h0.2c0.2,0,0.5-0.1,0.7-0.1
		c2.3-0.6,3.4-2,3.1-3.8c-0.1-0.8-0.6-1.5-1.2-1.9c-0.2-0.2-0.4-0.3-0.7-0.4c0.1-0.1,0.2-0.2,0.3-0.2c0.4-0.3,0.4-0.8,0.1-1.2l0,0
		l0,0c-0.1-0.1-0.1-0.1-0.2-0.2l-9.9-6.4c-0.4-0.3-0.9-0.1-1.2,0.3l0,0l0,0c-0.1,0.1-0.1,0.2-0.1,0.3c-0.3,0.9-0.6,1.8-1,2.6
		l-0.1,0.2c-0.1,0.2-0.2,0.4-0.3,0.7c-0.6,1.2-1,2.6-1.2,3.9c0,0.9,0.1,1.7,0.5,2.5h-0.3c-0.7,0-1.3,0.3-1.7,0.8l-1.5-1
		c-0.3-0.2-0.7-0.2-0.9,0.1l0,0c0,0.1-0.1,0.1-0.1,0.2c0,0.1-0.1,0.2-0.1,0.3c-0.2,0.8,0.1,1.5,0.8,1.9l6.5,4.1
		c0.1,0.1,0.3,0.1,0.4-0.1l0,0c0.1-0.1,0.1-0.3-0.1-0.4l0,0l0,0l-6.4-4.1c-0.4-0.3-0.6-0.8-0.5-1.3c0-0.1,0-0.2,0.1-0.2l0,0
		l10.3,6.6l0,0 M100.3,86.3l-0.2,0.2c-0.4,0.3-0.9,0.3-1.4,0.1L97.8,86c-0.1-0.1-0.3-0.1-0.4,0.1l0,0c-0.1,0.1-0.1,0.3,0.1,0.4l0,0
		l0.9,0.6c0.6,0.4,1.5,0.4,2.1-0.1c0.1-0.1,0.2-0.1,0.2-0.2c0.1-0.1,0.2-0.3,0.2-0.5s-0.1-0.4-0.3-0.5l-1.4-1c0.3-0.6,0.3-1.3,0-1.9
		c0-0.1-0.1-0.2-0.1-0.3c0.6,0,1.1,0,1.7-0.2c0.3-0.1,0.6-0.2,0.8-0.3c1.2-0.7,2.2-1.6,3.1-2.7l0.5-0.6l0.2-0.3h0.1
		c0.3,0,0.7,0.1,0.9,0.3c0.3,0.2,0.4,0.5,0.5,0.9c0.1,0.7-0.2,1.1-1.6,1.5c-0.2,0-0.4,0.1-0.5,0.1c-0.8,0-1.6,0.4-2.2,1
		c-0.5,0.6-0.6,1.4-0.4,2.2c0.2,0.4,0.5,0.8,0.9,1.1l0.2,0.1c0.2,0.1,0.4,0.2,0.6,0.2c0.6,0,1-0.5,1-1c0-0.4-0.2-0.7-0.5-0.9
		L100.3,86.3z M98.6,84.4l-6.2-4c0.5-0.5,1.2-0.6,1.9-0.4c0.4,0.5,0.8,1,1.4,1.4c0.8,0.6,1.7,1,2.6,1.1C98.7,83,98.8,83.7,98.6,84.4
		z M106.8,76.2c-0.7,0.6-1.4,1.3-2,2c0,0-0.5,0.5-0.6,0.7c-0.8,1-1.8,1.9-2.9,2.6c-0.2,0.1-0.5,0.2-0.7,0.3c-1.6,0.4-3.3,0-4.6-1
		c-0.6-0.5-1.2-1.1-1.5-1.8c-0.4-0.7-0.5-1.5-0.5-2.3c0.1-1.3,0.5-2.5,1.1-3.6l0.3-0.7l0.1-0.2c0.4-0.9,0.7-1.8,1-2.7
		c0-0.1,0.1-0.2,0.2-0.2s0.2,0,0.3,0l9.9,6.4c0.1,0,0.1,0.1,0.1,0.2C106.9,76,106.9,76.1,106.8,76.2L106.8,76.2z M104.1,85.2
		c-0.1,0-0.2,0-0.3,0c-0.2,0-0.3-0.1-0.5-0.2c-0.3-0.2-0.6-0.5-0.8-0.9c-0.2-0.6-0.1-1.2,0.3-1.6c0.5-0.5,1.2-0.8,1.8-0.8
		c0.2,0,0.4,0,0.6-0.1c0.5-0.1,1-0.3,1.4-0.6c0.5-0.4,0.7-0.9,0.6-1.5c0-0.5-0.3-1-0.7-1.3l-0.2-0.1c-0.2-0.1-0.4-0.2-0.7-0.3
		c0.2-0.2,0.4-0.4,0.6-0.6c0.3,0.1,0.5,0.3,0.8,0.4c0.5,0.4,0.9,0.9,1,1.6c0.4,2.1-1.8,2.9-2.7,3.1c-0.2,0.1-0.4,0.1-0.7,0.1h-0.2
		c-0.5,0-0.9,0.2-1.2,0.5c-0.2,0.2-0.3,0.5-0.2,0.8c0.1,0.3,0.4,0.5,0.7,0.6c0.2,0,0.3,0.3,0.3,0.5l0,0l0,0
		C104.3,85,104.2,85.1,104.1,85.2L104.1,85.2z"/>
	<path d="M102.7,68.5c0.1,0.1,0.3,0.2,0.4,0.1c0.1-0.1,0.2-0.1,0.3,0c0.1,0.1,0.2,0.2,0.2,0.3c0,0.3-0.6,0.6-1,0.8
		c-0.2,0.1-0.3,0.2-0.5,0.2c-0.3,0.1-0.4,0.4-0.6,0.6c-0.1,0.3,0,0.7,0.3,0.9l0,0c0.2,0.1,0.3,0,0.4-0.2c0-0.1,0-0.3-0.1-0.3
		c-0.1-0.1-0.1-0.1-0.1-0.2c0.1-0.1,0.2-0.3,0.3-0.3l0.4-0.2c0.6-0.3,1.4-0.6,1.4-1.4c0-0.4-0.3-0.7-0.6-0.8
		c-0.3-0.1-0.6-0.1-0.9,0.1C102.6,68.1,102.6,68.3,102.7,68.5C102.6,68.4,102.6,68.4,102.7,68.5L102.7,68.5L102.7,68.5z"/>
	<path d="M104.7,68c0.2,0,0.4,0.1,0.5,0.3c0.2,0.2,0.2,0.5,0.2,0.7c-0.1,0.4-0.4,0.7-0.7,0.8l-0.7,0.4c-0.3,0.1-0.5,0.3-0.7,0.6
		c-0.1,0.2,0,0.4,0.1,0.6l0.1,0.1c0.1,0.1,0.3,0,0.4-0.1c0-0.1,0-0.2,0-0.3l0,0V71c0-0.1,0.3-0.2,0.3-0.2l0.3-0.1l0.4-0.2
		c0.5-0.2,0.9-0.7,1-1.2c0.1-0.4,0-0.9-0.3-1.2c-0.2-0.3-0.6-0.5-1-0.5c-0.2,0-0.3,0.1-0.3,0.3C104.4,67.9,104.6,68,104.7,68
		L104.7,68z"/>
</g>
<g class="st1">
	<path d="M399,11l-0.3-0.2l0.6-0.9c0.3-0.4,0.2-1.1-0.2-1.4l0,0l0,0L399,8.4l-0.5-0.3c0.1-0.1,0.2-0.2,0.3-0.3
		c0.3-0.4,0.1-1-0.3-1.3L397.8,6c0.2-1.6-0.3-3.2-1.3-4.4v0h-0.8c0.1,0.1,0.2,0.3,0.4,0.4c0.9,1.1,1.3,2.6,1.1,4
		c0,0.2,0,0.4,0.2,0.5l0.8,0.5c0.2,0.1,0.2,0.3,0.2,0.4c-0.1,0.2-0.3,0.2-0.5,0.2h-0.1L397,7.1c-0.4-0.3-0.6-0.7-0.5-1.2
		c0.2-1.2-0.2-2.5-1-3.5c-0.2-0.3-0.5-0.5-0.8-0.8h-1.1c0.6,0.3,1.1,0.7,1.5,1.1c0.7,0.8,1,1.9,0.8,3c0,0.2,0,0.4,0,0.6L389,1.9
		c0.2,0,0.4-0.1,0.5-0.2h-0.1c-0.2,0-0.5,0-0.7,0h-1.3l11.2,7.2c0.2,0.1,0.3,0.4,0.1,0.6l0,0l0,0l-2,3.2l0,0l-4-1.3
		c-0.2,0-0.3,0.1-0.3,0.3c0,0.1,0,0.2,0.1,0.3l3.8,1.3l-4.2,6.4c-0.1,0.2-0.4,0.3-0.6,0.1l-13.1-8.5c-0.2-0.1-0.3-0.4-0.1-0.6l0,0
		l4.2-6.4l4.8,5.2l-0.7,1.1c-0.3,0.4-0.1,0.9,0.3,1.2l1,0.6c0.4,0.3,0.9,0.1,1.2-0.3l0.8-1.2l1.6,0.5c0.2,0.1,0.3,0,0.4-0.2l0,0l0,0
		c0.1-0.2,0-0.3-0.2-0.4l0,0l0,0l-1.7-0.3c0.1-0.3-0.1-0.7-0.4-0.9l-1-0.7c-0.3-0.2-0.7-0.2-1,0l-4.8-5.3l1.3-2h-0.7l-1.8,2.8
		l-0.3-0.2c-0.1-0.1-0.1-0.2-0.1-0.3l0,0l1.5-2.3H382l-1.3,2c-0.2,0.4-0.1,0.9,0.2,1.1l0.3,0.2l-3.5,5.4c-0.3,0.4-0.2,1.1,0.2,1.4
		l0,0l0.1,0.1l0,0l13.1,8.5c0.5,0.3,1.1,0.2,1.5-0.3l3.5-5.4l0.3,0.2c0.4,0.2,0.9,0.1,1.1-0.2l1.6-2.4C399.5,11.7,399.4,11.2,399,11
		L399,11z M388,9.5c0.1-0.1,0.2-0.2,0.4-0.1l1,0.7c0.1,0.1,0.1,0.2,0.1,0.4l-0.9,1.4c-0.1,0.1-0.2,0.2-0.4,0.1l-1-0.6
		c-0.1-0.1-0.2-0.2-0.1-0.4L388,9.5z M398.8,11.7l-1.6,2.4c-0.1,0.1-0.2,0.1-0.3,0.1l0,0l0,0l-0.3-0.2l1.8-2.8l0.3,0.2
		C398.8,11.5,398.8,11.7,398.8,11.7L398.8,11.7z"/>
</g>
<g class="st1">
	<path d="M290.5,106.8c0-0.2-0.1-0.3-0.3-0.3l0,0l0,0c-3-0.5-6-1.6-8.6-3.2l-1.1-0.7c-2.5-1.7-4.7-4-6.4-6.5
		c-0.1-0.1-0.3-0.2-0.4-0.1l0,0l0,0c-0.1,0.1-0.2,0.2-0.1,0.4l0,0l0,0c0.2,0.3,0.4,0.6,0.6,0.9l-3.4,5.3c-0.1,0.2-0.1,0.4,0,0.6
		c0.1,0.2,0.3,0.3,0.5,0.3h2l0.4,0.8l0,0l0.5,1c0,0.1,0.1,0.2,0.2,0.2c0.1,0.1,0.2,0.1,0.3,0.1c0.2,0,0.4-0.1,0.5-0.3l2.7-4.2
		c0.3,0.3,0.6,0.6,1,0.9l-0.9,1.4c-0.1,0.1-0.1,0.3,0.1,0.4l0,0c0.1,0.1,0.3,0.1,0.4-0.1l0,0l0,0l0.9-1.3l0.6,0.5l-3.1,4.8H276
		l1.8-2.8c0.1-0.1,0.1-0.3-0.1-0.4l0,0c-0.1-0.1-0.3,0-0.4,0.1l-1.8,2.8c-0.1,0.2-0.1,0.4,0,0.6c0.1,0.2,0.3,0.3,0.5,0.3h2l0.8,1.8
		c0,0.1,0.1,0.2,0.2,0.2c0.1,0.1,0.2,0.1,0.3,0.1c0.2,0,0.4-0.1,0.5-0.3l3.4-5.3c0.4,0.2,0.8,0.4,1.2,0.6l-2.7,4.1
		c-0.1,0.2-0.1,0.4,0,0.6c0,0.1,0.1,0.2,0.2,0.2c0.1,0.1,0.2,0.1,0.3,0.1h1.9l0.8,1.8c0.1,0.3,0.5,0.4,0.8,0.3
		c0.1,0,0.2-0.1,0.2-0.2l3.4-5.3c0.3,0.1,0.7,0.1,1,0.2C290.4,107,290.5,106.8,290.5,106.8C290.5,106.7,290.5,106.7,290.5,106.8
		L290.5,106.8L290.5,106.8z M272.2,102.8h-0.9l3.3-5.1l0.5,0.6L272.2,102.8z M274.6,104.9l-0.4-0.8l2.5-3.9l0.6,0.5L274.6,104.9z
		 M276.1,99.5c0.1,0.1,0.1,0.1,0.2,0.2l-2.4,3.7l-0.2-0.4c0-0.1-0.1-0.2-0.3-0.2h-0.5l2.6-4c0.1,0.1,0.2,0.2,0.3,0.3L276.1,99.5
		L276.1,99.5z M278.4,108.2l-0.2-0.4c0-0.1-0.1-0.2-0.3-0.2h-0.5l2.9-4.4l1,0.6L278.4,108.2L278.4,108.2z M279.1,109.6l-0.4-0.8
		l3.1-4.8l0.6,0.3h0.1L279.1,109.6z M282.9,109.7H282l2.7-4.2l0.7,0.3L282.9,109.7z M284.6,110.3l-0.2-0.4c-0.1-0.1-0.2-0.2-0.3-0.2
		h-0.5l2.4-3.7c0.1,0,0.2,0,0.3,0.1l0.6,0.2l0.2,0.1h0.1L284.6,110.3z M285.3,111.8l-0.4-0.8l2.9-4.4h0.1l0.3,0.1l0.4,0.1
		L285.3,111.8z"/>
	<path d="M285.5,114.6c0-0.2-0.1-0.3-0.3-0.3l0,0l0,0c-3-0.5-6-1.6-8.6-3.2l-1.1-0.7c-2.5-1.7-4.7-4-6.4-6.5
		c-0.1-0.1-0.3-0.2-0.4-0.1l0,0l0,0c-0.1,0.1-0.2,0.2-0.1,0.4l0,0l0,0c0,0,0.2,0.3,0.6,0.9l-3.4,5.3c-0.1,0.2-0.1,0.4,0,0.6
		c0.1,0.2,0.3,0.3,0.5,0.3h2l0.4,0.8l0,0l0.5,1c0,0.1,0.1,0.2,0.2,0.2c0.1,0.1,0.2,0.1,0.3,0.1c0.2,0,0.4-0.1,0.5-0.3l2.7-4.2
		c0.3,0.3,0.6,0.6,1,0.9l-3.4,5.3c-0.1,0.2-0.1,0.4,0,0.6c0.1,0.2,0.3,0.3,0.5,0.3h2l0.8,1.8c0,0.1,0.1,0.2,0.2,0.2
		c0.1,0.1,0.2,0.1,0.3,0.1c0.2,0,0.4-0.1,0.5-0.3l3.5-5.3c0.4,0.2,0.8,0.4,1.2,0.6l-2.7,4.1c-0.1,0.2-0.1,0.4,0,0.6
		c0.1,0.1,0.1,0.2,0.2,0.2c0.1,0.1,0.2,0.1,0.3,0.1h1.9l0.4,0.8l0,0l0.5,1c0.1,0.3,0.5,0.4,0.7,0.3l0,0c0.1,0,0.2-0.1,0.3-0.2
		l3.4-5.1c0.3,0.1,0.7,0.1,1,0.2C285.3,114.9,285.4,114.8,285.5,114.6C285.5,114.7,285.5,114.7,285.5,114.6L285.5,114.6L285.5,114.6
		z M267.2,110.6h-0.9l3.3-5.1c0.1,0.1,0.5,0.6,0.5,0.6L267.2,110.6z M269.5,112.7l-0.4-0.8l2.5-3.9l0.6,0.5L269.5,112.7z
		 M270.7,106.9l0.2,0.2l0.4,0.5l-2.4,3.7l-0.2-0.4c0-0.1-0.1-0.1-0.1-0.1H268l2.6-4C270.5,106.7,270.6,106.8,270.7,106.9
		L270.7,106.9z M271.7,115.4h-0.9l3.4-5.2l0.1,0.1l0.1,0.1l0.4,0.3l0,0L271.7,115.4L271.7,115.4z M273.3,116l-0.2-0.4l-0.1-0.1
		c0,0-0.1-0.1-0.2-0.1h-0.5l2.9-4.4l1,0.6L273.3,116L273.3,116z M274,117.5l-0.4-0.8l3.1-4.8l0.6,0.3l0.1,0.1L274,117.5z
		 M279.5,118.2l-0.2-0.4c0-0.1-0.1-0.2-0.3-0.2h-0.5l1-1.6c0.1-0.1,0.1-0.3-0.1-0.4l0,0l0,0c-0.1-0.1-0.3-0.1-0.4,0.1l-1.2,1.9h-0.9
		l2.7-4.2l0.7,0.3l-0.6,0.9c-0.1,0.1-0.1,0.3,0.1,0.4c0.1,0.1,0.3,0.1,0.4-0.1l0,0l0.6-1l0,0l0.5,0.2l0.6,0.2L279.5,118.2
		L279.5,118.2z M280.2,119.6l-0.4-0.8l2.9-4.4h0.1l0.5,0.1h0.2L280.2,119.6z"/>
</g>
<g class="st1">
	<path d="M64.6,132.9c-1.2-5.4-6.5-8.8-11.9-7.6c-5.4,1.2-8.8,6.5-7.6,11.9c0.8,3.6,3.4,6.4,6.9,7.4c0.1,0,0.3,0,0.4-0.2l0,0
		c0.1-0.2,0-0.3-0.2-0.4l0,0l0,0c-5-1.5-7.9-6.7-6.4-11.7c1.5-5,6.7-7.9,11.7-6.4s7.9,6.7,6.4,11.7c-1.3,4.5-5.7,7.3-10.4,6.7
		c-0.2,0-0.3,0.1-0.3,0.2l0,0c0,0.2,0.1,0.3,0.2,0.3l0,0l0,0c5.5,0.8,10.5-3,11.3-8.5C64.9,135.3,64.8,134.1,64.6,132.9L64.6,132.9z
		"/>
	<path d="M52.8,126.7c-4.6,1.1-7.4,5.7-6.3,10.3s5.7,7.4,10.3,6.3s7.4-5.7,6.3-10.3c-1-4-4.7-6.8-8.8-6.5c-0.2,0-0.3,0.2-0.3,0.3
		c0,0.2,0.1,0.3,0.3,0.3l0,0l0,0c1.7-0.1,3.5,0.3,4.9,1.2c3.7,2.3,4.8,7.2,2.4,10.9c-2.3,3.7-7.2,4.8-10.9,2.4
		c-3.7-2.3-4.8-7.2-2.4-10.9c1.1-1.7,2.8-2.9,4.7-3.4c0.1,0,0.2-0.2,0.2-0.3l0,0l0,0C53.2,126.8,53,126.7,52.8,126.7
		C52.9,126.7,52.9,126.7,52.8,126.7L52.8,126.7L52.8,126.7z"/>
	<path d="M57.9,130.2c0.1,0.1,0.3,0.1,0.4-0.1l0.5-0.9c0.1-0.2,0-0.3-0.1-0.4l0,0l0,0c-0.1-0.1-0.3,0-0.3,0.1l-0.5,0.9
		C57.7,130,57.7,130.1,57.9,130.2z"/>
	<path d="M51.3,139.8l-0.5,0.9c-0.1,0.1-0.1,0.3,0.1,0.4l0,0l0,0c0.1,0.1,0.3,0.1,0.4-0.1l0.5-0.9c0.1-0.1,0.1-0.3-0.1-0.4
		C51.6,139.6,51.4,139.6,51.3,139.8C51.3,139.7,51.3,139.7,51.3,139.8L51.3,139.8z"/>
	<path d="M49.2,130.9c-0.1-0.1-0.3-0.1-0.4,0.1l0,0c-0.1,0.1,0,0.3,0.1,0.4l0.8,0.5c0.1,0.1,0.3,0.1,0.4-0.1
		c0.1-0.1,0.1-0.3-0.1-0.4L49.2,130.9z"/>
	<path d="M60.5,139c0.1,0.1,0.3,0.1,0.4-0.1l0,0l0,0c0.1-0.1,0.1-0.3-0.1-0.4L60,138c-0.2-0.1-0.3,0-0.4,0.1l0,0l0,0
		c-0.1,0.1,0,0.3,0.1,0.4L60.5,139z"/>
	<path d="M55.1,133.9c-0.6-0.2-1.2,0.1-1.4,0.7s0.1,1.2,0.7,1.4c0.4,0.1,0.8,0,1.1-0.2l1.5,1c0.1,0.1,0.3,0.1,0.4-0.1
		c0.1-0.1,0.1-0.3-0.1-0.4l0,0l0,0l-1.5-1c0.1-0.3,0-0.7-0.2-1l1.7-2.7c0.1-0.1,0-0.3-0.1-0.4s-0.3,0-0.4,0.1L55.1,133.9z
		 M55.1,134.5c0.2,0.1,0.3,0.5,0.2,0.7s-0.5,0.3-0.7,0.2c-0.2-0.1-0.3-0.5-0.2-0.7l0,0l0,0C54.6,134.4,54.9,134.4,55.1,134.5z"/>
</g>
<g class="st1">
	<path d="M377.5,136.1l6.6-10.1c0.9-1.4,0.6-3.2-0.8-4.1l1.1-1.8c0.2-0.3,0.1-0.7-0.2-0.9l0,0l-1.4-0.9c-0.3-0.2-0.7-0.1-0.9,0.2
		l0,0l-1.1,1.8c-1.4-0.8-3.2-0.4-4.1,1l-1.4,2.2c-0.1,0.1-0.1,0.3,0.1,0.4c0.1,0.1,0.3,0.1,0.4-0.1l1.3-2l6.3,4.1l-6.4,9.8l-6.3-4.1
		l4.4-6.7c0.1-0.1,0.1-0.3-0.1-0.4c-0.1-0.1-0.3-0.1-0.4,0.1l-4.4,6.7c-0.3-0.1-0.7,0-0.9,0.3l-0.4,0.6c-0.2,0.3-0.1,0.8,0.2,1
		l4.5,2.9c0.1,0.1,0.3,0.1,0.4-0.1l0,0c0.1-0.1,0.1-0.3-0.1-0.4l0,0l0,0l-4.5-2.9c0-0.1,0-0.1,0-0.2l0,0l0,0l0.4-0.6
		c0.1-0.1,0.1-0.1,0.2,0l7.1,4.6c0.1,0.1,0.1,0.2,0,0.2l-0.4,0.6c-0.1,0.1-0.1,0.1-0.2,0l0,0l0,0l-1.4-0.9c-0.1-0.1-0.3-0.1-0.4,0.1
		l0,0c-0.1,0.1-0.1,0.3,0.1,0.4l0,0l0,0l1.4,0.9c0.3,0.2,0.8,0.1,1-0.2l0.4-0.6C377.9,136.7,377.8,136.3,377.5,136.1L377.5,136.1z
		 M382.4,118.9h0.1l0,0l1.4,0.9v0.1l-1.1,1.8l-1.5-1L382.4,118.9L382.4,118.9z M377.4,121.4c0.8-1,2.2-1.2,3.2-0.5l2.2,1.4
		c1,0.7,1.4,2,0.9,3.1L377.4,121.4z"/>
	<path d="M382.8,119.9c-0.1-0.1-0.3-0.1-0.4,0.1l-0.1,0.2c-0.1,0.1-0.1,0.3,0.1,0.4c0.1,0.1,0.3,0.1,0.4-0.1l0,0l0.1-0.2
		C383,120.2,383,120,382.8,119.9L382.8,119.9L382.8,119.9L382.8,119.9z"/>
	<path d="M388.1,122.3l-0.7-0.4c-0.1-0.1-0.3-0.1-0.4,0.1c-0.1,0.1-0.1,0.3,0.1,0.4l0.7,0.4c0.1,0.1,0.3,0.1,0.4-0.1l0,0l0,0
		C388.3,122.6,388.3,122.5,388.1,122.3L388.1,122.3z"/>
	<path d="M385.5,121.4l0.6,0.4c0.1,0.1,0.3,0.1,0.4-0.1l0,0c0.1-0.1,0-0.3-0.1-0.4l-0.7-0.4c-0.1-0.1-0.3,0-0.4,0.1
		C385.3,121.1,385.3,121.3,385.5,121.4L385.5,121.4z"/>
	<path d="M389.7,123.4l-0.6-0.4c-0.1-0.1-0.3-0.1-0.4,0.1c-0.1,0.1-0.1,0.3,0.1,0.4l0,0l0,0l0.6,0.4c0.1,0.1,0.3,0.1,0.4-0.1l0,0
		C389.9,123.7,389.9,123.5,389.7,123.4L389.7,123.4L389.7,123.4L389.7,123.4z"/>
	<path d="M385.6,122.7l-0.5-0.6c-0.1-0.1-0.3-0.2-0.4-0.1s-0.2,0.3-0.1,0.4l0.5,0.6l0.1,0.1c0.1,0.1,0.3,0.1,0.4-0.1
		C385.7,122.9,385.7,122.8,385.6,122.7L385.6,122.7z"/>
	<path d="M387.9,125.8l-0.5-0.6c-0.1-0.1-0.3-0.1-0.4-0.1c-0.1,0.1-0.2,0.3-0.1,0.4l0,0l0,0l0.5,0.6c0.1,0.1,0.3,0.2,0.4,0.1
		C388,126.1,388,125.9,387.9,125.8L387.9,125.8z"/>
	<path d="M386.8,124.2l-0.5-0.6c-0.1-0.1-0.3-0.2-0.4-0.1s-0.2,0.3-0.1,0.4l0,0l0.5,0.6c0,0,0,0.1,0.1,0.1c0.1,0.1,0.2,0.1,0.3,0
		C386.8,124.6,386.9,124.4,386.8,124.2C386.8,124.3,386.8,124.3,386.8,124.2L386.8,124.2L386.8,124.2z"/>
</g>
<g class="st1">
	<path d="M168.1,102c0.1,0.1,0.3,0.1,0.4-0.1l0,0l0,0l0.8-1.2c0.2-0.3,0.1-0.6-0.2-0.8l-11.8-7.6c0.2-0.5,0-1.1-0.5-1.3
		c-0.4-0.2-0.9,0-1.2,0.3l-7.3,11.2c-0.1,0.1-0.1,0.3,0.1,0.4l0,0l0,0c0.1,0.1,0.3,0.1,0.4-0.1l7.3-11.2c0.1-0.2,0.4-0.2,0.6-0.1
		c0.2,0.1,0.2,0.4,0.1,0.6l-0.1,0.2l-6.3,9.7l-3.3,5.2c-0.1,0.2-0.4,0.2-0.6,0.1l0,0c-0.2-0.1-0.2-0.4-0.1-0.6l1.8-2.7
		c0.1-0.1,0.1-0.3-0.1-0.4c-0.1-0.1-0.3-0.1-0.4,0.1l0,0l0,0l-1.8,2.7c-0.4,0.4-0.3,1.1,0.1,1.4c0.4,0.4,1.1,0.3,1.4-0.1
		c0,0,0,0,0.1-0.1l0.1-0.1l3.2-5l11.8,7.6c0.2,0.2,0.6,0.1,0.7-0.1l0,0l0,0l4.5-6.9c0.1-0.1,0.1-0.3-0.1-0.4l0,0l0,0
		c-0.1-0.1-0.3-0.1-0.4,0.1l-1.3,2l-11.7-7.6l2.8-4.4l11.7,7.6l-0.8,1.2C168,101.7,168,101.9,168.1,102L168.1,102z M165.6,105.2
		l-2.8,4.4l-11.7-7.6l2.8-4.4L165.6,105.2z"/>
</g>
<g class="st1">
	<path d="M180.8,21.3c0.6-0.4,1-1.1,1.1-1.9c0-0.4,0.1-0.8,0.3-1.2c0.1-0.1,0.1-0.3-0.1-0.4c-0.1-0.1-0.3-0.2-0.4-0.1
		c-0.4,0.1-0.8,0.2-1.2,0.2c-0.8,0-1.5,0.3-2,0.9c-0.3,0.3-0.5,0.7-0.6,1.1c-0.3-0.2-0.6-0.1-0.9,0.1l-0.4,0.3
		c-0.3,0.3-0.3,0.7-0.1,1l-3.5,3.3l-0.3-0.4c-0.8-1.2-0.9-1.9-0.1-2.5c0.4-0.3,0.8-0.5,1.2-0.6L174,21c0.2-0.1,0.2-0.2,0.2-0.4
		c-0.1-0.2-0.2-0.2-0.4-0.2l0,0l-0.2,0.1c-0.5,0.1-1,0.4-1.4,0.7c-0.5,0.4-0.8,1-0.8,1.7c0.1,0.6,0.4,1.2,0.8,1.6
		c0.2,0.2,0.4,0.5,0.6,0.7c0.5,0.4,0.8,1,1,1.7c0.3,1.7-1.3,3-2.9,3.5c-0.5,0.1-1,0.2-1.6,0.3c-2.3,0-4.5-0.8-6.3-2.3
		c-1.8-1.6-2.9-3.8-3.1-6.1c-0.1-1.9,0.3-3.8,1.2-5.5s2.2-3.1,3.9-4.1c3.2-1.8,7.2-1.3,9.8,1.3c0.9,1,1.4,2.3,1.3,3.6
		c0,0.9-0.5,1.8-1.3,2.4c-0.1,0.1-0.2,0.2-0.1,0.4l0,0c0.1,0.1,0.2,0.2,0.4,0.1l0,0c0.9-0.7,1.4-1.7,1.5-2.8c0.1-1.5-0.5-2.9-1.5-4
		c-1.1-1.1-2.4-1.8-3.9-2.2c-2.3-0.6-4.7-0.3-6.7,0.8c-1.7,1-3.2,2.5-4.1,4.3c-0.9,1.8-1.4,3.8-1.3,5.8c0.2,2.5,1.4,4.9,3.3,6.6
		c0.4,0.3,0.7,0.6,1.1,0.8c1.7,1.1,3.6,1.6,5.6,1.6c0.6,0,1.1-0.1,1.7-0.3c0.9-0.3,1.7-0.8,2.4-1.5s1-1.7,0.9-2.7
		c0-0.2-0.1-0.4-0.2-0.6l3.8-3.2l0.1,0.1c0.3,0.2,0.6,0.1,0.9-0.1l0.4-0.3c0.2-0.2,0.3-0.6,0.2-0.9c0.4-0.1,0.8-0.2,1.2-0.5
		L180.8,21.3z M174,25.7c-0.2-0.3-0.4-0.5-0.6-0.7l3.5-3.3l0.8,0.9L174,25.7z M179.1,22.2l-0.4,0.3c-0.1,0-0.1,0-0.2,0l0,0l-1.5-1.7
		c-0.1-0.1-0.1-0.2,0-0.2l0.4-0.3c0.1,0,0.1,0,0.2,0l0,0l0,0l1.5,1.7V22.2C179,22.1,179,22.2,179.1,22.2L179.1,22.2z M179.1,21.2
		l-0.8-0.8c0-0.5,0.2-0.9,0.5-1.3c0.4-0.4,1-0.7,1.6-0.7c0.3,0,0.7,0,1-0.1c-0.1,0.3-0.2,0.7-0.2,1c0,0.6-0.3,1.1-0.8,1.5
		C180.1,21.2,179.6,21.3,179.1,21.2L179.1,21.2z"/>
	<path d="M173.1,16.3c0.6-0.9,0.3-2-0.6-2.6c-0.9-0.6-2-0.3-2.6,0.6c-0.6,0.9-0.3,2,0.5,2.6C171.4,17.4,172.6,17.2,173.1,16.3
		L173.1,16.3z M170.9,16.4c-0.6-0.4-0.8-1.2-0.4-1.7l0,0l0,0c0.4-0.6,1.2-0.7,1.7-0.3s0.7,1.2,0.3,1.7
		C172.1,16.6,171.4,16.7,170.9,16.4L170.9,16.4z"/>
	<path d="M165.6,17.4c0.9,0.6,2,0.3,2.6-0.5c0.6-0.9,0.3-2-0.5-2.6c-0.9-0.6-2-0.3-2.6,0.5l0,0l0,0
		C164.5,15.7,164.7,16.8,165.6,17.4z M167.3,14.7c0.6,0.4,0.8,1.2,0.4,1.8c-0.4,0.6-1.2,0.8-1.8,0.4c-0.6-0.4-0.8-1.2-0.4-1.8l0,0
		C165.9,14.5,166.7,14.4,167.3,14.7C167.2,14.7,167.2,14.7,167.3,14.7L167.3,14.7L167.3,14.7z"/>
	<path d="M162.5,21.4c0.9,0.6,2,0.3,2.6-0.5c0.6-0.9,0.3-2-0.5-2.6c-0.9-0.6-2-0.3-2.6,0.5l0,0l0,0
		C161.4,19.7,161.6,20.8,162.5,21.4z M164.2,18.7c0.6,0.4,0.8,1.2,0.4,1.8c-0.3,0.5-1,0.8-1.6,0.5h0l-0.2-0.1
		c-0.6-0.4-0.7-1.2-0.2-1.8C163,18.6,163.7,18.5,164.2,18.7L164.2,18.7z"/>
	<path d="M163.5,26.4c0.8,0.6,2,0.5,2.6-0.3s0.5-2-0.3-2.6l0,0l0,0l-0.3-0.2c-0.1-0.1-0.3-0.1-0.4,0c-0.1,0.1-0.1,0.3,0,0.4l0,0l0,0
		c0.6,0.4,0.7,1.2,0.2,1.8c-0.4,0.5-1.1,0.6-1.6,0.3c-0.6-0.4-0.8-1.2-0.4-1.8c0.2-0.3,0.4-0.5,0.7-0.5c0.2,0,0.2-0.2,0.2-0.4l0,0
		c0-0.2-0.2-0.2-0.4-0.2l0,0c-1,0.3-1.6,1.3-1.3,2.3C162.7,25.7,163,26.1,163.5,26.4L163.5,26.4z"/>
	<path d="M168,28.9c0.9,0.6,2,0.3,2.6-0.5c0.6-0.9,0.3-2-0.5-2.6c-0.9-0.6-2-0.3-2.6,0.5l0,0l0,0C166.9,27.2,167.1,28.3,168,28.9
		L168,28.9L168,28.9L168,28.9z M169.7,26.3c0.6,0.4,0.8,1.2,0.4,1.8s-1.2,0.8-1.8,0.4c-0.6-0.4-0.8-1.2-0.4-1.8
		C168.3,26.1,169.1,25.9,169.7,26.3z"/>
</g>
<g class="st1">
	<path d="M409.2,30.8v-0.4c0-0.2,0-0.3,0-0.5v-0.3c0-0.1,0-0.3,0-0.4l-3.8,5.9c-0.1,0.2-0.1,0.5,0.1,0.6l0,0l0,0l1.6,1l-2,3
		c-0.1,0.1-0.1,0.3,0.1,0.4c0.1,0.1,0.3,0.1,0.4-0.1l1.9-3l1.6,1l0,0v-0.1c0-0.2,0-0.4,0-0.6l-3.3-2.1l0.1-0.2l1.8,0.6
		c0.2,0.1,0.3,0,0.4-0.2c0-0.2,0-0.3-0.2-0.4l-1.7-0.6l0.4-0.6l2.5,0.9c0-0.1,0-0.1,0-0.2c0-0.1,0-0.3,0-0.4l-2.1-0.7l0.4-0.6
		l1.7,0.6v-0.6l-1.4-0.5l0.4-0.6l1,0.4v-0.6l-0.7-0.3l0.4-0.6L409.2,30.8z"/>
	<path d="M404.5,41.1c-0.1-0.1-0.3,0-0.4,0.1l-0.3,0.4c-0.1,0.1-0.1,0.3,0.1,0.4c0.1,0.1,0.3,0.1,0.4-0.1l0.3-0.4
		C404.7,41.4,404.7,41.2,404.5,41.1L404.5,41.1z"/>
	<path d="M405.2,37.2c-0.1-0.2-0.2-0.2-0.4-0.2l0,0l0,0c-0.1,0-0.2,0.2-0.2,0.3l0.1,0.5c0,0.1,0.1,0.2,0.2,0.2l0,0h0.1
		c0.2,0,0.3-0.2,0.2-0.4L405.2,37.2z"/>
	<path d="M406.1,41.6c0-0.2-0.2-0.3-0.3-0.2c-0.2,0-0.3,0.2-0.2,0.4l0.1,0.5c0,0.1,0.1,0.2,0.2,0.2l0,0h0.1c0.2,0,0.3-0.2,0.2-0.3
		l0,0l0,0L406.1,41.6z"/>
	<path d="M404.1,38.8c0.1-0.1,0-0.3-0.1-0.4l-0.4-0.3c-0.1-0.1-0.3-0.1-0.4,0.1c-0.1,0.1-0.1,0.3,0.1,0.4l0.4,0.3
		C403.8,39,404,38.9,404.1,38.8L404.1,38.8z"/>
	<path d="M407.7,40.8l-0.4-0.3c-0.1-0.1-0.3-0.1-0.4,0.1l0,0l0,0c-0.1,0.1-0.1,0.3,0.1,0.4l0.4,0.3c0.1,0.1,0.3,0.1,0.4-0.1
		C407.8,41.1,407.8,40.9,407.7,40.8z"/>
	<path d="M403.4,39.8l-0.5,0.1c-0.2,0-0.3,0.2-0.2,0.3l0,0l0,0c0,0.1,0.1,0.1,0.1,0.2c0.1,0,0.1,0,0.2,0l0.5-0.1
		c0.2,0,0.3-0.2,0.2-0.3l0,0l0,0C403.7,39.9,403.6,39.8,403.4,39.8z"/>
	<path d="M407.2,39.5c0.1,0,0.1,0,0.2,0l0.5-0.1c0.2,0,0.3-0.2,0.2-0.3l0,0l0,0c0-0.2-0.2-0.3-0.4-0.2l-0.5,0.1
		c-0.2,0-0.3,0.2-0.2,0.3S407.1,39.5,407.2,39.5z"/>
	<path d="M404.1,29.2c-0.6-0.3-1.3-0.2-1.7,0.4c-0.3,0.5-0.2,1.3,0.4,1.6c0.5,0.4,1.3,0.2,1.6-0.3l0,0l0,0
		C404.8,30.4,404.7,29.6,404.1,29.2C404.1,29.3,404.1,29.3,404.1,29.2L404.1,29.2L404.1,29.2z M403.1,30.8c-0.3-0.2-0.4-0.6-0.2-0.9
		l0,0c0.2-0.3,0.6-0.4,0.9-0.2s0.4,0.6,0.2,0.9l0,0C403.8,30.9,403.4,31,403.1,30.8L403.1,30.8z"/>
	<path d="M404.3,29c0.1,0.1,0.3,0.1,0.4-0.1l0,0l0.1-0.1c0.1-0.1,0.1-0.3-0.1-0.4l0,0c-0.1-0.1-0.3-0.1-0.4,0.1l0,0l0,0l-0.1,0.1
		C404.2,28.7,404.2,28.9,404.3,29L404.3,29L404.3,29z"/>
	<path d="M402.6,31.6c-0.1-0.1-0.3-0.1-0.4,0.1l-0.1,0.1c-0.1,0.1-0.1,0.3,0.1,0.4c0.1,0.1,0.3,0.1,0.4-0.1l0.1-0.1
		C402.8,31.9,402.8,31.7,402.6,31.6C402.7,31.6,402.7,31.6,402.6,31.6L402.6,31.6z"/>
	<path d="M402.8,28.5c0,0.1,0.1,0.1,0.1,0.2c0.1,0,0.1,0,0.2,0s0.2-0.2,0.2-0.3l0,0v-0.2c0-0.2-0.2-0.3-0.4-0.2
		c-0.2,0-0.3,0.2-0.2,0.3l0,0l0,0L402.8,28.5L402.8,28.5z"/>
	<path d="M404.1,32c0-0.2-0.2-0.3-0.3-0.2l0,0l0,0c-0.2,0-0.3,0.2-0.2,0.4v0.2c0,0.1,0.1,0.1,0.1,0.2c0.1,0,0.1,0,0.2,0
		c0.2,0,0.3-0.2,0.2-0.3l0,0l0,0L404.1,32z"/>
	<path d="M402.2,29.4c0.1-0.1,0.1-0.3-0.1-0.4l-0.1-0.1c-0.1-0.1-0.3-0.1-0.4,0.1l0,0c-0.1,0.1-0.1,0.3,0.1,0.4l0,0l0,0l0.1,0.1
		C401.9,29.6,402.1,29.6,402.2,29.4L402.2,29.4z"/>
	<path d="M405.3,31.1l-0.1-0.1c-0.1-0.1-0.3,0-0.4,0.1s0,0.3,0.1,0.4l0.1,0.1c0.1,0.1,0.3,0.1,0.4-0.1
		C405.5,31.4,405.5,31.2,405.3,31.1L405.3,31.1z"/>
	<path d="M401.6,30.4h-0.2c-0.1,0-0.2,0.2-0.2,0.3l0,0c0,0.1,0.1,0.2,0.2,0.2l0,0h0.1h0.2c0.2,0,0.3-0.1,0.3-0.3l0,0
		C402,30.4,401.8,30.3,401.6,30.4C401.7,30.4,401.7,30.4,401.6,30.4L401.6,30.4z"/>
	<path d="M405.1,30.1c0.1,0,0.1,0,0.2,0h0.2c0.2-0.1,0.2-0.2,0.2-0.4l0,0l0,0c0-0.1-0.2-0.2-0.3-0.2h-0.2c-0.2,0-0.3,0.2-0.2,0.3
		l0,0l0,0C405,30,405,30.1,405.1,30.1z"/>
</g>
<g class="st1">
	<path d="M192.9,71c0.5-0.2,1.1-0.4,1.6-0.6c4.9-2.6,6.8-8.6,4.2-13.5s-8.6-6.8-13.5-4.2s-6.8,8.6-4.2,13.5c1.5,2.8,4.1,4.7,7.2,5.2
		c0.2,0,0.3-0.1,0.3-0.2c0-0.2-0.1-0.3-0.2-0.3l0,0c-5-0.9-8.3-5.8-7.4-10.8c0.9-5,5.8-8.3,10.8-7.4c5,0.9,8.3,5.8,7.4,10.8
		c-0.5,2.8-2.3,5.2-4.9,6.5c-0.4,0.2-0.9,0.4-1.4,0.6l-0.2-1.2c4.3-1.5,6.6-6.2,5.2-10.5c-1.5-4.3-6.2-6.6-10.5-5.2
		c-4.3,1.5-6.6,6.2-5.2,10.5c1.2,3.6,4.8,5.9,8.7,5.6L191,71c-0.4,0.1-0.9,0.1-1.4,0.1l0,0c-0.2,0-0.3,0.1-0.3,0.3s0.1,0.3,0.3,0.3
		l0,0c0.5,0,1,0,1.5-0.1l0.3,1.3c0.1,0.5,0.6,0.8,1.1,0.7c0.2-0.1,0.4-0.2,0.6-0.4l0,0c0.1-0.2,0.2-0.5,0.1-0.7L192.9,71z
		 M185.7,67.9c-3.5-2.3-4.6-7-2.3-10.6c2.3-3.5,7-4.6,10.6-2.3s4.6,7,2.3,10.6c-0.9,1.4-2.3,2.5-3.8,3l-0.6-3.2
		c0.2-0.1,0.3-0.3,0.4-0.5c0.3-0.5,0.4-1,0.3-1.6l0.1-0.1c1-1.5,0.6-3.6-0.9-4.6l0,0c-0.3-0.2-0.6-0.3-0.9-0.4c-0.1,0-0.3,0-0.4,0.2
		l0,0c0,0.2,0,0.3,0.2,0.4c0.2,0.1,0.5,0.2,0.7,0.3c1.2,0.8,1.6,2.3,0.9,3.5c-0.2-0.3-0.4-0.5-0.6-0.7c-1-0.6-2.3-0.3-2.9,0.6l0,0
		l0,0c-0.2,0.3-0.3,0.7-0.3,1.1l0,0c-1.3-0.8-1.7-2.4-0.9-3.7c0.4-0.7,1.1-1.2,1.9-1.3c0.2,0,0.3-0.2,0.2-0.3l0,0l0,0
		c0-0.2-0.2-0.3-0.3-0.2l0,0c-1.8,0.3-3,2.1-2.6,3.8c0.2,0.9,0.7,1.7,1.4,2.2l0.4,0.2c0.2,0.5,0.5,0.8,0.9,1.1
		c0.2,0.1,0.4,0.2,0.6,0.3l0.6,3.2C189,69.2,187.2,68.8,185.7,67.9L185.7,67.9z M192.3,72.9c-0.1,0-0.2,0-0.3-0.1s-0.1-0.1-0.2-0.2
		l-1.4-7.1c0-0.1-0.1-0.1-0.1-0.2h-0.1c-0.2,0-0.4-0.1-0.6-0.2c-0.7-0.5-0.8-1.4-0.4-2c0.5-0.7,1.4-0.8,2-0.4c0.6,0.4,0.8,1.3,0.4,2
		c-0.1,0.2-0.3,0.3-0.4,0.4c-0.1,0.1-0.2,0.2-0.1,0.3l0,0l1.4,7.1C192.6,72.7,192.5,72.9,192.3,72.9L192.3,72.9L192.3,72.9
		L192.3,72.9z"/>
</g>
<g class="st1">
	<path d="M131.1,60.5l0.6-4.4V56l-1.6-7.3l9.6-2c0.5-0.1,0.9-0.6,0.8-1.2l-0.5-1.9c-0.1-0.5-0.6-0.9-1.2-0.8l-9.6,2l-0.9-4.3
		c0-0.2-0.2-0.3-0.3-0.2c-0.2,0-0.3,0.2-0.2,0.3l0,0l0,0l3.3,15.2l-2.7,0.6l-4-18.6l2.7-0.6l0.4,2.1c0,0.2,0.2,0.3,0.3,0.2
		c0.1,0,0.2-0.2,0.2-0.3l0,0l-0.8-3.9c-0.1-0.5-0.6-0.9-1.2-0.8l-1.9,0.4c-0.5,0.1-0.9,0.6-0.8,1.2l2,9.6l-7.3,1.6h0l-3.7,2.5
		c-0.2,0.1-0.2,0.3-0.2,0.5c0,0.1,0.1,0.2,0.2,0.3l0.2,0.1l4.4,0.6h0.1l1.9-0.4c0.2,0,0.3-0.2,0.2-0.3l0,0l0,0
		c0-0.2-0.2-0.3-0.3-0.2l-1.6,0.3l-0.6-2.7l7-1.5l0.6,2.7l-4.1,0.9c-0.2,0-0.3,0.2-0.2,0.3l0,0c0,0.2,0.2,0.3,0.3,0.2l4.1-0.9
		l1.5,7.3v0.1l2.4,3.8c0.1,0.2,0.3,0.2,0.5,0.2s0.3-0.2,0.3-0.4L131.1,60.5z M139.1,43.4c0.2,0,0.4,0.1,0.5,0.3l0,0l0,0l0.4,1.9
		c0.1,0.2-0.1,0.4-0.3,0.5l0,0l0,0l-1.2,0.3l-0.6-2.7L139.1,43.4z M129.5,45.4l7.8-1.7l0.6,2.7l-7.8,1.7L129.5,45.4z M124.1,35.9
		c-0.1-0.2,0.1-0.4,0.3-0.5l0,0l0,0l1.9-0.4c0.2,0,0.4,0.1,0.5,0.3l0.3,1.3l-2.7,0.6L124.1,35.9z M116.4,49l0.2,1l-1.5-0.2L116.4,49
		z M118.7,50.4l-1.5-0.2l-0.3-1.4l1.3-0.8L118.7,50.4z M128.7,56.8l2.4-0.5l-0.2,1.5l-1.4,0.3L128.7,56.8z M129.8,58.6l1-0.2v0.2
		l-0.2,1.3L129.8,58.6z"/>
</g>
<g class="st1">
	<path d="M47.6,1.7h-0.5c-0.1,0.6-0.3,1.1-0.7,1.6c-1.1,1.5-2.8,2.4-4.7,2.4c-0.3,0-0.6,0-0.8,0L40,5.1c1.7-0.7,3.1-1.9,4.1-3.4
		h-0.7c-1,1.4-2.4,2.5-4,3l-2-1.4c-0.1-0.6-0.1-1.2,0-1.7h-0.6c-0.1,0.4-0.1,0.9-0.1,1.3l-0.9-0.6c-0.1-0.2-0.2-0.4-0.3-0.7h-0.6
		L35,1.8c0,0.3,0.1,0.6,0.2,0.8l-0.4,0.7c-0.2,0.4-0.1,0.9,0.3,1.1l1.1,0.7l-1.4,2c-0.1,0.2-0.1,0.4,0.1,0.5l0,0
		c0.1,0,0.2,0.1,0.2,0.1H36l0.3,0.8c0,0.1,0.1,0.2,0.2,0.2s0.1,0.1,0.2,0.1c0.2,0,0.3,0,0.4-0.2l1.3-2l1.1,0.7
		c0.4,0.3,0.9,0.1,1.2-0.3L41,6.4c0.3,0,0.5,0,0.8,0c2.1,0,4-1.1,5.1-2.8c0.4-0.6,0.6-1.2,0.8-1.9C47.7,1.7,47.6,1.7,47.6,1.7z
		 M36.7,7.9l-0.2-0.7c0-0.1-0.1-0.1-0.1-0.2c-0.1,0-0.1,0-0.2,0l-0.7,0.1l1.1-1.7l1.2,0.8L36.7,7.9z M40.1,6.7
		c-0.1,0.1-0.2,0.2-0.3,0.1l-4.4-2.9c-0.1-0.1-0.1-0.2-0.1-0.3l0,0L35.7,3l4.8,3.1L40.1,6.7z"/>
	<path d="M30.5,3.1C30.4,3,30.2,3,30.1,3.2l0,0l0,0L30,3.3c-0.1,0.1-0.1,0.3,0.1,0.4l0,0c0.1,0.1,0.3,0.1,0.4-0.1l0,0l0,0l0.1-0.1
		C30.6,3.4,30.6,3.2,30.5,3.1L30.5,3.1L30.5,3.1L30.5,3.1z"/>
	<path d="M32,3.6c-0.1-0.2-0.2-0.2-0.4-0.2l0,0l0,0c-0.1,0-0.2,0.2-0.2,0.3v0.2c0,0.1,0.1,0.1,0.1,0.2c0.1,0,0.1,0,0.2,0
		C31.9,4.1,32,4,32,3.8l0,0l0,0l0,0L32,3.6z"/>
	<path d="M33.2,2.7L33.2,2.7c-0.2-0.2-0.4-0.1-0.5,0c-0.1,0.1-0.1,0.3,0.1,0.4l0.1,0.1c0.2,0,0.3-0.1,0.3-0.2l0,0l0,0
		C33.3,2.9,33.2,2.8,33.2,2.7z"/>
	<path d="M29.5,1.9h-0.2c-0.2,0-0.3,0.2-0.2,0.3l0,0l0,0c0,0.1,0.1,0.1,0.1,0.2c0.1,0,0.1,0,0.2,0h0.2c0.1,0,0.2-0.2,0.2-0.3l0,0
		C29.8,2,29.6,1.9,29.5,1.9z"/>
</g>
<g class="st1">
	<path d="M255.3,61.7c0.3-0.5,0.2-1.2-0.3-1.6c-0.5-0.3-1.2-0.2-1.6,0.3l0,0l0,0c-0.2,0.4-0.6,0.6-1,0.8c-1.6,0.7-2.6,2.3-2.6,4
		c0.1,0.4-0.1,0.8-0.3,1.2s-0.6,0.6-1,0.8c-0.8,0.3-1.5,0.9-1.9,1.6c-0.5,0.7-0.7,1.5-0.7,2.4c0.1,0.9-0.5,1.7-1.3,2
		s-1.5,0.9-1.9,1.6c-0.3,0.5-0.2,1.2,0.3,1.6c0.5,0.3,1.2,0.2,1.6-0.3c0.2-0.4,0.6-0.6,1-0.8c1.6-0.7,2.6-2.3,2.6-4
		c-0.1-0.9,0.5-1.7,1.3-2s1.5-0.9,1.9-1.6c0.5-0.7,0.7-1.5,0.7-2.4c-0.1-0.9,0.5-1.7,1.3-2C254.1,62.9,254.8,62.4,255.3,61.7
		L255.3,61.7z M251.5,65.2c0,0.7-0.2,1.5-0.6,2.1c-0.4,0.6-1,1.1-1.7,1.4c-1,0.4-1.7,1.4-1.6,2.5c0,1.5-0.8,2.9-2.2,3.5
		c-0.5,0.2-0.9,0.5-1.2,1c-0.2,0.3-0.5,0.3-0.8,0.2s-0.3-0.5-0.2-0.8l0,0l0,0c0.4-0.6,1-1.1,1.7-1.4c1-0.4,1.7-1.4,1.6-2.5
		c0-0.7,0.2-1.5,0.6-2.1c0.4-0.6,1-1.1,1.7-1.4c0.5-0.2,0.9-0.5,1.2-1c0.3-0.4,0.4-1,0.4-1.5c0-0.7,0.2-1.5,0.6-2.1
		c0.4-0.6,1-1.1,1.7-1.4c0.5-0.2,0.9-0.5,1.2-1c0.2-0.2,0.5-0.3,0.8-0.2c0.2,0.2,0.3,0.5,0.2,0.7l0,0c-0.4,0.6-1,1.1-1.7,1.4
		C252.1,63.1,251.5,64.1,251.5,65.2L251.5,65.2z"/>
	<path d="M243.8,66.9c0.2-0.4,0.5-0.6,0.9-0.8c0.8-0.3,1.5-0.9,1.9-1.6c0.5-0.7,0.7-1.5,0.7-2.4c0-0.4,0.1-0.8,0.3-1.2
		s0.6-0.6,1-0.8c0.8-0.3,1.5-0.9,1.9-1.6c0.3-0.5,0.2-1.2-0.3-1.6c-0.5-0.3-1.2-0.2-1.6,0.3l0,0l0,0c-0.2,0.4-0.6,0.6-1,0.8
		c-0.8,0.3-1.4,0.9-1.9,1.6c-0.1,0.1-0.1,0.2-0.2,0.3c-0.1,0.1,0,0.3,0.1,0.4l0,0c0.1,0.1,0.3,0,0.4-0.1l0,0c0-0.1,0.1-0.2,0.2-0.3
		c0.4-0.6,1-1.1,1.7-1.4c0.5-0.2,0.9-0.5,1.2-1c0.2-0.2,0.5-0.3,0.8-0.2c0.2,0.2,0.3,0.5,0.2,0.8c-0.4,0.6-1,1.1-1.7,1.4
		c-0.5,0.2-0.9,0.5-1.2,1c-0.3,0.4-0.4,1-0.4,1.5c0,0.7-0.2,1.5-0.6,2.1c-0.4,0.6-1,1.1-1.7,1.4c-0.5,0.2-0.9,0.5-1.2,1
		c-0.2,0.2-0.5,0.3-0.8,0.2c-0.2-0.2-0.3-0.5-0.2-0.8c0.4-0.6,1-1.1,1.7-1.4c0.5-0.2,0.9-0.5,1.2-1c0.3-0.4,0.4-1,0.4-1.5v-0.4l0,0
		c0-0.2-0.1-0.3-0.3-0.3l0,0l0,0c-0.2,0-0.3,0.1-0.3,0.2l0,0v0.7c0,0.4-0.1,0.8-0.3,1.2s-0.6,0.6-1,0.8c-0.8,0.3-1.5,0.9-1.9,1.6
		c-0.3,0.5-0.2,1.2,0.3,1.6C242.7,67.6,243.4,67.5,243.8,66.9L243.8,66.9z"/>
	<path d="M254.5,72.7c0.3-0.5,0.2-1.2-0.3-1.6c-0.5-0.3-1.2-0.2-1.6,0.3l0,0l0,0c-0.1,0.2-0.3,0.3-0.5,0.4c-0.6,0.2-1.1,0.7-1.4,1.2
		c-0.3,0.5-0.5,1.2-0.5,1.8c0,0.2,0,0.4-0.1,0.6c-0.1,0.2-0.3,0.3-0.5,0.4c-0.6,0.2-1.1,0.7-1.4,1.2c-0.3,0.5-0.2,1.2,0.3,1.6
		c0.5,0.3,1.2,0.2,1.6-0.3l0,0c0.1-0.2,0.3-0.3,0.5-0.4c0.6-0.2,1.1-0.7,1.4-1.2c0.1-0.1,0.1-0.3-0.1-0.4l0,0
		c-0.1-0.1-0.3-0.1-0.4,0.1l0,0l0,0c-0.3,0.4-0.7,0.8-1.2,1c-0.3,0.1-0.6,0.3-0.7,0.6c-0.2,0.2-0.5,0.3-0.8,0.2
		c-0.2-0.1-0.3-0.5-0.2-0.7l0,0l0,0l0,0c0.3-0.5,0.7-0.8,1.2-1c0.3-0.1,0.6-0.3,0.7-0.6c0.2-0.3,0.3-0.6,0.3-0.9
		c0-1.1,0.6-2.1,1.6-2.5c0.3-0.1,0.6-0.3,0.7-0.6c0.2-0.2,0.5-0.3,0.8-0.2l0,0c0.2,0.2,0.3,0.5,0.2,0.8c-0.3,0.5-0.7,0.8-1.2,1
		c-0.6,0.2-1,0.9-1,1.5c0,0.1,0,0.2,0,0.4s0.1,0.3,0.3,0.3l0,0l0,0c0.2,0,0.3-0.1,0.3-0.3l0,0l0,0V75c0-0.2,0-0.4,0.2-0.6
		c0.1-0.2,0.3-0.3,0.5-0.4C253.6,73.7,254.1,73.2,254.5,72.7z"/>
	<path d="M256.1,66.9c0.4-0.6,0.2-1.4-0.4-1.8c-0.6-0.4-1.4-0.2-1.8,0.4c-0.4,0.6-0.2,1.4,0.4,1.8l0,0
		C254.9,67.7,255.7,67.5,256.1,66.9L256.1,66.9L256.1,66.9z M254.6,66.8c-0.3-0.2-0.4-0.7-0.2-1s0.7-0.4,1-0.2s0.4,0.7,0.2,1l0,0
		l0,0C255.3,66.9,254.9,67,254.6,66.8L254.6,66.8z"/>
	<path d="M259.2,66c0.6,0.4,1.4,0.2,1.8-0.4c0.4-0.6,0.2-1.4-0.4-1.8c-0.6-0.4-1.4-0.2-1.8,0.4l0,0C258.4,64.8,258.6,65.6,259.2,66
		L259.2,66L259.2,66L259.2,66z M260.3,64.3c0.3,0.2,0.5,0.7,0.3,1s-0.7,0.5-1,0.3l0,0c-0.3-0.2-0.4-0.7-0.2-1l0,0l0,0
		C259.5,64.2,260,64.1,260.3,64.3z"/>
	<path d="M252.1,79c-0.6-0.4-1.4-0.2-1.8,0.4c-0.4,0.6-0.2,1.4,0.4,1.8c0.6,0.4,1.4,0.2,1.8-0.4l0,0C252.9,80.2,252.8,79.4,252.1,79
		C252.2,79,252.2,79,252.1,79L252.1,79z M251.1,80.7c-0.3-0.2-0.4-0.7-0.2-1s0.7-0.4,1-0.2s0.4,0.7,0.2,1l0,0l0,0
		C251.9,80.8,251.4,80.9,251.1,80.7L251.1,80.7z"/>
	<path d="M243.3,60.8c-0.6-0.4-1.4-0.2-1.8,0.4c-0.4,0.6-0.2,1.4,0.4,1.8c0.6,0.4,1.4,0.2,1.8-0.4l0,0C244.1,62,244,61.2,243.3,60.8
		C243.4,60.8,243.4,60.8,243.3,60.8L243.3,60.8z M242.2,62.5c-0.3-0.2-0.5-0.7-0.3-1s0.7-0.5,1-0.3l0,0c0.3,0.2,0.4,0.7,0.2,1l0,0
		l0,0C243,62.6,242.6,62.7,242.2,62.5z"/>
	<path d="M242.9,69.8c-0.6-0.4-1.4-0.2-1.8,0.4c-0.4,0.6-0.2,1.4,0.4,1.8c0.6,0.4,1.4,0.2,1.8-0.4C243.7,71,243.5,70.2,242.9,69.8z
		 M241.8,71.5c-0.3-0.2-0.4-0.7-0.2-1l0,0l0,0c0.2-0.3,0.7-0.4,1-0.2l0,0c0.3,0.2,0.4,0.7,0.2,1S242.2,71.7,241.8,71.5z"/>
</g>
<g class="st1">
	<path d="M326.9,115.2c-0.2-0.1-0.4-0.1-0.5-0.1l-1,0.2c-0.1,0-0.1,0-0.1-0.1l0,0c0-0.1,0-0.1,0.1-0.1h0.2c0.2,0,0.3-0.2,0.2-0.4
		c0-0.2-0.2-0.3-0.4-0.2h-0.3c-0.4,0.1-0.6,0.5-0.5,0.8l0,0c0,0.2,0.1,0.4,0.3,0.4c0.2,0.1,0.3,0.1,0.5,0.1l1-0.2h0.1v0.1
		c0,0.1,0,0.1-0.1,0.1h-0.1c-0.2,0-0.3,0.2-0.2,0.4c0,0.2,0.2,0.3,0.3,0.2h0.1c0.4-0.1,0.6-0.5,0.5-0.8l0,0l0,0
		C327.2,115.5,327,115.3,326.9,115.2z"/>
	<path d="M327.1,118.8c0.4-0.1,0.6-0.5,0.5-0.8c-0.1-0.4-0.5-0.6-0.8-0.5l0,0h-0.1c-0.1,0-0.2,0.2-0.2,0.3l0,0
		c0,0.2,0.2,0.3,0.3,0.2l0,0h0.1c0.1,0,0.1,0,0.1,0.1s0,0.1-0.1,0.1l-1.1,0.2c-0.4,0.1-0.6,0.5-0.5,0.8l0,0c0,0.2,0.1,0.3,0.3,0.4
		c0.2,0.1,0.3,0.1,0.5,0.1l0.3-0.1c0.2-0.1,0.2-0.2,0.2-0.4l0,0l0,0c0-0.1-0.2-0.2-0.3-0.2l-0.3,0.1c-0.1,0-0.1,0-0.1-0.1l0,0
		c0-0.1,0-0.1,0.1-0.1l0,0L327.1,118.8z"/>
	<path d="M341.3,115.8h0.1l3.3-0.7c0.3-0.1,0.5-0.4,0.5-0.7l0,0l-0.5-2.4c-0.1-0.3-0.4-0.5-0.7-0.4l-3.3,0.7h-0.1l-1,0.7l-4.6,1
		c-0.2-0.5-0.6-0.9-1-1.2l-1.6-7.5c-0.1-0.7-0.8-1.3-1.5-1.3c-0.1-0.2-0.2-0.3-0.3-0.4c-0.2-0.1-0.4-0.2-0.7-0.1
		c-0.2,0.1-0.4,0.2-0.6,0.4c-0.1,0.2-0.2,0.5-0.1,0.7l1.5,7.1l-0.5,0.1c-0.3,0.1-0.6,0.3-0.6,0.7c-0.1,1.1-0.7,1.4-1,1.4l0,0
		c-0.3,0.1-0.6,0.1-0.8-0.1c-0.5-0.4-0.9-0.9-1-1.5c-0.1-0.4-0.4-0.6-0.8-0.6l0,0c-0.9,0-1.9,0.3-2.7,0.8c-0.4,0.3-0.8,0.6-1.1,0.9
		c-0.8,0.8-1.2,1.8-1.4,2.9c-0.3,2.1,0.6,4.1,2.4,5.3c0.3,0.2,0.6,0.3,0.9,0.4c0.4,0.2,0.9,0.3,1.4,0.4c0.9,0.1,1.9,0,2.8-0.3l0,0
		c0.3-0.2,0.5-0.5,0.5-0.9c-0.2-0.6-0.1-1.2,0.2-1.8c0.1-0.1,0.3-0.2,0.4-0.3c0.7-0.2,1.5,0.1,1.8,0.8c0.2,0.3,0.5,0.5,0.9,0.4
		l0.5-0.1l1.5,7.2c0.1,0.5,0.6,0.8,1.1,0.7c0.2,0,0.4-0.2,0.6-0.4l0,0c0.1-0.2,0.2-0.5,0.1-0.7l-1-4.4c0-0.2-0.2-0.3-0.4-0.2
		c-0.2,0-0.3,0.2-0.2,0.3l0,0l0,0l1,4.4c0,0.2-0.1,0.3-0.3,0.4s-0.3-0.1-0.4-0.3l0,0l0,0L333,120c0.2-0.1,0.4-0.2,0.6-0.3l0.4,1.7
		c0,0.2,0.2,0.3,0.4,0.2c0.2,0,0.3-0.2,0.2-0.4l-0.4-2c0.2-0.2,0.4-0.4,0.5-0.6l0.5,2.4c0.1,0.3,0.3,0.6,0.5,0.7
		c0.3,0.2,0.6,0.2,0.9,0.2c0.2,0,0.3-0.2,0.2-0.3l0,0c0-0.2-0.2-0.3-0.3-0.2l0,0c-0.3,0.1-0.6-0.1-0.7-0.4l0,0l-0.6-3
		c0.2-0.5,0.3-1,0.4-1.5l4.6-1L341.3,115.8z M334.6,114.7l0.3,1.3l-1.1,0.2l-0.3-1.3L334.6,114.7z M330.3,115.6l1.1-0.3l0.3,1.3
		l-1.1,0.2L330.3,115.6z M330,117.1l-1,0.2l-0.3-1.3l1.1-0.2L330,117.1z M332,115.3l1-0.2l0.3,1.3l-1,0.2L332,115.3z M331.5,104.8
		c0.2,0.1,0.4,0.4,0.4,0.6l1.5,6.8c-0.2-0.1-0.5-0.3-0.8-0.4l-1.5-7.2C331.2,104.7,331.4,104.8,331.5,104.8L331.5,104.8z
		 M329.8,104.5c0-0.2,0.1-0.3,0.3-0.4s0.3,0.1,0.4,0.3l0,0l0,0l1.6,7.4c-0.2,0-0.4,0-0.7,0L329.8,104.5z M332.5,119.7l-0.6,0.1
		c-0.1,0-0.2,0-0.2-0.1c-0.4-0.8-1.2-1.3-2.1-1.2c-0.4,0-0.8,0.3-1.1,0.6c-0.4,0.7-0.6,1.5-0.4,2.3c0,0.1,0,0.2-0.1,0.2l0,0
		c-0.8,0.3-1.6,0.4-2.5,0.3c-0.4-0.1-0.8-0.2-1.2-0.3c-1.3-0.5-2.3-1.6-2.7-2.9c0.9-0.4,1.6-1.1,2-2c0.1-0.2,0.2-0.4,0.2-0.7
		c0-0.2-0.1-0.3-0.2-0.3l0,0l0,0c-0.2,0-0.3,0.1-0.4,0.2c0,0.2-0.1,0.4-0.2,0.6c-0.3,0.7-0.9,1.3-1.6,1.7c0-0.1,0-0.2,0-0.3v-0.7
		c0-0.2,0-0.4,0.1-0.7c0.1-0.6,0.3-1.2,0.6-1.8c0.3-0.4,0.6-0.8,1-1.1c0.1,0.2,0.1,0.3,0.1,0.5s0.1,0.3,0.1,0.5s0.2,0.3,0.3,0.3l0,0
		l0,0c0.2,0,0.3-0.2,0.2-0.3l0,0l0,0c-0.1-0.4-0.2-0.9-0.4-1.3l0.1-0.1c0.7-0.5,1.5-0.7,2.4-0.7l0,0c0.1,0,0.2,0.1,0.2,0.2
		c0.1,0.8,0.6,1.5,1.3,1.9c0.4,0.2,0.8,0.2,1.3,0.1c0.8-0.3,1.4-1,1.4-1.9c0-0.1,0.1-0.2,0.2-0.2l0.6-0.1c0.8-0.1,1.6,0,2.3,0.5l0,0
		c0.5,0.3,0.9,0.8,1.3,1.3l-6,1.3c-0.1,0-0.2,0.1-0.3,0.2c-0.1,0.1-0.1,0.2-0.1,0.4l0.3,1.5c0,0.1,0.1,0.2,0.2,0.3s0.2,0.1,0.4,0.1
		l4.7-1l1.4-0.3c-0.1,0.6-0.3,1.2-0.6,1.7C334,119,333.3,119.5,332.5,119.7L332.5,119.7z M335.5,115.9l-0.3-1.3l1-0.2l0.3,1.3
		L335.5,115.9z M337,115.6l-0.3-1.3l1.1-0.3l0.3,1.3L337,115.6z M338.7,115.2l-0.3-1.3l1-0.2l0.3,1.3L338.7,115.2z M340,113.5
		l0.8-0.6l3.3-0.7l0,0l0.5,2.4l0,0l-3.3,0.7l-1-0.2L340,113.5z"/>
</g>
</svg>
