<?xml version="1.0" encoding="utf-8"?>
<!-- Generator: Adobe Illustrator 22.0.0, SVG Export Plug-In . SVG Version: 6.00 Build 0)  -->
<svg version="1.1" id="Capa_1" xmlns="http://www.w3.org/2000/svg" xmlns:xlink="http://www.w3.org/1999/xlink" x="0px" y="0px"
	 viewBox="0 0 409.2 125" style="enable-background:new 0 0 409.2 125;" xml:space="preserve">
<style type="text/css">
	.st0{fill:#3A97D3;}
	.st1{opacity:0.35;}
</style>
<path id="walle" class="st0" d="M0.1,110l9.7,3.1c9.7,3.1,29.2,9.3,48.8,10.5c19.4,1.2,38.9-2.7,58.2-5.8
	c19.6-3.1,39.2-5.4,58.5-4.3c19.5,1.2,38.9,5.8,58.5,6.2c19.4,0.4,38.9-3.5,58.5-3.1c19.4,0.4,38.9,5,58.2,5c19.6,0,38.9-4.7,48.9-7
	l9.7-2.3v-4.7H0.1V110z"/>
<path id="rect" class="st0" d="M176.9,0.7H0.1V108h409V0.7H176.9z"/>
<g class="st1">
	<path d="M241.7,107.9c-0.9,0.5-1.3,1.6-0.8,2.5s1.6,1.3,2.5,0.8l0.2-0.1c0.9-0.5,1.2-1.6,0.7-2.5l0,0l0,0
		C243.7,107.7,242.6,107.4,241.7,107.9L241.7,107.9z M243.2,110.6c-0.6,0.3-1.4,0.1-1.7-0.5s-0.1-1.4,0.5-1.7
		c0.6-0.3,1.3-0.1,1.7,0.4l0,0C244,109.5,243.8,110.2,243.2,110.6L243.2,110.6L243.2,110.6z"/>
	<path d="M236.7,112.2c-0.6,0.3-0.8,1.1-0.5,1.7s1.1,0.8,1.7,0.5c0.6-0.3,0.8-1.1,0.5-1.7l0,0l0,0
		C238,112.1,237.3,111.9,236.7,112.2z M237.6,113.8c-0.3,0.2-0.7,0.1-0.8-0.2l0,0c-0.2-0.3-0.1-0.7,0.2-0.9c0.3-0.2,0.7-0.1,0.8,0.2
		C238,113.3,237.9,113.7,237.6,113.8L237.6,113.8L237.6,113.8z"/>
	<path d="M247.9,105.8c-0.6,0.3-0.8,1.1-0.4,1.7l0,0l0,0c0.3,0.6,1.1,0.8,1.7,0.4l0,0c0.6-0.4,0.7-1.1,0.4-1.7
		C249.2,105.7,248.5,105.5,247.9,105.8L247.9,105.8z M248.8,107.4c-0.3,0.2-0.7,0.1-0.8-0.2c-0.2-0.3-0.1-0.7,0.2-0.8
		c0.3-0.2,0.7-0.1,0.8,0.2C249.2,106.8,249.1,107.2,248.8,107.4L248.8,107.4z"/>
	<path d="M249.7,102.3c-0.2-0.1-0.3,0-0.4,0.2l0,0l0,0l-0.3,1.1l-3.7,2.1c-0.8-1.2-2.1-1.9-3.5-1.9l0.8-0.4c0.1-0.1,0.2-0.3,0.1-0.4
		l0,0c-0.1-0.1-0.3-0.2-0.4-0.1l0,0l-2.4,1.4l-0.5-0.8c-0.1-0.1-0.3-0.1-0.4,0l0,0c-0.1,0.1-0.1,0.2-0.1,0.4l0.5,0.8l-2.4,1.4
		c-0.1,0.1-0.2,0.3-0.1,0.4l0,0c0.1,0.1,0.3,0.2,0.4,0.1l0.8-0.4c-0.7,1.2-0.7,2.7-0.1,4l-3.7,2.1l-1.1-0.3c-0.2,0-0.3,0.1-0.4,0.3
		c0,0.1,0.1,0.3,0.2,0.3l0,0l1.4,0.4l1-0.6c-0.6,1-0.2,2.4,0.8,2.9c1,0.6,2.4,0.2,2.9-0.8c0.6-1,0.2-2.3-0.8-2.9l0,0
		c-0.3-0.2-0.6-0.3-1-0.3l0.9-0.5c1.3,2,4,2.6,6,1.3c1.9-1.2,2.5-3.6,1.5-5.6l0.9-0.5c-0.6,1-0.3,2.4,0.7,3l0,0l0,0l0,0
		c1,0.6,2.3,0.2,2.9-0.8l0,0c0.6-1,0.3-2.4-0.8-3l0,0l0,0c-0.3-0.2-0.7-0.3-1-0.3l1-0.6l0.4-1.4c0.1-0.1,0-0.3-0.1-0.4L249.7,102.3
		L249.7,102.3z M238.6,112.5c0.4,0.7,0.2,1.7-0.6,2.1s-1.7,0.2-2.1-0.6c-0.4-0.7-0.2-1.7,0.6-2.1
		C237.2,111.5,238.2,111.8,238.6,112.5L238.6,112.5z M243.7,111.4c-1.8,1-4.1,0.4-5.1-1.3s-0.4-4.1,1.3-5.1c1.8-1,4.1-0.4,5.1,1.3
		l0,0l0,0C246,108.1,245.4,110.4,243.7,111.4L243.7,111.4z M249.9,106c0.4,0.7,0.2,1.7-0.6,2.1c-0.7,0.4-1.7,0.2-2.1-0.6
		c-0.4-0.7-0.2-1.7,0.6-2.1C248.5,105,249.4,105.3,249.9,106L249.9,106z"/>
	<path d="M242.9,105.8l-3.8,2.2c-0.1,0.1-0.2,0.3-0.1,0.4c0.1,0.1,0.3,0.2,0.4,0.1l3.7-2.2c0.1-0.1,0.2-0.3,0.1-0.4
		C243.3,105.8,243.1,105.7,242.9,105.8z"/>
	<path d="M245.2,111.6l-0.2,0.1c-0.1,0.1-0.2,0.3-0.1,0.4l0,0c0.1,0.1,0.3,0.2,0.4,0.1l0.3-0.2c0.1-0.1,0.2-0.3,0.1-0.4l0,0
		C245.6,111.5,245.4,111.5,245.2,111.6C245.3,111.5,245.3,111.5,245.2,111.6L245.2,111.6z"/>
	<path d="M244.1,112.2l-0.3,0.2c-0.1,0.1-0.2,0.3-0.1,0.4l0,0c0.1,0.1,0.3,0.2,0.4,0.1l0.3-0.2c0.1-0.1,0.2-0.3,0.1-0.4l0,0
		C244.5,112.2,244.3,112.1,244.1,112.2z"/>
	<path d="M243.1,112.8l-0.3,0.2c-0.1,0.1-0.2,0.3-0.1,0.4l0,0c0.1,0.1,0.3,0.2,0.4,0.1l0.3-0.2c0.1-0.1,0.2-0.3,0.1-0.4
		C243.4,112.7,243.2,112.7,243.1,112.8L243.1,112.8z"/>
</g>
<g class="st1">
	<path d="M68.2,43.7L67.7,44l-2.2-3.8c-0.1-0.1-0.3-0.2-0.4-0.1l-15,8.7c-0.1,0.1-0.2,0.3-0.1,0.4l0,0l2.1,3.8l-0.5,0.3
		c-0.1,0.1-0.2,0.3-0.1,0.4l1.9,3.2c0.1,0.1,0.3,0.2,0.4,0.1l0,0l0.3-0.1l0.5,0.8c0.1,0.1,0.3,0.2,0.4,0.1l0.8-0.5l0.6,1.1
		c0.1,0.1,0.3,0.2,0.4,0.1l0.8-0.5c0.1-0.1,0.2-0.3,0.1-0.4l0,0l-0.6-1.1L68.4,50l0.6,1.1c0.1,0.1,0.3,0.2,0.4,0.1l0,0l0.8-0.5
		c0.1-0.1,0.2-0.3,0.1-0.4l-0.6-1.1l0.8-0.5c0.1-0.1,0.2-0.3,0.1-0.4l0,0L70,47.7l0.3-0.2c0.1-0.1,0.2-0.3,0.1-0.4l0,0l-1.9-3.2
		C68.5,43.7,68.3,43.7,68.2,43.7L68.2,43.7z M50.6,49.2L65,40.8l2,3.5l-1.7,1v-0.1c0.1-0.2,0-0.3-0.2-0.4l0,0l0,0l-3-0.8
		c-0.2,0-0.3,0.1-0.4,0.2l-0.8,3c0,0.2,0.1,0.3,0.2,0.4l0,0h0.1l-3,1.7v-0.1c0.1-0.2,0-0.3-0.2-0.4l0,0l0,0L55,48
		c-0.2,0-0.3,0.1-0.4,0.2l-0.8,3c0,0.2,0.1,0.3,0.2,0.4l0,0h0.1l-1.7,1L50.6,49.2z M64.7,45.3l-0.1,0.4l-2.5,1.4L61.7,47l0.6-2.4
		L64.7,45.3z M57.7,49.3l-0.1,0.4l-2.5,1.4L54.7,51l0.6-2.4L57.7,49.3z M57,57.7l-0.3,0.1L56.2,57l0.3-0.2L57,57.7z M69.6,50.4
		l-0.3,0.1l-0.5-0.8l0.3-0.1L69.6,50.4z M69.9,48.4l-15,8.7l-0.3-0.5l15-8.7L69.9,48.4z M69.8,47l-16.1,9.3l-1.5-2.7l16.1-9.3
		L69.8,47z"/>
	<path d="M68.2,46.2l-0.3,0.1c-0.1,0.1-0.2,0.3-0.1,0.4c0.1,0.1,0.3,0.2,0.4,0.1l0.3-0.1c0.1-0.1,0.2-0.3,0.1-0.4
		C68.5,46.1,68.4,46.1,68.2,46.2L68.2,46.2L68.2,46.2z"/>
	<path d="M67.1,46.8l-0.3,0.1c-0.1,0.1-0.2,0.3-0.1,0.4c0.1,0.1,0.3,0.2,0.4,0.1l0.3-0.2c0.1-0.1,0.2-0.3,0.1-0.4
		C67.4,46.8,67.3,46.7,67.1,46.8L67.1,46.8z"/>
	<path d="M66.1,47.4l-0.3,0.2c-0.1,0.1-0.2,0.3-0.1,0.4l0,0l0,0c0.1,0.1,0.3,0.2,0.4,0.1l0.3-0.2c0.1-0.1,0.2-0.3,0.1-0.4l0,0
		C66.4,47.4,66.2,47.3,66.1,47.4L66.1,47.4z"/>
</g>
<g class="st1">
	<path d="M209.5,77.9l-1.6,0.9l-0.8-1.4c0,0,0-0.1-0.1-0.1h-0.3l-4.6,2.6l0,0c0,0-0.1,0-0.1,0.1l0,0v0.1l0,0v0.1l0,0v0.1l0.8,1.4
		l-1.6,0.9c-0.1,0.1-0.2,0.3-0.1,0.4l0,0l5.6,9.7c0.1,0.1,0.3,0.2,0.4,0.1l8.3-4.8c0.1-0.1,0.2-0.3,0.1-0.4l-5.6-9.7
		C209.9,77.8,209.7,77.7,209.5,77.9C209.6,77.8,209.6,77.8,209.5,77.9L209.5,77.9L209.5,77.9z M210.5,90.2l-3.5,2l-5.3-9.1l1.6-0.9
		l0.1-0.1l2.3,0.1h0.1L210.5,90.2z M205.1,80.8l0.3,0.5l0.1,0.3l-2.1-0.1l-0.5-0.8L205.1,80.8C205,80.7,205.1,80.7,205.1,80.8z
		 M203.4,80l2.7-1.5l-0.9,1.6L203.4,80z M206.8,78.3l0.5,0.8l-0.9,1.9l-0.5-0.5v-0.2L206.8,78.3z M214.8,87.7l-3.8,2.1l-4.7-8.1
		c0.1,0,0.2,0,0.3,0s0.1-0.1,0.1-0.1l1-2.1h0.1l1.6-0.9L214.8,87.7z"/>
	<path d="M210.1,80.8l-2.4,1.4c-0.1,0.1-0.2,0.3-0.1,0.4l1.9,3.2c0.1,0.1,0.3,0.2,0.4,0.1l0,0l2.4-1.4c0.1-0.1,0.2-0.3,0.1-0.4l0,0
		l-1.9-3.2C210.4,80.8,210.2,80.7,210.1,80.8L210.1,80.8L210.1,80.8z M211.7,84.2l-1.9,1.1l-1.1-1.9l1.9-1.1L211.7,84.2z
		 M210.3,81.7l-1.8,1l-0.2-0.3l1.9-1.1L210.3,81.7z"/>
	<path d="M216.9,71.5l-7.5,4.3c-0.1,0.1-0.2,0.3-0.1,0.4l0,0l9.6,16.7c0.1,0.1,0.3,0.2,0.4,0.1l2.9-1.7c0.1-0.1,0.2-0.3,0.1-0.4
		l-5.7-11.1l0,0l6.7,10.5c0.1,0.1,0.3,0.2,0.4,0.1l2.9-1.7c0.1-0.1,0.2-0.3,0.1-0.4l-9.6-16.7C217.2,71.4,217,71.4,216.9,71.5z
		 M210,76.2l2.1-1.2l0.3,0.5l-2.2,1.2L210,76.2z M216.2,79.4c-0.1,0.1-0.2,0.3-0.1,0.4l5.7,11.1l-2.4,1.4l-8.7-15.1l3.2-1.9
		L216.2,79.4z M213,75.2l-0.3-0.5l1.6-0.9l0.3,0.5L213,75.2z M226.3,88.3l-2.4,1.4l-6.8-10.5c-0.1-0.1-0.3-0.2-0.4-0.1l-2.3-4
		l3.2-1.9L226.3,88.3z M217.3,72.7l-2.2,1.2l-0.3-0.5l2.1-1.2L217.3,72.7z"/>
	<path d="M223.6,85.5c-0.1,0.1-0.2,0.3-0.1,0.4l0.2,0.3c0.1,0.2,0.2,0.3,0.4,0.2s0.3-0.2,0.2-0.4l0,0v-0.1l-0.1-0.3
		C224,85.5,223.8,85.5,223.6,85.5L223.6,85.5z"/>
	<path d="M224.2,86.6c-0.1,0.1-0.2,0.3-0.1,0.4l0,0l0.1,0.3c0.1,0.1,0.3,0.2,0.4,0.1l0,0c0.1-0.1,0.2-0.3,0.1-0.4l-0.2-0.3
		C224.5,86.6,224.4,86.5,224.2,86.6z"/>
	<path d="M224.8,87.7c-0.1,0.1-0.2,0.3-0.1,0.4l0,0l0.1,0.3c0.1,0.1,0.3,0.2,0.4,0.1c0.1-0.1,0.2-0.3,0.1-0.4l-0.2-0.3
		C225.2,87.7,225,87.6,224.8,87.7z"/>
	<path d="M210.8,92.9l-0.2,0.1l-1.4,0.8l-0.2,0.1c-0.7,0.5-0.8,1.4-0.4,2.1l0.9,1.5c0.1,0.1,0.3,0.2,0.4,0.1l3.8-2.2
		c0.1-0.1,0.2-0.3,0.1-0.4l0,0l-0.9-1.5C212.5,92.9,211.6,92.6,210.8,92.9z M209.7,94.3l1.1-0.6l0.2,0.4l-1.1,0.6L209.7,94.3z
		 M213.1,95.2l-3.2,1.9l-0.2-0.3l3.2-1.9L213.1,95.2z M212.6,94.4l-3.2,1.9l-0.3-0.5c-0.2-0.4-0.2-0.8,0.1-1.1l0.3,0.6
		c0.1,0.1,0.3,0.2,0.4,0.1l0,0l1.6-0.9c0.1-0.1,0.2-0.3,0.1-0.4l0,0l-0.3-0.6c0.4,0,0.8,0.2,1,0.5L212.6,94.4z"/>
	<path d="M215.4,90.3l-0.2,0.1l-1.4,0.8l-0.2,0.1c-0.7,0.5-0.8,1.4-0.4,2.1l0.9,1.5c0.1,0.1,0.3,0.2,0.4,0.1l3.8-2.2
		c0.1-0.1,0.2-0.3,0.1-0.4l0,0l-0.9-1.5C217,90.3,216.2,90,215.4,90.3z M214.3,91.6l1.1-0.6l0.2,0.4l-1.1,0.6L214.3,91.6z
		 M217.6,92.6l-3.2,1.9l-0.1-0.3l3.2-1.9L217.6,92.6z M217.2,91.7l-3.2,1.9l-0.3-0.4c-0.2-0.4-0.2-0.8,0.1-1.1l0.3,0.6
		c0.1,0.1,0.3,0.2,0.4,0.1l0,0l1.6-0.9c0.1-0.1,0.2-0.3,0.1-0.4l0,0l-0.3-0.6c0.4,0,0.8,0.2,1,0.5L217.2,91.7z"/>
</g>
<g class="st1">
	<path d="M13,5.8l-2.3-4c-0.2-0.4-0.8-0.6-1.3-0.4l0,0L8.6,1.9C8.5,2,8.4,2,8.4,2.1l0,0C8.1,1.7,7.6,1.5,7.1,1.8L6.3,2.3
		C5.9,2.6,5.7,3.1,6,3.6l0,0l0.9,1.6L0.1,9v0.7l7-4.1l1,1.6l-8,4.6v0.7l8.3-4.8l0.9,1.6c0.3,0.4,0.8,0.6,1.3,0.4l0,0l0,0l0.8-0.5
		c0.4-0.3,0.6-0.8,0.3-1.3l-0.2-0.3c0.1,0,0.2,0,0.3-0.1L12.6,7C13.1,6.9,13.2,6.3,13,5.8L13,5.8z M11.1,8.8l-0.8,0.5
		c-0.1,0.1-0.3,0-0.4-0.1L6.5,3.3C6.4,3.1,6.5,3,6.6,2.9l0.8-0.5c0.1-0.1,0.3,0,0.4,0.1l3.4,5.9C11.3,8.5,11.3,8.7,11.1,8.8
		L11.1,8.8z M12.4,6.7l-0.8,0.5c-0.1,0.1-0.3,0.1-0.4-0.1l0,0l0,0l-2.3-4C8.8,3,8.9,2.8,9,2.7l0.8-0.5c0.1-0.1,0.3,0,0.4,0.1l2.3,4
		C12.5,6.4,12.5,6.6,12.4,6.7L12.4,6.7z"/>
	<path d="M7.9,4.5C7.8,4.6,7.7,4.8,7.8,4.9l0,0L8,5.2c0.1,0.1,0.3,0.2,0.4,0.1c0.1-0.1,0.2-0.2,0.1-0.4l0,0L8.4,4.6
		C8.2,4.4,8,4.4,7.9,4.5C7.9,4.4,7.9,4.4,7.9,4.5L7.9,4.5z"/>
	<path d="M8.5,5.5C8.4,5.6,8.3,5.8,8.4,5.9l0.2,0.3C8.7,6.4,8.8,6.5,9,6.4S9.3,6.2,9.2,6l0,0V5.9L9,5.7C8.9,5.6,8.7,5.5,8.5,5.5
		L8.5,5.5L8.5,5.5z"/>
	<path d="M9.1,6.6C9,6.7,8.9,6.9,9,7l0.2,0.3c0.1,0.1,0.3,0.1,0.4,0l0,0c0.1-0.1,0.1-0.2,0.1-0.4L9.6,6.7C9.5,6.5,9.3,6.5,9.1,6.6
		C9.2,6.5,9.2,6.5,9.1,6.6L9.1,6.6L9.1,6.6z"/>
</g>
<g class="st1">
	<path d="M23.9,82.6l-0.2-0.3c-2.3-4-7.3-5.3-11.3-3s-5.3,7.3-3,11.3l0,0l0,0l0.2,0.3c-0.6,0.9-0.7,2.1-0.1,3l1.2,2.1
		c0.8,1.3,2.5,1.8,3.8,1l0.3,0.5c0.1,0.1,0.3,0.2,0.4,0.1l1.1-0.6c0.1-0.1,0.2-0.3,0.1-0.4l-4.7-8.1c-0.1-0.1-0.3-0.2-0.4-0.1
		l-0.7,0.4c-1.3-3.4,0.4-7.1,3.8-8.4c2.6-1,5.6-0.2,7.4,2L21,82.8c-0.1,0.1-0.2,0.3-0.1,0.4l0,0l4.7,8.1c0.1,0.1,0.3,0.2,0.4,0.1
		l1.1-0.6c0.1-0.1,0.2-0.3,0.1-0.4l-0.3-0.5c1.3-0.8,1.8-2.5,1-3.8l-1.3-2.2C26,83,24.9,82.5,23.9,82.6z M14.2,96.6
		c-1,0.6-2.4,0.3-3-0.7l0,0l0,0l0,0l-1.3-2.2c-0.6-1-0.3-2.4,0.8-3l0,0L14.2,96.6z M11.4,89.2l4.4,7.6l-0.5,0.3L11,89.6L11.4,89.2z
		 M26.4,90.6l-0.5,0.3l-4.4-7.5l0.5-0.3L26.4,90.6z M22.4,82.3c-2.4-3.1-6.9-3.8-10-1.4c-2.6,2-3.5,5.5-2.3,8.5v0.1l0.1,0.1
		c0.1,0.1,0.1,0.3,0.2,0.4c-0.1,0.1-0.3,0.2-0.4,0.3l-0.1-0.1c-2.1-3.7-0.9-8.3,2.8-10.4s8.3-0.9,10.4,2.8l0,0l0,0
		c0,0,0,0.1,0.1,0.1c-0.2,0.1-0.3,0.1-0.5,0.2l-0.3-0.4l-0.1-0.1C22.4,82.4,22.4,82.4,22.4,82.3L22.4,82.3z M27.3,86.5
		c0.6,1,0.3,2.3-0.7,3l0,0l0,0l0,0l-3.4-6c1-0.6,2.4-0.3,3,0.7l0,0l0,0l0,0L27.3,86.5z"/>
	<path d="M11.9,94.5c-0.1,0.1-0.2,0.3-0.1,0.4l0,0l0.1,0.3c0.1,0.1,0.3,0.2,0.4,0.1l0,0c0.1-0.1,0.2-0.3,0.1-0.4l-0.2-0.3
		C12.2,94.4,12,94.4,11.9,94.5L11.9,94.5z"/>
	<path d="M11.3,93.4c-0.1,0.1-0.2,0.3-0.1,0.4l0,0l0.1,0.3c0.1,0.1,0.3,0.2,0.4,0.1c0.1-0.1,0.2-0.3,0.1-0.4l-0.2-0.3
		C11.6,93.4,11.4,93.3,11.3,93.4z"/>
	<path d="M10.6,92.3c-0.1,0.1-0.2,0.3-0.1,0.4l0.2,0.3c0.1,0.1,0.3,0.2,0.4,0.1l0,0c0.1-0.1,0.2-0.3,0.1-0.4L11,92.4
		C11,92.3,10.8,92.2,10.6,92.3z"/>
</g>
<g class="st1">
	<path d="M248.2,3.5c-0.1,0.1-0.2,0.3-0.1,0.4c0.1,0.1,0.3,0.2,0.4,0.1c1.1-0.6,2.5-0.2,3.1,0.8c0.1,0.2,0.2,0.3,0.4,0.2
		s0.3-0.2,0.2-0.4l0,0l0,0C251.5,3.2,249.7,2.7,248.2,3.5C248.3,3.5,248.2,3.5,248.2,3.5L248.2,3.5z"/>
	<path d="M263.3,1.8L263.3,1.8c-0.3,0.6-0.8,1.1-1.3,1.5l-1,0.5c-1.4,0.8-3.1,0.3-3.9-1.1l-0.6-0.9h-0.9c0.1,0.1,0.2,0.1,0.3,0.2
		c-0.5-0.1-1.1-0.1-1.6,0.2l-0.5,0.3c-0.5,0.3-0.8,0.7-1,1.3c-0.2-0.7,0-1.4,0.7-1.8l0.4-0.2c-0.1,0-0.3,0-0.4,0h-0.6
		c-0.4,0.3-0.6,0.8-0.7,1.3c-1.1-1-2.7-1.2-4-0.5l-0.9,0.5c-1.7,1-2.2,3.1-1.3,4.8l0.5,0.9c1,1.7,3.1,2.3,4.8,1.3l0.9-0.5
		c1.5-0.9,2.1-2.7,1.5-4.3c0-0.1,0-0.1,0-0.2c-0.4-0.7-0.2-1.6,0.4-2.1l0.5-0.3c0.7-0.4,1.6-0.2,2,0.5l0,0l0,0l0.1,0.1
		c1.1,1.3,3,1.7,4.5,0.8l0.9-0.6c0.8-0.4,1.3-1.2,1.6-2L263.3,1.8z M251.8,9.1l-0.9,0.5c-1.4,0.8-3.1,0.4-4-1l0,0l0,0l0,0l-0.6-0.9
		c-0.8-1.4-0.4-3.1,1-4l0,0l0,0l0,0l0.9-0.5c1.3-0.8,3.1-0.4,4,0.9l0,0v0.1v0.1l0.5,0.9C253.6,6.5,253.2,8.3,251.8,9.1
		C251.8,9.1,251.8,9.2,251.8,9.1L251.8,9.1L251.8,9.1z"/>
	<path d="M251.6,7.4l-0.3,0.2c-0.1,0.1-0.2,0.3-0.1,0.4c0.1,0.1,0.3,0.2,0.4,0.1l0.3-0.2c0.1-0.1,0.2-0.3,0.1-0.4
		C251.9,7.3,251.7,7.3,251.6,7.4z"/>
	<path d="M250.5,8l-0.3,0.2c-0.1,0.1-0.2,0.3-0.1,0.4c0.1,0.1,0.3,0.2,0.4,0.1l0,0l0.3-0.2c0.1-0.1,0.2-0.3,0.1-0.4
		C250.8,8,250.7,7.9,250.5,8z"/>
	<path d="M249.4,8.6l-0.2,0.1c-0.1,0.1-0.2,0.3-0.1,0.4c0.1,0.1,0.3,0.2,0.4,0.1l0,0l0.3-0.2c0.1-0.1,0.2-0.3,0.1-0.4l0,0
		C249.8,8.6,249.6,8.5,249.4,8.6z"/>
</g>
<g class="st1">
	<path d="M303.6,32.3L303.6,32.3c-5.2-1.4-10.5,1.6-11.9,6.8l0,0v0.1l0,0c-0.7,2.6,0.4,4.9,1.6,7c0.1,0.1,0.1,0.1,0.2,0.1l14,3.3
		c0.1,0,0.1,0,0.2,0l0,0c1.7-1.3,2.2-3.3,2.7-5.2v-0.1C311.8,39.1,308.7,33.8,303.6,32.3z M307.5,49l-13.7-3.2
		c-1.1-2-2.1-4.1-1.5-6.4c1.2-4.8,6.1-7.7,10.9-6.5c0,0,0,0,0.1,0h0.2c1.9,0.5,3.6,1.6,4.8,3.2l-7.7,2.6h-0.1
		c-0.9-1-2.5-1.1-3.5-0.2l0,0l0,0c-1,0.9-1.1,2.5-0.2,3.5c0.7,0.8,1.8,1,2.8,0.6h0.1l9.8,2.6C309.2,46.7,308.5,48,307.5,49L307.5,49
		z M300.4,39.5c0.5,0.9,0.2,2-0.7,2.5c-0.9,0.5-2,0.2-2.5-0.7s-0.2-2,0.7-2.5l0,0l0,0C298.7,38.3,299.8,38.6,300.4,39.5z
		 M309.9,44.1v0.1l-0.1,0.6l-9.3-2.5c0.8-0.8,1.1-2,0.5-3l7.7-2.6c0.1,0.2,0.2,0.4,0.3,0.5C310.2,39.3,310.5,41.8,309.9,44.1
		L309.9,44.1z"/>
	<path d="M298.1,39c-0.7,0.3-1,1.2-0.6,1.9c0.3,0.7,1.2,1,1.9,0.6l0.1-0.1c0.7-0.4,0.9-1.2,0.5-1.9l0,0l0,0
		C299.6,38.9,298.8,38.6,298.1,39L298.1,39L298.1,39L298.1,39z M299.2,40.9c-0.4,0.2-0.8,0.1-1-0.3l0,0c-0.2-0.3-0.1-0.8,0.3-1l0,0
		c0.4-0.2,0.8-0.1,1,0.3l0,0C299.6,40.2,299.5,40.7,299.2,40.9L299.2,40.9L299.2,40.9L299.2,40.9z"/>
	<path d="M293.1,41.9c-0.1,0.1-0.2,0.3-0.1,0.4l0.2,0.3c0.1,0.2,0.2,0.3,0.4,0.2c0.2-0.1,0.3-0.2,0.2-0.4l0,0l0,0v-0.1l-0.1-0.3
		C293.6,41.9,293.4,41.8,293.1,41.9L293.1,41.9z"/>
	<path d="M293.8,42.9c-0.1,0.1-0.2,0.3-0.1,0.4l0.3,0.5c0.1,0.1,0.3,0.2,0.4,0.1l0,0c0.1-0.1,0.2-0.3,0.1-0.4l-0.3-0.5
		C294.1,42.9,293.9,42.9,293.8,42.9z"/>
	<path d="M294.5,44.3c-0.1,0.1-0.2,0.3-0.1,0.4l0,0l0.1,0.3c0.1,0.1,0.3,0.2,0.4,0.1c0.1-0.1,0.2-0.3,0.1-0.4l0,0l-0.1-0.3
		C294.9,44.2,294.7,44.2,294.5,44.3L294.5,44.3L294.5,44.3z"/>
</g>
<g class="st1">
	<path d="M360.8,53l-5.3-5.5c-0.1-0.1-0.3-0.1-0.4,0l-3.8,2.2c-0.1,0.1-0.2,0.2-0.1,0.4l2.1,7.4c0,0.2,0.2,0.3,0.4,0.2h0.1l3.2-1.9
		l5.6,9.7l-2.4,1.4c-0.2,0.1-0.3,0.2-0.2,0.4c0.1,0.2,0.2,0.3,0.4,0.2l0,0l0,0h0.1l5.6-3.2c0.1-0.1,0.2-0.3,0.1-0.4l0,0
		c-0.1-0.1-0.3-0.2-0.4-0.1l0,0l-2.7,1.5l-5.6-9.7l1.3-0.8l1.1,1.9c-0.3,0.4-0.3,1,0.1,1.3s1,0.3,1.3-0.1c0.3-0.4,0.3-1-0.1-1.3
		c-0.2-0.2-0.5-0.3-0.8-0.2l-1.1-1.9l1.3-0.8c0.1-0.1,0.2-0.3,0.1-0.4l0,0L360.8,53L360.8,53z M353.8,56.8l-2-6.8l3.3-1.9l4.9,5.1
		L353.8,56.8z"/>
	<path d="M356.3,53.9l-0.3,0.2c-0.2,0.1-0.3,0.2-0.2,0.4c0.1,0.2,0.2,0.3,0.4,0.2l0,0h0.1l0.3-0.1c0.2-0.1,0.2-0.3,0.1-0.4
		C356.7,53.9,356.5,53.8,356.3,53.9L356.3,53.9z"/>
	<path d="M355.3,54.5l-0.3,0.2c-0.2,0.1-0.3,0.2-0.2,0.4c0.1,0.2,0.2,0.3,0.4,0.2l0,0l0,0h0.1l0.3-0.1c0.1-0.1,0.2-0.3,0.1-0.4
		c-0.1-0.1-0.3-0.2-0.4-0.1l0,0l0,0V54.5z"/>
	<path d="M354.2,55.1l-0.3,0.1c-0.1,0.1-0.2,0.3-0.1,0.4c0.1,0.1,0.3,0.2,0.4,0.1l0,0l0.3-0.1c0.1-0.1,0.2-0.3,0.1-0.4
		C354.5,55.1,354.3,55,354.2,55.1z"/>
</g>
<g class="st1">
	<path d="M105.9,81.9l-11.2,6.5c-0.4,0.2-0.6,0.8-0.3,1.3l0,0l9,15.6c0.3,0.4,0.8,0.6,1.3,0.3l11.3-6.5c0.4-0.3,0.6-0.8,0.3-1.3l0,0
		l-9-15.6C106.9,81.8,106.4,81.7,105.9,81.9z M115.7,98.2c0.1,0.2,0,0.3-0.1,0.4l-11.3,6.5c-0.1,0.1-0.3,0.1-0.4-0.1l0,0l0,0
		l-1.2-2.1l11.8-6.8L115.7,98.2z M114.1,95.5l-11.8,6.8l-6.2-10.8l11.8-6.8L114.1,95.5z M107.6,84.2L95.8,91l-0.9-1.6
		c-0.1-0.2,0-0.3,0.1-0.4l11.2-6.5c0.1-0.1,0.3-0.1,0.4,0.1l0,0l0,0L107.6,84.2z"/>
	<path d="M109.6,101.3c0.4-0.2,0.6-0.8,0.3-1.3l0,0c-0.3-0.4-0.8-0.6-1.3-0.3s-0.6,0.8-0.3,1.3C108.7,101.4,109.2,101.6,109.6,101.3
		L109.6,101.3z M109,100.2c0.1-0.1,0.4-0.1,0.5,0.1s0.1,0.4-0.1,0.5l0,0c-0.1,0.1-0.3,0.1-0.4-0.1l0,0
		C108.8,100.6,108.9,100.4,109,100.2C109,100.3,109,100.3,109,100.2L109,100.2L109,100.2z"/>
	<path d="M103,85.4l-3.8,2.2C99,87.7,98.9,87.8,99,88c0.1,0.2,0.2,0.3,0.4,0.2l0,0l0,0h0.1l3.8-2.2c0.1-0.1,0.2-0.3,0.1-0.4l0,0
		C103.3,85.5,103.1,85.4,103,85.4L103,85.4z"/>
	<path d="M112.5,95.8l0.3-0.2c0.1-0.1,0.2-0.3,0.1-0.4l0,0c-0.1-0.1-0.3-0.2-0.4-0.1l-0.3,0.2c-0.1,0.1-0.2,0.3-0.1,0.4
		C112.2,95.8,112.3,95.9,112.5,95.8L112.5,95.8z"/>
	<path d="M111.4,96.3l0.3-0.2c0.1-0.1,0.2-0.3,0.1-0.4l0,0c-0.1-0.1-0.3-0.2-0.4-0.1l-0.3,0.1c-0.1,0.1-0.2,0.3-0.1,0.4
		C111,96.4,111.2,96.4,111.4,96.3L111.4,96.3L111.4,96.3z"/>
	<path d="M110.3,97l0.3-0.2c0.1-0.1,0.2-0.3,0.1-0.4l0,0c-0.1-0.1-0.3-0.2-0.4-0.1l-0.3,0.2c-0.1,0.1-0.2,0.3-0.1,0.4l0,0
		C110,97,110.2,97.1,110.3,97z"/>
</g>
<g class="st1">
	<path d="M335.6,8.2l-5.1,2.9c-1.6,0.9-2.2,3-1.2,4.7l0.9,1.6c0.1,0.1,0.3,0.2,0.4,0.1l0,0l7.8-4.5c0.1-0.1,0.2-0.3,0.1-0.4l0,0
		L336,8.3C336,8.2,335.8,8.1,335.6,8.2z M337.9,12.7l-7.2,4.2l-0.8-1.4c-0.8-1.3-0.3-3,1-3.8l4.8-2.8L337.9,12.7z"/>
	<path d="M340.2,5.6l-3.5,2c-0.1,0.1-0.2,0.3-0.1,0.4l4.4,7.5c0.1,0.1,0.3,0.2,0.4,0.1l0,0l3.5-2c0.1-0.1,0.2-0.3,0.1-0.4l0,0
		l-4.3-7.5C340.5,5.6,340.4,5.5,340.2,5.6z M344.3,13.3l-3,1.7l-4-7l3-1.7L344.3,13.3z"/>
	<path d="M348.4,13l-1.4,0.8l-5.8-10c-0.4-0.7-1.4-1-2.1-0.6l0,0l0,0l-9.6,5.6c-2.5,1.5-3.4,4.7-1.9,7.2l4,7
		c0.1,0.1,0.3,0.2,0.4,0.1l2.9-1.7c0.6,1.2,2.1,1.7,3.3,1.1c1.2-0.6,1.7-2.1,1.1-3.3l0,0l0,0c0-0.1-0.1-0.1-0.1-0.2l8.3-4.8l1.1,1.9
		c0.1,0.1,0.3,0.2,0.4,0.1l0,0c0.1-0.1,0.2-0.3,0.1-0.4l-1.1-1.9l0.5-0.3c0.1-0.1,0.2-0.3,0.1-0.4C348.7,13,348.6,13,348.4,13z
		 M338.2,21.8c-0.9,0.5-2,0.2-2.6-0.7c-0.5-0.9-0.2-2,0.7-2.6c0.9-0.5,2-0.2,2.6,0.7l0,0l0,0C339.4,20.1,339.1,21.2,338.2,21.8
		L338.2,21.8z M346.6,14.1l-7.6,4.4c-1-1-2.5-1-3.5,0c-0.6,0.6-0.9,1.6-0.6,2.4l-2.8,1.6l-3.9-6.7c-1.3-2.2-0.5-5.1,1.7-6.4l9.6-5.6
		c0.4-0.3,1-0.1,1.3,0.3l0,0l0,0L346.6,14.1z"/>
	<path d="M333.8,16.8l-0.3,0.2c-0.1,0.1-0.2,0.3-0.1,0.4c0.1,0.1,0.3,0.2,0.4,0.1l0,0l0.3-0.1c0.1-0.1,0.2-0.3,0.1-0.4l0,0
		C334.2,16.8,334,16.7,333.8,16.8L333.8,16.8z"/>
	<path d="M332.8,17.4l-0.3,0.2c-0.1,0.1-0.2,0.3-0.1,0.4l0,0c0.1,0.1,0.3,0.2,0.4,0.1l0,0l0.3-0.1c0.1-0.1,0.2-0.3,0.1-0.4l0,0
		C333.1,17.4,332.9,17.3,332.8,17.4z"/>
	<path d="M331.7,18l-0.3,0.1c-0.1,0.1-0.2,0.3-0.1,0.4l0,0c0.1,0.1,0.3,0.2,0.4,0.1l0,0l0.3-0.1c0.1-0.1,0.2-0.3,0.1-0.4l0,0
		C332,18,331.8,17.9,331.7,18z"/>
</g>
<g class="st1">
	<path d="M409.1,47.1l-1.7,1l0.1-0.6c0-0.2-0.1-0.3-0.2-0.4l-0.8-0.2l0.4-1.3l2.2,0.6v-0.1c0-0.2,0-0.4,0-0.6l-2.4-0.6
		c-0.2,0-0.3,0.1-0.4,0.2l0,0l0,0l-0.4,1.6l-1.6-0.4c-0.2,0-0.3,0.1-0.4,0.2l0,0l0,0l-0.8,3c0,0.2,0.1,0.3,0.2,0.4l0.5,0.1l-0.7,0.4
		l-1.9-3.2c-0.3-0.4-0.1-1,0.3-1.3l7.4-4.3v-0.7l-7.7,4.5c-0.7,0.4-1,1.4-0.6,2.1l0,0l0,0l0.3,0.5l-1.9,1.1
		c-0.1,0.1-0.2,0.3-0.1,0.4l2.6,4.6c0.1,0.1,0.3,0.2,0.4,0.1l0.8-0.5l0.8,1.4c0.1,0.1,0.3,0.2,0.4,0.1l0,0l1.1-0.6
		c0.1-0.1,0.2-0.3,0.1-0.4l0,0l-0.8-1.4l4.4-2.6v-0.5l-6.9,4l-2.3-4l1.6-0.9l1.4,2.4c0.1,0.1,0.3,0.2,0.4,0.1l5.8-3.4v-0.5
		C409.1,47.3,409.1,47.2,409.1,47.1z M404.1,53.2l0.6,1.1l-0.5,0.3l-0.6-1.1L404.1,53.2z M406.8,48.5l-2.2,1.3
		c0-0.1-0.1-0.1-0.2-0.1l-0.5-0.1l0.6-2.4l2.4,0.6L406.8,48.5C406.7,48.4,406.7,48.4,406.8,48.5L406.8,48.5z"/>
</g>
<g class="st1">
	<path d="M377.8,13.6c-2.4-1.5-5.6-0.9-7.1,1.5s-0.9,5.6,1.5,7.1c1.3,0.9,3,1.1,4.5,0.6c0.1-0.1,0.2-0.3,0.1-0.4
		c-0.1-0.1-0.2-0.2-0.3-0.2c-2.4,0.8-5-0.5-5.8-2.9s0.5-5,2.9-5.8s5,0.5,5.8,2.9c0.4,1.3,0.3,2.8-0.5,4c-0.3,0.5-0.7,0.9-1.2,1.3
		c-0.1,0.1-0.2,0.3-0.1,0.4c0.1,0.1,0.3,0.2,0.4,0.1l0,0c0.5-0.4,1-0.9,1.4-1.4C380.8,18.3,380.2,15.1,377.8,13.6L377.8,13.6
		L377.8,13.6L377.8,13.6z"/>
	<path d="M381,21.8c0.3-0.4,0.3-0.9,0.3-1.3c-0.1-0.4,0.1-0.7,0.3-1c0.3-0.3,0.6-0.7,0.6-1.2s-0.1-0.9-0.4-1.3
		c-0.3-0.3-0.3-0.7-0.2-1.1c0.1-0.4,0.1-0.9-0.1-1.3c-0.2-0.4-0.6-0.7-1-0.9c-0.4-0.1-0.6-0.4-0.7-0.8c-0.1-0.4-0.4-0.8-0.8-1.1
		s-0.9-0.3-1.3-0.2s-0.7-0.1-1-0.3c-0.6-0.7-1.7-0.8-2.5-0.1c-0.3,0.3-0.7,0.3-1,0.2c-0.4-0.1-0.9-0.1-1.3,0.1
		c-0.4,0.2-0.7,0.6-0.9,1c-0.1,0.4-0.4,0.6-0.8,0.7c-0.9,0.2-1.5,1.1-1.3,2.1c0.1,0.4,0,0.8-0.3,1c-0.3,0.3-0.5,0.7-0.6,1.2
		c0,0.5,0.1,0.9,0.4,1.3c0.2,0.3,0.3,0.7,0.2,1c-0.1,0.4-0.1,0.9,0.1,1.3c0.1,0.3,0.4,0.6,0.7,0.7l-0.9,1.4
		c-0.1,0.1-0.1,0.3,0.1,0.4l0,0c0.1,0.1,0.3,0.1,0.4-0.1l0,0l0,0l1-1.5c0.3,0.2,0.4,0.4,0.5,0.7l0,0l-2.8,4.3h-1l1.5-2.3
		c0.1-0.1,0.1-0.3-0.1-0.4l0,0l0,0c-0.1-0.1-0.3-0.1-0.4,0.1l-1.6,2.4c-0.1,0.2-0.1,0.4,0,0.6c0,0.1,0.1,0.2,0.2,0.2
		c0.1,0.1,0.2,0.1,0.3,0.1h2l0.2,0.5l0.6,1.3c0.1,0.2,0.3,0.3,0.5,0.3s0.4-0.1,0.5-0.3l3.2-4.9c0.7,0.5,1.6,0.4,2.2-0.1
		c0.3-0.2,0.6-0.3,1-0.2s0.9,0.1,1.3-0.1c0.4-0.2,0.7-0.6,0.9-1c0.1-0.4,0.4-0.6,0.8-0.7C380.3,22.4,380.7,22.2,381,21.8L381,21.8z
		 M369.3,27.8l-0.2-0.5c0-0.1-0.1-0.2-0.3-0.2h-0.5l2.4-3.7c0.1,0.2,0.3,0.3,0.5,0.4c0.2,0.1,0.4,0.2,0.6,0.2L369.3,27.8z M370,29.3
		l-0.4-0.9l2.8-4.3l0,0c0.3-0.1,0.6,0,0.8,0.2L370,29.3z M379.8,22c-0.6,0.1-1,0.5-1.2,1.1c-0.1,0.3-0.3,0.5-0.6,0.7
		c-0.3,0.1-0.6,0.2-0.9,0.1c-0.6-0.2-1.2,0-1.6,0.4c-0.5,0.4-1.2,0.4-1.6-0.1c-0.4-0.4-1-0.6-1.6-0.5s-1.2-0.3-1.3-0.9l0,0
		c-0.1-0.4-0.4-0.8-0.7-1c-0.1-0.1-0.3-0.1-0.4-0.2c-0.3-0.1-0.5-0.3-0.7-0.6c-0.1-0.3-0.2-0.6-0.1-0.9c0.2-0.6,0-1.2-0.4-1.6
		c-0.2-0.2-0.3-0.5-0.3-0.8s0.2-0.6,0.4-0.8c0.4-0.4,0.6-1,0.5-1.6c-0.1-0.3,0-0.6,0.2-0.9c0.2-0.3,0.4-0.4,0.7-0.5
		c0.6-0.1,1-0.5,1.2-1.1c0.1-0.3,0.3-0.5,0.6-0.7c0.3-0.1,0.6-0.2,0.9-0.1c0.6,0.2,1.2,0.1,1.6-0.3c0.2-0.2,0.5-0.3,0.8-0.3
		s0.6,0.2,0.8,0.4c0.4,0.4,1,0.6,1.6,0.5c0.3-0.1,0.6,0,0.9,0.2s0.4,0.4,0.5,0.7c0.1,0.6,0.5,1,1.1,1.2c0.3,0.1,0.5,0.3,0.7,0.6
		c0.1,0.3,0.2,0.6,0.1,0.9c-0.2,0.6-0.1,1.2,0.3,1.6c0.2,0.2,0.3,0.5,0.3,0.8s-0.2,0.6-0.4,0.8c-0.4,0.4-0.6,1-0.5,1.6
		c0.1,0.3,0,0.6-0.2,0.9C380.4,21.8,380.1,22,379.8,22L379.8,22z"/>
</g>
<g class="st1">
	<path d="M238.1,45.9L249,53c0.3,0.2,0.7,0.1,0.9-0.2l0,0l1.4-2.2c0.2-0.3,0.1-0.7-0.2-0.9l0,0l-8.2-5.3c-0.1-0.1-0.3-0.1-0.4,0.1
		s-0.1,0.3,0.1,0.4l0,0l8.2,5.3v0.1l-1.4,2.2 M249.3,52.5L249.3,52.5l-10.9-7v-0.1l1.4-2.2h0.1l1.5,1c0.1,0.1,0.3,0.1,0.4-0.1l0,0
		c0.1-0.1,0.1-0.3-0.1-0.4l0,0l0,0l-1.5-1c-0.3-0.2-0.7-0.1-0.9,0.2l0,0l-1.4,2.2c-0.2,0.3-0.1,0.6,0.1,0.8L249.3,52.5z"/>
	<path d="M236.9,47.1l11.5,7.4c0.1,0.1,0.3,0.1,0.4-0.1c0.1-0.1,0.1-0.3-0.1-0.4l-11.5-7.4c-0.1-0.1-0.3,0-0.4,0.1
		C236.8,46.8,236.8,47,236.9,47.1L236.9,47.1z"/>
	<path d="M236.3,48.1l11.5,7.4c0.1,0.1,0.3,0,0.4-0.1c0.1-0.1,0-0.3-0.1-0.4l0,0l-11.5-7.4c-0.1-0.1-0.3-0.1-0.4,0.1
		C236.1,47.9,236.1,48,236.3,48.1L236.3,48.1L236.3,48.1z"/>
	<path d="M255.7,47.5l-12.6-8.2l14,5.3c0.1,0.1,0.3,0.1,0.4,0c0.1-0.1,0.2-0.2,0.3-0.3l0.8-2.1c0.1-0.3,0-0.6-0.3-0.7l0,0l0,0
		L241.2,35c-0.3-0.1-0.6,0-0.7,0.3l0,0l0,0l-0.9,2.3l-1.3,2c-0.2,0.3-0.1,0.6,0.1,0.8l0,0l0.2,0.1l-5.2,8c-0.2,0.3-0.1,0.7,0.2,0.9
		l13.9,9c0.3,0.2,0.7,0.1,0.9-0.2l0,0l0,0l5.2-8l0.2,0.1c0.3,0.2,0.6,0.1,0.8-0.1l0,0l1.2-1.9c0.2-0.3,0.1-0.6-0.2-0.8L255.7,47.5z
		 M253.9,47l-2.3,1.2l-1.1-0.7l2.3-1.2L253.9,47z M252.3,45.9l-2.3,1.2l-1.2-0.8l2.3-1.1L252.3,45.9z M250.5,44.8l-2.3,1.2l-1.1-0.7
		l2.3-1.2L250.5,44.8z M248.9,43.7l-2.3,1.2l-1.2-0.8l2.3-1.1L248.9,43.7z M247.1,42.6l-2.3,1.1l-1.1-0.7l2.3-1.1L247.1,42.6z
		 M245.4,41.5l-2.3,1.2l-1.2-0.8l2.3-1.1L245.4,41.5z M243.7,40.3l-2.3,1.1l-1.1-0.7l2.3-1.1L243.7,40.3z M256.5,41.3l-0.4,0.3
		c-0.1,0.1-0.1,0.3,0,0.4c0.1,0.1,0.3,0.1,0.4,0l0.6-0.5l1,0.4l-0.8,2.1l-2.2-0.8l0.3-0.2c0.1-0.1,0.1-0.3,0-0.4
		c-0.1-0.1-0.3-0.1-0.4,0l0,0l0,0l-0.5,0.4l0,0l-1.2-0.4l2-1.6L256.5,41.3z M254.6,40.6l-2,1.6l-1.3-0.5l2-1.6L254.6,40.6z
		 M252.7,39.9l-2,1.6l-0.5-0.2l-0.8-0.3l2-1.6L252.7,39.9z M250.8,39.2l-2,1.6l-1.3-0.5l2-1.6L250.8,39.2z M248.1,38.2l0.8,0.3
		l-2,1.6l-1.2-0.5l2-1.6L248.1,38.2z M247,37.8l-2,1.6l-1.3-0.5l2-1.6L247,37.8z M244.9,37l0.2,0.1l-2,1.6l-1.2-0.5l2-1.6L244.9,37z
		 M240.2,37.6l0.8-2l2.2,0.8l-2,1.6L240.2,37.6z M238.9,39.8l1.1-1.7l0.5,0.2l1.5,1l-2.3,1.2L238.9,39.8z M248.1,57.8H248l0,0l0,0
		l-13.9-9v-0.1l0,0l5.2-8l14,9.1L248.1,57.8z M254.2,49.8l-2-1.3l2.3-1.1l0.9,0.6L254.2,49.8z"/>
</g>
<g class="st1">
	<path d="M18.9,48.3c0.1-0.2,0.1-0.4,0.1-0.5c-0.1-0.2-0.2-0.3-0.4-0.4l-0.7-0.3c-0.8-0.4-1.6-0.8-2.4-1.2l-0.1-0.1
		c0.5-0.2,1-0.4,1.5-0.6c0.7-0.4,1.2-1,1.4-1.7c0.4-1.3-0.4-2.7-1.7-3.1l0,0c-0.5-0.1-0.9-0.1-1.4,0c0.2-0.5,0.3-1.1,0.1-1.6
		c-0.3-1.3-1.6-2-2.8-1.8c-0.5,0.1-1,0.4-1.4,0.8c-0.1-0.5-0.3-1.1-0.7-1.5c-0.9-0.9-2.3-1-3.3-0.3C7,36.1,6.9,36.3,7,36.4
		c0.1,0.1,0.3,0.2,0.4,0.1l0,0c0.4-0.3,0.8-0.4,1.3-0.4s0.9,0.2,1.3,0.6c0.4,0.5,0.6,1.1,0.6,1.7c-0.3,0.5-0.6,1-0.8,1.6H9.5
		c-0.5,0.1-0.8,0.4-1,0.9c-0.3,0-0.6,0.1-0.9,0.3c-0.3-0.3-0.6-0.6-1-0.9v-0.2c-0.2-0.8-0.2-1.7,0-2.6c0.1-0.2,0-0.3-0.2-0.4l0,0
		l0,0c-0.2-0.1-0.3,0-0.4,0.2l0,0l0,0c-0.2,0.8-0.2,1.6-0.1,2.4l-0.1-0.1c-0.7-0.6-1.4-1.2-2.1-1.7l-0.6-0.5c-0.3-0.3-0.7-0.3-0.9,0
		l0,0l-0.1,0.1C0.9,39.1,0.2,41,0.2,43c0.1,1.1,0.5,2.2,1.3,3.1c0.8,1,1.9,1.7,3.1,2c0.8,0.1,1.5-0.1,2.2-0.5l0,0
		c0.2-0.1,0.4-0.1,0.6,0s0.3,0.3,0.3,0.6l0,0c-0.2,1.4,0.5,2.7,1.7,3.4c0.6,0.4,1.2,0.6,1.8,0.8c1.1,0.3,2.3,0.3,3.4-0.1
		c0.9-0.4,1.8-0.9,2.5-1.6C17.8,49.9,18.4,49.1,18.9,48.3L18.9,48.3z M14.8,41.1c0.6-0.3,1.2-0.3,1.8-0.1c0.4,0.2,0.8,0.5,1,0.9
		s0.3,0.9,0.1,1.4c-0.3,1.1-1.7,1.8-3,2h-0.2c-0.4-0.2-0.8-0.4-1.2-0.5c0.1-0.3,0-0.6-0.1-0.9c0.3-0.3,0.5-0.8,0.4-1.3v-0.1
		C14,42,14.4,41.6,14.8,41.1z M12.5,37.5c1-0.1,1.9,0.5,2.2,1.4c0.3,1-0.5,2.2-1.4,3.1c-0.2-0.2-0.3-0.3-0.6-0.4
		c0-0.8-0.6-1.4-1.3-1.4l0,0l0,0c-0.2,0-0.5,0.1-0.7,0.1c-0.2-0.2-0.3-0.3-0.5-0.3C10.6,38.8,11.4,37.7,12.5,37.5L12.5,37.5z
		 M8.7,41.4c0.1,0,0.2,0,0.2,0C9,41.4,9,41.3,9,41.2c0-0.3,0.3-0.6,0.6-0.7c0.2,0,0.4,0,0.6,0.1c0.1,0.1,0.2,0.2,0.2,0.3
		s0.1,0.1,0.2,0.1c0.1,0,0.2,0,0.2-0.1c0.4-0.3,0.9-0.2,1.1,0.2l0,0l0,0c0.1,0.2,0.2,0.4,0.1,0.7c0,0.1,0,0.2,0,0.2
		c0,0.1,0.1,0.1,0.2,0.1c0.4,0.1,0.7,0.5,0.7,0.9l0,0l0,0c0,0.2-0.2,0.4-0.4,0.6c-0.1,0-0.1,0.1-0.1,0.2c0,0.1,0,0.2,0.1,0.2
		c0.1,0.2,0.2,0.4,0.1,0.6c-0.3-0.1-0.6-0.1-0.9-0.1c-0.3,0-0.7,0-1,0c-0.9,0.1-1.7-0.5-2-1.3c-0.1-0.3-0.2-0.7-0.4-1
		c-0.1-0.3-0.3-0.5-0.5-0.8C8.2,41.4,8.4,41.3,8.7,41.4L8.7,41.4z M14.5,51.7c-1,0.4-2,0.4-3,0.1c-1.1-0.3-2.1-0.9-2.8-1.8
		c-0.3-0.6-0.4-1.2-0.4-1.9l0,0c0-0.7-0.5-1.2-1.1-1.3c-0.2,0-0.4,0-0.6,0.1l0,0c-0.6,0.3-1.2,0.5-1.8,0.4c-1.1-0.3-2-0.9-2.7-1.8
		c-0.7-0.8-1.1-1.7-1.2-2.8c0-1.8,0.6-3.6,1.8-5.1c0,0,0,0,0.1,0c0,0,0,0,0.1,0l0.6,0.5c0.7,0.6,1.4,1.2,2.1,1.8
		c1,0.7,1.8,1.5,2.5,2.5c0.1,0.3,0.2,0.6,0.3,0.9c0.4,1.1,1.5,1.8,2.6,1.7h1c0.5,0,1.2,0.1,3.3,1.2c0.8,0.4,1.7,0.9,2.5,1.2l0.7,0.3
		l0,0 M18.5,48c-0.9,1.6-2.3,3-4,3.7L18.5,48z"/>
	<path d="M6.2,43c-0.4-0.7-1-1.3-1.6-1.8c-0.3-0.2-0.5-0.4-0.8-0.6c-0.3-0.2-0.6-0.2-0.8,0.1l0,0l0,0c-0.4,0.6-0.7,1.3-0.6,2
		c0,0.7,0.3,1.3,0.7,1.8c0.2,0.3,0.5,0.6,0.9,0.8c0.5,0.3,1.1,0.6,1.8,0.6H6c0.3,0,0.6-0.2,0.6-0.5C6.7,44.6,6.6,43.8,6.2,43L6.2,43
		z M6.1,45.3H5.8c-0.9-0.1-1.7-0.5-2.3-1.2C3.2,43.7,3,43.2,3,42.7c0-0.6,0.2-1.1,0.5-1.6l0,0c0.2,0.2,0.5,0.4,0.7,0.6
		C5.1,42.4,6.4,43.8,6.1,45.3L6.1,45.3L6.1,45.3z"/>
	<path d="M15.7,48.4c0-0.2-0.1-0.3-0.3-0.4c-0.3-0.1-0.5-0.3-0.9-0.4c-0.7-0.4-1.5-0.6-2.3-0.7c-0.8-0.1-1.7,0.1-2.4,0.5
		c-0.2,0.2-0.3,0.5-0.2,0.8c0.1,0.2,0.1,0.3,0.1,0.3c0.3,0.5,0.8,1,1.3,1.4c0.3,0.2,0.7,0.4,1.1,0.5c0.4,0.1,0.9,0.1,1.3,0.1
		c0.2,0,0.3-0.2,0.3-0.3c0-0.2-0.2-0.3-0.3-0.3c-0.4,0-0.7,0-1.1-0.1c-0.8-0.2-1.6-0.8-2-1.6c0-0.1-0.1-0.1-0.1-0.2l0,0
		c1.3-0.9,3.2-0.3,4.1,0.2l0.8,0.4l0,0c-0.2,0.3-0.4,0.6-0.6,0.8c-0.1,0.1-0.1,0.3-0.1,0.4c0.1,0.1,0.3,0.1,0.4,0.1l0,0l0,0
		c0.3-0.3,0.6-0.6,0.8-0.9C15.7,48.7,15.7,48.6,15.7,48.4L15.7,48.4z"/>
</g>
<g class="st1">
	<path d="M111.1,46.6l-3.7-2.4c-0.1-0.1-0.3-0.1-0.4,0.1c-0.1,0.1-0.1,0.3,0.1,0.4l0,0l3.7,2.4c0.1,0,0.1,0.1,0.1,0.2
		c0,0.1,0,0.1-0.1,0.2c-0.6,0.8-1.3,1.4-2.1,1.9c-0.5,0.2-1,0.4-1.5,0.4c-1.4,0-2.7-0.8-3.4-2c-0.3-0.6-0.5-1.2-0.5-1.9
		c0.1-0.9,0.4-1.9,0.8-2.7c0.1-0.1,0.2-0.2,0.3-0.1l0,0l0,0l1.4,0.9c0.1,0.1,0.3,0.1,0.4-0.1c0.1-0.1,0.1-0.3-0.1-0.4l0,0l-1.4-0.9
		c-0.4-0.2-0.9-0.1-1.1,0.2l0,0l-0.1,0.1c-0.5,0.9-0.8,1.9-0.9,2.9c0,1.4,0.6,2.7,1.7,3.5c1.1,0.9,2.6,1.2,3.9,0.8
		c0.2-0.1,0.4-0.1,0.5-0.2c0.9-0.5,1.7-1.2,2.3-2c0.2-0.2,0.2-0.4,0.2-0.7C111.4,46.9,111.2,46.7,111.1,46.6L111.1,46.6z"/>
	<path d="M112.2,53.1c-0.1,0-0.2-0.1-0.3-0.2c0-0.1,0-0.2,0-0.2c0.3-0.2,0.6-0.3,0.9-0.3h0.2c0.2,0,0.5-0.1,0.7-0.1
		c2.3-0.6,3.4-2,3.1-3.8c-0.1-0.8-0.6-1.5-1.2-1.9c-0.2-0.2-0.4-0.3-0.7-0.4c0.1-0.1,0.2-0.2,0.3-0.2c0.4-0.3,0.4-0.8,0.1-1.2l0,0
		l0,0c-0.1-0.1-0.1-0.1-0.2-0.2l-9.9-6.4c-0.4-0.3-0.9-0.1-1.2,0.3l0,0l0,0c-0.1,0.1-0.1,0.2-0.1,0.3c-0.3,0.9-0.6,1.8-1,2.6
		l-0.1,0.2c-0.1,0.2-0.2,0.4-0.3,0.7c-0.6,1.2-1,2.6-1.2,3.9c0,0.9,0.1,1.7,0.5,2.5h-0.3c-0.7,0-1.3,0.3-1.7,0.8l-1.5-1
		c-0.3-0.2-0.7-0.2-0.9,0.1l0,0c0,0.1-0.1,0.1-0.1,0.2c0,0.1-0.1,0.2-0.1,0.3C97,49.9,97.3,50.6,98,51l6.5,4.1
		c0.1,0.1,0.3,0.1,0.4-0.1l0,0c0.1-0.1,0.1-0.3-0.1-0.4l0,0l0,0l-6.4-4.1c-0.4-0.3-0.6-0.8-0.5-1.3c0-0.1,0-0.2,0.1-0.2l0,0
		l10.3,6.6l0,0 M108.3,55.4l-0.2,0.2c-0.4,0.3-0.9,0.3-1.4,0.1l-0.9-0.6c-0.1-0.1-0.3-0.1-0.4,0.1l0,0c-0.1,0.1-0.1,0.3,0.1,0.4l0,0
		l0.9,0.6c0.6,0.4,1.5,0.4,2.1-0.1c0.1-0.1,0.2-0.1,0.2-0.2c0.1-0.1,0.2-0.3,0.2-0.5s-0.1-0.4-0.3-0.5l-1.4-1c0.3-0.6,0.3-1.3,0-1.9
		c0-0.1-0.1-0.2-0.1-0.3c0.6,0,1.1,0,1.7-0.2c0.3-0.1,0.6-0.2,0.8-0.3c1.2-0.7,2.2-1.6,3.1-2.7l0.5-0.6l0.2-0.3h0.1
		c0.3,0,0.7,0.1,0.9,0.3c0.3,0.2,0.4,0.5,0.5,0.9c0.1,0.7-0.2,1.1-1.6,1.5c-0.2,0-0.4,0.1-0.5,0.1c-0.8,0-1.6,0.4-2.2,1
		c-0.5,0.6-0.6,1.4-0.4,2.2c0.2,0.4,0.5,0.8,0.9,1.1l0.2,0.1c0.2,0.1,0.4,0.2,0.6,0.2c0.6,0,1-0.5,1-1c0-0.4-0.2-0.7-0.5-0.9
		L108.3,55.4z M106.6,53.5l-6.2-4c0.5-0.5,1.2-0.6,1.9-0.4c0.4,0.5,0.8,1,1.4,1.4c0.8,0.6,1.7,1,2.6,1.1
		C106.7,52.1,106.8,52.8,106.6,53.5z M114.8,45.3c-0.7,0.6-1.4,1.3-2,2c0,0-0.5,0.5-0.6,0.7c-0.8,1-1.8,1.9-2.9,2.6
		c-0.2,0.1-0.5,0.2-0.7,0.3c-1.6,0.4-3.3,0-4.6-1c-0.6-0.5-1.2-1.1-1.5-1.8c-0.4-0.7-0.5-1.5-0.5-2.3c0.1-1.3,0.5-2.5,1.1-3.6
		l0.3-0.7l0.1-0.2c0.4-0.9,0.7-1.8,1-2.7c0-0.1,0.1-0.2,0.2-0.2s0.2,0,0.3,0l9.9,6.4c0.1,0,0.1,0.1,0.1,0.2
		C114.9,45.1,114.9,45.2,114.8,45.3L114.8,45.3z M112.1,54.3c-0.1,0-0.2,0-0.3,0c-0.2,0-0.3-0.1-0.5-0.2c-0.3-0.2-0.6-0.5-0.8-0.9
		c-0.2-0.6-0.1-1.2,0.3-1.6c0.5-0.5,1.2-0.8,1.8-0.8c0.2,0,0.4,0,0.6-0.1c0.5-0.1,1-0.3,1.4-0.6c0.5-0.4,0.7-0.9,0.6-1.5
		c0-0.5-0.3-1-0.7-1.3l-0.2-0.1c-0.2-0.1-0.4-0.2-0.7-0.3c0.2-0.2,0.4-0.4,0.6-0.6c0.3,0.1,0.5,0.3,0.8,0.4c0.5,0.4,0.9,0.9,1,1.6
		c0.4,2.1-1.8,2.9-2.7,3.1c-0.2,0.1-0.4,0.1-0.7,0.1h-0.2c-0.5,0-0.9,0.2-1.2,0.5c-0.2,0.2-0.3,0.5-0.2,0.8c0.1,0.3,0.4,0.5,0.7,0.6
		c0.2,0,0.3,0.3,0.3,0.5l0,0l0,0C112.3,54.1,112.2,54.2,112.1,54.3L112.1,54.3z"/>
	<path d="M110.7,37.6c0.1,0.1,0.3,0.2,0.4,0.1c0.1-0.1,0.2-0.1,0.3,0c0.1,0.1,0.2,0.2,0.2,0.3c0,0.3-0.6,0.6-1,0.8
		c-0.2,0.1-0.3,0.2-0.5,0.2c-0.3,0.1-0.4,0.4-0.6,0.6c-0.1,0.3,0,0.7,0.3,0.9l0,0c0.2,0.1,0.3,0,0.4-0.2c0-0.1,0-0.3-0.1-0.3
		c-0.1-0.1-0.1-0.1-0.1-0.2c0.1-0.1,0.2-0.3,0.3-0.3l0.4-0.2c0.6-0.3,1.4-0.6,1.4-1.4c0-0.4-0.3-0.7-0.6-0.8
		c-0.3-0.1-0.6-0.1-0.9,0.1C110.6,37.2,110.6,37.4,110.7,37.6C110.6,37.5,110.6,37.5,110.7,37.6L110.7,37.6L110.7,37.6z"/>
	<path d="M112.7,37.1c0.2,0,0.4,0.1,0.5,0.3c0.2,0.2,0.2,0.5,0.2,0.7c-0.1,0.4-0.4,0.7-0.7,0.8l-0.7,0.4c-0.3,0.1-0.5,0.3-0.7,0.6
		c-0.1,0.2,0,0.4,0.1,0.6l0.1,0.1c0.1,0.1,0.3,0,0.4-0.1c0-0.1,0-0.2,0-0.3l0,0v-0.1c0-0.1,0.3-0.2,0.3-0.2l0.3-0.1l0.4-0.2
		c0.5-0.2,0.9-0.7,1-1.2c0.1-0.4,0-0.9-0.3-1.2c-0.2-0.3-0.6-0.5-1-0.5c-0.2,0-0.3,0.1-0.3,0.3C112.4,37,112.6,37.1,112.7,37.1
		L112.7,37.1z"/>
</g>
<g class="st1">
	<path d="M290.5,78.9c0-0.2-0.1-0.3-0.3-0.3l0,0l0,0c-3-0.5-6-1.6-8.6-3.2l-1.1-0.7c-2.5-1.7-4.7-4-6.4-6.5
		c-0.1-0.1-0.3-0.2-0.4-0.1l0,0l0,0c-0.1,0.1-0.2,0.2-0.1,0.4l0,0l0,0c0.2,0.3,0.4,0.6,0.6,0.9l-3.4,5.3c-0.1,0.2-0.1,0.4,0,0.6
		c0.1,0.2,0.3,0.3,0.5,0.3h2l0.4,0.8l0,0l0.5,1c0,0.1,0.1,0.2,0.2,0.2c0.1,0.1,0.2,0.1,0.3,0.1c0.2,0,0.4-0.1,0.5-0.3l2.7-4.2
		c0.3,0.3,0.6,0.6,1,0.9l-0.9,1.4c-0.1,0.1-0.1,0.3,0.1,0.4l0,0c0.1,0.1,0.3,0.1,0.4-0.1l0,0l0,0l0.9-1.3L280,75l-3.1,4.8H276
		l1.8-2.8c0.1-0.1,0.1-0.3-0.1-0.4l0,0c-0.1-0.1-0.3,0-0.4,0.1l-1.8,2.8c-0.1,0.2-0.1,0.4,0,0.6c0.1,0.2,0.3,0.3,0.5,0.3h2l0.8,1.8
		c0,0.1,0.1,0.2,0.2,0.2c0.1,0.1,0.2,0.1,0.3,0.1c0.2,0,0.4-0.1,0.5-0.3l3.4-5.3c0.4,0.2,0.8,0.4,1.2,0.6l-2.7,4.1
		c-0.1,0.2-0.1,0.4,0,0.6c0,0.1,0.1,0.2,0.2,0.2c0.1,0.1,0.2,0.1,0.3,0.1h1.9l0.8,1.8c0.1,0.3,0.5,0.4,0.8,0.3
		c0.1,0,0.2-0.1,0.2-0.2l3.4-5.3c0.3,0.1,0.7,0.1,1,0.2C290.4,79.1,290.5,78.9,290.5,78.9C290.5,78.8,290.5,78.8,290.5,78.9
		L290.5,78.9L290.5,78.9z M272.2,74.9h-0.9l3.3-5.1l0.5,0.6L272.2,74.9z M274.6,77l-0.4-0.8l2.5-3.9l0.6,0.5L274.6,77z M276.1,71.6
		c0.1,0.1,0.1,0.1,0.2,0.2l-2.4,3.7l-0.2-0.4c0-0.1-0.1-0.2-0.3-0.2h-0.5l2.6-4c0.1,0.1,0.2,0.2,0.3,0.3L276.1,71.6L276.1,71.6z
		 M278.4,80.3l-0.2-0.4c0-0.1-0.1-0.2-0.3-0.2h-0.5l2.9-4.4l1,0.6L278.4,80.3L278.4,80.3z M279.1,81.7l-0.4-0.8l3.1-4.8l0.6,0.3h0.1
		L279.1,81.7z M282.9,81.8H282l2.7-4.2l0.7,0.3L282.9,81.8z M284.6,82.4l-0.2-0.4c-0.1-0.1-0.2-0.2-0.3-0.2h-0.5l2.4-3.7
		c0.1,0,0.2,0,0.3,0.1l0.6,0.2l0.2,0.1h0.1L284.6,82.4z M285.3,83.9l-0.4-0.8l2.9-4.4h0.1l0.3,0.1l0.4,0.1L285.3,83.9z"/>
	<path d="M285.5,86.7c0-0.2-0.1-0.3-0.3-0.3l0,0l0,0c-3-0.5-6-1.6-8.6-3.2l-1.1-0.7c-2.5-1.7-4.7-4-6.4-6.5
		c-0.1-0.1-0.3-0.2-0.4-0.1l0,0l0,0c-0.1,0.1-0.2,0.2-0.1,0.4l0,0l0,0c0,0,0.2,0.3,0.6,0.9l-3.4,5.3c-0.1,0.2-0.1,0.4,0,0.6
		c0.1,0.2,0.3,0.3,0.5,0.3h2l0.4,0.8l0,0l0.5,1c0,0.1,0.1,0.2,0.2,0.2c0.1,0.1,0.2,0.1,0.3,0.1c0.2,0,0.4-0.1,0.5-0.3l2.7-4.2
		c0.3,0.3,0.6,0.6,1,0.9l-3.4,5.3c-0.1,0.2-0.1,0.4,0,0.6c0.1,0.2,0.3,0.3,0.5,0.3h2l0.8,1.8c0,0.1,0.1,0.2,0.2,0.2
		c0.1,0.1,0.2,0.1,0.3,0.1c0.2,0,0.4-0.1,0.5-0.3l3.5-5.3c0.4,0.2,0.8,0.4,1.2,0.6l-2.7,4.1c-0.1,0.2-0.1,0.4,0,0.6
		c0.1,0.1,0.1,0.2,0.2,0.2c0.1,0.1,0.2,0.1,0.3,0.1h1.9l0.4,0.8l0,0l0.5,1c0.1,0.3,0.5,0.4,0.7,0.3l0,0c0.1,0,0.2-0.1,0.3-0.2
		l3.4-5.1c0.3,0.1,0.7,0.1,1,0.2C285.3,87,285.4,86.9,285.5,86.7C285.5,86.8,285.5,86.8,285.5,86.7L285.5,86.7L285.5,86.7z
		 M267.2,82.7h-0.9l3.3-5.1c0.1,0.1,0.5,0.6,0.5,0.6L267.2,82.7z M269.5,84.8l-0.4-0.8l2.5-3.9l0.6,0.5L269.5,84.8z M270.7,79
		l0.2,0.2l0.4,0.5l-2.4,3.7l-0.2-0.4c0-0.1-0.1-0.1-0.1-0.1H268l2.6-4C270.5,78.8,270.6,78.9,270.7,79L270.7,79z M271.7,87.5h-0.9
		l3.4-5.2l0.1,0.1l0.1,0.1l0.4,0.3l0,0L271.7,87.5L271.7,87.5z M273.3,88.1l-0.2-0.4l-0.1-0.1c0,0-0.1-0.1-0.2-0.1h-0.5l2.9-4.4
		l1,0.6L273.3,88.1L273.3,88.1z M274,89.6l-0.4-0.8l3.1-4.8l0.6,0.3l0.1,0.1L274,89.6z M279.5,90.3l-0.2-0.4c0-0.1-0.1-0.2-0.3-0.2
		h-0.5l1-1.6c0.1-0.1,0.1-0.3-0.1-0.4l0,0l0,0c-0.1-0.1-0.3-0.1-0.4,0.1l-1.2,1.9h-0.9l2.7-4.2l0.7,0.3l-0.6,0.9
		c-0.1,0.1-0.1,0.3,0.1,0.4c0.1,0.1,0.3,0.1,0.4-0.1l0,0l0.6-1l0,0l0.5,0.2l0.6,0.2L279.5,90.3L279.5,90.3z M280.2,91.7l-0.4-0.8
		l2.9-4.4h0.1l0.5,0.1h0.2L280.2,91.7z"/>
</g>
<g class="st1">
	<path d="M64.6,105c-1.2-5.4-6.5-8.8-11.9-7.6c-5.4,1.2-8.8,6.5-7.6,11.9c0.8,3.6,3.4,6.4,6.9,7.4c0.1,0,0.3,0,0.4-0.2l0,0
		c0.1-0.2,0-0.3-0.2-0.4l0,0l0,0c-5-1.5-7.9-6.7-6.4-11.7s6.7-7.9,11.7-6.4s7.9,6.7,6.4,11.7c-1.3,4.5-5.7,7.3-10.4,6.7
		c-0.2,0-0.3,0.1-0.3,0.2l0,0c0,0.2,0.1,0.3,0.2,0.3l0,0l0,0c5.5,0.8,10.5-3,11.3-8.5C64.9,107.4,64.8,106.2,64.6,105L64.6,105z"/>
	<path d="M52.8,98.8c-4.6,1.1-7.4,5.7-6.3,10.3s5.7,7.4,10.3,6.3s7.4-5.7,6.3-10.3c-1-4-4.7-6.8-8.8-6.5c-0.2,0-0.3,0.2-0.3,0.3
		c0,0.2,0.1,0.3,0.3,0.3l0,0l0,0c1.7-0.1,3.5,0.3,4.9,1.2c3.7,2.3,4.8,7.2,2.4,10.9c-2.3,3.7-7.2,4.8-10.9,2.4
		c-3.7-2.3-4.8-7.2-2.4-10.9c1.1-1.7,2.8-2.9,4.7-3.4c0.1,0,0.2-0.2,0.2-0.3l0,0l0,0C53.2,98.9,53,98.8,52.8,98.8
		C52.9,98.8,52.9,98.8,52.8,98.8L52.8,98.8L52.8,98.8z"/>
	<path d="M57.9,102.3c0.1,0.1,0.3,0.1,0.4-0.1l0.5-0.9c0.1-0.2,0-0.3-0.1-0.4l0,0l0,0c-0.1-0.1-0.3,0-0.3,0.1l-0.5,0.9
		C57.7,102.1,57.7,102.2,57.9,102.3z"/>
	<path d="M51.3,111.9l-0.5,0.9c-0.1,0.1-0.1,0.3,0.1,0.4l0,0l0,0c0.1,0.1,0.3,0.1,0.4-0.1l0.5-0.9c0.1-0.1,0.1-0.3-0.1-0.4
		C51.6,111.7,51.4,111.7,51.3,111.9C51.3,111.8,51.3,111.8,51.3,111.9L51.3,111.9z"/>
	<path d="M49.2,103c-0.1-0.1-0.3-0.1-0.4,0.1l0,0c-0.1,0.1,0,0.3,0.1,0.4l0.8,0.5c0.1,0.1,0.3,0.1,0.4-0.1c0.1-0.1,0.1-0.3-0.1-0.4
		L49.2,103z"/>
	<path d="M60.5,111.1c0.1,0.1,0.3,0.1,0.4-0.1l0,0l0,0c0.1-0.1,0.1-0.3-0.1-0.4l-0.8-0.5c-0.2-0.1-0.3,0-0.4,0.1l0,0l0,0
		c-0.1,0.1,0,0.3,0.1,0.4L60.5,111.1z"/>
	<path d="M55.1,106c-0.6-0.2-1.2,0.1-1.4,0.7s0.1,1.2,0.7,1.4c0.4,0.1,0.8,0,1.1-0.2l1.5,1c0.1,0.1,0.3,0.1,0.4-0.1
		c0.1-0.1,0.1-0.3-0.1-0.4l0,0l0,0l-1.5-1c0.1-0.3,0-0.7-0.2-1l1.7-2.7c0.1-0.1,0-0.3-0.1-0.4s-0.3,0-0.4,0.1L55.1,106z M55.1,106.6
		c0.2,0.1,0.3,0.5,0.2,0.7s-0.5,0.3-0.7,0.2c-0.2-0.1-0.3-0.5-0.2-0.7l0,0l0,0C54.6,106.5,54.9,106.5,55.1,106.6z"/>
</g>
<g class="st1">
	<path d="M377.5,108.2l6.6-10.1c0.9-1.4,0.6-3.2-0.8-4.1l1.1-1.8c0.2-0.3,0.1-0.7-0.2-0.9l0,0l-1.4-0.9c-0.3-0.2-0.7-0.1-0.9,0.2
		l0,0l-1.1,1.8c-1.4-0.8-3.2-0.4-4.1,1l-1.4,2.2c-0.1,0.1-0.1,0.3,0.1,0.4c0.1,0.1,0.3,0.1,0.4-0.1l1.3-2l6.3,4.1l-6.4,9.8l-6.3-4.1
		l4.4-6.7c0.1-0.1,0.1-0.3-0.1-0.4c-0.1-0.1-0.3-0.1-0.4,0.1l-4.4,6.7c-0.3-0.1-0.7,0-0.9,0.3l-0.4,0.6c-0.2,0.3-0.1,0.8,0.2,1
		l4.5,2.9c0.1,0.1,0.3,0.1,0.4-0.1l0,0c0.1-0.1,0.1-0.3-0.1-0.4l0,0l0,0l-4.5-2.9c0-0.1,0-0.1,0-0.2l0,0l0,0l0.4-0.6
		c0.1-0.1,0.1-0.1,0.2,0l7.1,4.6c0.1,0.1,0.1,0.2,0,0.2l-0.4,0.6c-0.1,0.1-0.1,0.1-0.2,0l0,0l0,0l-1.4-0.9c-0.1-0.1-0.3-0.1-0.4,0.1
		l0,0c-0.1,0.1-0.1,0.3,0.1,0.4l0,0l0,0l1.4,0.9c0.3,0.2,0.8,0.1,1-0.2l0.4-0.6C377.9,108.8,377.8,108.4,377.5,108.2L377.5,108.2z
		 M382.4,91h0.1l0,0l1.4,0.9V92l-1.1,1.8l-1.5-1L382.4,91L382.4,91z M377.4,93.5c0.8-1,2.2-1.2,3.2-0.5l2.2,1.4c1,0.7,1.4,2,0.9,3.1
		L377.4,93.5z"/>
	<path d="M382.8,92c-0.1-0.1-0.3-0.1-0.4,0.1l-0.1,0.2c-0.1,0.1-0.1,0.3,0.1,0.4c0.1,0.1,0.3,0.1,0.4-0.1l0,0l0.1-0.2
		C383,92.3,383,92.1,382.8,92L382.8,92L382.8,92L382.8,92z"/>
	<path d="M388.1,94.4l-0.7-0.4c-0.1-0.1-0.3-0.1-0.4,0.1c-0.1,0.1-0.1,0.3,0.1,0.4l0.7,0.4c0.1,0.1,0.3,0.1,0.4-0.1l0,0l0,0
		C388.3,94.7,388.3,94.6,388.1,94.4L388.1,94.4z"/>
	<path d="M385.5,93.5l0.6,0.4c0.1,0.1,0.3,0.1,0.4-0.1l0,0c0.1-0.1,0-0.3-0.1-0.4l-0.7-0.4c-0.1-0.1-0.3,0-0.4,0.1
		C385.3,93.2,385.3,93.4,385.5,93.5L385.5,93.5z"/>
	<path d="M389.7,95.5l-0.6-0.4c-0.1-0.1-0.3-0.1-0.4,0.1c-0.1,0.1-0.1,0.3,0.1,0.4l0,0l0,0l0.6,0.4c0.1,0.1,0.3,0.1,0.4-0.1l0,0
		C389.9,95.8,389.9,95.6,389.7,95.5L389.7,95.5L389.7,95.5L389.7,95.5z"/>
	<path d="M385.6,94.8l-0.5-0.6c-0.1-0.1-0.3-0.2-0.4-0.1s-0.2,0.3-0.1,0.4l0.5,0.6l0.1,0.1c0.1,0.1,0.3,0.1,0.4-0.1
		C385.7,95,385.7,94.9,385.6,94.8L385.6,94.8z"/>
	<path d="M387.9,97.9l-0.5-0.6c-0.1-0.1-0.3-0.1-0.4-0.1c-0.1,0.1-0.2,0.3-0.1,0.4l0,0l0,0l0.5,0.6c0.1,0.1,0.3,0.2,0.4,0.1
		C388,98.2,388,98,387.9,97.9L387.9,97.9z"/>
	<path d="M386.8,96.3l-0.5-0.6c-0.1-0.1-0.3-0.2-0.4-0.1s-0.2,0.3-0.1,0.4l0,0l0.5,0.6c0,0,0,0.1,0.1,0.1c0.1,0.1,0.2,0.1,0.3,0
		C386.8,96.7,386.9,96.5,386.8,96.3C386.8,96.4,386.8,96.4,386.8,96.3L386.8,96.3L386.8,96.3z"/>
</g>
<g class="st1">
	<path d="M168.1,74.1c0.1,0.1,0.3,0.1,0.4-0.1l0,0l0,0l0.8-1.2c0.2-0.3,0.1-0.6-0.2-0.8l-11.8-7.6c0.2-0.5,0-1.1-0.5-1.3
		c-0.4-0.2-0.9,0-1.2,0.3l-7.3,11.2c-0.1,0.1-0.1,0.3,0.1,0.4l0,0l0,0c0.1,0.1,0.3,0.1,0.4-0.1l7.3-11.2c0.1-0.2,0.4-0.2,0.6-0.1
		c0.2,0.1,0.2,0.4,0.1,0.6l-0.1,0.2l-6.3,9.7l-3.3,5.2c-0.1,0.2-0.4,0.2-0.6,0.1l0,0c-0.2-0.1-0.2-0.4-0.1-0.6l1.8-2.7
		c0.1-0.1,0.1-0.3-0.1-0.4c-0.1-0.1-0.3-0.1-0.4,0.1l0,0l0,0l-1.8,2.7c-0.4,0.4-0.3,1.1,0.1,1.4c0.4,0.4,1.1,0.3,1.4-0.1
		c0,0,0,0,0.1-0.1l0.1-0.1l3.2-5l11.8,7.6c0.2,0.2,0.6,0.1,0.7-0.1l0,0l0,0l4.5-6.9c0.1-0.1,0.1-0.3-0.1-0.4l0,0l0,0
		c-0.1-0.1-0.3-0.1-0.4,0.1l-1.3,2l-11.7-7.6l2.8-4.4l11.7,7.6l-0.8,1.2C168,73.8,168,74,168.1,74.1L168.1,74.1z M165.6,77.3
		l-2.8,4.4l-11.7-7.6l2.8-4.4L165.6,77.3z"/>
</g>
<g class="st1">
	<path d="M153.8,16.4c0.6-0.4,1-1.1,1.1-1.9c0-0.4,0.1-0.8,0.3-1.2c0.1-0.1,0.1-0.3-0.1-0.4c-0.1-0.1-0.3-0.2-0.4-0.1
		c-0.4,0.1-0.8,0.2-1.2,0.2c-0.8,0-1.5,0.3-2,0.9c-0.3,0.3-0.5,0.7-0.6,1.1c-0.3-0.2-0.6-0.1-0.9,0.1l-0.4,0.3
		c-0.3,0.3-0.3,0.7-0.1,1l-3.5,3.3l-0.3-0.4c-0.8-1.2-0.9-1.9-0.1-2.5c0.4-0.3,0.8-0.5,1.2-0.6l0.2-0.1c0.2-0.1,0.2-0.2,0.2-0.4
		c-0.1-0.2-0.2-0.2-0.4-0.2l0,0l-0.2,0.1c-0.5,0.1-1,0.4-1.4,0.7c-0.5,0.4-0.8,1-0.8,1.7c0.1,0.6,0.4,1.2,0.8,1.6
		c0.2,0.2,0.4,0.5,0.6,0.7c0.5,0.4,0.8,1,1,1.7c0.3,1.7-1.3,3-2.9,3.5c-0.5,0.1-1,0.2-1.6,0.3c-2.3,0-4.5-0.8-6.3-2.3
		c-1.8-1.6-2.9-3.8-3.1-6.1c-0.1-1.9,0.3-3.8,1.2-5.5s2.2-3.1,3.9-4.1c3.2-1.8,7.2-1.3,9.8,1.3c0.9,1,1.4,2.3,1.3,3.6
		c0,0.9-0.5,1.8-1.3,2.4c-0.1,0.1-0.2,0.2-0.1,0.4l0,0c0.1,0.1,0.2,0.2,0.4,0.1l0,0c0.9-0.7,1.4-1.7,1.5-2.8c0.1-1.5-0.5-2.9-1.5-4
		c-1.1-1.1-2.4-1.8-3.9-2.2c-2.3-0.6-4.7-0.3-6.7,0.8c-1.7,1-3.2,2.5-4.1,4.3c-0.9,1.8-1.4,3.8-1.3,5.8c0.2,2.5,1.4,4.9,3.3,6.6
		c0.4,0.3,0.7,0.6,1.1,0.8c1.7,1.1,3.6,1.6,5.6,1.6c0.6,0,1.1-0.1,1.7-0.3c0.9-0.3,1.7-0.8,2.4-1.5s1-1.7,0.9-2.7
		c0-0.2-0.1-0.4-0.2-0.6l3.8-3.2l0.1,0.1c0.3,0.2,0.6,0.1,0.9-0.1l0.4-0.3c0.2-0.2,0.3-0.6,0.2-0.9c0.4-0.1,0.8-0.2,1.2-0.5
		L153.8,16.4z M147,20.8c-0.2-0.3-0.4-0.5-0.6-0.7l3.5-3.3l0.8,0.9L147,20.8z M152.1,17.3l-0.4,0.3c-0.1,0-0.1,0-0.2,0l0,0l-1.5-1.7
		c-0.1-0.1-0.1-0.2,0-0.2l0.4-0.3c0.1,0,0.1,0,0.2,0l0,0l0,0l1.5,1.7V17.3C152,17.2,152,17.3,152.1,17.3L152.1,17.3z M152.1,16.3
		l-0.8-0.8c0-0.5,0.2-0.9,0.5-1.3c0.4-0.4,1-0.7,1.6-0.7c0.3,0,0.7,0,1-0.1c-0.1,0.3-0.2,0.7-0.2,1c0,0.6-0.3,1.1-0.8,1.5
		C153.1,16.3,152.6,16.4,152.1,16.3L152.1,16.3z"/>
	<path d="M146.1,11.4c0.6-0.9,0.3-2-0.6-2.6c-0.9-0.6-2-0.3-2.6,0.6c-0.6,0.9-0.3,2,0.5,2.6C144.4,12.5,145.6,12.3,146.1,11.4
		L146.1,11.4z M143.9,11.5c-0.6-0.4-0.8-1.2-0.4-1.7l0,0l0,0c0.4-0.6,1.2-0.7,1.7-0.3s0.7,1.2,0.3,1.7S144.4,11.8,143.9,11.5
		L143.9,11.5z"/>
	<path d="M138.6,12.5c0.9,0.6,2,0.3,2.6-0.5c0.6-0.9,0.3-2-0.5-2.6c-0.9-0.6-2-0.3-2.6,0.5l0,0l0,0
		C137.5,10.8,137.7,11.9,138.6,12.5z M140.3,9.8c0.6,0.4,0.8,1.2,0.4,1.8s-1.2,0.8-1.8,0.4c-0.6-0.4-0.8-1.2-0.4-1.8l0,0
		C138.9,9.6,139.7,9.5,140.3,9.8C140.2,9.8,140.2,9.8,140.3,9.8L140.3,9.8L140.3,9.8z"/>
	<path d="M135.5,16.5c0.9,0.6,2,0.3,2.6-0.5c0.6-0.9,0.3-2-0.5-2.6c-0.9-0.6-2-0.3-2.6,0.5l0,0l0,0
		C134.4,14.8,134.6,15.9,135.5,16.5z M137.2,13.8c0.6,0.4,0.8,1.2,0.4,1.8c-0.3,0.5-1,0.8-1.6,0.5h0l-0.2-0.1
		c-0.6-0.4-0.7-1.2-0.2-1.8C136,13.7,136.7,13.6,137.2,13.8L137.2,13.8z"/>
	<path d="M136.5,21.5c0.8,0.6,2,0.5,2.6-0.3s0.5-2-0.3-2.6l0,0l0,0l-0.3-0.2c-0.1-0.1-0.3-0.1-0.4,0c-0.1,0.1-0.1,0.3,0,0.4l0,0l0,0
		c0.6,0.4,0.7,1.2,0.2,1.8c-0.4,0.5-1.1,0.6-1.6,0.3c-0.6-0.4-0.8-1.2-0.4-1.8c0.2-0.3,0.4-0.5,0.7-0.5c0.2,0,0.2-0.2,0.2-0.4l0,0
		c0-0.2-0.2-0.2-0.4-0.2l0,0c-1,0.3-1.6,1.3-1.3,2.3C135.7,20.8,136,21.2,136.5,21.5L136.5,21.5z"/>
	<path d="M141,24c0.9,0.6,2,0.3,2.6-0.5c0.6-0.9,0.3-2-0.5-2.6c-0.9-0.6-2-0.3-2.6,0.5l0,0l0,0C139.9,22.3,140.1,23.4,141,24L141,24
		L141,24L141,24z M142.7,21.4c0.6,0.4,0.8,1.2,0.4,1.8s-1.2,0.8-1.8,0.4c-0.6-0.4-0.8-1.2-0.4-1.8C141.3,21.2,142.1,21,142.7,21.4z"
		/>
</g>
<g class="st1">
	<path d="M409.2,2.9V2.5c0-0.2,0-0.3,0-0.5V1.7c0-0.1,0-0.3,0-0.4l-3.8,5.9c-0.1,0.2-0.1,0.5,0.1,0.6l0,0l0,0l1.6,1l-2,3
		c-0.1,0.1-0.1,0.3,0.1,0.4c0.1,0.1,0.3,0.1,0.4-0.1l1.9-3l1.6,1l0,0V10c0-0.2,0-0.4,0-0.6l-3.3-2.1l0.1-0.2l1.8,0.6
		c0.2,0.1,0.3,0,0.4-0.2c0-0.2,0-0.3-0.2-0.4l-1.7-0.6l0.4-0.6l2.5,0.9c0-0.1,0-0.1,0-0.2c0-0.1,0-0.3,0-0.4L407,5.5l0.4-0.6
		l1.7,0.6V4.9l-1.4-0.5l0.4-0.6l1,0.4V3.6l-0.7-0.3l0.4-0.6L409.2,2.9z"/>
	<path d="M404.5,13.2c-0.1-0.1-0.3,0-0.4,0.1l-0.3,0.4c-0.1,0.1-0.1,0.3,0.1,0.4c0.1,0.1,0.3,0.1,0.4-0.1l0.3-0.4
		C404.7,13.5,404.7,13.3,404.5,13.2L404.5,13.2z"/>
	<path d="M405.2,9.3c-0.1-0.2-0.2-0.2-0.4-0.2l0,0l0,0c-0.1,0-0.2,0.2-0.2,0.3l0.1,0.5c0,0.1,0.1,0.2,0.2,0.2l0,0h0.1
		c0.2,0,0.3-0.2,0.2-0.4L405.2,9.3z"/>
	<path d="M406.1,13.7c0-0.2-0.2-0.3-0.3-0.2c-0.2,0-0.3,0.2-0.2,0.4l0.1,0.5c0,0.1,0.1,0.2,0.2,0.2l0,0h0.1c0.2,0,0.3-0.2,0.2-0.3
		l0,0l0,0L406.1,13.7z"/>
	<path d="M404.1,10.9c0.1-0.1,0-0.3-0.1-0.4l-0.4-0.3c-0.1-0.1-0.3-0.1-0.4,0.1c-0.1,0.1-0.1,0.3,0.1,0.4l0.4,0.3
		C403.8,11.1,404,11,404.1,10.9L404.1,10.9z"/>
	<path d="M407.7,12.9l-0.4-0.3c-0.1-0.1-0.3-0.1-0.4,0.1l0,0l0,0c-0.1,0.1-0.1,0.3,0.1,0.4l0.4,0.3c0.1,0.1,0.3,0.1,0.4-0.1
		C407.8,13.2,407.8,13,407.7,12.9z"/>
	<path d="M403.4,11.9l-0.5,0.1c-0.2,0-0.3,0.2-0.2,0.3l0,0l0,0c0,0.1,0.1,0.1,0.1,0.2c0.1,0,0.1,0,0.2,0l0.5-0.1
		c0.2,0,0.3-0.2,0.2-0.3l0,0l0,0C403.7,12,403.6,11.9,403.4,11.9z"/>
	<path d="M407.2,11.6c0.1,0,0.1,0,0.2,0l0.5-0.1c0.2,0,0.3-0.2,0.2-0.3l0,0l0,0c0-0.2-0.2-0.3-0.4-0.2l-0.5,0.1
		c-0.2,0-0.3,0.2-0.2,0.3S407.1,11.6,407.2,11.6z"/>
	<path d="M404.1,1.3c-0.6-0.3-1.3-0.2-1.7,0.4c-0.3,0.5-0.2,1.3,0.4,1.6c0.5,0.4,1.3,0.2,1.6-0.3l0,0l0,0
		C404.8,2.5,404.7,1.7,404.1,1.3C404.1,1.4,404.1,1.4,404.1,1.3L404.1,1.3L404.1,1.3z M403.1,2.9c-0.3-0.2-0.4-0.6-0.2-0.9l0,0
		c0.2-0.3,0.6-0.4,0.9-0.2s0.4,0.6,0.2,0.9l0,0C403.8,3,403.4,3.1,403.1,2.9L403.1,2.9z"/>
	<path d="M404.3,1.1c0.1,0.1,0.3,0.1,0.4-0.1l0,0l0.1-0.1c0.1-0.1,0.1-0.3-0.1-0.4l0,0c-0.1-0.1-0.3-0.1-0.4,0.1l0,0l0,0l-0.1,0.1
		C404.2,0.8,404.2,1,404.3,1.1L404.3,1.1L404.3,1.1z"/>
	<path d="M402.6,3.7c-0.1-0.1-0.3-0.1-0.4,0.1l-0.1,0.1C402,4,402,4.2,402.2,4.3c0.1,0.1,0.3,0.1,0.4-0.1l0.1-0.1
		C402.8,4,402.8,3.8,402.6,3.7C402.7,3.7,402.7,3.7,402.6,3.7L402.6,3.7z"/>
	<path d="M402.8,0.6c0,0.1,0.1,0.1,0.1,0.2c0.1,0,0.1,0,0.2,0s0.2-0.2,0.2-0.3l0,0V0.3c0-0.2-0.2-0.3-0.4-0.2
		c-0.2,0-0.3,0.2-0.2,0.3l0,0l0,0L402.8,0.6L402.8,0.6z"/>
	<path d="M404.1,4.1c0-0.2-0.2-0.3-0.3-0.2l0,0l0,0c-0.2,0-0.3,0.2-0.2,0.4v0.2c0,0.1,0.1,0.1,0.1,0.2c0.1,0,0.1,0,0.2,0
		c0.2,0,0.3-0.2,0.2-0.3l0,0l0,0L404.1,4.1z"/>
	<path d="M402.2,1.5c0.1-0.1,0.1-0.3-0.1-0.4L402,1c-0.1-0.1-0.3-0.1-0.4,0.1l0,0c-0.1,0.1-0.1,0.3,0.1,0.4l0,0l0,0l0.1,0.1
		C401.9,1.7,402.1,1.7,402.2,1.5L402.2,1.5z"/>
	<path d="M405.3,3.2l-0.1-0.1c-0.1-0.1-0.3,0-0.4,0.1s0,0.3,0.1,0.4l0.1,0.1c0.1,0.1,0.3,0.1,0.4-0.1C405.5,3.5,405.5,3.3,405.3,3.2
		L405.3,3.2z"/>
	<path d="M401.6,2.5h-0.2c-0.1,0-0.2,0.2-0.2,0.3l0,0c0,0.1,0.1,0.2,0.2,0.2l0,0h0.1h0.2c0.2,0,0.3-0.1,0.3-0.3l0,0
		C402,2.5,401.8,2.4,401.6,2.5C401.7,2.5,401.7,2.5,401.6,2.5L401.6,2.5z"/>
	<path d="M405.1,2.2c0.1,0,0.1,0,0.2,0h0.2c0.2-0.1,0.2-0.2,0.2-0.4l0,0l0,0c0-0.1-0.2-0.2-0.3-0.2h-0.2c-0.2,0-0.3,0.2-0.2,0.3l0,0
		l0,0C405,2.1,405,2.2,405.1,2.2z"/>
</g>
<g class="st1">
	<path d="M192.9,43.1c0.5-0.2,1.1-0.4,1.6-0.6c4.9-2.6,6.8-8.6,4.2-13.5s-8.6-6.8-13.5-4.2s-6.8,8.6-4.2,13.5
		c1.5,2.8,4.1,4.7,7.2,5.2c0.2,0,0.3-0.1,0.3-0.2c0-0.2-0.1-0.3-0.2-0.3l0,0c-5-0.9-8.3-5.8-7.4-10.8c0.9-5,5.8-8.3,10.8-7.4
		c5,0.9,8.3,5.8,7.4,10.8c-0.5,2.8-2.3,5.2-4.9,6.5c-0.4,0.2-0.9,0.4-1.4,0.6l-0.2-1.2c4.3-1.5,6.6-6.2,5.2-10.5
		c-1.5-4.3-6.2-6.6-10.5-5.2c-4.3,1.5-6.6,6.2-5.2,10.5c1.2,3.6,4.8,5.9,8.7,5.6l0.2,1.2c-0.4,0.1-0.9,0.1-1.4,0.1l0,0
		c-0.2,0-0.3,0.1-0.3,0.3s0.1,0.3,0.3,0.3l0,0c0.5,0,1,0,1.5-0.1l0.3,1.3c0.1,0.5,0.6,0.8,1.1,0.7c0.2-0.1,0.4-0.2,0.6-0.4l0,0
		c0.1-0.2,0.2-0.5,0.1-0.7L192.9,43.1z M185.7,40c-3.5-2.3-4.6-7-2.3-10.6c2.3-3.5,7-4.6,10.6-2.3s4.6,7,2.3,10.6
		c-0.9,1.4-2.3,2.5-3.8,3l-0.6-3.2c0.2-0.1,0.3-0.3,0.4-0.5c0.3-0.5,0.4-1,0.3-1.6l0.1-0.1c1-1.5,0.6-3.6-0.9-4.6l0,0
		c-0.3-0.2-0.6-0.3-0.9-0.4c-0.1,0-0.3,0-0.4,0.2l0,0c0,0.2,0,0.3,0.2,0.4c0.2,0.1,0.5,0.2,0.7,0.3c1.2,0.8,1.6,2.3,0.9,3.5
		c-0.2-0.3-0.4-0.5-0.6-0.7c-1-0.6-2.3-0.3-2.9,0.6l0,0l0,0c-0.2,0.3-0.3,0.7-0.3,1.1l0,0c-1.3-0.8-1.7-2.4-0.9-3.7
		c0.4-0.7,1.1-1.2,1.9-1.3c0.2,0,0.3-0.2,0.2-0.3l0,0l0,0c0-0.2-0.2-0.3-0.3-0.2l0,0c-1.8,0.3-3,2.1-2.6,3.8
		c0.2,0.9,0.7,1.7,1.4,2.2l0.4,0.2c0.2,0.5,0.5,0.8,0.9,1.1c0.2,0.1,0.4,0.2,0.6,0.3l0.6,3.2C189,41.3,187.2,40.9,185.7,40L185.7,40
		z M192.3,45c-0.1,0-0.2,0-0.3-0.1s-0.1-0.1-0.2-0.2l-1.4-7.1c0-0.1-0.1-0.1-0.1-0.2h-0.1c-0.2,0-0.4-0.1-0.6-0.2
		c-0.7-0.5-0.8-1.4-0.4-2c0.5-0.7,1.4-0.8,2-0.4c0.6,0.4,0.8,1.3,0.4,2c-0.1,0.2-0.3,0.3-0.4,0.4c-0.1,0.1-0.2,0.2-0.1,0.3l0,0
		l1.4,7.1C192.6,44.8,192.5,45,192.3,45L192.3,45L192.3,45L192.3,45z"/>
</g>
<g class="st1">
	<path d="M78.6,2.8h-0.5c-0.1,0.6-0.3,1.1-0.7,1.6c-1.1,1.5-2.8,2.4-4.7,2.4c-0.3,0-0.6,0-0.8,0L71,6.2c1.7-0.7,3.1-1.9,4.1-3.4
		h-0.7c-1,1.4-2.4,2.5-4,3l-2-1.4c-0.1-0.6-0.1-1.2,0-1.7h-0.6c-0.1,0.4-0.1,0.9-0.1,1.3l-0.9-0.6c-0.1-0.2-0.2-0.4-0.3-0.7h-0.6
		L66,2.9c0,0.3,0.1,0.6,0.2,0.8l-0.4,0.7c-0.2,0.4-0.1,0.9,0.3,1.1l1.1,0.7l-1.4,2c-0.1,0.2-0.1,0.4,0.1,0.5l0,0
		c0.1,0,0.2,0.1,0.2,0.1H67l0.3,0.8c0,0.1,0.1,0.2,0.2,0.2s0.1,0.1,0.2,0.1c0.2,0,0.3,0,0.4-0.2l1.3-2l1.1,0.7
		c0.4,0.3,0.9,0.1,1.2-0.3L72,7.5c0.3,0,0.5,0,0.8,0c2.1,0,4-1.1,5.1-2.8c0.4-0.6,0.6-1.2,0.8-1.9C78.7,2.8,78.6,2.8,78.6,2.8z
		 M67.7,9l-0.2-0.7c0-0.1-0.1-0.1-0.1-0.2c-0.1,0-0.1,0-0.2,0l-0.7,0.1l1.1-1.7l1.2,0.8L67.7,9z M71.1,7.8C71,7.9,70.9,8,70.8,7.9
		L66.4,5c-0.1-0.1-0.1-0.2-0.1-0.3l0,0l0.4-0.6l4.8,3.1L71.1,7.8z"/>
	<path d="M61.5,4.2c-0.1-0.1-0.3-0.1-0.4,0.1l0,0l0,0L61,4.4c-0.1,0.1-0.1,0.3,0.1,0.4l0,0c0.1,0.1,0.3,0.1,0.4-0.1l0,0l0,0l0.1-0.1
		C61.6,4.5,61.6,4.3,61.5,4.2L61.5,4.2L61.5,4.2L61.5,4.2z"/>
	<path d="M63,4.7c-0.1-0.2-0.2-0.2-0.4-0.2l0,0l0,0c-0.1,0-0.2,0.2-0.2,0.3V5c0,0.1,0.1,0.1,0.1,0.2c0.1,0,0.1,0,0.2,0
		c0.2,0,0.3-0.1,0.3-0.3l0,0l0,0l0,0L63,4.7z"/>
	<path d="M64.2,3.8L64.2,3.8c-0.2-0.2-0.4-0.1-0.5,0c-0.1,0.1-0.1,0.3,0.1,0.4l0.1,0.1c0.2,0,0.3-0.1,0.3-0.2l0,0l0,0
		C64.3,4,64.2,3.9,64.2,3.8z"/>
	<path d="M60.5,3h-0.2c-0.2,0-0.3,0.2-0.2,0.3l0,0l0,0c0,0.1,0.1,0.1,0.1,0.2c0.1,0,0.1,0,0.2,0h0.2c0.1,0,0.2-0.2,0.2-0.3l0,0
		C60.8,3.1,60.6,3,60.5,3z"/>
</g>
<g class="st1">
	<path d="M326.9,87.3c-0.2-0.1-0.4-0.1-0.5-0.1l-1,0.2c-0.1,0-0.1,0-0.1-0.1l0,0c0-0.1,0-0.1,0.1-0.1h0.2c0.2,0,0.3-0.2,0.2-0.4
		c0-0.2-0.2-0.3-0.4-0.2h-0.3c-0.4,0.1-0.6,0.5-0.5,0.8l0,0c0,0.2,0.1,0.4,0.3,0.4c0.2,0.1,0.3,0.1,0.5,0.1l1-0.2h0.1v0.1
		c0,0.1,0,0.1-0.1,0.1h-0.1c-0.2,0-0.3,0.2-0.2,0.4c0,0.2,0.2,0.3,0.3,0.2h0.1c0.4-0.1,0.6-0.5,0.5-0.8l0,0l0,0
		C327.2,87.6,327,87.4,326.9,87.3z"/>
	<path d="M327.1,90.9c0.4-0.1,0.6-0.5,0.5-0.8c-0.1-0.4-0.5-0.6-0.8-0.5l0,0h-0.1c-0.1,0-0.2,0.2-0.2,0.3l0,0c0,0.2,0.2,0.3,0.3,0.2
		l0,0h0.1c0.1,0,0.1,0,0.1,0.1s0,0.1-0.1,0.1l-1.1,0.2c-0.4,0.1-0.6,0.5-0.5,0.8l0,0c0,0.2,0.1,0.3,0.3,0.4c0.2,0.1,0.3,0.1,0.5,0.1
		l0.3-0.1c0.2-0.1,0.2-0.2,0.2-0.4l0,0l0,0c0-0.1-0.2-0.2-0.3-0.2l-0.3,0.1c-0.1,0-0.1,0-0.1-0.1l0,0c0-0.1,0-0.1,0.1-0.1l0,0
		L327.1,90.9z"/>
	<path d="M341.3,87.9h0.1l3.3-0.7c0.3-0.1,0.5-0.4,0.5-0.7l0,0l-0.5-2.4c-0.1-0.3-0.4-0.5-0.7-0.4l-3.3,0.7h-0.1l-1,0.7l-4.6,1
		c-0.2-0.5-0.6-0.9-1-1.2l-1.6-7.5c-0.1-0.7-0.8-1.3-1.5-1.3c-0.1-0.2-0.2-0.3-0.3-0.4c-0.2-0.1-0.4-0.2-0.7-0.1
		c-0.2,0.1-0.4,0.2-0.6,0.4c-0.1,0.2-0.2,0.5-0.1,0.7l1.5,7.1l-0.5,0.1c-0.3,0.1-0.6,0.3-0.6,0.7c-0.1,1.1-0.7,1.4-1,1.4l0,0
		c-0.3,0.1-0.6,0.1-0.8-0.1c-0.5-0.4-0.9-0.9-1-1.5c-0.1-0.4-0.4-0.6-0.8-0.6l0,0c-0.9,0-1.9,0.3-2.7,0.8c-0.4,0.3-0.8,0.6-1.1,0.9
		c-0.8,0.8-1.2,1.8-1.4,2.9c-0.3,2.1,0.6,4.1,2.4,5.3c0.3,0.2,0.6,0.3,0.9,0.4c0.4,0.2,0.9,0.3,1.4,0.4c0.9,0.1,1.9,0,2.8-0.3l0,0
		c0.3-0.2,0.5-0.5,0.5-0.9c-0.2-0.6-0.1-1.2,0.2-1.8c0.1-0.1,0.3-0.2,0.4-0.3c0.7-0.2,1.5,0.1,1.8,0.8c0.2,0.3,0.5,0.5,0.9,0.4
		l0.5-0.1l1.5,7.2c0.1,0.5,0.6,0.8,1.1,0.7c0.2,0,0.4-0.2,0.6-0.4l0,0c0.1-0.2,0.2-0.5,0.1-0.7l-1-4.4c0-0.2-0.2-0.3-0.4-0.2
		c-0.2,0-0.3,0.2-0.2,0.3l0,0l0,0l1,4.4c0,0.2-0.1,0.3-0.3,0.4s-0.3-0.1-0.4-0.3l0,0l0,0l-1.6-7.2c0.2-0.1,0.4-0.2,0.6-0.3l0.4,1.7
		c0,0.2,0.2,0.3,0.4,0.2c0.2,0,0.3-0.2,0.2-0.4l-0.4-2c0.2-0.2,0.4-0.4,0.5-0.6l0.5,2.4c0.1,0.3,0.3,0.6,0.5,0.7
		c0.3,0.2,0.6,0.2,0.9,0.2c0.2,0,0.3-0.2,0.2-0.3l0,0c0-0.2-0.2-0.3-0.3-0.2l0,0c-0.3,0.1-0.6-0.1-0.7-0.4l0,0l-0.6-3
		c0.2-0.5,0.3-1,0.4-1.5l4.6-1L341.3,87.9z M334.6,86.8l0.3,1.3l-1.1,0.2l-0.3-1.3L334.6,86.8z M330.3,87.7l1.1-0.3l0.3,1.3
		l-1.1,0.2L330.3,87.7z M330,89.2l-1,0.2l-0.3-1.3l1.1-0.2L330,89.2z M332,87.4l1-0.2l0.3,1.3l-1,0.2L332,87.4z M331.5,76.9
		c0.2,0.1,0.4,0.4,0.4,0.6l1.5,6.8c-0.2-0.1-0.5-0.3-0.8-0.4l-1.5-7.2C331.2,76.8,331.4,76.9,331.5,76.9L331.5,76.9z M329.8,76.6
		c0-0.2,0.1-0.3,0.3-0.4s0.3,0.1,0.4,0.3l0,0l0,0l1.6,7.4c-0.2,0-0.4,0-0.7,0L329.8,76.6z M332.5,91.8l-0.6,0.1
		c-0.1,0-0.2,0-0.2-0.1c-0.4-0.8-1.2-1.3-2.1-1.2c-0.4,0-0.8,0.3-1.1,0.6c-0.4,0.7-0.6,1.5-0.4,2.3c0,0.1,0,0.2-0.1,0.2l0,0
		c-0.8,0.3-1.6,0.4-2.5,0.3c-0.4-0.1-0.8-0.2-1.2-0.3c-1.3-0.5-2.3-1.6-2.7-2.9c0.9-0.4,1.6-1.1,2-2c0.1-0.2,0.2-0.4,0.2-0.7
		c0-0.2-0.1-0.3-0.2-0.3l0,0l0,0c-0.2,0-0.3,0.1-0.4,0.2c0,0.2-0.1,0.4-0.2,0.6c-0.3,0.7-0.9,1.3-1.6,1.7c0-0.1,0-0.2,0-0.3v-0.7
		c0-0.2,0-0.4,0.1-0.7c0.1-0.6,0.3-1.2,0.6-1.8c0.3-0.4,0.6-0.8,1-1.1c0.1,0.2,0.1,0.3,0.1,0.5s0.1,0.3,0.1,0.5s0.2,0.3,0.3,0.3l0,0
		l0,0c0.2,0,0.3-0.2,0.2-0.3l0,0l0,0c-0.1-0.4-0.2-0.9-0.4-1.3l0.1-0.1c0.7-0.5,1.5-0.7,2.4-0.7l0,0c0.1,0,0.2,0.1,0.2,0.2
		c0.1,0.8,0.6,1.5,1.3,1.9c0.4,0.2,0.8,0.2,1.3,0.1c0.8-0.3,1.4-1,1.4-1.9c0-0.1,0.1-0.2,0.2-0.2l0.6-0.1c0.8-0.1,1.6,0,2.3,0.5l0,0
		c0.5,0.3,0.9,0.8,1.3,1.3l-6,1.3c-0.1,0-0.2,0.1-0.3,0.2c-0.1,0.1-0.1,0.2-0.1,0.4l0.3,1.5c0,0.1,0.1,0.2,0.2,0.3s0.2,0.1,0.4,0.1
		l4.7-1l1.4-0.3c-0.1,0.6-0.3,1.2-0.6,1.7C334,91.1,333.3,91.6,332.5,91.8L332.5,91.8z M335.5,88l-0.3-1.3l1-0.2l0.3,1.3L335.5,88z
		 M337,87.7l-0.3-1.3l1.1-0.3l0.3,1.3L337,87.7z M338.7,87.3l-0.3-1.3l1-0.2l0.3,1.3L338.7,87.3z M340,85.6l0.8-0.6l3.3-0.7l0,0
		l0.5,2.4l0,0l-3.3,0.7l-1-0.2L340,85.6z"/>
</g>
</svg>
