<svg xmlns="http://www.w3.org/2000/svg" viewBox="0 0 409.1 143.2"><title>HeaderWalles</title><path d="M.1,128.73l9.7,3.1c9.7,3.11,29.2,9.32,48.8,10.51,19.4,1.19,38.9-2.75,58.2-5.85,19.6-3.1,39.2-5.43,58.5-4.29,19.5,1.19,38.9,5.84,58.5,6.2,19.4.42,38.9-3.51,58.5-3.1,19.4.36,38.9,5,58.2,5,19.6,0,38.9-4.66,48.9-7l9.7-2.32v-4.66H.1Z" transform="translate(-0.1 0.65)" style="fill:#3a97d3"/><path d="M176.9-.6H.1V126.71h409V-.6Z" transform="translate(-0.1 0.65)" style="fill:#3a97d3"/><g style="opacity:0.3499999940395355"><path d="M241.7,126.55a1.86,1.86,0,1,0,1.7,3.3l.2-.1a1.82,1.82,0,0,0,.7-2.5h0a2,2,0,0,0-2.6-.7Zm1.5,2.7a1.25,1.25,0,1,1-1.2-2.2,1.39,1.39,0,0,1,1.7.4h0a1.41,1.41,0,0,1-.5,1.8Z" transform="translate(-0.1 0.65)"/><path d="M236.7,130.85a1.25,1.25,0,1,0,1.7.5h0A1.31,1.31,0,0,0,236.7,130.85Zm.9,1.6a.52.52,0,0,1-.8-.2h0a.65.65,0,0,1,.2-.9.52.52,0,0,1,.8.2c.2.4.1.8-.2.9Z" transform="translate(-0.1 0.65)"/><path d="M247.9,124.45a1.17,1.17,0,0,0-.4,1.7h0a1.17,1.17,0,0,0,1.7.4h0a1.28,1.28,0,0,0,.4-1.7,1.39,1.39,0,0,0-1.7-.4Zm.9,1.6a.58.58,0,1,1,.2-.8.55.55,0,0,1-.2.8Z" transform="translate(-0.1 0.65)"/><path d="M249.7,121c-.2-.1-.3,0-.4.2h0l-.3,1.1-3.7,2.1a4.19,4.19,0,0,0-3.5-1.9l.8-.4c.1-.1.2-.3.1-.4h0c-.1-.1-.3-.2-.4-.1h0l-2.4,1.4-.5-.8a.3.3,0,0,0-.4,0h0c-.1.1-.1.2-.1.4l.5.8-2.4,1.4c-.1.1-.2.3-.1.4h0c.1.1.3.2.4.1l.8-.4a4.34,4.34,0,0,0-.1,4l-3.7,2.1-1.1-.3c-.2,0-.3.1-.4.3s.1.3.2.3h0l1.4.4,1-.6a2.13,2.13,0,0,0,3.7,2.1,2.14,2.14,0,0,0-.8-2.9h0a1.69,1.69,0,0,0-1-.3l.9-.5a4.36,4.36,0,0,0,6,1.3,4.29,4.29,0,0,0,1.5-5.6l.9-.5a2.23,2.23,0,0,0,.7,3h0a2.14,2.14,0,0,0,2.9-.8h0a2.17,2.17,0,0,0-.8-3h0a1.93,1.93,0,0,0-1-.3l1-.6.4-1.4c.1-.1,0-.3-.1-.4V121Zm-11.1,10.2a1.52,1.52,0,0,1-.6,2.1,1.49,1.49,0,0,1-2.1-.6,1.52,1.52,0,0,1,.6-2.1,1.61,1.61,0,0,1,2.1.6Zm5.1-1.1A3.72,3.72,0,1,1,245,125h0a3.81,3.81,0,0,1-1.3,5.1Zm6.2-5.4a1.54,1.54,0,1,1-2.1-.6,1.64,1.64,0,0,1,2.1.6Z" transform="translate(-0.1 0.65)"/><path d="M242.9,124.45l-3.8,2.2c-.1.1-.2.3-.1.4s.3.2.4.1l3.7-2.2c.1-.1.2-.3.1-.4C243.3,124.45,243.1,124.35,242.9,124.45Z" transform="translate(-0.1 0.65)"/><path d="M245.2,130.25l-.2.1c-.1.1-.2.3-.1.4h0c.1.1.3.2.4.1l.3-.2c.1-.1.2-.3.1-.4h0a.45.45,0,0,0-.5,0Z" transform="translate(-0.1 0.65)"/><path d="M244.1,130.85l-.3.2c-.1.1-.2.3-.1.4h0c.1.1.3.2.4.1l.3-.2c.1-.1.2-.3.1-.4h0C244.5,130.85,244.3,130.75,244.1,130.85Z" transform="translate(-0.1 0.65)"/><path d="M243.1,131.45l-.3.2c-.1.1-.2.3-.1.4h0c.1.1.3.2.4.1l.3-.2c.1-.1.2-.3.1-.4a.25.25,0,0,0-.4-.1Z" transform="translate(-0.1 0.65)"/></g><g style="opacity:0.3499999940395355"><path d="M102.7,12.65l-5.1,2.9-.6-1.1a1.61,1.61,0,0,0-2.1-.6l-3.8,2.2a1.61,1.61,0,0,0-.6,2.1h0l.6,1.1L86,22.15c-.1.1-.2.3-.1.4l4.7,8.1c.1.1.3.2.4.1h0l16.6-9.6c.1-.1.2-.3.1-.4h0l-4.7-8.1S102.9,12.55,102.7,12.65ZM91.1,18a1,1,0,0,1,.3-1.3h0l3.8-2.2a1,1,0,0,1,1.3.3l.6,1.1L91.8,19Zm16,3-16,9.2-3.3-5.6L96.4,21h.1l7.4-5.7Zm-3.6-6.2-7.4,5.7-8.6,3.6-.8-1.4,16.1-9.3Z" transform="translate(-0.1 0.65)"/><path d="M105.5,20l-.3.1c-.1.1-.2.3-.1.4h0c.1.1.3.2.4.1l.3-.2a.3.3,0,0,0,0-.4h-.3Z" transform="translate(-0.1 0.65)"/><path d="M104.4,20.55l-.3.2c-.1.1-.2.3-.1.4h0c.1.1.3.2.4.1l.3-.2c.1-.1.2-.3.1-.4h0C104.8,20.55,104.6,20.55,104.4,20.55Z" transform="translate(-0.1 0.65)"/><path d="M103.4,21.25l-.3.2c-.1.1-.2.3-.1.4h0c.1.1.3.2.4.1l.3-.2c.1-.1.2-.3.1-.4h0A.25.25,0,0,0,103.4,21.25Z" transform="translate(-0.1 0.65)"/></g><g style="opacity:0.3499999940395355"><path d="M64.2,76.35l-.5.3-2.2-3.8c-.1-.1-.3-.2-.4-.1l-15,8.7c-.1.1-.2.3-.1.4h0l2.1,3.8-.5.3c-.1.1-.2.3-.1.4l1.9,3.2c.1.1.3.2.4.1h0l.3-.1.5.8c.1.1.3.2.4.1l.8-.5.6,1.1c.1.1.3.2.4.1l.8-.5c.1-.1.2-.3.1-.4h0l-.6-1.1,11.3-6.5.6,1.1c.1.1.3.2.4.1h0l.8-.5c.1-.1.2-.3.1-.4l-.6-1.1.8-.5c.1-.1.2-.3.1-.4h0l-.6-.6.3-.2c.1-.1.2-.3.1-.4h0l-1.9-3.2c0-.2-.2-.2-.3-.2Zm-17.6,5.5L61,73.45,63,77l-1.7,1v-.1c.1-.2,0-.3-.2-.4h0l-3-.8a.52.52,0,0,0-.4.2l-.8,3a.52.52,0,0,0,.2.4h.1l-3,1.7v-.1c.1-.2,0-.3-.2-.4h0l-3-.8a.52.52,0,0,0-.4.2l-.8,3a.52.52,0,0,0,.2.4h.1l-1.7,1ZM60.7,78l-.1.4-2.5,1.4-.4-.1.6-2.4Zm-7,4-.1.4-2.5,1.4-.4-.1.6-2.4Zm-.7,8.4-.3.1-.5-.8.3-.2Zm12.6-7.3-.3.1-.5-.8.3-.1Zm.3-2-15,8.7-.3-.5,15-8.7Zm-.1-1.4L49.7,89l-1.5-2.7L64.3,77Z" transform="translate(-0.1 0.65)"/><path d="M64.2,78.85l-.3.1c-.1.1-.2.3-.1.4s.3.2.4.1l.3-.1c.1-.1.2-.3.1-.4s-.2-.2-.4-.1Z" transform="translate(-0.1 0.65)"/><path d="M63.1,79.45l-.3.1c-.1.1-.2.3-.1.4s.3.2.4.1l.3-.2c.1-.1.2-.3.1-.4s-.2-.1-.4,0Z" transform="translate(-0.1 0.65)"/><path d="M62.1,80.05l-.3.2c-.1.1-.2.3-.1.4h0c.1.1.3.2.4.1l.3-.2c.1-.1.2-.3.1-.4h0c-.1-.1-.3-.2-.4-.1Z" transform="translate(-0.1 0.65)"/></g><g style="opacity:0.3499999940395355"><path d="M209.5,96.55l-1.6.9-.8-1.4a.1.1,0,0,0-.1-.1h-.3l-4.6,2.6h0a.1.1,0,0,0-.1.1h0v.1h0v.1h0V99l.8,1.4-1.6.9c-.1.1-.2.3-.1.4h0l5.6,9.7c.1.1.3.2.4.1l8.3-4.8c.1-.1.2-.3.1-.4l-5.6-9.7c0-.1-.2-.2-.4,0Zm1,12.3-3.5,2-5.3-9.1,1.6-.9.1-.1,2.3.1h.1Zm-5.4-9.4.3.5.1.3-2.1-.1-.5-.8,2.2.1C205,99.35,205.1,99.35,205.1,99.45Zm-1.7-.8,2.7-1.5-.9,1.6Zm3.4-1.7.5.8-.9,1.9-.5-.5V99Zm8,9.4-3.8,2.1-4.7-8.1h.3a.1.1,0,0,0,.1-.1l1-2.1h.1l1.6-.9Z" transform="translate(-0.1 0.65)"/><path d="M210.1,99.45l-2.4,1.4c-.1.1-.2.3-.1.4l1.9,3.2c.1.1.3.2.4.1h0l2.4-1.4c.1-.1.2-.3.1-.4h0l-1.9-3.2c-.1-.1-.3-.2-.4-.1Zm1.6,3.4-1.9,1.1-1.1-1.9,1.9-1.1Zm-1.4-2.5-1.8,1-.2-.3,1.9-1.1Z" transform="translate(-0.1 0.65)"/><path d="M216.9,90.15l-7.5,4.3c-.1.1-.2.3-.1.4h0l9.6,16.7c.1.1.3.2.4.1l2.9-1.7c.1-.1.2-.3.1-.4l-5.7-11.1h0l6.7,10.5c.1.1.3.2.4.1l2.9-1.7c.1-.1.2-.3.1-.4l-9.6-16.7C217.2,90.05,217,90.05,216.9,90.15Zm-6.9,4.7,2.1-1.2.3.5-2.2,1.2Zm6.2,3.2c-.1.1-.2.3-.1.4l5.7,11.1-2.4,1.4-8.7-15.1,3.2-1.9Zm-3.2-4.2-.3-.5,1.6-.9.3.5ZM226.3,107l-2.4,1.4-6.8-10.5c-.1-.1-.3-.2-.4-.1l-2.3-4,3.2-1.9Zm-9-15.6-2.2,1.2-.3-.5,2.1-1.2Z" transform="translate(-0.1 0.65)"/><path d="M223.6,104.15c-.1.1-.2.3-.1.4l.2.3c.1.2.2.3.4.2s.3-.2.2-.4h0v-.1l-.1-.3a1.27,1.27,0,0,0-.6-.1Z" transform="translate(-0.1 0.65)"/><path d="M224.2,105.25c-.1.1-.2.3-.1.4h0l.1.3c.1.1.3.2.4.1h0c.1-.1.2-.3.1-.4l-.2-.3C224.5,105.25,224.4,105.15,224.2,105.25Z" transform="translate(-0.1 0.65)"/><path d="M224.8,106.35c-.1.1-.2.3-.1.4h0l.1.3c.1.1.3.2.4.1s.2-.3.1-.4l-.2-.3C225.2,106.35,225,106.25,224.8,106.35Z" transform="translate(-0.1 0.65)"/><path d="M210.8,111.55l-.2.1-1.4.8-.2.1a1.57,1.57,0,0,0-.4,2.1l.9,1.5c.1.1.3.2.4.1l3.8-2.2c.1-.1.2-.3.1-.4h0l-.9-1.5A1.81,1.81,0,0,0,210.8,111.55Zm-1.1,1.4,1.1-.6.2.4-1.1.6Zm3.4.9-3.2,1.9-.2-.3,3.2-1.9Zm-.5-.8-3.2,1.9-.3-.5a.9.9,0,0,1,.1-1.1l.3.6c.1.1.3.2.4.1h0l1.6-.9c.1-.1.2-.3.1-.4h0l-.3-.6a1.23,1.23,0,0,1,1,.5Z" transform="translate(-0.1 0.65)"/><path d="M215.4,109l-.2.1-1.4.8-.2.1a1.57,1.57,0,0,0-.4,2.1l.9,1.5c.1.1.3.2.4.1l3.8-2.2c.1-.1.2-.3.1-.4h0l-.9-1.5A1.86,1.86,0,0,0,215.4,109Zm-1.1,1.3,1.1-.6.2.4-1.1.6Zm3.3,1-3.2,1.9-.1-.3,3.2-1.9Zm-.4-.9-3.2,1.9-.3-.4a.9.9,0,0,1,.1-1.1l.3.6c.1.1.3.2.4.1h0l1.6-.9c.1-.1.2-.3.1-.4h0l-.3-.6a1.23,1.23,0,0,1,1,.5Z" transform="translate(-0.1 0.65)"/></g><g style="opacity:0.3499999940395355"><path d="M49.3,17.55l-16.6,9.6c-.1.1-.2.3-.1.4l5.9,10.2c.1.1.3.2.4.1h0l5.6-3.2.5,1.4c.1.2.2.2.4.2h0l5.3-3.1c.1-.1.2-.3.1-.4h0l-1-1.2,5.6-3.2c.1-.1.2-.3.1-.4h0l-5.9-10.2c0-.2-.1-.3-.3-.2Zm-3.9,18-.4-1.2,4.4-2.5.8,1ZM54.9,28l-5.6,3.3-10.4,6L38.1,36l16-9.3Zm-1.1-1.9-16.1,9.3-4.5-7.8,16.1-9.3Z" transform="translate(-0.1 0.65)"/><path d="M56.2,33.25,55,31.75a.6.6,0,0,0-.4-.1l-12.3,7.1c-.1.1-.2.2-.1.4l.7,1.8c.1.2.2.2.4.2h0l12.9-7.4a.45.45,0,0,0,0-.5Zm-13,7.2-.4-1.2,11.9-6.9.8,1Z" transform="translate(-0.1 0.65)"/><path d="M51.3,28.55l-.3.2c-.1.1-.2.3-.1.4s.2.1.4.1l.3-.1c.1-.1.2-.3.1-.4h0c0-.2-.2-.3-.4-.2Z" transform="translate(-0.1 0.65)"/><path d="M52.4,28l-.3.2c-.1.1-.2.3-.1.4h0c.1.1.3.2.4.1l.3-.2c.1-.1.2-.3.1-.4h0C52.7,28,52.5,27.85,52.4,28Z" transform="translate(-0.1 0.65)"/><path d="M53.5,27.35l-.3.2c-.1.1-.2.3-.1.4h0c.1.1.3.2.4.1l.3-.2c.1-.1.2-.3.1-.4h0C53.8,27.35,53.6,27.25,53.5,27.35Z" transform="translate(-0.1 0.65)"/></g><g style="opacity:0.3499999940395355"><path d="M13,16.45l-2.3-4a1.05,1.05,0,0,0-1.3-.4h0l-.8.5c-.1.1-.2.1-.2.2h0a1,1,0,0,0-1.3-.3l-.8.5a1,1,0,0,0-.3,1.3H6l.9,1.6L.1,19.65v.7l7-4.1,1,1.6-8,4.6v.7l8.3-4.8L9.3,20a1.09,1.09,0,0,0,1.3.4h0l.8-.5a1,1,0,0,0,.3-1.3l-.2-.3a.37.37,0,0,0,.3-.1l.8-.5c.5-.1.6-.7.4-1.2Zm-1.9,3-.8.5c-.1.1-.3,0-.4-.1L6.5,14c-.1-.2,0-.3.1-.4l.8-.5c.1-.1.3,0,.4.1l3.4,5.9a.25.25,0,0,1-.1.4Zm1.3-2.1-.8.5a.25.25,0,0,1-.4-.1h0l-2.3-4c-.1-.1,0-.3.1-.4l.8-.5c.1-.1.3,0,.4.1l2.3,4a.6.6,0,0,1-.1.4Z" transform="translate(-0.1 0.65)"/><path d="M7.9,15.15c-.1.1-.2.3-.1.4h0l.2.3c.1.1.3.2.4.1s.2-.2.1-.4h0l-.1-.3c-.2-.2-.4-.2-.5-.1Z" transform="translate(-0.1 0.65)"/><path d="M8.5,16.15c-.1.1-.2.3-.1.4l.2.3c.1.2.2.3.4.2s.3-.2.2-.4h0v-.1l-.2-.2a.76.76,0,0,0-.5-.2Z" transform="translate(-0.1 0.65)"/><path d="M9.1,17.25c-.1.1-.2.3-.1.4l.2.3a.3.3,0,0,0,.4,0h0c.1-.1.1-.2.1-.4l-.1-.2c-.1-.2-.3-.2-.5-.1Z" transform="translate(-0.1 0.65)"/></g><g style="opacity:0.3499999940395355"><path d="M23.9,101.25l-.2-.3a8.27,8.27,0,1,0-14.3,8.3h0l.2.3a2.73,2.73,0,0,0-.1,3l1.2,2.1a2.79,2.79,0,0,0,3.8,1l.3.5c.1.1.3.2.4.1l1.1-.6c.1-.1.2-.3.1-.4l-4.7-8.1c-.1-.1-.3-.2-.4-.1l-.7.4a6.47,6.47,0,0,1,3.8-8.4,6.56,6.56,0,0,1,7.4,2l-.8.4c-.1.1-.2.3-.1.4h0l4.7,8.1c.1.1.3.2.4.1l1.1-.6c.1-.1.2-.3.1-.4l-.3-.5a2.79,2.79,0,0,0,1-3.8l-1.3-2.2A3,3,0,0,0,23.9,101.25Zm-9.7,14a2.23,2.23,0,0,1-3-.7h0l-1.3-2.2a2.17,2.17,0,0,1,.8-3h0Zm-2.8-7.4,4.4,7.6-.5.3-4.3-7.5Zm15,1.4-.5.3-4.4-7.5.5-.3Zm-4-8.3a7.17,7.17,0,0,0-10-1.4,7.31,7.31,0,0,0-2.3,8.5v.1l.1.1c.1.1.1.3.2.4-.1.1-.3.2-.4.3l-.1-.1a7.62,7.62,0,0,1,13.2-7.6h0a.1.1,0,0,0,.1.1c-.2.1-.3.1-.5.2l-.3-.4-.1-.1c.1,0,.1,0,.1-.1Zm4.9,4.2a2.25,2.25,0,0,1-.7,3h0l-3.4-6a2.23,2.23,0,0,1,3,.7h0Z" transform="translate(-0.1 0.65)"/><path d="M11.9,113.15c-.1.1-.2.3-.1.4h0l.1.3c.1.1.3.2.4.1h0c.1-.1.2-.3.1-.4l-.2-.3c0-.2-.2-.2-.3-.1Z" transform="translate(-0.1 0.65)"/><path d="M11.3,112.05c-.1.1-.2.3-.1.4h0l.1.3c.1.1.3.2.4.1s.2-.3.1-.4l-.2-.3A.19.19,0,0,0,11.3,112.05Z" transform="translate(-0.1 0.65)"/><path d="M10.6,111c-.1.1-.2.3-.1.4l.2.3c.1.1.3.2.4.1h0c.1-.1.2-.3.1-.4l-.2-.3C11,111,10.8,110.85,10.6,111Z" transform="translate(-0.1 0.65)"/></g><g style="opacity:0.3499999940395355"><path d="M308.2,2.15c-.1.1-.2.3-.1.4s.3.2.4.1a2.35,2.35,0,0,1,3.1.8c.1.2.2.3.4.2s.3-.2.2-.4h0a2.89,2.89,0,0,0-4-1.1Z" transform="translate(-0.1 0.65)"/><path d="M323.3.45h-.1A3.49,3.49,0,0,1,322,2l-1,.5a2.83,2.83,0,0,1-3.9-1.1l-.6-.9h-.9c.1.1.2.1.3.2a2.26,2.26,0,0,0-1.6.2l-.5.3a2.21,2.21,0,0,0-1,1.3,1.49,1.49,0,0,1,.7-1.8l.4-.2h-1a2.09,2.09,0,0,0-.7,1.3,3.49,3.49,0,0,0-4-.5l-.9.5a3.57,3.57,0,0,0-1.3,4.8l.5.9a3.48,3.48,0,0,0,4.8,1.3l.9-.5A3.54,3.54,0,0,0,313.7,4v-.2a1.69,1.69,0,0,1,.4-2.1l.5-.3a1.46,1.46,0,0,1,2,.5h0l.1.1a3.53,3.53,0,0,0,4.5.8l.9-.6a3.54,3.54,0,0,0,1.6-2Zm-11.5,7.3-.9.5a2.94,2.94,0,0,1-4-1h0l-.6-.9a2.94,2.94,0,0,1,1-4h0l.9-.5a3,3,0,0,1,4,.9h0V3l.5.9a2.71,2.71,0,0,1-.9,3.9Z" transform="translate(-0.1 0.65)"/><path d="M311.6,6.05l-.3.2c-.1.1-.2.3-.1.4s.3.2.4.1l.3-.2c.1-.1.2-.3.1-.4A.25.25,0,0,0,311.6,6.05Z" transform="translate(-0.1 0.65)"/><path d="M310.5,6.65l-.3.2c-.1.1-.2.3-.1.4s.3.2.4.1h0l.3-.2c.1-.1.2-.3.1-.4S310.7,6.55,310.5,6.65Z" transform="translate(-0.1 0.65)"/><path d="M309.4,7.25l-.2.1c-.1.1-.2.3-.1.4s.3.2.4.1h0l.3-.2c.1-.1.2-.3.1-.4h0C309.8,7.25,309.6,7.15,309.4,7.25Z" transform="translate(-0.1 0.65)"/></g><g style="opacity:0.3499999940395355"><path d="M303.6,51h0a9.65,9.65,0,0,0-11.9,6.8h0v.1h0c-.7,2.6.4,4.9,1.6,7,.1.1.1.1.2.1l14,3.3h.2c1.7-1.3,2.2-3.3,2.7-5.2V63A9.88,9.88,0,0,0,303.6,51Zm3.9,16.7-13.7-3.2c-1.1-2-2.1-4.1-1.5-6.4a9,9,0,0,1,10.9-6.5h.3a8.75,8.75,0,0,1,4.8,3.2l-7.7,2.6h-.1a2.51,2.51,0,0,0-3.5-.2h0a2.51,2.51,0,0,0-.2,3.5,2.44,2.44,0,0,0,2.8.6h.1l9.8,2.6a7.37,7.37,0,0,1-2,3.8Zm-7.1-9.5a1.84,1.84,0,1,1-2.5-.7h0A1.86,1.86,0,0,1,300.4,58.15Zm9.5,4.6v.1l-.1.6L300.5,61a2.45,2.45,0,0,0,.5-3l7.7-2.6a2.19,2.19,0,0,0,.3.5,9.25,9.25,0,0,1,.9,6.9Z" transform="translate(-0.1 0.65)"/><path d="M298.1,57.65a1.41,1.41,0,0,0,1.3,2.5l.1-.1a1.34,1.34,0,0,0,.5-1.9h0a1.43,1.43,0,0,0-1.9-.5Zm1.1,1.9a.69.69,0,0,1-1-.3h0a.71.71,0,0,1,.3-1h0a.69.69,0,0,1,1,.3h0a1,1,0,0,1-.3,1Z" transform="translate(-0.1 0.65)"/><path d="M293.1,60.55c-.1.1-.2.3-.1.4l.2.3c.1.2.2.3.4.2s.3-.2.2-.4h0V61l-.1-.3a.56.56,0,0,0-.6-.1Z" transform="translate(-0.1 0.65)"/><path d="M293.8,61.55c-.1.1-.2.3-.1.4l.3.5c.1.1.3.2.4.1h0c.1-.1.2-.3.1-.4l-.3-.5A.6.6,0,0,0,293.8,61.55Z" transform="translate(-0.1 0.65)"/><path d="M294.5,63c-.1.1-.2.3-.1.4h0l.1.3c.1.1.3.2.4.1s.2-.3.1-.4h0l-.1-.3c0-.2-.2-.2-.4-.1Z" transform="translate(-0.1 0.65)"/></g><g style="opacity:0.3499999940395355"><path d="M360.8,71.65l-5.3-5.5a.3.3,0,0,0-.4,0l-3.8,2.2c-.1.1-.2.2-.1.4l2.1,7.4c0,.2.2.3.4.2h.1l3.2-1.9,5.6,9.7-2.4,1.4c-.2.1-.3.2-.2.4s.2.3.4.2h.1l5.6-3.2c.1-.1.2-.3.1-.4h0c-.1-.1-.3-.2-.4-.1h0L363.1,84l-5.6-9.7,1.3-.8,1.1,1.9a.92.92,0,1,0,1.3-.1.78.78,0,0,0-.8-.2l-1.1-1.9,1.3-.8c.1-.1.2-.3.1-.4h0v-.3Zm-7,3.8-2-6.8,3.3-1.9,4.9,5.1Z" transform="translate(-0.1 0.65)"/><path d="M356.3,72.55l-.3.2c-.2.1-.3.2-.2.4s.2.3.4.2h.1l.3-.1a.25.25,0,0,0,.1-.4c0-.3-.2-.4-.4-.3Z" transform="translate(-0.1 0.65)"/><path d="M355.3,73.15l-.3.2c-.2.1-.3.2-.2.4s.2.3.4.2h.1l.3-.1c.1-.1.2-.3.1-.4s-.3-.2-.4-.1h0Z" transform="translate(-0.1 0.65)"/><path d="M354.2,73.75l-.3.1c-.1.1-.2.3-.1.4s.3.2.4.1h0l.3-.1c.1-.1.2-.3.1-.4S354.3,73.65,354.2,73.75Z" transform="translate(-0.1 0.65)"/></g><g style="opacity:0.3499999940395355"><path d="M105.9,100.55l-11.2,6.5a.93.93,0,0,0-.3,1.3h0l9,15.6a1,1,0,0,0,1.3.3l11.3-6.5a1,1,0,0,0,.3-1.3h0l-9-15.6A1.24,1.24,0,0,0,105.9,100.55Zm9.8,16.3c.1.2,0,.3-.1.4l-11.3,6.5a.25.25,0,0,1-.4-.1h0l-1.2-2.1,11.8-6.8Zm-1.6-2.7L102.3,121l-6.2-10.8,11.8-6.8Zm-6.5-11.3-11.8,6.8-.9-1.6c-.1-.2,0-.3.1-.4l11.2-6.5a.25.25,0,0,1,.4.1h0Z" transform="translate(-0.1 0.65)"/><path d="M109.6,120a.93.93,0,0,0,.3-1.3h0a1,1,0,0,0-1.3-.3.87.87,0,0,0-.3,1.3c.4.4.9.6,1.3.3Zm-.6-1.1a.35.35,0,0,1,.5.1c.1.2.1.4-.1.5h0a.25.25,0,0,1-.4-.1h0c-.2-.1-.1-.3,0-.5Z" transform="translate(-0.1 0.65)"/><path d="M103,104.05l-3.8,2.2c-.2.1-.3.2-.2.4s.2.3.4.2h.1l3.8-2.2c.1-.1.2-.3.1-.4h0a.76.76,0,0,0-.4-.2Z" transform="translate(-0.1 0.65)"/><path d="M112.5,114.45l.3-.2c.1-.1.2-.3.1-.4h0c-.1-.1-.3-.2-.4-.1l-.3.2c-.1.1-.2.3-.1.4s.2.2.4.1Z" transform="translate(-0.1 0.65)"/><path d="M111.4,115l.3-.2c.1-.1.2-.3.1-.4h0c-.1-.1-.3-.2-.4-.1l-.3.1c-.1.1-.2.3-.1.4,0,.3.2.3.4.2Z" transform="translate(-0.1 0.65)"/><path d="M110.3,115.65l.3-.2c.1-.1.2-.3.1-.4h0c-.1-.1-.3-.2-.4-.1l-.3.2c-.1.1-.2.3-.1.4h0C110,115.65,110.2,115.75,110.3,115.65Z" transform="translate(-0.1 0.65)"/></g><g style="opacity:0.3499999940395355"><path d="M335.6,21.85l-5.1,2.9a3.4,3.4,0,0,0-1.2,4.7l.9,1.6c.1.1.3.2.4.1h0l7.8-4.5c.1-.1.2-.3.1-.4h0L336,22C336,21.85,335.8,21.75,335.6,21.85Zm2.3,4.5-7.2,4.2-.8-1.4a2.79,2.79,0,0,1,1-3.8l4.8-2.8Z" transform="translate(-0.1 0.65)"/><path d="M340.2,19.25l-3.5,2c-.1.1-.2.3-.1.4l4.4,7.5c.1.1.3.2.4.1h0l3.5-2c.1-.1.2-.3.1-.4h0l-4.3-7.5C340.5,19.25,340.4,19.15,340.2,19.25Zm4.1,7.7-3,1.7-4-7,3-1.7Z" transform="translate(-0.1 0.65)"/><path d="M348.4,26.65l-1.4.8-5.8-10a1.61,1.61,0,0,0-2.1-.6h0l-9.6,5.6a5.26,5.26,0,0,0-1.9,7.2l4,7c.1.1.3.2.4.1l2.9-1.7a2.46,2.46,0,1,0,4.4-2.2h0c0-.1-.1-.1-.1-.2l8.3-4.8,1.1,1.9c.1.1.3.2.4.1h0c.1-.1.2-.3.1-.4l-1.1-1.9.5-.3c.1-.1.2-.3.1-.4C348.7,26.65,348.6,26.65,348.4,26.65Zm-10.2,8.8a1.9,1.9,0,1,1,.7-2.6h0a2,2,0,0,1-.7,2.6Zm8.4-7.7-7.6,4.4a2.42,2.42,0,0,0-3.5,0,2.39,2.39,0,0,0-.6,2.4l-2.8,1.6-3.9-6.7a4.72,4.72,0,0,1,1.7-6.4l9.6-5.6a1,1,0,0,1,1.3.3h0Z" transform="translate(-0.1 0.65)"/><path d="M333.8,30.45l-.3.2c-.1.1-.2.3-.1.4s.3.2.4.1h0l.3-.1c.1-.1.2-.3.1-.4h0c0-.2-.2-.3-.4-.2Z" transform="translate(-0.1 0.65)"/><path d="M332.8,31.05l-.3.2c-.1.1-.2.3-.1.4h0c.1.1.3.2.4.1h0l.3-.1c.1-.1.2-.3.1-.4h0C333.1,31.05,332.9,31,332.8,31.05Z" transform="translate(-0.1 0.65)"/><path d="M331.7,31.65l-.3.1c-.1.1-.2.3-.1.4h0c.1.1.3.2.4.1h0l.3-.1c.1-.1.2-.3.1-.4h0C332,31.65,331.8,31.55,331.7,31.65Z" transform="translate(-0.1 0.65)"/></g><g style="opacity:0.3499999940395355"><path d="M409.1,65.75l-1.7,1,.1-.6a.52.52,0,0,0-.2-.4l-.8-.2.4-1.3,2.2.6v-.7l-2.4-.6a.52.52,0,0,0-.4.2h0l-.4,1.6-1.6-.4a.52.52,0,0,0-.4.2h0l-.8,3a.52.52,0,0,0,.2.4l.5.1-.7.4-1.9-3.2a1,1,0,0,1,.3-1.3l7.4-4.3v-.7l-7.7,4.5a1.61,1.61,0,0,0-.6,2.1h0l.3.5-1.9,1.1c-.1.1-.2.3-.1.4l2.6,4.6c.1.1.3.2.4.1l.8-.5.8,1.4c.1.1.3.2.4.1h0l1.1-.6c.1-.1.2-.3.1-.4h0l-.8-1.4,4.4-2.6v-.5l-6.9,4-2.3-4,1.6-.9,1.4,2.4c.1.1.3.2.4.1l5.8-3.4v-.5C409.1,66,409.1,65.85,409.1,65.75Zm-5,6.1.6,1.1-.5.3-.6-1.1Zm2.7-4.7-2.2,1.3c0-.1-.1-.1-.2-.1l-.5-.1.6-2.4,2.4.6-.1.6c-.1,0-.1,0,0,.1Z" transform="translate(-0.1 0.65)"/></g><g style="opacity:0.3499999940395355"><path d="M377.8,32.25a5.13,5.13,0,1,0-1.1,9.2c.1-.1.2-.3.1-.4s-.2-.2-.3-.2a4.59,4.59,0,1,1,2.9-5.8,4.73,4.73,0,0,1-.5,4,4.89,4.89,0,0,1-1.2,1.3c-.1.1-.2.3-.1.4s.3.2.4.1h0a9.27,9.27,0,0,0,1.4-1.4,5.35,5.35,0,0,0-1.6-7.2Z" transform="translate(-0.1 0.65)"/><path d="M381,40.45a2.08,2.08,0,0,0,.3-1.3,1.21,1.21,0,0,1,.3-1,1.74,1.74,0,0,0,.6-1.2,2,2,0,0,0-.4-1.3,1.09,1.09,0,0,1-.2-1.1,2,2,0,0,0-.1-1.3,2.19,2.19,0,0,0-1-.9,1,1,0,0,1-.7-.8,2.1,2.1,0,0,0-.8-1.1,1.53,1.53,0,0,0-1.3-.2,1.21,1.21,0,0,1-1-.3,1.75,1.75,0,0,0-2.5-.1,1,1,0,0,1-1,.2,2,2,0,0,0-1.3.1,2.19,2.19,0,0,0-.9,1,1,1,0,0,1-.8.7,1.75,1.75,0,0,0-1.3,2.1.91.91,0,0,1-.3,1,2.28,2.28,0,0,0-.6,1.2,2,2,0,0,0,.4,1.3,1.23,1.23,0,0,1,.2,1,2,2,0,0,0,.1,1.3,1.21,1.21,0,0,0,.7.7l-.9,1.4a.25.25,0,0,0,.1.4h0a.25.25,0,0,0,.4-.1h0l1-1.5a1.16,1.16,0,0,1,.5.7h0l-2.8,4.3h-1l1.5-2.3a.25.25,0,0,0-.1-.4h0a.25.25,0,0,0-.4.1l-1.6,2.4a.64.64,0,0,0,0,.6.22.22,0,0,0,.2.2.37.37,0,0,0,.3.1h2l.2.5.6,1.3a.57.57,0,0,0,1,0l3.2-4.9a1.8,1.8,0,0,0,2.2-.1,1.16,1.16,0,0,1,1-.2,2,2,0,0,0,1.3-.1,2.19,2.19,0,0,0,.9-1,1,1,0,0,1,.8-.7,1.85,1.85,0,0,0,1.2-.7Zm-11.7,6-.2-.5c0-.1-.1-.2-.3-.2h-.5l2.4-3.7a1,1,0,0,0,.5.4,1.42,1.42,0,0,0,.6.2ZM370,48l-.4-.9,2.8-4.3h0a.78.78,0,0,1,.8.2Zm9.8-7.3a1.5,1.5,0,0,0-1.2,1.1,1.34,1.34,0,0,1-.6.7,1.41,1.41,0,0,1-.9.1,1.56,1.56,0,0,0-1.6.4,1.12,1.12,0,0,1-1.6-.1,1.84,1.84,0,0,0-1.6-.5,1.13,1.13,0,0,1-1.3-.9h0a1.83,1.83,0,0,0-.7-1c-.1-.1-.3-.1-.4-.2a1.34,1.34,0,0,1-.7-.6,1.41,1.41,0,0,1-.1-.9,1.56,1.56,0,0,0-.4-1.6,1.14,1.14,0,0,1-.3-.8,1.23,1.23,0,0,1,.4-.8,1.84,1.84,0,0,0,.5-1.6,1,1,0,0,1,.2-.9,1.16,1.16,0,0,1,.7-.5,1.5,1.5,0,0,0,1.2-1.1,1.34,1.34,0,0,1,.6-.7,1.41,1.41,0,0,1,.9-.1,1.53,1.53,0,0,0,1.6-.3,1.14,1.14,0,0,1,.8-.3,1.23,1.23,0,0,1,.8.4,1.84,1.84,0,0,0,1.6.5,1,1,0,0,1,.9.2,1.16,1.16,0,0,1,.5.7,1.5,1.5,0,0,0,1.1,1.2,1.34,1.34,0,0,1,.7.6,1.41,1.41,0,0,1,.1.9,1.53,1.53,0,0,0,.3,1.6,1.14,1.14,0,0,1,.3.8,1.23,1.23,0,0,1-.4.8,1.84,1.84,0,0,0-.5,1.6,1,1,0,0,1-.2.9.84.84,0,0,1-.7.4Z" transform="translate(-0.1 0.65)"/></g><g style="opacity:0.3499999940395355"><path d="M285.8,13.75l-2.1-1.3a3.4,3.4,0,0,0-5.7-3.7l-2.1-1.4a.93.93,0,0,0-1.2.2h0l-6.4,9.8a.29.29,0,0,0,.5.3l.4-.7,10.4,6.7-1.9,2.9a.78.78,0,0,1-1,.2l-9.1-5.9a.78.78,0,0,1-.2-1l.7-1.1a.25.25,0,0,0-.1-.4h0a.25.25,0,0,0-.4.1h0l-.7,1.1a1.42,1.42,0,0,0,.4,1.9l9.1,5.9a1.44,1.44,0,0,0,1.9-.4h0l7.9-12.2A.91.91,0,0,0,285.8,13.75Zm-10.2-5.9,2.1,1.4L276.6,11a1,1,0,0,0,.3,1.3.93.93,0,0,0,1.2-.3l1.1-1.7,2.6,1.7-.3.4a.25.25,0,0,0,.1.4c.1.1.3,0,.4-.1l.5-.8a2.09,2.09,0,1,0-3.5-2.3h0l-1.4,2.1c-.1.2-.3.2-.5.1s-.2-.3-.1-.5h0l1.4-2.1a2.82,2.82,0,1,1,4.7,3.1l-1.4,2.1c-.1.2-.3.2-.5.1s-.2-.3-.1-.5l.1-.1a.25.25,0,0,0-.1-.4h0a.25.25,0,0,0-.4.1l-.1.1a.93.93,0,0,0,1.5,1.1h0a.35.35,0,0,0,.1-.2l1.1-1.7,2.1,1.4c.1.1.2.2.1.4l-2.2,3.4L273,11.35l2.2-3.3c.1-.3.3-.3.4-.2Zm4,1.9a1.51,1.51,0,0,1,2.5,1.7Zm-10,6.9,3.2-4.9,10.3,6.7-3.2,4.9-10.3-6.7Z" transform="translate(-0.1 0.65)"/></g><g style="opacity:0.3499999940395355"><path d="M218.1,15.55l10.9,7.1a.65.65,0,0,0,.9-.2h0l1.4-2.2a.65.65,0,0,0-.2-.9h0l-8.2-5.3a.25.25,0,0,0-.4.1c-.1.2-.1.3.1.4h0l8.2,5.3V20l-1.4,2.2m-.1,0h0l-10.9-7v-.1l1.4-2.2h.1l1.5,1a.25.25,0,0,0,.4-.1h0a.25.25,0,0,0-.1-.4h0l-1.5-1a.65.65,0,0,0-.9.2h0l-1.4,2.2a.61.61,0,0,0,.1.8Z" transform="translate(-0.1 0.65)"/><path d="M216.9,16.75l11.5,7.4a.29.29,0,1,0,.3-.5l-11.5-7.4c-.1-.1-.3,0-.4.1a.6.6,0,0,0,.1.4Z" transform="translate(-0.1 0.65)"/><path d="M216.3,17.75l11.5,7.4c.1.1.3,0,.4-.1s0-.3-.1-.4h0l-11.5-7.4a.25.25,0,0,0-.4.1c-.1.2-.1.3.1.4Z" transform="translate(-0.1 0.65)"/><path d="M235.7,17.15,223.1,9l14,5.3a.3.3,0,0,0,.4,0l.3-.3.8-2.1a.52.52,0,0,0-.3-.7h0l-17.1-6.5a.52.52,0,0,0-.7.3h0l-.9,2.3-1.3,2a.61.61,0,0,0,.1.8h0l.2.1-5.2,8a.65.65,0,0,0,.2.9l13.9,9a.65.65,0,0,0,.9-.2h0l5.2-8,.2.1a.61.61,0,0,0,.8-.1h0l1.2-1.9a.54.54,0,0,0-.2-.8Zm-1.8-.5-2.3,1.2-1.1-.7,2.3-1.2Zm-1.6-1.1-2.3,1.2-1.2-.8,2.3-1.1Zm-1.8-1.1-2.3,1.2-1.1-.7,2.3-1.2Zm-1.6-1.1-2.3,1.2-1.2-.8,2.3-1.1Zm-1.8-1.1-2.3,1.1-1.1-.7,2.3-1.1Zm-1.7-1.1-2.3,1.2-1.2-.8,2.3-1.1ZM223.7,10l-2.3,1.1-1.1-.7,2.3-1.1Zm12.8,1-.4.3a.28.28,0,0,0,.4.4l.6-.5,1,.4-.8,2.1-2.2-.8.3-.2a.28.28,0,0,0-.4-.4h0l-.5.4h0l-1.2-.4,2-1.6Zm-1.9-.7-2,1.6-1.3-.5,2-1.6Zm-1.9-.7-2,1.6-.5-.2-.8-.3,2-1.6Zm-1.9-.7-2,1.6-1.3-.5,2-1.6Zm-2.7-1,.8.3-2,1.6-1.2-.5,2-1.6Zm-1.1-.4-2,1.6-1.3-.5,2-1.6Zm-2.1-.8.2.1-2,1.6-1.2-.5,2-1.6Zm-4.7.6.8-2,2.2.8-2,1.6Zm-1.3,2.2,1.1-1.7.5.2L222,9l-2.3,1.2Zm9.2,18H228l-13.9-9v-.1h0l5.2-8,14,9.1Zm6.1-8-2-1.3,2.3-1.1.9.6Z" transform="translate(-0.1 0.65)"/></g><g style="opacity:0.3499999940395355"><path d="M18.9,67a1.09,1.09,0,0,0,.1-.5.78.78,0,0,0-.4-.4l-.7-.3-2.4-1.2-.1-.1,1.5-.6a2.91,2.91,0,0,0,1.4-1.7,2.53,2.53,0,0,0-1.7-3.1h0a3.3,3.3,0,0,0-1.4,0,2.22,2.22,0,0,0,.1-1.6,2.44,2.44,0,0,0-2.8-1.8,2.85,2.85,0,0,0-1.4.8,3,3,0,0,0-.7-1.5,2.58,2.58,0,0,0-3.3-.3c-.1.1-.2.3-.1.4s.3.2.4.1h0a2,2,0,0,1,1.3-.4,1.76,1.76,0,0,1,1.3.6,2.72,2.72,0,0,1,.6,1.7,8,8,0,0,0-.8,1.6H9.5a1.3,1.3,0,0,0-1,.9,1.61,1.61,0,0,0-.9.3,9,9,0,0,0-1-.9v-.2a5.7,5.7,0,0,1,0-2.6c.1-.2,0-.3-.2-.4h0c-.2-.1-.3,0-.4.2H6a6.47,6.47,0,0,0-.1,2.4l-.1-.1c-.7-.6-1.4-1.2-2.1-1.7l-.6-.5a.56.56,0,0,0-.9,0h0l-.1.1a9.16,9.16,0,0,0-1.9,5.5,5.34,5.34,0,0,0,1.3,3.1,5.79,5.79,0,0,0,3.1,2,3.42,3.42,0,0,0,2.2-.5h0a.64.64,0,0,1,.6,0,.6.6,0,0,1,.3.6h0a3.37,3.37,0,0,0,1.7,3.4,7.1,7.1,0,0,0,1.8.8,5.64,5.64,0,0,0,3.4-.1,8.21,8.21,0,0,0,2.5-1.6A18.76,18.76,0,0,0,18.9,67Zm-4.1-7.2a2.26,2.26,0,0,1,1.8-.1,2.19,2.19,0,0,1,1,.9,1.69,1.69,0,0,1,.1,1.4c-.3,1.1-1.7,1.8-3,2h-.2a6.12,6.12,0,0,0-1.2-.5,1.41,1.41,0,0,0-.1-.9,1.48,1.48,0,0,0,.4-1.3v-.1C14,60.65,14.4,60.25,14.8,59.75Zm-2.3-3.6a2.09,2.09,0,0,1,2.2,1.4c.3,1-.5,2.2-1.4,3.1a1.27,1.27,0,0,0-.6-.4,1.35,1.35,0,0,0-1.3-1.4h0c-.2,0-.5.1-.7.1-.2-.2-.3-.3-.5-.3a3.44,3.44,0,0,1,2.3-2.5Zm-3.8,3.9h.2c.1,0,.1-.1.1-.2a.86.86,0,0,1,.6-.7,1.27,1.27,0,0,1,.6.1c.1.1.2.2.2.3s.1.1.2.1.2,0,.2-.1a.71.71,0,0,1,1.1.2h0a.82.82,0,0,1,.1.7v.2c0,.1.1.1.2.1a1,1,0,0,1,.7.9h0c0,.2-.2.4-.4.6-.1,0-.1.1-.1.2s0,.2.1.2a.66.66,0,0,1,.1.6,2.77,2.77,0,0,0-.9-.1h-1a2,2,0,0,1-2-1.3,4.18,4.18,0,0,0-.4-1,3.51,3.51,0,0,0-.5-.8c.4,0,.6-.1.9,0Zm5.8,10.3a4.42,4.42,0,0,1-3,.1,5.26,5.26,0,0,1-2.8-1.8,4.06,4.06,0,0,1-.4-1.9h0a1.3,1.3,0,0,0-1.1-1.3,1.27,1.27,0,0,0-.6.1h0a3,3,0,0,1-1.8.4,5,5,0,0,1-2.7-1.8,4.74,4.74,0,0,1-1.2-2.8,8.15,8.15,0,0,1,1.8-5.1h.2l.6.5,2.1,1.8a9.9,9.9,0,0,1,2.5,2.5l.3.9a2.58,2.58,0,0,0,2.6,1.7h1c.5,0,1.2.1,3.3,1.2.8.4,1.7.9,2.5,1.2l.7.3h0m0,.3a8.45,8.45,0,0,1-4,3.7Z" transform="translate(-0.1 0.65)"/><path d="M6.2,61.65a6.9,6.9,0,0,0-1.6-1.8c-.3-.2-.5-.4-.8-.6a.52.52,0,0,0-.8.1H3a3,3,0,0,0-.6,2,2.87,2.87,0,0,0,.7,1.8A2.36,2.36,0,0,0,4,64a3.51,3.51,0,0,0,1.8.6H6a.56.56,0,0,0,.6-.5,4.09,4.09,0,0,0-.4-2.4ZM6.1,64H5.8a3.47,3.47,0,0,1-2.3-1.2,2.39,2.39,0,0,1-.5-1.4,3,3,0,0,1,.5-1.6h0c.2.2.5.4.7.6.9.7,2.2,2.1,1.9,3.6Z" transform="translate(-0.1 0.65)"/><path d="M15.7,67.05c0-.2-.1-.3-.3-.4a7.93,7.93,0,0,0-.9-.4,6.15,6.15,0,0,0-2.3-.7,4,4,0,0,0-2.4.5.78.78,0,0,0-.2.8.77.77,0,0,1,.1.3,5.71,5.71,0,0,0,1.3,1.4,3.7,3.7,0,0,0,1.1.5,5.7,5.7,0,0,0,1.3.1.3.3,0,1,0,0-.6,4.1,4.1,0,0,1-1.1-.1,3.18,3.18,0,0,1-2-1.6c0-.1-.1-.1-.1-.2h0c1.3-.9,3.2-.3,4.1.2l.8.4h0a5.55,5.55,0,0,1-.6.8.6.6,0,0,0-.1.4.6.6,0,0,0,.4.1h0a6.47,6.47,0,0,0,.8-.9,1.49,1.49,0,0,0,.1-.6Z" transform="translate(-0.1 0.65)"/></g><g style="opacity:0.3499999940395355"><path d="M103.1,68.25l-3.7-2.4a.29.29,0,0,0-.3.5h0l3.7,2.4c.1,0,.1.1.1.2s0,.1-.1.2a7.56,7.56,0,0,1-2.1,1.9,4.19,4.19,0,0,1-1.5.4,4,4,0,0,1-3.4-2,4.14,4.14,0,0,1-.5-1.9,8.42,8.42,0,0,1,.8-2.7c.1-.1.2-.2.3-.1h0l1.4.9a.29.29,0,0,0,.3-.5h0l-1.4-.9a.89.89,0,0,0-1.1.2h0l-.1.1a7.54,7.54,0,0,0-.9,2.9,4.45,4.45,0,0,0,5.6,4.3c.2-.1.4-.1.5-.2a7.4,7.4,0,0,0,2.3-2,.84.84,0,0,0,.2-.7.43.43,0,0,0-.1-.6Z" transform="translate(-0.1 0.65)"/><path d="M104.2,74.75c-.1,0-.2-.1-.3-.2v-.2a1.61,1.61,0,0,1,.9-.3h.2c.2,0,.5-.1.7-.1,2.3-.6,3.4-2,3.1-3.8a2.76,2.76,0,0,0-1.2-1.9,1.61,1.61,0,0,0-.7-.4c.1-.1.2-.2.3-.2a.82.82,0,0,0,.1-1.2h0l-.2-.2-9.9-6.4a.86.86,0,0,0-1.2.3h0a.37.37,0,0,0-.1.3,20,20,0,0,1-1,2.6l-.1.2a4.88,4.88,0,0,0-.3.7,13.56,13.56,0,0,0-1.2,3.9,5.34,5.34,0,0,0,.5,2.5h-.3a2.14,2.14,0,0,0-1.7.8l-1.5-1a.63.63,0,0,0-.9.1h0c0,.1-.1.1-.1.2s-.1.2-.1.3a1.62,1.62,0,0,0,.8,1.9l6.5,4.1a.25.25,0,0,0,.4-.1h0a.25.25,0,0,0-.1-.4h0l-6.4-4.1a1.3,1.3,0,0,1-.5-1.3c0-.1,0-.2.1-.2h0l10.3,6.6h0m0-.2-.2.2a1.39,1.39,0,0,1-1.4.1l-.9-.6a.25.25,0,0,0-.4.1h0a.25.25,0,0,0,.1.4h0l.9.6a1.81,1.81,0,0,0,2.1-.1c.1-.1.2-.1.2-.2a.76.76,0,0,0,.2-.5.55.55,0,0,0-.3-.5l-1.4-1a2.12,2.12,0,0,0,0-1.9c0-.1-.1-.2-.1-.3a5,5,0,0,0,1.7-.2,6.89,6.89,0,0,0,.8-.3,11.39,11.39,0,0,0,3.1-2.7l.5-.6.2-.3h.1a1.4,1.4,0,0,1,.9.3,1.35,1.35,0,0,1,.5.9c.1.7-.2,1.1-1.6,1.5a4.33,4.33,0,0,0-.5.1,3.21,3.21,0,0,0-2.2,1,2.44,2.44,0,0,0-.4,2.2,3.13,3.13,0,0,0,.9,1.1l.2.1a1.42,1.42,0,0,0,.6.2,1,1,0,0,0,1-1,1.05,1.05,0,0,0-.5-.9Zm-1.7-1.9-6.2-4a1.87,1.87,0,0,1,1.9-.4,6.2,6.2,0,0,0,1.4,1.4,5.41,5.41,0,0,0,2.6,1.1A2.09,2.09,0,0,1,98.6,75.15Zm8.2-8.2a18.88,18.88,0,0,0-2,2,5.07,5.07,0,0,0-.6.7,12,12,0,0,1-2.9,2.6c-.2.1-.5.2-.7.3a5.43,5.43,0,0,1-4.6-1,5.17,5.17,0,0,1-1.5-1.8,4.56,4.56,0,0,1-.5-2.3,8.9,8.9,0,0,1,1.1-3.6l.3-.7.1-.2c.4-.9.7-1.8,1-2.7a.22.22,0,0,1,.2-.2H97l9.9,6.4c.1,0,.1.1.1.2s-.1.2-.2.3Zm-2.7,9h-.3c-.2,0-.3-.1-.5-.2a2.36,2.36,0,0,1-.8-.9,1.53,1.53,0,0,1,.3-1.6,2.69,2.69,0,0,1,1.8-.8,1.27,1.27,0,0,0,.6-.1,3.51,3.51,0,0,0,1.4-.6,1.5,1.5,0,0,0,.6-1.5,1.71,1.71,0,0,0-.7-1.3l-.2-.1a4.88,4.88,0,0,0-.7-.3l.6-.6c.3.1.5.3.8.4a2.47,2.47,0,0,1,1,1.6c.4,2.1-1.8,2.9-2.7,3.1a1.48,1.48,0,0,1-.7.1h-.2a1.66,1.66,0,0,0-1.2.5.78.78,0,0,0-.2.8,1.06,1.06,0,0,0,.7.6c.2,0,.3.3.3.5h0c.3.2.2.3.1.4Z" transform="translate(-0.1 0.65)"/><path d="M102.7,59.25c.1.1.3.2.4.1a.19.19,0,0,1,.3,0c.1.1.2.2.2.3,0,.3-.6.6-1,.8-.2.1-.3.2-.5.2s-.4.4-.6.6a.81.81,0,0,0,.3.9h0c.2.1.3,0,.4-.2s0-.3-.1-.3-.1-.1-.1-.2.2-.3.3-.3l.4-.2c.6-.3,1.4-.6,1.4-1.4a.87.87,0,0,0-.6-.8,1,1,0,0,0-.9.1,1,1,0,0,0,.1.4Z" transform="translate(-0.1 0.65)"/><path d="M104.7,58.75a.55.55,0,0,1,.5.3,1,1,0,0,1,.2.7,1.14,1.14,0,0,1-.7.8l-.7.4a1.34,1.34,0,0,0-.7.6.66.66,0,0,0,.1.6l.1.1c.1.1.3,0,.4-.1v-.3h0v-.1c0-.1.3-.2.3-.2l.3-.1.4-.2a1.72,1.72,0,0,0,1-1.2,1.31,1.31,0,0,0-.3-1.2,1.23,1.23,0,0,0-1-.5.27.27,0,0,0-.3.3c.1,0,.3.1.4.1Z" transform="translate(-0.1 0.65)"/></g><g style="opacity:0.3499999940395355"><path d="M390,8.75l-.3-.2.6-.9a1.08,1.08,0,0,0-.2-1.4h0l-.1-.1-.5-.3.3-.3a1,1,0,0,0-.3-1.3l-.7-.5a5.79,5.79,0,0,0-1.3-4.4h-.8c.1.1.2.3.4.4a5.25,5.25,0,0,1,1.1,4c0,.2,0,.4.2.5l.8.5a.4.4,0,0,1,.2.4c-.1.2-.3.2-.5.2h-.1l-.8-.5a1.15,1.15,0,0,1-.5-1.2,4.53,4.53,0,0,0-1-3.5,6,6,0,0,0-.8-.8h-1.1a5.83,5.83,0,0,1,1.5,1.1,3.57,3.57,0,0,1,.8,3v.6L380-.35a.76.76,0,0,0,.5-.2h-2.1l11.2,7.2a.38.38,0,0,1,.1.6h0l-2,3.2h0l-4-1.3a.27.27,0,0,0-.3.3.37.37,0,0,0,.1.3l3.8,1.3-4.2,6.4a.38.38,0,0,1-.6.1l-13.1-8.5a.38.38,0,0,1-.1-.6h0l4.2-6.4,4.8,5.2-.7,1.1a.86.86,0,0,0,.3,1.2l1,.6a.86.86,0,0,0,1.2-.3l.8-1.2,1.6.5c.2.1.3,0,.4-.2h0c.1-.2,0-.3-.2-.4h0l-1.7-.3a.87.87,0,0,0-.4-.9l-1-.7a.91.91,0,0,0-1,0l-4.8-5.3,1.3-2h-.7l-1.8,2.8-.3-.2a.37.37,0,0,1-.1-.3h0l1.5-2.3H373l-1.3,2a.89.89,0,0,0,.2,1.1l.3.2-3.5,5.4a1.08,1.08,0,0,0,.2,1.4h0l.1.1h0l13.1,8.5a1.12,1.12,0,0,0,1.5-.3l3.5-5.4.3.2a.89.89,0,0,0,1.1-.2l1.6-2.4c.4-.5.3-1-.1-1.2Zm-11-1.5c.1-.1.2-.2.4-.1l1,.7c.1.1.1.2.1.4l-.9,1.4c-.1.1-.2.2-.4.1l-1-.6c-.1-.1-.2-.2-.1-.4Zm10.8,2.2-1.6,2.4a.37.37,0,0,1-.3.1h0l-.3-.2L389.4,9l.3.2a.49.49,0,0,1,.1.3Z" transform="translate(-0.1 0.65)"/></g><g style="opacity:0.3499999940395355"><path d="M290.5,97.55a.27.27,0,0,0-.3-.3h0a24.2,24.2,0,0,1-8.6-3.2l-1.1-.7a24.73,24.73,0,0,1-6.4-6.5c-.1-.1-.3-.2-.4-.1h0c-.1.1-.2.2-.1.4h0l.6.9-3.4,5.3a.64.64,0,0,0,0,.6.55.55,0,0,0,.5.3h2l.4.8h0l.5,1a.22.22,0,0,0,.2.2.37.37,0,0,0,.3.1.55.55,0,0,0,.5-.3l2.7-4.2a9,9,0,0,0,1,.9l-.9,1.4a.25.25,0,0,0,.1.4h0a.25.25,0,0,0,.4-.1h0l.9-1.3.6.5-3.1,4.8H276l1.8-2.8a.25.25,0,0,0-.1-.4h0c-.1-.1-.3,0-.4.1l-1.8,2.8a.64.64,0,0,0,0,.6.55.55,0,0,0,.5.3h2l.8,1.8a.22.22,0,0,0,.2.2.37.37,0,0,0,.3.1.55.55,0,0,0,.5-.3l3.4-5.3,1.2.6-2.7,4.1a.64.64,0,0,0,0,.6.22.22,0,0,0,.2.2.37.37,0,0,0,.3.1h1.9l.8,1.8a.63.63,0,0,0,.8.3.22.22,0,0,0,.2-.2l3.4-5.3c.3.1.7.1,1,.2l.2-.4Zm-18.3-4h-.9l3.3-5.1.5.6Zm2.4,2.1-.4-.8,2.5-3.9.6.5Zm1.5-5.4.2.2-2.4,3.7-.2-.4c0-.1-.1-.2-.3-.2h-.5l2.6-4,.3.3.3.4Zm2.3,8.7-.2-.4c0-.1-.1-.2-.3-.2h-.5l2.9-4.4,1,.6L278.4,99Zm.7,1.4-.4-.8,3.1-4.8.6.3h.1Zm3.8.1H282l2.7-4.2.7.3Zm1.7.6-.2-.4c-.1-.1-.2-.2-.3-.2h-.5l2.4-3.7a.37.37,0,0,1,.3.1l.6.2.2.1h.1Zm.7,1.5-.4-.8,2.9-4.4h.1l.3.1.4.1Z" transform="translate(-0.1 0.65)"/><path d="M285.5,105.35a.27.27,0,0,0-.3-.3h0a24.2,24.2,0,0,1-8.6-3.2l-1.1-.7a24.73,24.73,0,0,1-6.4-6.5c-.1-.1-.3-.2-.4-.1h0c-.1.1-.2.2-.1.4h0l.6.9-3.4,5.3a.64.64,0,0,0,0,.6.55.55,0,0,0,.5.3h2l.4.8h0l.5,1a.22.22,0,0,0,.2.2.37.37,0,0,0,.3.1.55.55,0,0,0,.5-.3l2.7-4.2a9,9,0,0,0,1,.9l-3.4,5.3a.64.64,0,0,0,0,.6.55.55,0,0,0,.5.3h2l.8,1.8a.22.22,0,0,0,.2.2.37.37,0,0,0,.3.1.55.55,0,0,0,.5-.3l3.5-5.3,1.2.6-2.7,4.1a.64.64,0,0,0,0,.6c.1.1.1.2.2.2a.37.37,0,0,0,.3.1h1.9l.4.8h0l.5,1a.55.55,0,0,0,.7.3h0c.1,0,.2-.1.3-.2l3.4-5.1c.3.1.7.1,1,.2-.2-.2-.1-.3,0-.5Zm-18.3-4h-.9l3.3-5.1c.1.1.5.6.5.6Zm2.3,2.1-.4-.8,2.5-3.9.6.5Zm1.2-5.8.2.2.4.5-2.4,3.7-.2-.4a.1.1,0,0,0-.1-.1H268l2.6-4,.1.1Zm1,8.5h-.9l3.4-5.2.1.1.1.1.4.3h0l-3.1,4.7Zm1.6.6-.2-.4-.1-.1a.35.35,0,0,0-.2-.1h-.5l2.9-4.4,1,.6-2.9,4.4Zm.7,1.5-.4-.8,3.1-4.8.6.3.1.1Zm5.5.7-.2-.4c0-.1-.1-.2-.3-.2h-.5l1-1.6a.25.25,0,0,0-.1-.4h0a.25.25,0,0,0-.4.1l-1.2,1.9h-.9l2.7-4.2.7.3-.6.9a.29.29,0,0,0,.5.3h0l.6-1h0l.5.2.6.2-2.4,3.9Zm.7,1.4-.4-.8,2.9-4.4h.1l.5.1h.2Z" transform="translate(-0.1 0.65)"/></g><g style="opacity:0.3499999940395355"><path d="M64.6,123.65A10,10,0,1,0,45.1,128a9.81,9.81,0,0,0,6.9,7.4.4.4,0,0,0,.4-.2h0c.1-.2,0-.3-.2-.4h0a9.3,9.3,0,1,1,1.3.3c-.2,0-.3.1-.3.2h0c0,.2.1.3.2.3h0a10,10,0,0,0,11.3-8.5,9.84,9.84,0,0,0-.1-3.4Z" transform="translate(-0.1 0.65)"/><path d="M52.8,117.45a8.68,8.68,0,1,0,1.5-.2.32.32,0,0,0-.3.3.27.27,0,0,0,.3.3h0a8.33,8.33,0,0,1,4.9,1.2,7.89,7.89,0,1,1-10.9,2.4,8.05,8.05,0,0,1,4.7-3.4c.1,0,.2-.2.2-.3h0c0-.2-.2-.3-.4-.3Z" transform="translate(-0.1 0.65)"/><path d="M57.9,121a.25.25,0,0,0,.4-.1l.5-.9c.1-.2,0-.3-.1-.4h0a.19.19,0,0,0-.3.1l-.5.9C57.7,120.75,57.7,120.85,57.9,121Z" transform="translate(-0.1 0.65)"/><path d="M51.3,130.55l-.5.9a.25.25,0,0,0,.1.4h0a.25.25,0,0,0,.4-.1l.5-.9a.29.29,0,0,0-.5-.3Z" transform="translate(-0.1 0.65)"/><path d="M49.2,121.65a.25.25,0,0,0-.4.1h0c-.1.1,0,.3.1.4l.8.5a.29.29,0,1,0,.3-.5Z" transform="translate(-0.1 0.65)"/><path d="M60.5,129.75a.25.25,0,0,0,.4-.1h0a.25.25,0,0,0-.1-.4l-.8-.5c-.2-.1-.3,0-.4.1h0c-.1.1,0,.3.1.4Z" transform="translate(-0.1 0.65)"/><path d="M55.1,124.65a1.11,1.11,0,1,0-.7,2.1,1.39,1.39,0,0,0,1.1-.2l1.5,1a.29.29,0,1,0,.3-.5h0l-1.5-1a1.23,1.23,0,0,0-.2-1l1.7-2.7c.1-.1,0-.3-.1-.4s-.3,0-.4.1Zm0,.6a.51.51,0,1,1-.7.2h0A.53.53,0,0,1,55.1,125.25Z" transform="translate(-0.1 0.65)"/></g><g style="opacity:0.3499999940395355"><path d="M377.5,126.85l6.6-10.1a2.91,2.91,0,0,0-.8-4.1l1.1-1.8a.65.65,0,0,0-.2-.9h0l-1.4-.9a.65.65,0,0,0-.9.2h0l-1.1,1.8a3.05,3.05,0,0,0-4.1,1l-1.4,2.2a.29.29,0,0,0,.5.3l1.3-2,6.3,4.1-6.4,9.8-6.3-4.1,4.4-6.7a.29.29,0,1,0-.5-.3l-4.4,6.7a.81.81,0,0,0-.9.3l-.4.6a.78.78,0,0,0,.2,1l4.5,2.9a.25.25,0,0,0,.4-.1h0a.25.25,0,0,0-.1-.4h0l-4.5-2.9v-.2h0l.4-.6c.1-.1.1-.1.2,0l7.1,4.6c.1.1.1.2,0,.2l-.4.6c-.1.1-.1.1-.2,0h0l-1.4-.9a.25.25,0,0,0-.4.1h0a.25.25,0,0,0,.1.4h0l1.4.9a.78.78,0,0,0,1-.2l.4-.6a.56.56,0,0,0-.1-.9Zm4.9-17.2h.1l1.4.9v.1l-1.1,1.8-1.5-1,1.1-1.8Zm-5,2.5a2.36,2.36,0,0,1,3.2-.5l2.2,1.4a2.53,2.53,0,0,1,.9,3.1Z" transform="translate(-0.1 0.65)"/><path d="M382.8,110.65a.25.25,0,0,0-.4.1l-.1.2a.29.29,0,0,0,.5.3h0l.1-.2a.25.25,0,0,0-.1-.4Z" transform="translate(-0.1 0.65)"/><path d="M388.1,113.05l-.7-.4a.29.29,0,1,0-.3.5l.7.4a.25.25,0,0,0,.4-.1h0c.1-.1.1-.2-.1-.4Z" transform="translate(-0.1 0.65)"/><path d="M385.5,112.15l.6.4a.25.25,0,0,0,.4-.1h0c.1-.1,0-.3-.1-.4l-.7-.4c-.1-.1-.3,0-.4.1a.4.4,0,0,0,.2.4Z" transform="translate(-0.1 0.65)"/><path d="M389.7,114.15l-.6-.4a.29.29,0,1,0-.3.5h0l.6.4a.25.25,0,0,0,.4-.1h0a.25.25,0,0,0-.1-.4Z" transform="translate(-0.1 0.65)"/><path d="M385.6,113.45l-.5-.6c-.1-.1-.3-.2-.4-.1s-.2.3-.1.4l.5.6.1.1a.25.25,0,0,0,.4-.1.19.19,0,0,0,0-.3Z" transform="translate(-0.1 0.65)"/><path d="M387.9,116.55l-.5-.6a.6.6,0,0,0-.4-.1c-.1.1-.2.3-.1.4h0l.5.6c.1.1.3.2.4.1a.25.25,0,0,0,.1-.4Z" transform="translate(-0.1 0.65)"/><path d="M386.8,115l-.5-.6c-.1-.1-.3-.2-.4-.1s-.2.3-.1.4h0l.5.6a.1.1,0,0,0,.1.1.19.19,0,0,0,.3,0c.1,0,.2-.2.1-.4Z" transform="translate(-0.1 0.65)"/></g><g style="opacity:0.3499999940395355"><path d="M168.1,92.75a.25.25,0,0,0,.4-.1h0l.8-1.2a.54.54,0,0,0-.2-.8l-11.8-7.6a1,1,0,0,0-.5-1.3,1.1,1.1,0,0,0-1.2.3l-7.3,11.2a.25.25,0,0,0,.1.4h0a.25.25,0,0,0,.4-.1l7.3-11.2c.1-.2.4-.2.6-.1s.2.4.1.6l-.1.2-6.3,9.7L147.1,98c-.1.2-.4.2-.6.1h0c-.2-.1-.2-.4-.1-.6l1.8-2.7a.29.29,0,0,0-.5-.3h0l-1.8,2.7a1,1,0,1,0,1.5,1.3l.1-.1.1-.1,3.2-5,11.8,7.6a.48.48,0,0,0,.7-.1h0l4.5-6.9a.25.25,0,0,0-.1-.4h0a.25.25,0,0,0-.4.1l-1.3,2L154.3,88l2.8-4.4,11.7,7.6-.8,1.2a.6.6,0,0,0,.1.4ZM165.6,96l-2.8,4.4-11.7-7.6,2.8-4.4Z" transform="translate(-0.1 0.65)"/></g><g style="opacity:0.3499999940395355"><path d="M180.8,12.05a2.65,2.65,0,0,0,1.1-1.9,2.66,2.66,0,0,1,.3-1.2.25.25,0,0,0-.1-.4c-.1-.1-.3-.2-.4-.1a5,5,0,0,1-1.2.2,2.52,2.52,0,0,0-2,.9,2.38,2.38,0,0,0-.6,1.1.76.76,0,0,0-.9.1l-.4.3a.77.77,0,0,0-.1,1l-3.5,3.3-.3-.4c-.8-1.2-.9-1.9-.1-2.5a3.38,3.38,0,0,1,1.2-.6l.2-.1c.2-.1.2-.2.2-.4s-.2-.2-.4-.2h0l-.2.1a3.69,3.69,0,0,0-1.4.7,2.14,2.14,0,0,0-.8,1.7,3,3,0,0,0,.8,1.6c.2.2.4.5.6.7a3.23,3.23,0,0,1,1,1.7c.3,1.7-1.3,3-2.9,3.5-.5.1-1,.2-1.6.3a9.78,9.78,0,0,1-6.3-2.3,9.28,9.28,0,0,1-3.1-6.1,10.55,10.55,0,0,1,1.2-5.5,10.25,10.25,0,0,1,3.9-4.1,8.17,8.17,0,0,1,9.8,1.3,4.88,4.88,0,0,1,1.3,3.6,3.09,3.09,0,0,1-1.3,2.4c-.1.1-.2.2-.1.4h0c.1.1.2.2.4.1h0a3.93,3.93,0,0,0,1.5-2.8,5.42,5.42,0,0,0-1.5-4,8.44,8.44,0,0,0-3.9-2.2,9.13,9.13,0,0,0-6.7.8,10.62,10.62,0,0,0-4.1,4.3,11.74,11.74,0,0,0-1.3,5.8,10,10,0,0,0,3.3,6.6,7.63,7.63,0,0,0,1.1.8,10.13,10.13,0,0,0,5.6,1.6,5.08,5.08,0,0,0,1.7-.3,6.08,6.08,0,0,0,2.4-1.5,3.32,3.32,0,0,0,.9-2.7,1.42,1.42,0,0,0-.2-.6l3.8-3.2.1.1a.76.76,0,0,0,.9-.1l.4-.3a1,1,0,0,0,.2-.9,3.08,3.08,0,0,0,1.2-.5Zm-6.8,4.4a4.35,4.35,0,0,0-.6-.7l3.5-3.3.8.9Zm5.1-3.5-.4.3h-.2l-1.5-1.7c-.1-.1-.1-.2,0-.2l.4-.3h.2l1.5,1.7v.1c-.1,0-.1.1,0,.1Zm0-1-.8-.8a2.11,2.11,0,0,1,.5-1.3,2.36,2.36,0,0,1,1.6-.7,3.4,3.4,0,0,0,1-.1,3.55,3.55,0,0,0-.2,1,1.9,1.9,0,0,1-.8,1.5,1.25,1.25,0,0,1-1.3.4Z" transform="translate(-0.1 0.65)"/><path d="M173.1,7.05a1.89,1.89,0,0,0-3.2-2,1.9,1.9,0,0,0,.5,2.6,2,2,0,0,0,2.7-.6Zm-2.2.1a1.2,1.2,0,0,1-.4-1.7h0a1.18,1.18,0,0,1,1.7-.3,1.27,1.27,0,0,1,.3,1.7,1.25,1.25,0,0,1-1.6.3Z" transform="translate(-0.1 0.65)"/><path d="M165.6,8.15a1.87,1.87,0,0,0,2.1-3.1,1.9,1.9,0,0,0-2.6.5h0A1.81,1.81,0,0,0,165.6,8.15Zm1.7-2.7a1.3,1.3,0,1,1-1.8.4h0a1.4,1.4,0,0,1,1.8-.4Z" transform="translate(-0.1 0.65)"/><path d="M162.5,12.15a1.87,1.87,0,1,0-.5-2.6h0A1.81,1.81,0,0,0,162.5,12.15Zm1.7-2.7a1.3,1.3,0,0,1,.4,1.8,1.26,1.26,0,0,1-1.6.5h0l-.2-.1a1.19,1.19,0,0,1-.2-1.8,1.42,1.42,0,0,1,1.6-.4Z" transform="translate(-0.1 0.65)"/><path d="M163.5,17.15a1.85,1.85,0,1,0,2.3-2.9h0l-.3-.2a.28.28,0,0,0-.4.4h0a1.19,1.19,0,0,1,.2,1.8,1.25,1.25,0,0,1-1.6.3,1.3,1.3,0,0,1-.4-1.8c.2-.3.4-.5.7-.5s.2-.2.2-.4h0c0-.2-.2-.2-.4-.2h0a1.85,1.85,0,0,0-1.3,2.3,2.34,2.34,0,0,0,1,1.2Z" transform="translate(-0.1 0.65)"/><path d="M168,19.65a1.87,1.87,0,1,0-.5-2.6h0a1.81,1.81,0,0,0,.5,2.6Zm1.7-2.6a1.3,1.3,0,1,1-1.8.4A1.3,1.3,0,0,1,169.7,17.05Z" transform="translate(-0.1 0.65)"/></g><g style="opacity:0.3499999940395355"><path d="M409.2,21.55V20l-3.8,5.9c-.1.2-.1.5.1.6h0l1.6,1-2,3a.29.29,0,0,0,.5.3l1.9-3,1.6,1h0v-.7L405.8,26l.1-.2,1.8.6c.2.1.3,0,.4-.2s0-.3-.2-.4l-1.7-.6.4-.6,2.5.9v-.6l-2.1-.7.4-.6,1.7.6v-.6l-1.4-.5.4-.6,1,.4v-.6l-.7-.3.4-.6Z" transform="translate(-0.1 0.65)"/><path d="M404.5,31.85c-.1-.1-.3,0-.4.1l-.3.4a.29.29,0,0,0,.5.3l.3-.4a.25.25,0,0,0-.1-.4Z" transform="translate(-0.1 0.65)"/><path d="M405.2,28c-.1-.2-.2-.2-.4-.2h0c-.1,0-.2.2-.2.3l.1.5a.22.22,0,0,0,.2.2h.1c.2,0,.3-.2.2-.4Z" transform="translate(-0.1 0.65)"/><path d="M406.1,32.35c0-.2-.2-.3-.3-.2s-.3.2-.2.4l.1.5a.22.22,0,0,0,.2.2h.1c.2,0,.3-.2.2-.3h0Z" transform="translate(-0.1 0.65)"/><path d="M404.1,29.55c.1-.1,0-.3-.1-.4l-.4-.3a.29.29,0,1,0-.3.5l.4.3c.1.1.3,0,.4-.1Z" transform="translate(-0.1 0.65)"/><path d="M407.7,31.55l-.4-.3a.25.25,0,0,0-.4.1h0a.25.25,0,0,0,.1.4l.4.3a.25.25,0,0,0,.4-.1A.6.6,0,0,0,407.7,31.55Z" transform="translate(-0.1 0.65)"/><path d="M403.4,30.55l-.5.1c-.2,0-.3.2-.2.3h0c0,.1.1.1.1.2h.2l.5-.1c.2,0,.3-.2.2-.3h0C403.7,30.65,403.6,30.55,403.4,30.55Z" transform="translate(-0.1 0.65)"/><path d="M407.2,30.25h.2l.5-.1c.2,0,.3-.2.2-.3h0c0-.2-.2-.3-.4-.2l-.5.1c-.2,0-.3.2-.2.3S407.1,30.25,407.2,30.25Z" transform="translate(-0.1 0.65)"/><path d="M404.1,20a1.28,1.28,0,0,0-1.7.4,1.16,1.16,0,0,0,.4,1.6,1.13,1.13,0,0,0,1.6-.3h0a1.18,1.18,0,0,0-.3-1.7Zm-1,1.6a.65.65,0,0,1-.2-.9h0a.65.65,0,0,1,1.1.7h0a.65.65,0,0,1-.9.2Z" transform="translate(-0.1 0.65)"/><path d="M404.3,19.75a.25.25,0,0,0,.4-.1h0l.1-.1a.25.25,0,0,0-.1-.4h0a.25.25,0,0,0-.4.1h0l-.1.1a.6.6,0,0,0,.1.4Z" transform="translate(-0.1 0.65)"/><path d="M402.6,22.35a.25.25,0,0,0-.4.1l-.1.1a.29.29,0,1,0,.5.3l.1-.1a.25.25,0,0,0-.1-.4Z" transform="translate(-0.1 0.65)"/><path d="M402.8,19.25c0,.1.1.1.1.2h.2c.1,0,.2-.2.2-.3h0V19c0-.2-.2-.3-.4-.2s-.3.2-.2.3h0v.2Z" transform="translate(-0.1 0.65)"/><path d="M404.1,22.75c0-.2-.2-.3-.3-.2h0c-.2,0-.3.2-.2.4v.2c0,.1.1.1.1.2h.2c.2,0,.3-.2.2-.3h0Z" transform="translate(-0.1 0.65)"/><path d="M402.2,20.15a.25.25,0,0,0-.1-.4l-.1-.1a.25.25,0,0,0-.4.1h0a.25.25,0,0,0,.1.4h0l.1.1a.25.25,0,0,0,.4-.1Z" transform="translate(-0.1 0.65)"/><path d="M405.3,21.85l-.1-.1c-.1-.1-.3,0-.4.1s0,.3.1.4l.1.1a.29.29,0,0,0,.3-.5Z" transform="translate(-0.1 0.65)"/><path d="M401.6,21.15h-.2c-.1,0-.2.2-.2.3h0a.22.22,0,0,0,.2.2h.3a.27.27,0,0,0,.3-.3h0c0-.2-.2-.3-.4-.2Z" transform="translate(-0.1 0.65)"/><path d="M405.1,20.85h.4c.2-.1.2-.2.2-.4h0c0-.1-.2-.2-.3-.2h-.2c-.2,0-.3.2-.2.3h0C405,20.75,405,20.85,405.1,20.85Z" transform="translate(-0.1 0.65)"/></g><g style="opacity:0.3499999940395355"><path d="M192.9,61.75c.5-.2,1.1-.4,1.6-.6a10,10,0,1,0-6.3,1c.2,0,.3-.1.3-.2s-.1-.3-.2-.3h0a9.26,9.26,0,1,1,10.8-7.4,9,9,0,0,1-4.9,6.5c-.4.2-.9.4-1.4.6l-.2-1.2a8.24,8.24,0,1,0-1.8.4l.2,1.2a6.15,6.15,0,0,1-1.4.1h0a.3.3,0,1,0,0,.6h0a7.57,7.57,0,0,0,1.5-.1l.3,1.3a.92.92,0,0,0,1.1.7,2.09,2.09,0,0,0,.6-.4h0a.88.88,0,0,0,.1-.7Zm-7.2-3.1a7.67,7.67,0,0,1,8.3-12.9,7.62,7.62,0,0,1,2.3,10.6,7.45,7.45,0,0,1-3.8,3l-.6-3.2a1,1,0,0,0,.4-.5,2.22,2.22,0,0,0,.3-1.6l.1-.1a3.35,3.35,0,0,0-.9-4.6h0a3.55,3.55,0,0,0-.9-.4.4.4,0,0,0-.4.2h0c0,.2,0,.3.2.4s.5.2.7.3a2.61,2.61,0,0,1,.9,3.5,4.35,4.35,0,0,0-.6-.7,2.18,2.18,0,0,0-2.9.6h0a2,2,0,0,0-.3,1.1h0a2.64,2.64,0,0,1-.9-3.7,2.59,2.59,0,0,1,1.9-1.3c.2,0,.3-.2.2-.3h0c0-.2-.2-.3-.3-.2h0a3.2,3.2,0,0,0-2.6,3.8,3.68,3.68,0,0,0,1.4,2.2l.4.2a2.44,2.44,0,0,0,.9,1.1l.6.3.6,3.2a7.36,7.36,0,0,1-5-1Zm6.6,5a.37.37,0,0,1-.3-.1l-.2-.2-1.4-7.1c0-.1-.1-.1-.1-.2h-.1a1.42,1.42,0,0,1-.6-.2,1.44,1.44,0,0,1,1.6-2.4,1.53,1.53,0,0,1,.4,2c-.1.2-.3.3-.4.4s-.2.2-.1.3h0l1.4,7.1c.1.2,0,.4-.2.4Z" transform="translate(-0.1 0.65)"/></g><g style="opacity:0.3499999940395355"><path d="M131.1,51.25l.6-4.4v-.1l-1.6-7.3,9.6-2a1,1,0,0,0,.8-1.2l-.5-1.9a1,1,0,0,0-1.2-.8l-9.6,2-.9-4.3c0-.2-.2-.3-.3-.2s-.3.2-.2.3h0l3.3,15.2-2.7.6-4-18.6,2.7-.6.4,2.1c0,.2.2.3.3.2s.2-.2.2-.3h0l-.8-3.9a1,1,0,0,0-1.2-.8l-1.9.4a1,1,0,0,0-.8,1.2l2,9.6-7.3,1.6h0l-3.7,2.5c-.2.1-.2.3-.2.5s.1.2.2.3l.2.1,4.4.6h.1l1.9-.4c.2,0,.3-.2.2-.3h0c0-.2-.2-.3-.3-.2l-1.6.3-.6-2.7,7-1.5.6,2.7-4.1.9c-.2,0-.3.2-.2.3h0c0,.2.2.3.3.2l4.1-.9,1.5,7.3v.1l2.4,3.8c.1.2.3.2.5.2s.3-.2.3-.4Zm8-17.1a.55.55,0,0,1,.5.3h0l.4,1.9c.1.2-.1.4-.3.5h0l-1.2.3-.6-2.7Zm-9.6,2,7.8-1.7.6,2.7-7.8,1.7Zm-5.4-9.5c-.1-.2.1-.4.3-.5h0l1.9-.4a.55.55,0,0,1,.5.3l.3,1.3-2.7.6Zm-7.7,13.1.2,1-1.5-.2Zm2.3,1.4-1.5-.2-.3-1.4,1.3-.8Zm10,6.4,2.4-.5-.2,1.5-1.4.3Zm1.1,1.8,1-.2v.2l-.2,1.3Z" transform="translate(-0.1 0.65)"/></g><g style="opacity:0.3499999940395355"><path d="M78.6.45h-.5a3.29,3.29,0,0,1-.7,1.6,5.78,5.78,0,0,1-4.7,2.4h-.8l-.9-.6A9.1,9.1,0,0,0,75.1.45h-.7a7.92,7.92,0,0,1-4,3l-2-1.4a4.84,4.84,0,0,1,0-1.7h-.6a5.7,5.7,0,0,0-.1,1.3l-.9-.6a4.88,4.88,0,0,1-.3-.7h-.6l.1.2a1.88,1.88,0,0,0,.2.8l-.4.7a.8.8,0,0,0,.3,1.1l1.1.7-1.4,2c-.1.2-.1.4.1.5h0a.35.35,0,0,1,.2.1H67l.3.8a.22.22,0,0,0,.2.2c.1,0,.1.1.2.1s.3,0,.4-.2l1.3-2,1.1.7a.86.86,0,0,0,1.2-.3l.3-.6h.8a6.09,6.09,0,0,0,5.1-2.8,6.39,6.39,0,0,0,.8-1.9ZM67.7,6.65,67.5,6c0-.1-.1-.1-.1-.2h-.2l-.7.1,1.1-1.7,1.2.8Zm3.4-1.2c-.1.1-.2.2-.3.1l-4.4-2.9a.37.37,0,0,1-.1-.3h0l.4-.6,4.8,3.1Z" transform="translate(-0.1 0.65)"/><path d="M61.5,1.85a.25.25,0,0,0-.4.1h0l-.1.1a.25.25,0,0,0,.1.4h0a.25.25,0,0,0,.4-.1h0l.1-.1a.6.6,0,0,0-.1-.4Z" transform="translate(-0.1 0.65)"/><path d="M63,2.35c-.1-.2-.2-.2-.4-.2h0c-.1,0-.2.2-.2.3v.2c0,.1.1.1.1.2h.2a.27.27,0,0,0,.3-.3h0Z" transform="translate(-0.1 0.65)"/><path d="M64.2,1.45h0a.33.33,0,0,0-.5,0,.25.25,0,0,0,.1.4l.1.1c.2,0,.3-.1.3-.2h0C64.3,1.65,64.2,1.55,64.2,1.45Z" transform="translate(-0.1 0.65)"/><path d="M60.5.65h-.2c-.2,0-.3.2-.2.3h0c0,.1.1.1.1.2h.4c.1,0,.2-.2.2-.3h0C60.8.75,60.6.65,60.5.65Z" transform="translate(-0.1 0.65)"/></g><g style="opacity:0.3499999940395355"><path d="M255.3,52.45a1.15,1.15,0,1,0-1.9-1.3h0a2,2,0,0,1-1,.8,4.38,4.38,0,0,0-2.6,4,1.8,1.8,0,0,1-.3,1.2,2,2,0,0,1-1,.8,3.75,3.75,0,0,0-1.9,1.6,4,4,0,0,0-.7,2.4,2,2,0,0,1-1.3,2,3.75,3.75,0,0,0-1.9,1.6,1.15,1.15,0,0,0,1.9,1.3,2,2,0,0,1,1-.8,4.38,4.38,0,0,0,2.6-4,2,2,0,0,1,1.3-2,3.75,3.75,0,0,0,1.9-1.6,4,4,0,0,0,.7-2.4,2,2,0,0,1,1.3-2,5.81,5.81,0,0,0,1.9-1.6ZM251.5,56a3.69,3.69,0,0,1-2.3,3.5,2.5,2.5,0,0,0-1.6,2.5,3.73,3.73,0,0,1-2.2,3.5,2.34,2.34,0,0,0-1.2,1,.63.63,0,0,1-.8.2c-.3-.1-.3-.5-.2-.8h0a3.91,3.91,0,0,1,1.7-1.4,2.5,2.5,0,0,0,1.6-2.5,3.69,3.69,0,0,1,2.3-3.5,2.34,2.34,0,0,0,1.2-1,2.6,2.6,0,0,0,.4-1.5,3.69,3.69,0,0,1,2.3-3.5,2.34,2.34,0,0,0,1.2-1,.78.78,0,0,1,.8-.2.66.66,0,0,1,.2.7h0a3.91,3.91,0,0,1-1.7,1.4,2.81,2.81,0,0,0-1.7,2.6Z" transform="translate(-0.1 0.65)"/><path d="M243.8,57.65a1.76,1.76,0,0,1,.9-.8,3.75,3.75,0,0,0,1.9-1.6,4,4,0,0,0,.7-2.4,2.66,2.66,0,0,1,.3-1.2,2,2,0,0,1,1-.8,3.75,3.75,0,0,0,1.9-1.6,1.15,1.15,0,0,0-1.9-1.3h0a2,2,0,0,1-1,.8,4.21,4.21,0,0,0-1.9,1.6c-.1.1-.1.2-.2.3s0,.3.1.4h0c.1.1.3,0,.4-.1h0c0-.1.1-.2.2-.3a3.91,3.91,0,0,1,1.7-1.4,2.34,2.34,0,0,0,1.2-1,.58.58,0,1,1,1,.6,3.91,3.91,0,0,1-1.7,1.4,2.34,2.34,0,0,0-1.2,1,2.6,2.6,0,0,0-.4,1.5,3.69,3.69,0,0,1-2.3,3.5,2.34,2.34,0,0,0-1.2,1,.58.58,0,0,1-1-.6,3.91,3.91,0,0,1,1.7-1.4,2.34,2.34,0,0,0,1.2-1,2.6,2.6,0,0,0,.4-1.5v-.4h0a.27.27,0,0,0-.3-.3h0c-.2,0-.3.1-.3.2h0V53a2.66,2.66,0,0,1-.3,1.2,2,2,0,0,1-1,.8,3.75,3.75,0,0,0-1.9,1.6,1.25,1.25,0,0,0,.3,1.6,1.42,1.42,0,0,0,1.7-.5Z" transform="translate(-0.1 0.65)"/><path d="M254.5,63.45a1.15,1.15,0,1,0-1.9-1.3h0a1,1,0,0,1-.5.4,2.76,2.76,0,0,0-1.4,1.2,3.74,3.74,0,0,0-.5,1.8,1.27,1.27,0,0,1-.1.6,1,1,0,0,1-.5.4,2.76,2.76,0,0,0-1.4,1.2,1.15,1.15,0,0,0,1.9,1.3h0a1,1,0,0,1,.5-.4,2.76,2.76,0,0,0,1.4-1.2.25.25,0,0,0-.1-.4h0a.25.25,0,0,0-.4.1h0a2.94,2.94,0,0,1-1.2,1,1.06,1.06,0,0,0-.7.6.78.78,0,0,1-.8.2.62.62,0,0,1-.2-.7h0a2.34,2.34,0,0,1,1.2-1,1.06,1.06,0,0,0,.7-.6,1.61,1.61,0,0,0,.3-.9,2.64,2.64,0,0,1,1.6-2.5,1.06,1.06,0,0,0,.7-.6.78.78,0,0,1,.8-.2h0a.78.78,0,0,1,.2.8,2.34,2.34,0,0,1-1.2,1,1.64,1.64,0,0,0-1,1.5v.4a.27.27,0,0,0,.3.3h0a.27.27,0,0,0,.3-.3h0v-.4a.73.73,0,0,1,.2-.6,1,1,0,0,1,.5-.4A8,8,0,0,0,254.5,63.45Z" transform="translate(-0.1 0.65)"/><path d="M256.1,57.65a1.3,1.3,0,1,0-1.8.4h0a1.3,1.3,0,0,0,1.8-.4Zm-1.5-.1a.72.72,0,1,1,1-.2h0a.8.8,0,0,1-1,.2Z" transform="translate(-0.1 0.65)"/><path d="M259.2,56.75a1.3,1.3,0,1,0-.4-1.8h0a1.3,1.3,0,0,0,.4,1.8Zm1.1-1.7a.74.74,0,1,1-.7,1.3h0a.78.78,0,0,1-.2-1h0A.59.59,0,0,1,260.3,55.05Z" transform="translate(-0.1 0.65)"/><path d="M252.1,69.75a1.3,1.3,0,1,0,.4,1.8h0a1.22,1.22,0,0,0-.4-1.8Zm-1,1.7a.72.72,0,1,1,1-.2h0a.78.78,0,0,1-1,.2Z" transform="translate(-0.1 0.65)"/><path d="M243.3,51.55a1.3,1.3,0,1,0,.4,1.8h0a1.22,1.22,0,0,0-.4-1.8Zm-1.1,1.7a.74.74,0,1,1,.7-1.3h0a.78.78,0,0,1,.2,1h0C243,53.35,242.6,53.45,242.2,53.25Z" transform="translate(-0.1 0.65)"/><path d="M242.9,60.55a1.3,1.3,0,1,0,.4,1.8A1.3,1.3,0,0,0,242.9,60.55Zm-1.1,1.7a.78.78,0,0,1-.2-1h0a.78.78,0,0,1,1-.2h0a.78.78,0,0,1,.2,1A.75.75,0,0,1,241.8,62.25Z" transform="translate(-0.1 0.65)"/></g><g style="opacity:0.3499999940395355"><path d="M326.9,106a1.09,1.09,0,0,0-.5-.1l-1,.2c-.1,0-.1,0-.1-.1h0c0-.1,0-.1.1-.1h.2c.2,0,.3-.2.2-.4s-.2-.3-.4-.2h-.3a.66.66,0,0,0-.5.8h0c0,.2.1.4.3.4a.9.9,0,0,0,.5.1l1-.2h.1v.1c0,.1,0,.1-.1.1h-.1c-.2,0-.3.2-.2.4s.2.3.3.2h.1a.66.66,0,0,0,.5-.8h0C327.2,106.25,327,106.05,326.9,106Z" transform="translate(-0.1 0.65)"/><path d="M327.1,109.55a.67.67,0,1,0-.3-1.3h-.1c-.1,0-.2.2-.2.3h0c0,.2.2.3.3.2h.1c.1,0,.1,0,.1.1s0,.1-.1.1l-1.1.2a.66.66,0,0,0-.5.8h0c0,.2.1.3.3.4a.9.9,0,0,0,.5.1l.3-.1c.2-.1.2-.2.2-.4h0c0-.1-.2-.2-.3-.2l-.3.1c-.1,0-.1,0-.1-.1h0c0-.1,0-.1.1-.1h0Z" transform="translate(-0.1 0.65)"/><path d="M341.3,106.55h.1l3.3-.7a.75.75,0,0,0,.5-.7h0l-.5-2.4a.57.57,0,0,0-.7-.4l-3.3.7h-.1l-1,.7-4.6,1a2.94,2.94,0,0,0-1-1.2l-1.6-7.5a1.6,1.6,0,0,0-1.5-1.3,1.38,1.38,0,0,0-.3-.4.82.82,0,0,0-.7-.1,2.09,2.09,0,0,0-.6.4.88.88,0,0,0-.1.7l1.5,7.1-.5.1a.75.75,0,0,0-.6.7c-.1,1.1-.7,1.4-1,1.4h0a.75.75,0,0,1-.8-.1,2.52,2.52,0,0,1-1-1.5.76.76,0,0,0-.8-.6h0a5.3,5.3,0,0,0-2.7.8,10.63,10.63,0,0,0-1.1.9,5.28,5.28,0,0,0-1.4,2.9,5.37,5.37,0,0,0,2.4,5.3,3.55,3.55,0,0,0,.9.4,5.73,5.73,0,0,0,1.4.4,6.72,6.72,0,0,0,2.8-.3h0a1.05,1.05,0,0,0,.5-.9,2.29,2.29,0,0,1,.2-1.8c.1-.1.3-.2.4-.3a1.5,1.5,0,0,1,1.8.8.81.81,0,0,0,.9.4l.5-.1,1.5,7.2a.92.92,0,0,0,1.1.7c.2,0,.4-.2.6-.4h0a.88.88,0,0,0,.1-.7l-1-4.4c0-.2-.2-.3-.4-.2s-.3.2-.2.3h0l1,4.4c0,.2-.1.3-.3.4s-.3-.1-.4-.3h0l-1.6-7.2.6-.3.4,1.7c0,.2.2.3.4.2s.3-.2.2-.4l-.4-2a2.65,2.65,0,0,0,.5-.6l.5,2.4a1.28,1.28,0,0,0,.5.7,1.49,1.49,0,0,0,.9.2c.2,0,.3-.2.2-.3h0c0-.2-.2-.3-.3-.2h0a.57.57,0,0,1-.7-.4h0l-.6-3a8.33,8.33,0,0,0,.4-1.5l4.6-1Zm-6.7-1.1.3,1.3-1.1.2-.3-1.3Zm-4.3.9,1.1-.3.3,1.3-1.1.2Zm-.3,1.5-1,.2-.3-1.3,1.1-.2Zm2-1.8,1-.2.3,1.3-1,.2Zm-.5-10.5a.82.82,0,0,1,.4.6l1.5,6.8a5.94,5.94,0,0,0-.8-.4l-1.5-7.2a.76.76,0,0,0,.4.2Zm-1.7-.3c0-.2.1-.3.3-.4s.3.1.4.3h0l1.6,7.4h-.7Zm2.7,15.2-.6.1c-.1,0-.2,0-.2-.1a2.09,2.09,0,0,0-2.1-1.2,1.74,1.74,0,0,0-1.1.6,3.1,3.1,0,0,0-.4,2.3c0,.1,0,.2-.1.2h0a5.24,5.24,0,0,1-2.5.3l-1.2-.3a4.57,4.57,0,0,1-2.7-2.9,3.9,3.9,0,0,0,2-2,1.45,1.45,0,0,0,.2-.7c0-.2-.1-.3-.2-.3h0a.52.52,0,0,0-.4.2,1.42,1.42,0,0,1-.2.6,3.75,3.75,0,0,1-1.6,1.7v-1a2,2,0,0,1,.1-.7,6.36,6.36,0,0,1,.6-1.8,5.24,5.24,0,0,1,1-1.1.9.9,0,0,1,.1.5c0,.2.1.3.1.5a.32.32,0,0,0,.3.3h0c.2,0,.3-.2.2-.3h0a6.47,6.47,0,0,0-.4-1.3l.1-.1a4,4,0,0,1,2.4-.7h0a.22.22,0,0,1,.2.2,2.59,2.59,0,0,0,1.3,1.9,1.9,1.9,0,0,0,1.3.1,2,2,0,0,0,1.4-1.9.22.22,0,0,1,.2-.2l.6-.1a3.15,3.15,0,0,1,2.3.5h0a5.35,5.35,0,0,1,1.3,1.3l-6,1.3c-.1,0-.2.1-.3.2s-.1.2-.1.4l.3,1.5c0,.1.1.2.2.3s.2.1.4.1l4.7-1,1.4-.3a4.92,4.92,0,0,1-.6,1.7,4.48,4.48,0,0,1-2,1.2Zm3-3.8-.3-1.3,1-.2.3,1.3Zm1.5-.3-.3-1.3,1.1-.3.3,1.3Zm1.7-.4-.3-1.3,1-.2.3,1.3Zm1.3-1.7.8-.6,3.3-.7h0l.5,2.4h0l-3.3.7-1-.2Z" transform="translate(-0.1 0.65)"/></g></svg>