<svg xmlns="http://www.w3.org/2000/svg" viewBox="0 0 409.1 123.84"><title>Header</title><path d="M.1,110l9.7,3.1c9.7,3.1,29.2,9.31,48.8,10.5,19.4,1.19,38.9-2.74,58.2-5.84,19.6-3.11,39.2-5.44,58.5-4.3,19.5,1.19,38.9,5.85,58.5,6.21,19.4.41,38.9-3.52,58.5-3.1,19.4.36,38.9,5,58.2,5,19.6,0,38.9-4.65,48.9-7l9.7-2.33v-4.65H.1Z" transform="translate(-0.1 -0.02)" style="fill:#3a97d3"/><path d="M176.9.71H.1V108h409V.71Z" transform="translate(-0.1 -0.02)" style="fill:#3a97d3"/><g style="opacity:0.3499999940395355"><path d="M241.7,107.86a1.86,1.86,0,0,0,1.7,3.3l.2-.1a1.82,1.82,0,0,0,.7-2.5h0a2,2,0,0,0-2.6-.7Zm1.5,2.7a1.25,1.25,0,1,1-1.2-2.2,1.39,1.39,0,0,1,1.7.4h0a1.41,1.41,0,0,1-.5,1.8Z" transform="translate(-0.1 -0.02)"/><path d="M236.7,112.16a1.25,1.25,0,1,0,1.7.5h0A1.31,1.31,0,0,0,236.7,112.16Zm.9,1.6a.52.52,0,0,1-.8-.2h0a.65.65,0,0,1,.2-.9.52.52,0,0,1,.8.2c.2.4.1.8-.2.9Z" transform="translate(-0.1 -0.02)"/><path d="M247.9,105.76a1.17,1.17,0,0,0-.4,1.7h0a1.17,1.17,0,0,0,1.7.4h0a1.28,1.28,0,0,0,.4-1.7,1.39,1.39,0,0,0-1.7-.4Zm.9,1.6a.58.58,0,1,1,.2-.8.55.55,0,0,1-.2.8Z" transform="translate(-0.1 -0.02)"/><path d="M249.7,102.26c-.2-.1-.3,0-.4.2h0l-.3,1.1-3.7,2.1a4.19,4.19,0,0,0-3.5-1.9l.8-.4c.1-.1.2-.3.1-.4h0c-.1-.1-.3-.2-.4-.1h0l-2.4,1.4-.5-.8a.3.3,0,0,0-.4,0h0c-.1.1-.1.2-.1.4l.5.8-2.4,1.4c-.1.1-.2.3-.1.4h0c.1.1.3.2.4.1l.8-.4a4.34,4.34,0,0,0-.1,4l-3.7,2.1-1.1-.3c-.2,0-.3.1-.4.3s.1.3.2.3h0l1.4.4,1-.6a2.13,2.13,0,1,0,3.7,2.1,2.14,2.14,0,0,0-.8-2.9h0a1.69,1.69,0,0,0-1-.3l.9-.5a4.36,4.36,0,0,0,6,1.3,4.29,4.29,0,0,0,1.5-5.6l.9-.5a2.23,2.23,0,0,0,.7,3h0a2.14,2.14,0,0,0,2.9-.8h0a2.17,2.17,0,0,0-.8-3h0a1.93,1.93,0,0,0-1-.3l1-.6.4-1.4c.1-.1,0-.3-.1-.4v-.2Zm-11.1,10.2a1.52,1.52,0,0,1-.6,2.1,1.49,1.49,0,0,1-2.1-.6,1.52,1.52,0,0,1,.6-2.1,1.61,1.61,0,0,1,2.1.6Zm5.1-1.1a3.72,3.72,0,1,1,1.3-5.1h0a3.81,3.81,0,0,1-1.3,5.1Zm6.2-5.4a1.54,1.54,0,1,1-2.1-.6,1.64,1.64,0,0,1,2.1.6Z" transform="translate(-0.1 -0.02)"/><path d="M242.9,105.76l-3.8,2.2c-.1.1-.2.3-.1.4s.3.2.4.1l3.7-2.2c.1-.1.2-.3.1-.4C243.3,105.76,243.1,105.66,242.9,105.76Z" transform="translate(-0.1 -0.02)"/><path d="M245.2,111.56l-.2.1c-.1.1-.2.3-.1.4h0c.1.1.3.2.4.1l.3-.2c.1-.1.2-.3.1-.4h0a.45.45,0,0,0-.5,0Z" transform="translate(-0.1 -0.02)"/><path d="M244.1,112.16l-.3.2c-.1.1-.2.3-.1.4h0c.1.1.3.2.4.1l.3-.2c.1-.1.2-.3.1-.4h0C244.5,112.16,244.3,112.06,244.1,112.16Z" transform="translate(-0.1 -0.02)"/><path d="M243.1,112.76l-.3.2c-.1.1-.2.3-.1.4h0c.1.1.3.2.4.1l.3-.2c.1-.1.2-.3.1-.4a.25.25,0,0,0-.4-.1Z" transform="translate(-0.1 -0.02)"/></g><g style="opacity:0.3499999940395355"><path d="M68.2,43.66l-.5.3-2.2-3.8c-.1-.1-.3-.2-.4-.1l-15,8.7c-.1.1-.2.3-.1.4h0L52.1,53l-.5.3c-.1.1-.2.3-.1.4l1.9,3.2c.1.1.3.2.4.1h0l.3-.1.5.8c.1.1.3.2.4.1l.8-.5.6,1.1c.1.1.3.2.4.1l.8-.5c.1-.1.2-.3.1-.4h0l-.6-1.1L68.4,50l.6,1.1c.1.1.3.2.4.1h0l.8-.5c.1-.1.2-.3.1-.4l-.6-1.1.8-.5c.1-.1.2-.3.1-.4h0l-.6-.6.3-.2c.1-.1.2-.3.1-.4h0l-1.9-3.2c0-.2-.2-.2-.3-.2Zm-17.6,5.5L65,40.76l2,3.5-1.7,1v-.1c.1-.2,0-.3-.2-.4h0l-3-.8a.52.52,0,0,0-.4.2l-.8,3a.52.52,0,0,0,.2.4h.1l-3,1.7v-.1c.1-.2,0-.3-.2-.4h0L55,48a.52.52,0,0,0-.4.2l-.8,3a.52.52,0,0,0,.2.4h.1l-1.7,1Zm14.1-3.9-.1.4-2.5,1.4-.4-.1.6-2.4Zm-7,4-.1.4-2.5,1.4-.4-.1.6-2.4Zm-.7,8.4-.3.1-.5-.8.3-.2Zm12.6-7.3-.3.1-.5-.8.3-.1Zm.3-2-15,8.7-.3-.5,15-8.7ZM69.8,47l-16.1,9.3-1.5-2.7,16.1-9.3Z" transform="translate(-0.1 -0.02)"/><path d="M68.2,46.16l-.3.1c-.1.1-.2.3-.1.4s.3.2.4.1l.3-.1c.1-.1.2-.3.1-.4s-.2-.2-.4-.1Z" transform="translate(-0.1 -0.02)"/><path d="M67.1,46.76l-.3.1c-.1.1-.2.3-.1.4s.3.2.4.1l.3-.2c.1-.1.2-.3.1-.4s-.2-.1-.4,0Z" transform="translate(-0.1 -0.02)"/><path d="M66.1,47.36l-.3.2c-.1.1-.2.3-.1.4h0c.1.1.3.2.4.1l.3-.2c.1-.1.2-.3.1-.4h0c-.1-.1-.3-.2-.4-.1Z" transform="translate(-0.1 -0.02)"/></g><g style="opacity:0.3499999940395355"><path d="M209.5,77.86l-1.6.9-.8-1.4a.1.1,0,0,0-.1-.1h-.3l-4.6,2.6h0a.1.1,0,0,0-.1.1h0v.1h0v.1h0v.1l.8,1.4-1.6.9c-.1.1-.2.3-.1.4h0l5.6,9.7c.1.1.3.2.4.1l8.3-4.8c.1-.1.2-.3.1-.4l-5.6-9.7c0-.1-.2-.2-.4,0Zm1,12.3-3.5,2-5.3-9.1,1.6-.9.1-.1,2.3.1h.1Zm-5.4-9.4.3.5.1.3-2.1-.1-.5-.8,2.2.1C205,80.66,205.1,80.66,205.1,80.76Zm-1.7-.8,2.7-1.5-.9,1.6Zm3.4-1.7.5.8-.9,1.9-.5-.5v-.2Zm8,9.4-3.8,2.1-4.7-8.1h.3a.1.1,0,0,0,.1-.1l1-2.1h.1l1.6-.9Z" transform="translate(-0.1 -0.02)"/><path d="M210.1,80.76l-2.4,1.4c-.1.1-.2.3-.1.4l1.9,3.2c.1.1.3.2.4.1h0l2.4-1.4c.1-.1.2-.3.1-.4h0l-1.9-3.2c-.1-.1-.3-.2-.4-.1Zm1.6,3.4-1.9,1.1-1.1-1.9,1.9-1.1Zm-1.4-2.5-1.8,1-.2-.3,1.9-1.1Z" transform="translate(-0.1 -0.02)"/><path d="M216.9,71.46l-7.5,4.3c-.1.1-.2.3-.1.4h0l9.6,16.7c.1.1.3.2.4.1l2.9-1.7c.1-.1.2-.3.1-.4l-5.7-11.1h0l6.7,10.5c.1.1.3.2.4.1l2.9-1.7c.1-.1.2-.3.1-.4l-9.6-16.7C217.2,71.36,217,71.36,216.9,71.46Zm-6.9,4.7,2.1-1.2.3.5-2.2,1.2Zm6.2,3.2c-.1.1-.2.3-.1.4l5.7,11.1-2.4,1.4-8.7-15.1,3.2-1.9Zm-3.2-4.2-.3-.5,1.6-.9.3.5Zm13.3,13.1-2.4,1.4-6.8-10.5c-.1-.1-.3-.2-.4-.1l-2.3-4,3.2-1.9Zm-9-15.6-2.2,1.2-.3-.5,2.1-1.2Z" transform="translate(-0.1 -0.02)"/><path d="M223.6,85.46c-.1.1-.2.3-.1.4l.2.3c.1.2.2.3.4.2s.3-.2.2-.4h0v-.1l-.1-.3a1.27,1.27,0,0,0-.6-.1Z" transform="translate(-0.1 -0.02)"/><path d="M224.2,86.56c-.1.1-.2.3-.1.4h0l.1.3c.1.1.3.2.4.1h0c.1-.1.2-.3.1-.4l-.2-.3C224.5,86.56,224.4,86.46,224.2,86.56Z" transform="translate(-0.1 -0.02)"/><path d="M224.8,87.66c-.1.1-.2.3-.1.4h0l.1.3c.1.1.3.2.4.1s.2-.3.1-.4l-.2-.3C225.2,87.66,225,87.56,224.8,87.66Z" transform="translate(-0.1 -0.02)"/><path d="M210.8,92.86l-.2.1-1.4.8-.2.1a1.57,1.57,0,0,0-.4,2.1l.9,1.5c.1.1.3.2.4.1l3.8-2.2c.1-.1.2-.3.1-.4h0l-.9-1.5A1.81,1.81,0,0,0,210.8,92.86Zm-1.1,1.4,1.1-.6.2.4-1.1.6Zm3.4.9-3.2,1.9-.2-.3,3.2-1.9Zm-.5-.8-3.2,1.9-.3-.5a.9.9,0,0,1,.1-1.1l.3.6c.1.1.3.2.4.1h0l1.6-.9c.1-.1.2-.3.1-.4h0l-.3-.6a1.23,1.23,0,0,1,1,.5Z" transform="translate(-0.1 -0.02)"/><path d="M215.4,90.26l-.2.1-1.4.8-.2.1a1.57,1.57,0,0,0-.4,2.1l.9,1.5c.1.1.3.2.4.1l3.8-2.2c.1-.1.2-.3.1-.4h0l-.9-1.5A1.86,1.86,0,0,0,215.4,90.26Zm-1.1,1.3,1.1-.6.2.4-1.1.6Zm3.3,1-3.2,1.9-.1-.3,3.2-1.9Zm-.4-.9-3.2,1.9-.3-.4a.9.9,0,0,1,.1-1.1l.3.6c.1.1.3.2.4.1h0l1.6-.9c.1-.1.2-.3.1-.4h0l-.3-.6a1.23,1.23,0,0,1,1,.5Z" transform="translate(-0.1 -0.02)"/></g><g style="opacity:0.3499999940395355"><path d="M13,5.76l-2.3-4a1.05,1.05,0,0,0-1.3-.4h0l-.8.5c-.1.1-.2.1-.2.2h0a1,1,0,0,0-1.3-.3l-.8.5A1,1,0,0,0,6,3.56H6l.9,1.6L.1,9v.7l7-4.1,1,1.6-8,4.6v.7l8.3-4.8.9,1.6a1.09,1.09,0,0,0,1.3.4h0l.8-.5a1,1,0,0,0,.3-1.3l-.2-.3a.37.37,0,0,0,.3-.1l.8-.5c.5-.1.6-.7.4-1.2Zm-1.9,3-.8.5c-.1.1-.3,0-.4-.1L6.5,3.26c-.1-.2,0-.3.1-.4l.8-.5c.1-.1.3,0,.4.1l3.4,5.9a.25.25,0,0,1-.1.4Zm1.3-2.1-.8.5a.25.25,0,0,1-.4-.1h0l-2.3-4c-.1-.1,0-.3.1-.4l.8-.5c.1-.1.3,0,.4.1l2.3,4a.6.6,0,0,1-.1.4Z" transform="translate(-0.1 -0.02)"/><path d="M7.9,4.46c-.1.1-.2.3-.1.4h0l.2.3c.1.1.3.2.4.1s.2-.2.1-.4h0l-.1-.3c-.2-.2-.4-.2-.5-.1Z" transform="translate(-0.1 -0.02)"/><path d="M8.5,5.46c-.1.1-.2.3-.1.4l.2.3c.1.2.2.3.4.2s.3-.2.2-.4h0v-.1L9,5.66a.76.76,0,0,0-.5-.2Z" transform="translate(-0.1 -0.02)"/><path d="M9.1,6.56c-.1.1-.2.3-.1.4l.2.3a.3.3,0,0,0,.4,0h0c.1-.1.1-.2.1-.4l-.1-.2c-.1-.2-.3-.2-.5-.1Z" transform="translate(-0.1 -0.02)"/></g><g style="opacity:0.3499999940395355"><path d="M23.9,82.56l-.2-.3a8.27,8.27,0,1,0-14.3,8.3h0l.2.3a2.73,2.73,0,0,0-.1,3L10.7,96a2.79,2.79,0,0,0,3.8,1l.3.5c.1.1.3.2.4.1l1.1-.6c.1-.1.2-.3.1-.4l-4.7-8.1c-.1-.1-.3-.2-.4-.1l-.7.4a6.47,6.47,0,0,1,3.8-8.4,6.56,6.56,0,0,1,7.4,2l-.8.4c-.1.1-.2.3-.1.4h0l4.7,8.1c.1.1.3.2.4.1l1.1-.6c.1-.1.2-.3.1-.4l-.3-.5a2.79,2.79,0,0,0,1-3.8l-1.3-2.2A3,3,0,0,0,23.9,82.56Zm-9.7,14a2.23,2.23,0,0,1-3-.7h0l-1.3-2.2a2.17,2.17,0,0,1,.8-3h0Zm-2.8-7.4,4.4,7.6-.5.3L11,89.56Zm15,1.4-.5.3-4.4-7.5.5-.3Zm-4-8.3a7.17,7.17,0,0,0-10-1.4,7.31,7.31,0,0,0-2.3,8.5v.1l.1.1c.1.1.1.3.2.4-.1.1-.3.2-.4.3l-.1-.1a7.62,7.62,0,0,1,13.2-7.6h0a.1.1,0,0,0,.1.1c-.2.1-.3.1-.5.2l-.3-.4-.1-.1c.1,0,.1,0,.1-.1Zm4.9,4.2a2.25,2.25,0,0,1-.7,3h0l-3.4-6a2.23,2.23,0,0,1,3,.7h0Z" transform="translate(-0.1 -0.02)"/><path d="M11.9,94.46c-.1.1-.2.3-.1.4h0l.1.3c.1.1.3.2.4.1h0c.1-.1.2-.3.1-.4l-.2-.3c0-.2-.2-.2-.3-.1Z" transform="translate(-0.1 -0.02)"/><path d="M11.3,93.36c-.1.1-.2.3-.1.4h0l.1.3c.1.1.3.2.4.1s.2-.3.1-.4l-.2-.3A.19.19,0,0,0,11.3,93.36Z" transform="translate(-0.1 -0.02)"/><path d="M10.6,92.26c-.1.1-.2.3-.1.4l.2.3c.1.1.3.2.4.1h0c.1-.1.2-.3.1-.4l-.2-.3C11,92.26,10.8,92.16,10.6,92.26Z" transform="translate(-0.1 -0.02)"/></g><g style="opacity:0.3499999940395355"><path d="M248.2,3.46c-.1.1-.2.3-.1.4s.3.2.4.1a2.35,2.35,0,0,1,3.1.8c.1.2.2.3.4.2s.3-.2.2-.4h0a2.89,2.89,0,0,0-4-1.1Z" transform="translate(-0.1 -0.02)"/><path d="M263.3,1.76h-.1a3.49,3.49,0,0,1-1.2,1.5l-1,.5a2.83,2.83,0,0,1-3.9-1.1l-.6-.9h-.9c.1.1.2.1.3.2a2.26,2.26,0,0,0-1.6.2l-.5.3a2.21,2.21,0,0,0-1,1.3,1.49,1.49,0,0,1,.7-1.8l.4-.2h-1a2.09,2.09,0,0,0-.7,1.3,3.49,3.49,0,0,0-4-.5l-.9.5a3.57,3.57,0,0,0-1.3,4.8l.5.9a3.48,3.48,0,0,0,4.8,1.3l.9-.5a3.54,3.54,0,0,0,1.5-4.3v-.2a1.69,1.69,0,0,1,.4-2.1l.5-.3a1.46,1.46,0,0,1,2,.5h0l.1.1a3.53,3.53,0,0,0,4.5.8l.9-.6a3.54,3.54,0,0,0,1.6-2Zm-11.5,7.3-.9.5a2.94,2.94,0,0,1-4-1h0l-.6-.9a2.94,2.94,0,0,1,1-4h0l.9-.5a3,3,0,0,1,4,.9h0v.2l.5.9a2.71,2.71,0,0,1-.9,3.9Z" transform="translate(-0.1 -0.02)"/><path d="M251.6,7.36l-.3.2c-.1.1-.2.3-.1.4s.3.2.4.1l.3-.2c.1-.1.2-.3.1-.4A.25.25,0,0,0,251.6,7.36Z" transform="translate(-0.1 -0.02)"/><path d="M250.5,8l-.3.2c-.1.1-.2.3-.1.4s.3.2.4.1h0l.3-.2c.1-.1.2-.3.1-.4S250.7,7.86,250.5,8Z" transform="translate(-0.1 -0.02)"/><path d="M249.4,8.56l-.2.1c-.1.1-.2.3-.1.4s.3.2.4.1h0l.3-.2c.1-.1.2-.3.1-.4h0C249.8,8.56,249.6,8.46,249.4,8.56Z" transform="translate(-0.1 -0.02)"/></g><g style="opacity:0.3499999940395355"><path d="M303.6,32.26h0a9.65,9.65,0,0,0-11.9,6.8h0v.1h0c-.7,2.6.4,4.9,1.6,7,.1.1.1.1.2.1l14,3.3h.2c1.7-1.3,2.2-3.3,2.7-5.2v-.1A9.88,9.88,0,0,0,303.6,32.26ZM307.5,49l-13.7-3.2c-1.1-2-2.1-4.1-1.5-6.4a9,9,0,0,1,10.9-6.5h.3a8.75,8.75,0,0,1,4.8,3.2l-7.7,2.6h-.1a2.51,2.51,0,0,0-3.5-.2h0a2.51,2.51,0,0,0-.2,3.5,2.44,2.44,0,0,0,2.8.6h.1l9.8,2.6a7.37,7.37,0,0,1-2,3.8Zm-7.1-9.5a1.84,1.84,0,1,1-2.5-.7h0A1.86,1.86,0,0,1,300.4,39.46Zm9.5,4.6v.1l-.1.6-9.3-2.5a2.45,2.45,0,0,0,.5-3l7.7-2.6a2.19,2.19,0,0,0,.3.5,9.25,9.25,0,0,1,.9,6.9Z" transform="translate(-0.1 -0.02)"/><path d="M298.1,39a1.41,1.41,0,0,0,1.3,2.5l.1-.1a1.34,1.34,0,0,0,.5-1.9h0a1.43,1.43,0,0,0-1.9-.5Zm1.1,1.9a.69.69,0,0,1-1-.3h0a.71.71,0,0,1,.3-1h0a.69.69,0,0,1,1,.3h0a1,1,0,0,1-.3,1Z" transform="translate(-0.1 -0.02)"/><path d="M293.1,41.86c-.1.1-.2.3-.1.4l.2.3c.1.2.2.3.4.2s.3-.2.2-.4h0v-.1l-.1-.3a.56.56,0,0,0-.6-.1Z" transform="translate(-0.1 -0.02)"/><path d="M293.8,42.86c-.1.1-.2.3-.1.4l.3.5c.1.1.3.2.4.1h0c.1-.1.2-.3.1-.4l-.3-.5A.6.6,0,0,0,293.8,42.86Z" transform="translate(-0.1 -0.02)"/><path d="M294.5,44.26c-.1.1-.2.3-.1.4h0l.1.3c.1.1.3.2.4.1s.2-.3.1-.4h0l-.1-.3c0-.2-.2-.2-.4-.1Z" transform="translate(-0.1 -0.02)"/></g><g style="opacity:0.3499999940395355"><path d="M360.8,53l-5.3-5.5a.3.3,0,0,0-.4,0l-3.8,2.2c-.1.1-.2.2-.1.4l2.1,7.4c0,.2.2.3.4.2h.1l3.2-1.9,5.6,9.7-2.4,1.4c-.2.1-.3.2-.2.4s.2.3.4.2h.1l5.6-3.2c.1-.1.2-.3.1-.4h0c-.1-.1-.3-.2-.4-.1h0l-2.7,1.5-5.6-9.7,1.3-.8,1.1,1.9a.92.92,0,1,0,1.3-.1.78.78,0,0,0-.8-.2l-1.1-1.9,1.3-.8c.1-.1.2-.3.1-.4h0V53Zm-7,3.8-2-6.8,3.3-1.9,4.9,5.1Z" transform="translate(-0.1 -0.02)"/><path d="M356.3,53.86l-.3.2c-.2.1-.3.2-.2.4s.2.3.4.2h.1l.3-.1a.25.25,0,0,0,.1-.4c0-.3-.2-.4-.4-.3Z" transform="translate(-0.1 -0.02)"/><path d="M355.3,54.46l-.3.2c-.2.1-.3.2-.2.4s.2.3.4.2h.1l.3-.1c.1-.1.2-.3.1-.4s-.3-.2-.4-.1h0Z" transform="translate(-0.1 -0.02)"/><path d="M354.2,55.06l-.3.1c-.1.1-.2.3-.1.4s.3.2.4.1h0l.3-.1c.1-.1.2-.3.1-.4S354.3,55,354.2,55.06Z" transform="translate(-0.1 -0.02)"/></g><g style="opacity:0.3499999940395355"><path d="M105.9,81.86l-11.2,6.5a.93.93,0,0,0-.3,1.3h0l9,15.6a1,1,0,0,0,1.3.3l11.3-6.5a1,1,0,0,0,.3-1.3h0l-9-15.6A1.24,1.24,0,0,0,105.9,81.86Zm9.8,16.3c.1.2,0,.3-.1.4l-11.3,6.5a.25.25,0,0,1-.4-.1h0l-1.2-2.1,11.8-6.8Zm-1.6-2.7-11.8,6.8-6.2-10.8,11.8-6.8Zm-6.5-11.3L95.8,91l-.9-1.6c-.1-.2,0-.3.1-.4l11.2-6.5a.25.25,0,0,1,.4.1h0Z" transform="translate(-0.1 -0.02)"/><path d="M109.6,101.26a.93.93,0,0,0,.3-1.3h0a1,1,0,0,0-1.3-.3.87.87,0,0,0-.3,1.3c.4.4.9.6,1.3.3Zm-.6-1.1a.35.35,0,0,1,.5.1c.1.2.1.4-.1.5h0a.25.25,0,0,1-.4-.1h0c-.2-.1-.1-.3,0-.5Z" transform="translate(-0.1 -0.02)"/><path d="M103,85.36l-3.8,2.2c-.2.1-.3.2-.2.4s.2.3.4.2h.1l3.8-2.2c.1-.1.2-.3.1-.4h0a.76.76,0,0,0-.4-.2Z" transform="translate(-0.1 -0.02)"/><path d="M112.5,95.76l.3-.2c.1-.1.2-.3.1-.4h0c-.1-.1-.3-.2-.4-.1l-.3.2c-.1.1-.2.3-.1.4s.2.2.4.1Z" transform="translate(-0.1 -0.02)"/><path d="M111.4,96.26l.3-.2c.1-.1.2-.3.1-.4h0c-.1-.1-.3-.2-.4-.1l-.3.1c-.1.1-.2.3-.1.4,0,.3.2.3.4.2Z" transform="translate(-0.1 -0.02)"/><path d="M110.3,97l.3-.2c.1-.1.2-.3.1-.4h0c-.1-.1-.3-.2-.4-.1l-.3.2c-.1.1-.2.3-.1.4h0C110,97,110.2,97.06,110.3,97Z" transform="translate(-0.1 -0.02)"/></g><g style="opacity:0.3499999940395355"><path d="M335.6,8.16l-5.1,2.9a3.4,3.4,0,0,0-1.2,4.7l.9,1.6c.1.1.3.2.4.1h0l7.8-4.5c.1-.1.2-.3.1-.4h0L336,8.26C336,8.16,335.8,8.06,335.6,8.16Zm2.3,4.5-7.2,4.2-.8-1.4a2.79,2.79,0,0,1,1-3.8l4.8-2.8Z" transform="translate(-0.1 -0.02)"/><path d="M340.2,5.56l-3.5,2c-.1.1-.2.3-.1.4l4.4,7.5c.1.1.3.2.4.1h0l3.5-2c.1-.1.2-.3.1-.4h0l-4.3-7.5C340.5,5.56,340.4,5.46,340.2,5.56Zm4.1,7.7-3,1.7-4-7,3-1.7Z" transform="translate(-0.1 -0.02)"/><path d="M348.4,13l-1.4.8-5.8-10a1.61,1.61,0,0,0-2.1-.6h0l-9.6,5.6a5.26,5.26,0,0,0-1.9,7.2l4,7c.1.1.3.2.4.1l2.9-1.7a2.46,2.46,0,1,0,4.4-2.2h0c0-.1-.1-.1-.1-.2l8.3-4.8,1.1,1.9c.1.1.3.2.4.1h0c.1-.1.2-.3.1-.4l-1.1-1.9.5-.3c.1-.1.2-.3.1-.4C348.7,13,348.6,13,348.4,13Zm-10.2,8.8a1.9,1.9,0,1,1,.7-2.6h0a2,2,0,0,1-.7,2.6Zm8.4-7.7-7.6,4.4a2.42,2.42,0,0,0-3.5,0,2.39,2.39,0,0,0-.6,2.4l-2.8,1.6-3.9-6.7a4.72,4.72,0,0,1,1.7-6.4l9.6-5.6a1,1,0,0,1,1.3.3h0Z" transform="translate(-0.1 -0.02)"/><path d="M333.8,16.76l-.3.2c-.1.1-.2.3-.1.4s.3.2.4.1h0l.3-.1c.1-.1.2-.3.1-.4h0c0-.2-.2-.3-.4-.2Z" transform="translate(-0.1 -0.02)"/><path d="M332.8,17.36l-.3.2c-.1.1-.2.3-.1.4h0c.1.1.3.2.4.1h0l.3-.1c.1-.1.2-.3.1-.4h0C333.1,17.36,332.9,17.26,332.8,17.36Z" transform="translate(-0.1 -0.02)"/><path d="M331.7,18l-.3.1c-.1.1-.2.3-.1.4h0c.1.1.3.2.4.1h0l.3-.1c.1-.1.2-.3.1-.4h0C332,18,331.8,17.86,331.7,18Z" transform="translate(-0.1 -0.02)"/></g><g style="opacity:0.3499999940395355"><path d="M409.1,47.06l-1.7,1,.1-.6a.52.52,0,0,0-.2-.4l-.8-.2.4-1.3,2.2.6v-.7l-2.4-.6a.52.52,0,0,0-.4.2h0l-.4,1.6-1.6-.4a.52.52,0,0,0-.4.2h0l-.8,3a.52.52,0,0,0,.2.4l.5.1-.7.4-1.9-3.2a1,1,0,0,1,.3-1.3l7.4-4.3v-.7l-7.7,4.5a1.61,1.61,0,0,0-.6,2.1h0l.3.5-1.9,1.1c-.1.1-.2.3-.1.4l2.6,4.6c.1.1.3.2.4.1l.8-.5.8,1.4c.1.1.3.2.4.1h0l1.1-.6c.1-.1.2-.3.1-.4h0l-.8-1.4,4.4-2.6v-.5l-6.9,4-2.3-4,1.6-.9,1.4,2.4c.1.1.3.2.4.1l5.8-3.4v-.5C409.1,47.26,409.1,47.16,409.1,47.06Zm-5,6.1.6,1.1-.5.3-.6-1.1Zm2.7-4.7-2.2,1.3c0-.1-.1-.1-.2-.1l-.5-.1.6-2.4,2.4.6-.1.6c-.1,0-.1,0,0,.1Z" transform="translate(-0.1 -0.02)"/></g><g style="opacity:0.3499999940395355"><path d="M377.8,13.56a5.13,5.13,0,1,0-1.1,9.2c.1-.1.2-.3.1-.4s-.2-.2-.3-.2a4.59,4.59,0,1,1,2.9-5.8,4.73,4.73,0,0,1-.5,4,4.89,4.89,0,0,1-1.2,1.3c-.1.1-.2.3-.1.4s.3.2.4.1h0a9.27,9.27,0,0,0,1.4-1.4,5.35,5.35,0,0,0-1.6-7.2Z" transform="translate(-0.1 -0.02)"/><path d="M381,21.76a2.08,2.08,0,0,0,.3-1.3,1.21,1.21,0,0,1,.3-1,1.74,1.74,0,0,0,.6-1.2,2,2,0,0,0-.4-1.3,1.09,1.09,0,0,1-.2-1.1,2,2,0,0,0-.1-1.3,2.19,2.19,0,0,0-1-.9,1,1,0,0,1-.7-.8,2.1,2.1,0,0,0-.8-1.1,1.53,1.53,0,0,0-1.3-.2,1.21,1.21,0,0,1-1-.3,1.75,1.75,0,0,0-2.5-.1,1,1,0,0,1-1,.2,2,2,0,0,0-1.3.1,2.19,2.19,0,0,0-.9,1,1,1,0,0,1-.8.7,1.75,1.75,0,0,0-1.3,2.1.91.91,0,0,1-.3,1,2.28,2.28,0,0,0-.6,1.2,2,2,0,0,0,.4,1.3,1.23,1.23,0,0,1,.2,1,2,2,0,0,0,.1,1.3,1.21,1.21,0,0,0,.7.7l-.9,1.4a.25.25,0,0,0,.1.4h0a.25.25,0,0,0,.4-.1h0l1-1.5a1.16,1.16,0,0,1,.5.7h0L367.7,27h-1l1.5-2.3a.25.25,0,0,0-.1-.4h0a.25.25,0,0,0-.4.1l-1.6,2.4a.64.64,0,0,0,0,.6.22.22,0,0,0,.2.2.37.37,0,0,0,.3.1h2l.2.5.6,1.3a.57.57,0,0,0,1,0l3.2-4.9a1.8,1.8,0,0,0,2.2-.1,1.16,1.16,0,0,1,1-.2,2,2,0,0,0,1.3-.1,2.19,2.19,0,0,0,.9-1,1,1,0,0,1,.8-.7,1.85,1.85,0,0,0,1.2-.7Zm-11.7,6-.2-.5c0-.1-.1-.2-.3-.2h-.5l2.4-3.7a1,1,0,0,0,.5.4,1.42,1.42,0,0,0,.6.2Zm.7,1.5-.4-.9,2.8-4.3h0a.78.78,0,0,1,.8.2Zm9.8-7.3a1.5,1.5,0,0,0-1.2,1.1,1.34,1.34,0,0,1-.6.7,1.41,1.41,0,0,1-.9.1,1.56,1.56,0,0,0-1.6.4,1.12,1.12,0,0,1-1.6-.1,1.84,1.84,0,0,0-1.6-.5,1.13,1.13,0,0,1-1.3-.9h0a1.83,1.83,0,0,0-.7-1c-.1-.1-.3-.1-.4-.2a1.34,1.34,0,0,1-.7-.6,1.41,1.41,0,0,1-.1-.9,1.56,1.56,0,0,0-.4-1.6,1.14,1.14,0,0,1-.3-.8,1.23,1.23,0,0,1,.4-.8,1.84,1.84,0,0,0,.5-1.6,1,1,0,0,1,.2-.9,1.16,1.16,0,0,1,.7-.5,1.5,1.5,0,0,0,1.2-1.1,1.34,1.34,0,0,1,.6-.7,1.41,1.41,0,0,1,.9-.1,1.53,1.53,0,0,0,1.6-.3,1.14,1.14,0,0,1,.8-.3,1.23,1.23,0,0,1,.8.4,1.84,1.84,0,0,0,1.6.5,1,1,0,0,1,.9.2,1.16,1.16,0,0,1,.5.7,1.5,1.5,0,0,0,1.1,1.2,1.34,1.34,0,0,1,.7.6,1.41,1.41,0,0,1,.1.9,1.53,1.53,0,0,0,.3,1.6,1.14,1.14,0,0,1,.3.8,1.23,1.23,0,0,1-.4.8,1.84,1.84,0,0,0-.5,1.6,1,1,0,0,1-.2.9.84.84,0,0,1-.7.4Z" transform="translate(-0.1 -0.02)"/></g><g style="opacity:0.3499999940395355"><path d="M238.1,45.86,249,53a.65.65,0,0,0,.9-.2h0l1.4-2.2a.65.65,0,0,0-.2-.9h0l-8.2-5.3a.25.25,0,0,0-.4.1c-.1.2-.1.3.1.4h0l8.2,5.3v.1l-1.4,2.2m-.1,0h0l-10.9-7v-.1l1.4-2.2h.1l1.5,1a.25.25,0,0,0,.4-.1h0a.25.25,0,0,0-.1-.4h0l-1.5-1a.65.65,0,0,0-.9.2h0l-1.4,2.2a.61.61,0,0,0,.1.8Z" transform="translate(-0.1 -0.02)"/><path d="M236.9,47.06l11.5,7.4a.29.29,0,1,0,.3-.5l-11.5-7.4c-.1-.1-.3,0-.4.1a.6.6,0,0,0,.1.4Z" transform="translate(-0.1 -0.02)"/><path d="M236.3,48.06l11.5,7.4c.1.1.3,0,.4-.1s0-.3-.1-.4h0l-11.5-7.4a.25.25,0,0,0-.4.1c-.1.2-.1.3.1.4Z" transform="translate(-0.1 -0.02)"/><path d="M255.7,47.46l-12.6-8.2,14,5.3a.3.3,0,0,0,.4,0l.3-.3.8-2.1a.52.52,0,0,0-.3-.7h0L241.2,35a.52.52,0,0,0-.7.3h0l-.9,2.3-1.3,2a.61.61,0,0,0,.1.8h0l.2.1-5.2,8a.65.65,0,0,0,.2.9l13.9,9a.65.65,0,0,0,.9-.2h0l5.2-8,.2.1a.61.61,0,0,0,.8-.1h0l1.2-1.9a.54.54,0,0,0-.2-.8Zm-1.8-.5-2.3,1.2-1.1-.7,2.3-1.2Zm-1.6-1.1-2.3,1.2-1.2-.8,2.3-1.1Zm-1.8-1.1L248.2,46l-1.1-.7,2.3-1.2Zm-1.6-1.1-2.3,1.2-1.2-.8,2.3-1.1Zm-1.8-1.1-2.3,1.1-1.1-.7,2.3-1.1Zm-1.7-1.1-2.3,1.2-1.2-.8,2.3-1.1Zm-1.7-1.2-2.3,1.1-1.1-.7,2.3-1.1Zm12.8,1-.4.3a.28.28,0,1,0,.4.4l.6-.5,1,.4-.8,2.1-2.2-.8.3-.2a.28.28,0,0,0-.4-.4h0l-.5.4h0l-1.2-.4,2-1.6Zm-1.9-.7-2,1.6-1.3-.5,2-1.6Zm-1.9-.7-2,1.6-.5-.2-.8-.3,2-1.6Zm-1.9-.7-2,1.6-1.3-.5,2-1.6Zm-2.7-1,.8.3-2,1.6-1.2-.5,2-1.6Zm-1.1-.4-2,1.6-1.3-.5,2-1.6Zm-2.1-.8.2.1-2,1.6-1.2-.5,2-1.6Zm-4.7.6.8-2,2.2.8-2,1.6Zm-1.3,2.2,1.1-1.7.5.2,1.5,1-2.3,1.2Zm9.2,18H248l-13.9-9v-.1h0l5.2-8,14,9.1Zm6.1-8-2-1.3,2.3-1.1.9.6Z" transform="translate(-0.1 -0.02)"/></g><g style="opacity:0.3499999940395355"><path d="M18.9,48.26a1.09,1.09,0,0,0,.1-.5.78.78,0,0,0-.4-.4l-.7-.3-2.4-1.2-.1-.1,1.5-.6a2.91,2.91,0,0,0,1.4-1.7,2.53,2.53,0,0,0-1.7-3.1h0a3.3,3.3,0,0,0-1.4,0,2.22,2.22,0,0,0,.1-1.6A2.44,2.44,0,0,0,12.5,37a2.85,2.85,0,0,0-1.4.8,3,3,0,0,0-.7-1.5A2.58,2.58,0,0,0,7.1,36c-.1.1-.2.3-.1.4s.3.2.4.1h0a2,2,0,0,1,1.3-.4,1.76,1.76,0,0,1,1.3.6,2.72,2.72,0,0,1,.6,1.7A8,8,0,0,0,9.8,40H9.5a1.3,1.3,0,0,0-1,.9,1.61,1.61,0,0,0-.9.3,9,9,0,0,0-1-.9v-.2a5.7,5.7,0,0,1,0-2.6c.1-.2,0-.3-.2-.4h0c-.2-.1-.3,0-.4.2H6a6.47,6.47,0,0,0-.1,2.4l-.1-.1c-.7-.6-1.4-1.2-2.1-1.7l-.6-.5a.56.56,0,0,0-.9,0h0l-.1.1A9.16,9.16,0,0,0,.2,43a5.34,5.34,0,0,0,1.3,3.1,5.79,5.79,0,0,0,3.1,2,3.42,3.42,0,0,0,2.2-.5h0a.64.64,0,0,1,.6,0,.6.6,0,0,1,.3.6h0a3.37,3.37,0,0,0,1.7,3.4,7.1,7.1,0,0,0,1.8.8,5.64,5.64,0,0,0,3.4-.1,8.21,8.21,0,0,0,2.5-1.6,18.76,18.76,0,0,0,1.8-2.4Zm-4.1-7.2a2.26,2.26,0,0,1,1.8-.1,2.19,2.19,0,0,1,1,.9,1.69,1.69,0,0,1,.1,1.4c-.3,1.1-1.7,1.8-3,2h-.2a6.12,6.12,0,0,0-1.2-.5,1.41,1.41,0,0,0-.1-.9,1.48,1.48,0,0,0,.4-1.3v-.1C14,42,14.4,41.56,14.8,41.06Zm-2.3-3.6a2.09,2.09,0,0,1,2.2,1.4c.3,1-.5,2.2-1.4,3.1a1.27,1.27,0,0,0-.6-.4,1.35,1.35,0,0,0-1.3-1.4h0c-.2,0-.5.1-.7.1-.2-.2-.3-.3-.5-.3a3.44,3.44,0,0,1,2.3-2.5Zm-3.8,3.9h.2c.1,0,.1-.1.1-.2a.86.86,0,0,1,.6-.7,1.27,1.27,0,0,1,.6.1c.1.1.2.2.2.3s.1.1.2.1.2,0,.2-.1a.71.71,0,0,1,1.1.2h0a.82.82,0,0,1,.1.7V42c0,.1.1.1.2.1a1,1,0,0,1,.7.9h0c0,.2-.2.4-.4.6-.1,0-.1.1-.1.2s0,.2.1.2a.66.66,0,0,1,.1.6,2.77,2.77,0,0,0-.9-.1h-1a2,2,0,0,1-2-1.3,4.18,4.18,0,0,0-.4-1,3.51,3.51,0,0,0-.5-.8c.4,0,.6-.1.9,0Zm5.8,10.3a4.42,4.42,0,0,1-3,.1A5.26,5.26,0,0,1,8.7,50a4.06,4.06,0,0,1-.4-1.9h0a1.3,1.3,0,0,0-1.1-1.3,1.27,1.27,0,0,0-.6.1h0a3,3,0,0,1-1.8.4,5,5,0,0,1-2.7-1.8,4.74,4.74,0,0,1-1.2-2.8,8.15,8.15,0,0,1,1.8-5.1h.2l.6.5,2.1,1.8a9.9,9.9,0,0,1,2.5,2.5l.3.9A2.58,2.58,0,0,0,11,45h1c.5,0,1.2.1,3.3,1.2.8.4,1.7.9,2.5,1.2l.7.3h0m0,.3a8.45,8.45,0,0,1-4,3.7Z" transform="translate(-0.1 -0.02)"/><path d="M6.2,43a6.9,6.9,0,0,0-1.6-1.8c-.3-.2-.5-.4-.8-.6a.52.52,0,0,0-.8.1H3a3,3,0,0,0-.6,2,2.87,2.87,0,0,0,.7,1.8,2.36,2.36,0,0,0,.9.8,3.51,3.51,0,0,0,1.8.6H6a.56.56,0,0,0,.6-.5A4.09,4.09,0,0,0,6.2,43Zm-.1,2.3H5.8a3.47,3.47,0,0,1-2.3-1.2,2.39,2.39,0,0,1-.5-1.4,3,3,0,0,1,.5-1.6h0c.2.2.5.4.7.6.9.7,2.2,2.1,1.9,3.6Z" transform="translate(-0.1 -0.02)"/><path d="M15.7,48.36c0-.2-.1-.3-.3-.4a7.93,7.93,0,0,0-.9-.4,6.15,6.15,0,0,0-2.3-.7,4,4,0,0,0-2.4.5.78.78,0,0,0-.2.8.77.77,0,0,1,.1.3,5.71,5.71,0,0,0,1.3,1.4,3.7,3.7,0,0,0,1.1.5,5.7,5.7,0,0,0,1.3.1.3.3,0,0,0,0-.6,4.1,4.1,0,0,1-1.1-.1,3.18,3.18,0,0,1-2-1.6c0-.1-.1-.1-.1-.2h0c1.3-.9,3.2-.3,4.1.2l.8.4h0a5.55,5.55,0,0,1-.6.8.6.6,0,0,0-.1.4.6.6,0,0,0,.4.1h0a6.47,6.47,0,0,0,.8-.9,1.49,1.49,0,0,0,.1-.6Z" transform="translate(-0.1 -0.02)"/></g><g style="opacity:0.3499999940395355"><path d="M111.1,46.56l-3.7-2.4a.29.29,0,0,0-.3.5h0l3.7,2.4c.1,0,.1.1.1.2s0,.1-.1.2a7.56,7.56,0,0,1-2.1,1.9,4.19,4.19,0,0,1-1.5.4,4,4,0,0,1-3.4-2,4.14,4.14,0,0,1-.5-1.9,8.42,8.42,0,0,1,.8-2.7c.1-.1.2-.2.3-.1h0l1.4.9a.29.29,0,0,0,.3-.5h0l-1.4-.9a.89.89,0,0,0-1.1.2h0l-.1.1a7.54,7.54,0,0,0-.9,2.9,4.45,4.45,0,0,0,5.6,4.3c.2-.1.4-.1.5-.2a7.4,7.4,0,0,0,2.3-2,.84.84,0,0,0,.2-.7.43.43,0,0,0-.1-.6Z" transform="translate(-0.1 -0.02)"/><path d="M112.2,53.06c-.1,0-.2-.1-.3-.2v-.2a1.61,1.61,0,0,1,.9-.3h.2c.2,0,.5-.1.7-.1,2.3-.6,3.4-2,3.1-3.8a2.76,2.76,0,0,0-1.2-1.9,1.61,1.61,0,0,0-.7-.4c.1-.1.2-.2.3-.2a.82.82,0,0,0,.1-1.2h0l-.2-.2-9.9-6.4a.86.86,0,0,0-1.2.3h0a.37.37,0,0,0-.1.3,20,20,0,0,1-1,2.6l-.1.2a4.88,4.88,0,0,0-.3.7,13.56,13.56,0,0,0-1.2,3.9,5.34,5.34,0,0,0,.5,2.5h-.3a2.14,2.14,0,0,0-1.7.8l-1.5-1a.63.63,0,0,0-.9.1h0c0,.1-.1.1-.1.2s-.1.2-.1.3A1.62,1.62,0,0,0,98,51l6.5,4.1a.25.25,0,0,0,.4-.1h0a.25.25,0,0,0-.1-.4h0l-6.4-4.1a1.3,1.3,0,0,1-.5-1.3c0-.1,0-.2.1-.2h0l10.3,6.6h0m0-.2-.2.2a1.39,1.39,0,0,1-1.4.1l-.9-.6a.25.25,0,0,0-.4.1h0a.25.25,0,0,0,.1.4h0l.9.6a1.81,1.81,0,0,0,2.1-.1c.1-.1.2-.1.2-.2a.76.76,0,0,0,.2-.5.55.55,0,0,0-.3-.5l-1.4-1a2.12,2.12,0,0,0,0-1.9c0-.1-.1-.2-.1-.3a5,5,0,0,0,1.7-.2,6.89,6.89,0,0,0,.8-.3,11.39,11.39,0,0,0,3.1-2.7l.5-.6.2-.3h.1a1.4,1.4,0,0,1,.9.3,1.35,1.35,0,0,1,.5.9c.1.7-.2,1.1-1.6,1.5a4.33,4.33,0,0,0-.5.1,3.21,3.21,0,0,0-2.2,1,2.44,2.44,0,0,0-.4,2.2,3.13,3.13,0,0,0,.9,1.1l.2.1a1.42,1.42,0,0,0,.6.2,1,1,0,0,0,1-1,1.05,1.05,0,0,0-.5-.9Zm-1.7-1.9-6.2-4a1.87,1.87,0,0,1,1.9-.4,6.2,6.2,0,0,0,1.4,1.4,5.41,5.41,0,0,0,2.6,1.1A2.09,2.09,0,0,1,106.6,53.46Zm8.2-8.2a18.88,18.88,0,0,0-2,2,5.07,5.07,0,0,0-.6.7,12,12,0,0,1-2.9,2.6c-.2.1-.5.2-.7.3a5.43,5.43,0,0,1-4.6-1,5.17,5.17,0,0,1-1.5-1.8,4.56,4.56,0,0,1-.5-2.3,8.9,8.9,0,0,1,1.1-3.6l.3-.7.1-.2c.4-.9.7-1.8,1-2.7a.22.22,0,0,1,.2-.2h.3l9.9,6.4c.1,0,.1.1.1.2s-.1.2-.2.3Zm-2.7,9h-.3c-.2,0-.3-.1-.5-.2a2.36,2.36,0,0,1-.8-.9,1.53,1.53,0,0,1,.3-1.6,2.69,2.69,0,0,1,1.8-.8,1.27,1.27,0,0,0,.6-.1,3.51,3.51,0,0,0,1.4-.6,1.5,1.5,0,0,0,.6-1.5,1.71,1.71,0,0,0-.7-1.3l-.2-.1a4.88,4.88,0,0,0-.7-.3l.6-.6c.3.1.5.3.8.4a2.47,2.47,0,0,1,1,1.6c.4,2.1-1.8,2.9-2.7,3.1a1.48,1.48,0,0,1-.7.1h-.2a1.66,1.66,0,0,0-1.2.5.78.78,0,0,0-.2.8,1.06,1.06,0,0,0,.7.6c.2,0,.3.3.3.5h0c.3.2.2.3.1.4Z" transform="translate(-0.1 -0.02)"/><path d="M110.7,37.56c.1.1.3.2.4.1a.19.19,0,0,1,.3,0c.1.1.2.2.2.3,0,.3-.6.6-1,.8-.2.1-.3.2-.5.2s-.4.4-.6.6a.81.81,0,0,0,.3.9h0c.2.1.3,0,.4-.2s0-.3-.1-.3-.1-.1-.1-.2.2-.3.3-.3l.4-.2c.6-.3,1.4-.6,1.4-1.4a.87.87,0,0,0-.6-.8,1,1,0,0,0-.9.1,1,1,0,0,0,.1.4Z" transform="translate(-0.1 -0.02)"/><path d="M112.7,37.06a.55.55,0,0,1,.5.3,1,1,0,0,1,.2.7,1.14,1.14,0,0,1-.7.8l-.7.4a1.34,1.34,0,0,0-.7.6.66.66,0,0,0,.1.6l.1.1c.1.1.3,0,.4-.1v-.3h0v-.1c0-.1.3-.2.3-.2l.3-.1.4-.2a1.72,1.72,0,0,0,1-1.2,1.31,1.31,0,0,0-.3-1.2,1.23,1.23,0,0,0-1-.5.27.27,0,0,0-.3.3c.1,0,.3.1.4.1Z" transform="translate(-0.1 -0.02)"/></g><g style="opacity:0.3499999940395355"><path d="M290.5,78.86a.27.27,0,0,0-.3-.3h0a24.2,24.2,0,0,1-8.6-3.2l-1.1-.7a24.73,24.73,0,0,1-6.4-6.5c-.1-.1-.3-.2-.4-.1h0c-.1.1-.2.2-.1.4h0l.6.9-3.4,5.3a.64.64,0,0,0,0,.6.55.55,0,0,0,.5.3h2l.4.8h0l.5,1a.22.22,0,0,0,.2.2.37.37,0,0,0,.3.1.55.55,0,0,0,.5-.3l2.7-4.2a9,9,0,0,0,1,.9l-.9,1.4a.25.25,0,0,0,.1.4h0a.25.25,0,0,0,.4-.1h0l.9-1.3.6.5-3.1,4.8H276l1.8-2.8a.25.25,0,0,0-.1-.4h0c-.1-.1-.3,0-.4.1l-1.8,2.8a.64.64,0,0,0,0,.6.55.55,0,0,0,.5.3h2l.8,1.8a.22.22,0,0,0,.2.2.37.37,0,0,0,.3.1.55.55,0,0,0,.5-.3l3.4-5.3,1.2.6-2.7,4.1a.64.64,0,0,0,0,.6.22.22,0,0,0,.2.2.37.37,0,0,0,.3.1h1.9l.8,1.8a.63.63,0,0,0,.8.3.22.22,0,0,0,.2-.2l3.4-5.3c.3.1.7.1,1,.2l.2-.4Zm-18.3-4h-.9l3.3-5.1.5.6Zm2.4,2.1-.4-.8,2.5-3.9.6.5Zm1.5-5.4.2.2-2.4,3.7-.2-.4c0-.1-.1-.2-.3-.2h-.5l2.6-4,.3.3.3.4Zm2.3,8.7-.2-.4c0-.1-.1-.2-.3-.2h-.5l2.9-4.4,1,.6-2.9,4.4Zm.7,1.4-.4-.8,3.1-4.8.6.3h.1Zm3.8.1H282l2.7-4.2.7.3Zm1.7.6-.2-.4c-.1-.1-.2-.2-.3-.2h-.5l2.4-3.7a.37.37,0,0,1,.3.1l.6.2.2.1h.1Zm.7,1.5-.4-.8,2.9-4.4h.1l.3.1.4.1Z" transform="translate(-0.1 -0.02)"/><path d="M285.5,86.66a.27.27,0,0,0-.3-.3h0a24.2,24.2,0,0,1-8.6-3.2l-1.1-.7a24.73,24.73,0,0,1-6.4-6.5c-.1-.1-.3-.2-.4-.1h0c-.1.1-.2.2-.1.4h0l.6.9-3.4,5.3a.64.64,0,0,0,0,.6.55.55,0,0,0,.5.3h2l.4.8h0l.5,1a.22.22,0,0,0,.2.2.37.37,0,0,0,.3.1.55.55,0,0,0,.5-.3l2.7-4.2a9,9,0,0,0,1,.9l-3.4,5.3a.64.64,0,0,0,0,.6.55.55,0,0,0,.5.3h2l.8,1.8a.22.22,0,0,0,.2.2.37.37,0,0,0,.3.1.55.55,0,0,0,.5-.3l3.5-5.3,1.2.6-2.7,4.1a.64.64,0,0,0,0,.6c.1.1.1.2.2.2a.37.37,0,0,0,.3.1h1.9l.4.8h0l.5,1a.55.55,0,0,0,.7.3h0c.1,0,.2-.1.3-.2l3.4-5.1c.3.1.7.1,1,.2-.2-.2-.1-.3,0-.5Zm-18.3-4h-.9l3.3-5.1c.1.1.5.6.5.6Zm2.3,2.1-.4-.8,2.5-3.9.6.5Zm1.2-5.8.2.2.4.5-2.4,3.7-.2-.4a.1.1,0,0,0-.1-.1H268l2.6-4,.1.1Zm1,8.5h-.9l3.4-5.2.1.1.1.1.4.3h0l-3.1,4.7Zm1.6.6-.2-.4-.1-.1a.35.35,0,0,0-.2-.1h-.5l2.9-4.4,1,.6-2.9,4.4Zm.7,1.5-.4-.8,3.1-4.8.6.3.1.1Zm5.5.7-.2-.4c0-.1-.1-.2-.3-.2h-.5l1-1.6a.25.25,0,0,0-.1-.4h0a.25.25,0,0,0-.4.1l-1.2,1.9h-.9l2.7-4.2.7.3-.6.9a.29.29,0,0,0,.5.3h0l.6-1h0l.5.2.6.2-2.4,3.9Zm.7,1.4-.4-.8,2.9-4.4h.1l.5.1h.2Z" transform="translate(-0.1 -0.02)"/></g><g style="opacity:0.3499999940395355"><path d="M64.6,105a10,10,0,1,0-19.5,4.3,9.81,9.81,0,0,0,6.9,7.4.4.4,0,0,0,.4-.2h0c.1-.2,0-.3-.2-.4h0a9.3,9.3,0,1,1,1.3.3c-.2,0-.3.1-.3.2h0c0,.2.1.3.2.3h0a10,10,0,0,0,11.3-8.5,9.84,9.84,0,0,0-.1-3.4Z" transform="translate(-0.1 -0.02)"/><path d="M52.8,98.76a8.68,8.68,0,1,0,1.5-.2.32.32,0,0,0-.3.3.27.27,0,0,0,.3.3h0a8.33,8.33,0,0,1,4.9,1.2,7.89,7.89,0,1,1-10.9,2.4,8.05,8.05,0,0,1,4.7-3.4c.1,0,.2-.2.2-.3h0c0-.2-.2-.3-.4-.3Z" transform="translate(-0.1 -0.02)"/><path d="M57.9,102.26a.25.25,0,0,0,.4-.1l.5-.9c.1-.2,0-.3-.1-.4h0a.19.19,0,0,0-.3.1l-.5.9C57.7,102.06,57.7,102.16,57.9,102.26Z" transform="translate(-0.1 -0.02)"/><path d="M51.3,111.86l-.5.9a.25.25,0,0,0,.1.4h0a.25.25,0,0,0,.4-.1l.5-.9a.29.29,0,0,0-.5-.3Z" transform="translate(-0.1 -0.02)"/><path d="M49.2,103a.25.25,0,0,0-.4.1h0c-.1.1,0,.3.1.4l.8.5a.29.29,0,1,0,.3-.5Z" transform="translate(-0.1 -0.02)"/><path d="M60.5,111.06a.25.25,0,0,0,.4-.1h0a.25.25,0,0,0-.1-.4l-.8-.5c-.2-.1-.3,0-.4.1h0c-.1.1,0,.3.1.4Z" transform="translate(-0.1 -0.02)"/><path d="M55.1,106a1.11,1.11,0,1,0-.7,2.1,1.39,1.39,0,0,0,1.1-.2l1.5,1a.29.29,0,1,0,.3-.5h0l-1.5-1a1.23,1.23,0,0,0-.2-1l1.7-2.7c.1-.1,0-.3-.1-.4s-.3,0-.4.1Zm0,.6a.51.51,0,1,1-.7.2h0A.53.53,0,0,1,55.1,106.56Z" transform="translate(-0.1 -0.02)"/></g><g style="opacity:0.3499999940395355"><path d="M377.5,108.16l6.6-10.1a2.91,2.91,0,0,0-.8-4.1l1.1-1.8a.65.65,0,0,0-.2-.9h0l-1.4-.9a.65.65,0,0,0-.9.2h0l-1.1,1.8a3.05,3.05,0,0,0-4.1,1l-1.4,2.2a.29.29,0,0,0,.5.3l1.3-2,6.3,4.1-6.4,9.8-6.3-4.1,4.4-6.7a.29.29,0,0,0-.5-.3l-4.4,6.7a.81.81,0,0,0-.9.3l-.4.6a.78.78,0,0,0,.2,1l4.5,2.9a.25.25,0,0,0,.4-.1h0a.25.25,0,0,0-.1-.4h0l-4.5-2.9v-.2h0l.4-.6c.1-.1.1-.1.2,0l7.1,4.6c.1.1.1.2,0,.2l-.4.6c-.1.1-.1.1-.2,0h0l-1.4-.9a.25.25,0,0,0-.4.1h0a.25.25,0,0,0,.1.4h0l1.4.9a.78.78,0,0,0,1-.2l.4-.6a.56.56,0,0,0-.1-.9ZM382.4,91h.1l1.4.9V92l-1.1,1.8-1.5-1,1.1-1.8Zm-5,2.5a2.36,2.36,0,0,1,3.2-.5l2.2,1.4a2.53,2.53,0,0,1,.9,3.1Z" transform="translate(-0.1 -0.02)"/><path d="M382.8,92a.25.25,0,0,0-.4.1l-.1.2a.29.29,0,0,0,.5.3h0l.1-.2a.25.25,0,0,0-.1-.4Z" transform="translate(-0.1 -0.02)"/><path d="M388.1,94.36l-.7-.4a.29.29,0,1,0-.3.5l.7.4a.25.25,0,0,0,.4-.1h0c.1-.1.1-.2-.1-.4Z" transform="translate(-0.1 -0.02)"/><path d="M385.5,93.46l.6.4a.25.25,0,0,0,.4-.1h0c.1-.1,0-.3-.1-.4l-.7-.4c-.1-.1-.3,0-.4.1a.4.4,0,0,0,.2.4Z" transform="translate(-0.1 -0.02)"/><path d="M389.7,95.46l-.6-.4a.29.29,0,1,0-.3.5h0l.6.4a.25.25,0,0,0,.4-.1h0a.25.25,0,0,0-.1-.4Z" transform="translate(-0.1 -0.02)"/><path d="M385.6,94.76l-.5-.6c-.1-.1-.3-.2-.4-.1s-.2.3-.1.4l.5.6.1.1a.25.25,0,0,0,.4-.1.19.19,0,0,0,0-.3Z" transform="translate(-0.1 -0.02)"/><path d="M387.9,97.86l-.5-.6a.6.6,0,0,0-.4-.1c-.1.1-.2.3-.1.4h0l.5.6c.1.1.3.2.4.1a.25.25,0,0,0,.1-.4Z" transform="translate(-0.1 -0.02)"/><path d="M386.8,96.26l-.5-.6c-.1-.1-.3-.2-.4-.1s-.2.3-.1.4h0l.5.6a.1.1,0,0,0,.1.1.19.19,0,0,0,.3,0c.1,0,.2-.2.1-.4Z" transform="translate(-0.1 -0.02)"/></g><g style="opacity:0.3499999940395355"><path d="M168.1,74.06a.25.25,0,0,0,.4-.1h0l.8-1.2a.54.54,0,0,0-.2-.8l-11.8-7.6a1,1,0,0,0-.5-1.3,1.1,1.1,0,0,0-1.2.3l-7.3,11.2a.25.25,0,0,0,.1.4h0a.25.25,0,0,0,.4-.1l7.3-11.2c.1-.2.4-.2.6-.1s.2.4.1.6l-.1.2-6.3,9.7-3.3,5.2c-.1.2-.4.2-.6.1h0c-.2-.1-.2-.4-.1-.6l1.8-2.7a.29.29,0,1,0-.5-.3h0l-1.8,2.7a1,1,0,1,0,1.5,1.3l.1-.1.1-.1,3.2-5,11.8,7.6a.48.48,0,0,0,.7-.1h0l4.5-6.9a.25.25,0,0,0-.1-.4h0a.25.25,0,0,0-.4.1l-1.3,2-11.7-7.6,2.8-4.4,11.7,7.6-.8,1.2a.6.6,0,0,0,.1.4Zm-2.5,3.2-2.8,4.4-11.7-7.6,2.8-4.4Z" transform="translate(-0.1 -0.02)"/></g><g style="opacity:0.3499999940395355"><path d="M153.8,16.36a2.65,2.65,0,0,0,1.1-1.9,2.66,2.66,0,0,1,.3-1.2.25.25,0,0,0-.1-.4c-.1-.1-.3-.2-.4-.1a5,5,0,0,1-1.2.2,2.52,2.52,0,0,0-2,.9,2.38,2.38,0,0,0-.6,1.1.76.76,0,0,0-.9.1l-.4.3a.77.77,0,0,0-.1,1l-3.5,3.3-.3-.4c-.8-1.2-.9-1.9-.1-2.5a3.38,3.38,0,0,1,1.2-.6l.2-.1c.2-.1.2-.2.2-.4s-.2-.2-.4-.2h0l-.2.1a3.69,3.69,0,0,0-1.4.7,2.14,2.14,0,0,0-.8,1.7,3,3,0,0,0,.8,1.6c.2.2.4.5.6.7a3.23,3.23,0,0,1,1,1.7c.3,1.7-1.3,3-2.9,3.5-.5.1-1,.2-1.6.3a9.78,9.78,0,0,1-6.3-2.3,9.28,9.28,0,0,1-3.1-6.1,10.55,10.55,0,0,1,1.2-5.5,10.25,10.25,0,0,1,3.9-4.1,8.17,8.17,0,0,1,9.8,1.3,4.88,4.88,0,0,1,1.3,3.6,3.09,3.09,0,0,1-1.3,2.4c-.1.1-.2.2-.1.4h0c.1.1.2.2.4.1h0a3.93,3.93,0,0,0,1.5-2.8,5.42,5.42,0,0,0-1.5-4,8.44,8.44,0,0,0-3.9-2.2,9.13,9.13,0,0,0-6.7.8,10.62,10.62,0,0,0-4.1,4.3,11.74,11.74,0,0,0-1.3,5.8,10,10,0,0,0,3.3,6.6,7.63,7.63,0,0,0,1.1.8,10.13,10.13,0,0,0,5.6,1.6,5.08,5.08,0,0,0,1.7-.3,6.08,6.08,0,0,0,2.4-1.5,3.32,3.32,0,0,0,.9-2.7,1.42,1.42,0,0,0-.2-.6l3.8-3.2.1.1a.76.76,0,0,0,.9-.1l.4-.3a1,1,0,0,0,.2-.9,3.08,3.08,0,0,0,1.2-.5Zm-6.8,4.4a4.35,4.35,0,0,0-.6-.7l3.5-3.3.8.9Zm5.1-3.5-.4.3h-.2l-1.5-1.7c-.1-.1-.1-.2,0-.2l.4-.3h.2l1.5,1.7v.1c-.1,0-.1.1,0,.1Zm0-1-.8-.8a2.11,2.11,0,0,1,.5-1.3,2.36,2.36,0,0,1,1.6-.7,3.4,3.4,0,0,0,1-.1,3.55,3.55,0,0,0-.2,1,1.9,1.9,0,0,1-.8,1.5,1.25,1.25,0,0,1-1.3.4Z" transform="translate(-0.1 -0.02)"/><path d="M146.1,11.36a1.89,1.89,0,0,0-3.2-2,1.9,1.9,0,0,0,.5,2.6,2,2,0,0,0,2.7-.6Zm-2.2.1a1.2,1.2,0,0,1-.4-1.7h0a1.18,1.18,0,0,1,1.7-.3,1.27,1.27,0,0,1,.3,1.7,1.25,1.25,0,0,1-1.6.3Z" transform="translate(-0.1 -0.02)"/><path d="M138.6,12.46a1.87,1.87,0,1,0-.5-2.6h0A1.81,1.81,0,0,0,138.6,12.46Zm1.7-2.7a1.3,1.3,0,1,1-1.8.4h0a1.4,1.4,0,0,1,1.8-.4Z" transform="translate(-0.1 -0.02)"/><path d="M135.5,16.46a1.87,1.87,0,1,0-.5-2.6h0A1.81,1.81,0,0,0,135.5,16.46Zm1.7-2.7a1.3,1.3,0,0,1,.4,1.8,1.26,1.26,0,0,1-1.6.5h0l-.2-.1a1.19,1.19,0,0,1-.2-1.8,1.42,1.42,0,0,1,1.6-.4Z" transform="translate(-0.1 -0.02)"/><path d="M136.5,21.46a1.85,1.85,0,1,0,2.3-2.9h0l-.3-.2a.28.28,0,0,0-.4.4h0a1.19,1.19,0,0,1,.2,1.8,1.25,1.25,0,0,1-1.6.3,1.3,1.3,0,0,1-.4-1.8c.2-.3.4-.5.7-.5s.2-.2.2-.4h0c0-.2-.2-.2-.4-.2h0a1.85,1.85,0,0,0-1.3,2.3,2.34,2.34,0,0,0,1,1.2Z" transform="translate(-0.1 -0.02)"/><path d="M141,24a1.87,1.87,0,1,0-.5-2.6h0A1.81,1.81,0,0,0,141,24Zm1.7-2.6a1.3,1.3,0,1,1-1.8.4A1.3,1.3,0,0,1,142.7,21.36Z" transform="translate(-0.1 -0.02)"/></g><g style="opacity:0.3499999940395355"><path d="M409.2,2.86V1.26l-3.8,5.9c-.1.2-.1.5.1.6h0l1.6,1-2,3a.29.29,0,1,0,.5.3l1.9-3,1.6,1h0v-.7l-3.3-2.1.1-.2,1.8.6c.2.1.3,0,.4-.2s0-.3-.2-.4l-1.7-.6.4-.6,2.5.9v-.6l-2.1-.7.4-.6,1.7.6v-.6l-1.4-.5.4-.6,1,.4v-.6l-.7-.3.4-.6Z" transform="translate(-0.1 -0.02)"/><path d="M404.5,13.16c-.1-.1-.3,0-.4.1l-.3.4a.29.29,0,1,0,.5.3l.3-.4a.25.25,0,0,0-.1-.4Z" transform="translate(-0.1 -0.02)"/><path d="M405.2,9.26c-.1-.2-.2-.2-.4-.2h0c-.1,0-.2.2-.2.3l.1.5a.22.22,0,0,0,.2.2h.1c.2,0,.3-.2.2-.4Z" transform="translate(-0.1 -0.02)"/><path d="M406.1,13.66c0-.2-.2-.3-.3-.2s-.3.2-.2.4l.1.5a.22.22,0,0,0,.2.2h.1c.2,0,.3-.2.2-.3h0Z" transform="translate(-0.1 -0.02)"/><path d="M404.1,10.86c.1-.1,0-.3-.1-.4l-.4-.3a.29.29,0,1,0-.3.5l.4.3c.1.1.3,0,.4-.1Z" transform="translate(-0.1 -0.02)"/><path d="M407.7,12.86l-.4-.3a.25.25,0,0,0-.4.1h0a.25.25,0,0,0,.1.4l.4.3a.25.25,0,0,0,.4-.1A.6.6,0,0,0,407.7,12.86Z" transform="translate(-0.1 -0.02)"/><path d="M403.4,11.86l-.5.1c-.2,0-.3.2-.2.3h0c0,.1.1.1.1.2h.2l.5-.1c.2,0,.3-.2.2-.3h0C403.7,12,403.6,11.86,403.4,11.86Z" transform="translate(-0.1 -0.02)"/><path d="M407.2,11.56h.2l.5-.1c.2,0,.3-.2.2-.3h0c0-.2-.2-.3-.4-.2l-.5.1c-.2,0-.3.2-.2.3S407.1,11.56,407.2,11.56Z" transform="translate(-0.1 -0.02)"/><path d="M404.1,1.26a1.28,1.28,0,0,0-1.7.4,1.16,1.16,0,0,0,.4,1.6,1.13,1.13,0,0,0,1.6-.3h0a1.18,1.18,0,0,0-.3-1.7Zm-1,1.6a.65.65,0,0,1-.2-.9h0a.65.65,0,0,1,1.1.7h0a.65.65,0,0,1-.9.2Z" transform="translate(-0.1 -0.02)"/><path d="M404.3,1.06a.25.25,0,0,0,.4-.1h0l.1-.1a.25.25,0,0,0-.1-.4h0a.25.25,0,0,0-.4.1h0l-.1.1a.6.6,0,0,0,.1.4Z" transform="translate(-0.1 -0.02)"/><path d="M402.6,3.66a.25.25,0,0,0-.4.1l-.1.1a.25.25,0,0,0,.1.4.25.25,0,0,0,.4-.1l.1-.1a.25.25,0,0,0-.1-.4Z" transform="translate(-0.1 -0.02)"/><path d="M402.8.56c0,.1.1.1.1.2h.2c.1,0,.2-.2.2-.3h0V.26c0-.2-.2-.3-.4-.2s-.3.2-.2.3h0v.2Z" transform="translate(-0.1 -0.02)"/><path d="M404.1,4.06c0-.2-.2-.3-.3-.2h0c-.2,0-.3.2-.2.4v.2c0,.1.1.1.1.2h.2c.2,0,.3-.2.2-.3h0Z" transform="translate(-0.1 -0.02)"/><path d="M402.2,1.46a.25.25,0,0,0-.1-.4L402,1a.25.25,0,0,0-.4.1h0a.25.25,0,0,0,.1.4h0l.1.1a.25.25,0,0,0,.4-.1Z" transform="translate(-0.1 -0.02)"/><path d="M405.3,3.16l-.1-.1c-.1-.1-.3,0-.4.1s0,.3.1.4l.1.1a.25.25,0,0,0,.4-.1.25.25,0,0,0-.1-.4Z" transform="translate(-0.1 -0.02)"/><path d="M401.6,2.46h-.2c-.1,0-.2.2-.2.3h0a.22.22,0,0,0,.2.2h.3a.27.27,0,0,0,.3-.3h0c0-.2-.2-.3-.4-.2Z" transform="translate(-0.1 -0.02)"/><path d="M405.1,2.16h.4c.2-.1.2-.2.2-.4h0c0-.1-.2-.2-.3-.2h-.2c-.2,0-.3.2-.2.3h0C405,2.06,405,2.16,405.1,2.16Z" transform="translate(-0.1 -0.02)"/></g><g style="opacity:0.3499999940395355"><path d="M192.9,43.06c.5-.2,1.1-.4,1.6-.6a10,10,0,1,0-6.3,1c.2,0,.3-.1.3-.2s-.1-.3-.2-.3h0a9.26,9.26,0,1,1,10.8-7.4,9,9,0,0,1-4.9,6.5c-.4.2-.9.4-1.4.6l-.2-1.2a8.24,8.24,0,1,0-1.8.4l.2,1.2a6.15,6.15,0,0,1-1.4.1h0a.3.3,0,1,0,0,.6h0a7.57,7.57,0,0,0,1.5-.1l.3,1.3a.92.92,0,0,0,1.1.7,2.09,2.09,0,0,0,.6-.4h0a.88.88,0,0,0,.1-.7ZM185.7,40a7.67,7.67,0,0,1,8.3-12.9,7.62,7.62,0,0,1,2.3,10.6,7.45,7.45,0,0,1-3.8,3l-.6-3.2a1,1,0,0,0,.4-.5,2.22,2.22,0,0,0,.3-1.6l.1-.1a3.35,3.35,0,0,0-.9-4.6h0a3.55,3.55,0,0,0-.9-.4.4.4,0,0,0-.4.2h0c0,.2,0,.3.2.4s.5.2.7.3a2.61,2.61,0,0,1,.9,3.5,4.35,4.35,0,0,0-.6-.7,2.18,2.18,0,0,0-2.9.6h0a2,2,0,0,0-.3,1.1h0a2.64,2.64,0,0,1-.9-3.7,2.59,2.59,0,0,1,1.9-1.3c.2,0,.3-.2.2-.3h0c0-.2-.2-.3-.3-.2h0a3.2,3.2,0,0,0-2.6,3.8,3.68,3.68,0,0,0,1.4,2.2l.4.2a2.44,2.44,0,0,0,.9,1.1l.6.3.6,3.2a7.36,7.36,0,0,1-5-1Zm6.6,5a.37.37,0,0,1-.3-.1l-.2-.2-1.4-7.1c0-.1-.1-.1-.1-.2h-.1a1.42,1.42,0,0,1-.6-.2,1.44,1.44,0,0,1,1.6-2.4,1.53,1.53,0,0,1,.4,2c-.1.2-.3.3-.4.4s-.2.2-.1.3h0l1.4,7.1c.1.2,0,.4-.2.4Z" transform="translate(-0.1 -0.02)"/></g><g style="opacity:0.3499999940395355"><path d="M78.6,2.76h-.5a3.29,3.29,0,0,1-.7,1.6,5.78,5.78,0,0,1-4.7,2.4h-.8l-.9-.6a9.1,9.1,0,0,0,4.1-3.4h-.7a7.92,7.92,0,0,1-4,3l-2-1.4a4.84,4.84,0,0,1,0-1.7h-.6A5.7,5.7,0,0,0,67.7,4l-.9-.6a4.88,4.88,0,0,1-.3-.7h-.6l.1.2a1.88,1.88,0,0,0,.2.8l-.4.7a.8.8,0,0,0,.3,1.1l1.1.7-1.4,2c-.1.2-.1.4.1.5h0a.35.35,0,0,1,.2.1H67l.3.8a.22.22,0,0,0,.2.2c.1,0,.1.1.2.1s.3,0,.4-.2l1.3-2,1.1.7a.86.86,0,0,0,1.2-.3l.3-.6h.8a6.09,6.09,0,0,0,5.1-2.8,6.39,6.39,0,0,0,.8-1.9ZM67.7,9l-.2-.7c0-.1-.1-.1-.1-.2h-.2l-.7.1,1.1-1.7,1.2.8Zm3.4-1.2c-.1.1-.2.2-.3.1L66.4,5a.37.37,0,0,1-.1-.3h0l.4-.6,4.8,3.1Z" transform="translate(-0.1 -0.02)"/><path d="M61.5,4.16a.25.25,0,0,0-.4.1h0l-.1.1a.25.25,0,0,0,.1.4h0a.25.25,0,0,0,.4-.1h0l.1-.1a.6.6,0,0,0-.1-.4Z" transform="translate(-0.1 -0.02)"/><path d="M63,4.66c-.1-.2-.2-.2-.4-.2h0c-.1,0-.2.2-.2.3V5c0,.1.1.1.1.2h.2a.27.27,0,0,0,.3-.3h0Z" transform="translate(-0.1 -0.02)"/><path d="M64.2,3.76h0a.33.33,0,0,0-.5,0,.25.25,0,0,0,.1.4l.1.1c.2,0,.3-.1.3-.2h0C64.3,4,64.2,3.86,64.2,3.76Z" transform="translate(-0.1 -0.02)"/><path d="M60.5,3h-.2c-.2,0-.3.2-.2.3h0c0,.1.1.1.1.2h.4c.1,0,.2-.2.2-.3h0C60.8,3.06,60.6,3,60.5,3Z" transform="translate(-0.1 -0.02)"/></g><g style="opacity:0.3499999940395355"><path d="M326.9,87.26a1.09,1.09,0,0,0-.5-.1l-1,.2c-.1,0-.1,0-.1-.1h0c0-.1,0-.1.1-.1h.2c.2,0,.3-.2.2-.4s-.2-.3-.4-.2h-.3a.66.66,0,0,0-.5.8h0c0,.2.1.4.3.4a.9.9,0,0,0,.5.1l1-.2h.1v.1c0,.1,0,.1-.1.1h-.1c-.2,0-.3.2-.2.4s.2.3.3.2h.1a.66.66,0,0,0,.5-.8h0C327.2,87.56,327,87.36,326.9,87.26Z" transform="translate(-0.1 -0.02)"/><path d="M327.1,90.86a.67.67,0,1,0-.3-1.3h-.1c-.1,0-.2.2-.2.3h0c0,.2.2.3.3.2h.1c.1,0,.1,0,.1.1s0,.1-.1.1l-1.1.2a.66.66,0,0,0-.5.8h0c0,.2.1.3.3.4a.9.9,0,0,0,.5.1l.3-.1c.2-.1.2-.2.2-.4h0c0-.1-.2-.2-.3-.2l-.3.1c-.1,0-.1,0-.1-.1h0c0-.1,0-.1.1-.1h0Z" transform="translate(-0.1 -0.02)"/><path d="M341.3,87.86h.1l3.3-.7a.75.75,0,0,0,.5-.7h0l-.5-2.4a.57.57,0,0,0-.7-.4l-3.3.7h-.1l-1,.7-4.6,1a2.94,2.94,0,0,0-1-1.2l-1.6-7.5a1.6,1.6,0,0,0-1.5-1.3,1.38,1.38,0,0,0-.3-.4.82.82,0,0,0-.7-.1,2.09,2.09,0,0,0-.6.4.88.88,0,0,0-.1.7l1.5,7.1-.5.1a.75.75,0,0,0-.6.7c-.1,1.1-.7,1.4-1,1.4h0a.75.75,0,0,1-.8-.1,2.52,2.52,0,0,1-1-1.5.76.76,0,0,0-.8-.6h0a5.3,5.3,0,0,0-2.7.8,10.63,10.63,0,0,0-1.1.9,5.28,5.28,0,0,0-1.4,2.9,5.37,5.37,0,0,0,2.4,5.3,3.55,3.55,0,0,0,.9.4,5.73,5.73,0,0,0,1.4.4,6.72,6.72,0,0,0,2.8-.3h0a1.05,1.05,0,0,0,.5-.9,2.29,2.29,0,0,1,.2-1.8c.1-.1.3-.2.4-.3a1.5,1.5,0,0,1,1.8.8.81.81,0,0,0,.9.4l.5-.1,1.5,7.2a.92.92,0,0,0,1.1.7c.2,0,.4-.2.6-.4h0a.88.88,0,0,0,.1-.7l-1-4.4c0-.2-.2-.3-.4-.2s-.3.2-.2.3h0l1,4.4c0,.2-.1.3-.3.4s-.3-.1-.4-.3h0l-1.6-7.2.6-.3.4,1.7c0,.2.2.3.4.2s.3-.2.2-.4l-.4-2a2.65,2.65,0,0,0,.5-.6l.5,2.4a1.28,1.28,0,0,0,.5.7,1.49,1.49,0,0,0,.9.2c.2,0,.3-.2.2-.3h0c0-.2-.2-.3-.3-.2h0a.57.57,0,0,1-.7-.4h0l-.6-3a8.33,8.33,0,0,0,.4-1.5l4.6-1Zm-6.7-1.1.3,1.3-1.1.2-.3-1.3Zm-4.3.9,1.1-.3.3,1.3-1.1.2Zm-.3,1.5-1,.2-.3-1.3,1.1-.2Zm2-1.8,1-.2.3,1.3-1,.2Zm-.5-10.5a.82.82,0,0,1,.4.6l1.5,6.8a5.94,5.94,0,0,0-.8-.4l-1.5-7.2a.76.76,0,0,0,.4.2Zm-1.7-.3c0-.2.1-.3.3-.4s.3.1.4.3h0l1.6,7.4h-.7Zm2.7,15.2-.6.1c-.1,0-.2,0-.2-.1a2.09,2.09,0,0,0-2.1-1.2,1.74,1.74,0,0,0-1.1.6,3.1,3.1,0,0,0-.4,2.3c0,.1,0,.2-.1.2h0a5.24,5.24,0,0,1-2.5.3l-1.2-.3a4.57,4.57,0,0,1-2.7-2.9,3.9,3.9,0,0,0,2-2,1.45,1.45,0,0,0,.2-.7c0-.2-.1-.3-.2-.3h0a.52.52,0,0,0-.4.2,1.42,1.42,0,0,1-.2.6,3.75,3.75,0,0,1-1.6,1.7v-1a2,2,0,0,1,.1-.7,6.36,6.36,0,0,1,.6-1.8,5.24,5.24,0,0,1,1-1.1.9.9,0,0,1,.1.5c0,.2.1.3.1.5a.32.32,0,0,0,.3.3h0c.2,0,.3-.2.2-.3h0a6.47,6.47,0,0,0-.4-1.3l.1-.1a4,4,0,0,1,2.4-.7h0a.22.22,0,0,1,.2.2,2.59,2.59,0,0,0,1.3,1.9,1.9,1.9,0,0,0,1.3.1,2,2,0,0,0,1.4-1.9.22.22,0,0,1,.2-.2l.6-.1a3.15,3.15,0,0,1,2.3.5h0a5.35,5.35,0,0,1,1.3,1.3l-6,1.3c-.1,0-.2.1-.3.2s-.1.2-.1.4l.3,1.5c0,.1.1.2.2.3s.2.1.4.1l4.7-1,1.4-.3a4.92,4.92,0,0,1-.6,1.7,4.48,4.48,0,0,1-2,1.2Zm3-3.8-.3-1.3,1-.2.3,1.3Zm1.5-.3-.3-1.3,1.1-.3.3,1.3Zm1.7-.4-.3-1.3,1-.2.3,1.3Zm1.3-1.7.8-.6,3.3-.7h0l.5,2.4h0l-3.3.7-1-.2Z" transform="translate(-0.1 -0.02)"/></g></svg>