<svg xmlns="http://www.w3.org/2000/svg" viewBox="0 0 50 50"><title>Logo</title><circle cx="25" cy="25" r="25" style="fill:#efeded"/><path d="M25,3.36A21.64,21.64,0,0,0,6.69,36.53L43.41,13.62A21.62,21.62,0,0,0,25,3.36Z" transform="translate(0 0)" style="fill:#3a97d3"/><path d="M6.69,36.53A21.64,21.64,0,0,0,43.41,13.62Z" transform="translate(0 0)" style="fill:#3a97d3"/><path d="M30.19,11.73a3.88,3.88,0,0,1,.87.74,6.11,6.11,0,0,1,1.36,2.07,17.47,17.47,0,0,1,.72,2.15l.24,2a.87.87,0,0,1-.72,1.07l-3.51,1a.88.88,0,0,1-.88-.24,1.35,1.35,0,0,1-.4-.91,3.77,3.77,0,0,0-.64-2,2.26,2.26,0,0,0-1.75-.67c-1.12,0-1.76.34-2.08,1.08a9.78,9.78,0,0,0-.47,3.55v5.37a9.48,9.48,0,0,0,.47,3.55c.32.75,1,1.08,2.08,1.08a2.18,2.18,0,0,0,1.75-.66,4.18,4.18,0,0,0,.64-2.07,1.38,1.38,0,0,1,.4-.91.7.7,0,0,1,.8-.16l3.59.91c.48.08.72.49.72,1.07a8.38,8.38,0,0,1-.24,2,6.87,6.87,0,0,1-.72,2.15A25,25,0,0,0,45,12.06v-.33Z" transform="translate(0 0)" style="fill:#28a745"/><path d="M19.26,35.52A7.6,7.6,0,0,1,18,33.13a12,12,0,0,1-.56-2.32,14.47,14.47,0,0,1-.08-1.9V19.5a14.32,14.32,0,0,1,.08-1.9A12,12,0,0,1,18,15.28a3.14,3.14,0,0,1,.4-.91A24.66,24.66,0,0,0,5.05,36.51v.33h15.8A6.25,6.25,0,0,1,19.26,35.52Z" transform="translate(0 0)" style="fill:#dc3545"/><text transform="translate(16.12 37.21) scale(0.85 1)" style="font-size:37.58742904663086px;fill:#efeded;font-family:Cubano-Regular, Cubano">c</text></svg>