<?xml version="1.0" encoding="utf-8"?>
<!-- Generator: Adobe Illustrator 22.0.0, SVG Export Plug-In . SVG Version: 6.00 Build 0)  -->
<svg version="1.1" id="Layer_1" xmlns="http://www.w3.org/2000/svg" xmlns:xlink="http://www.w3.org/1999/xlink" x="0px" y="0px"
	 viewBox="0 0 50 50" style="enable-background:new 0 0 50 50;" xml:space="preserve">
<style type="text/css">
	.st0{fill:#3A97D3;}
</style>
<path class="st0" d="M17.8,32.6c-0.7-0.8-1.2-1.8-1.6-2.9c-0.4-1.1-0.6-2.1-0.7-2.8c-0.1-0.7-0.1-1.5-0.1-2.3V13.2
	c0-0.8,0-1.6,0.1-2.3s0.3-1.7,0.7-2.8c0.1-0.4,0.3-0.8,0.5-1.1C6.8,11.8,0,22,0,33.8v0.4h19.8C19,33.7,18.3,33.2,17.8,32.6z"/>
<path class="st0" d="M31.5,3.8c0.4,0.3,0.8,0.5,1.1,0.9c0.7,0.7,1.3,1.5,1.7,2.5S35,9,35.2,9.7c0.1,0.8,0.2,1.6,0.3,2.4
	c0.1,0.7-0.2,1.1-0.9,1.3l-4.4,1.2c-0.4,0.1-0.8,0-1.1-0.3c-0.3-0.3-0.5-0.7-0.5-1.1c-0.1-1.1-0.4-1.9-0.8-2.4
	c-0.5-0.5-1.2-0.8-2.2-0.8c-1.4,0-2.2,0.4-2.6,1.3c-0.4,0.9-0.6,2.3-0.6,4.3v6.5c0,2,0.2,3.5,0.6,4.3c0.4,0.9,1.2,1.3,2.6,1.3
	c1,0,1.8-0.3,2.2-0.8c0.4-0.5,0.7-1.4,0.8-2.5c0.1-0.5,0.2-0.9,0.5-1.1c0.3-0.3,0.6-0.3,1-0.2l4.5,1.1c0.6,0.1,0.9,0.6,0.9,1.3
	c0,0.8-0.1,1.6-0.3,2.4c-0.1,0.8-0.4,1.6-0.9,2.6C43.7,25.5,50,15.6,50,4.2V3.8H31.5z"/>
<path class="st0" d="M10.2,43.4v-3c0-0.2,0-0.4,0-0.6s0.1-0.4,0.2-0.7s0.3-0.6,0.5-0.8s0.5-0.4,0.9-0.6s0.9-0.2,1.4-0.2
	c0.5,0,0.9,0.1,1.3,0.2s0.7,0.3,0.9,0.5s0.4,0.4,0.5,0.7s0.2,0.5,0.3,0.7s0.1,0.4,0.1,0.6c0,0.2-0.1,0.3-0.3,0.3l-1.3,0.3
	c-0.1,0-0.2,0-0.3-0.1s-0.1-0.2-0.2-0.3c0-0.3-0.1-0.5-0.3-0.6s-0.4-0.2-0.7-0.2c-0.4,0-0.7,0.1-0.8,0.3s-0.2,0.6-0.2,1.1v1.7
	c0,0.5,0.1,0.9,0.2,1.1s0.4,0.3,0.8,0.3c0.3,0,0.5-0.1,0.7-0.2s0.2-0.4,0.3-0.7c0-0.1,0.1-0.2,0.2-0.3s0.2-0.1,0.3-0.1l1.4,0.3
	c0.2,0,0.3,0.2,0.3,0.3c0,0.2,0,0.4-0.1,0.6S16,44.7,15.9,45s-0.3,0.5-0.5,0.7s-0.5,0.3-0.9,0.5s-0.8,0.2-1.3,0.2
	c-0.5,0-1-0.1-1.4-0.2s-0.7-0.3-0.9-0.6s-0.4-0.5-0.5-0.8s-0.2-0.5-0.2-0.7S10.2,43.6,10.2,43.4z"/>
<path class="st0" d="M17,42.6c0-0.4,0-0.7,0-0.9s0.1-0.5,0.2-0.8s0.3-0.5,0.5-0.7s0.5-0.3,0.9-0.5s0.8-0.2,1.3-0.2s1,0.1,1.3,0.2
	s0.7,0.3,0.9,0.5s0.4,0.4,0.5,0.7c0.1,0.3,0.2,0.6,0.2,0.8s0,0.6,0,0.9v5.1c0,0.3-0.1,0.4-0.4,0.4h-1.3c-0.2,0-0.4-0.1-0.4-0.4v-1
	c0-0.2-0.1-0.4-0.4-0.4h-1c-0.2,0-0.4,0.1-0.4,0.4v1c0,0.2-0.1,0.4-0.4,0.4h-1.3c-0.2,0-0.4-0.1-0.4-0.4V42.6z M19.4,44.3h1
	c0.2,0,0.4-0.1,0.4-0.4v-1.3c0-0.3-0.1-0.5-0.2-0.7s-0.3-0.2-0.7-0.2s-0.6,0.1-0.7,0.2s-0.2,0.4-0.2,0.7v1.3
	C19.1,44.1,19.2,44.3,19.4,44.3z"/>
<path class="st0" d="M24,44.7v-7.7c0-0.2,0.1-0.4,0.4-0.4H27c1.1,0,1.8,0.2,2.3,0.7s0.7,1.2,0.7,2.2s-0.2,1.7-0.7,2.2
	c-0.5,0.5-1.2,0.7-2.3,0.7h-0.6c-0.2,0-0.4,0.1-0.4,0.4v1.9c0,0.2-0.1,0.4-0.4,0.4h-1.3C24.1,45.1,24,45,24,44.7z M26.1,40
	c0,0.2,0.1,0.4,0.4,0.4h0.7c0.3,0,0.5,0,0.7-0.2c0.1-0.1,0.2-0.3,0.2-0.7s-0.1-0.6-0.2-0.7c-0.1-0.1-0.4-0.2-0.7-0.2h-0.7
	c-0.2,0-0.4,0.1-0.4,0.4V40z"/>
<path class="st0" d="M30.8,39c0-0.2,0.1-0.4,0.4-0.4h1.3c0.2,0,0.4,0.1,0.4,0.4v7.7c0,0.2-0.1,0.4-0.4,0.4h-1.3
	c-0.2,0-0.4-0.1-0.4-0.4V39z"/>
<path class="st0" d="M33.6,45.6c0-0.2,0.1-0.3,0.3-0.4l1.4-0.3c0,0,0.1,0,0.1,0c0.2,0,0.3,0.1,0.3,0.3c0,0.3,0.1,0.5,0.3,0.7
	s0.4,0.2,0.7,0.2s0.5-0.1,0.7-0.2c0.2-0.1,0.2-0.2,0.2-0.4c0,0,0-0.1,0-0.1c0-0.2-0.2-0.3-0.5-0.5c-0.3-0.1-0.6-0.3-1-0.4
	c-0.4-0.1-0.7-0.3-1.1-0.5c-0.4-0.2-0.7-0.5-0.9-0.8c-0.2-0.4-0.4-0.8-0.4-1.3c0-0.1,0-0.2,0-0.4c0-0.2,0.1-0.4,0.2-0.6
	s0.3-0.5,0.5-0.7c0.2-0.2,0.5-0.4,0.9-0.5c0.4-0.2,0.8-0.2,1.3-0.2c0.5,0,0.9,0.1,1.3,0.2c0.4,0.1,0.7,0.3,0.9,0.4s0.4,0.4,0.5,0.6
	c0.1,0.2,0.3,0.5,0.3,0.6s0.1,0.4,0.1,0.6c0,0.2-0.1,0.3-0.3,0.4l-1.4,0.3c0,0-0.1,0-0.1,0c-0.2,0-0.3-0.1-0.3-0.3
	c0-0.2-0.2-0.4-0.3-0.6c-0.2-0.1-0.4-0.2-0.7-0.2c-0.2,0-0.4,0.1-0.5,0.2C36.1,41.8,36,41.9,36,42c0,0,0,0,0,0.1
	c0,0.1,0.1,0.3,0.3,0.4c0.2,0.1,0.5,0.2,0.8,0.3s0.6,0.2,0.9,0.4s0.6,0.4,0.9,0.5s0.5,0.5,0.7,0.8s0.3,0.7,0.3,1.2
	c0,0.1,0,0.2-0.1,0.4c0,0.2-0.1,0.4-0.3,0.6c-0.1,0.3-0.3,0.5-0.5,0.7c-0.2,0.2-0.5,0.4-1,0.5c-0.4,0.2-0.9,0.2-1.4,0.2
	c-0.5,0-0.9-0.1-1.3-0.2s-0.7-0.3-0.9-0.5S34.2,47.2,34,47s-0.2-0.5-0.3-0.7C33.7,46,33.6,45.8,33.6,45.6z"/>
</svg>
