<?xml version="1.0" encoding="utf-8"?>
<!-- Generator: Adobe Illustrator 22.0.0, SVG Export Plug-In . SVG Version: 6.00 Build 0)  -->
<svg version="1.1" id="Capa_1" xmlns="http://www.w3.org/2000/svg" xmlns:xlink="http://www.w3.org/1999/xlink" x="0px" y="0px"
	 viewBox="0 0 50 50" style="enable-background:new 0 0 50 50;" xml:space="preserve">
<style type="text/css">
	.st0{fill:#EFEDED;}
	.st1{fill:#3A97D3;}
	.st2{fill:#04AA00;}
	.st3{fill:#DC3545;}
</style>
<title>LogoNew</title>
<circle class="st0" cx="25" cy="25" r="25"/>
<path class="st1" d="M25,3.4C13.1,3.4,3.4,13,3.4,24.9c0,0,0,0,0,0.1c0,4.1,1.2,8,3.3,11.5l36.7-22.9C39.5,7.2,32.5,3.4,25,3.4z"/>
<path class="st1" d="M6.7,36.5c6.4,10.1,19.8,13.1,29.9,6.7c10-6.3,13-19.5,6.8-29.6L6.7,36.5z"/>
<path class="st0" d="M28.5,10.6c-0.3,0-0.5,0-0.8,0c-4.7-0.2-9.2,2.2-11.7,6.3c3-1.9,6.4-3.2,10-3.6C26.5,12.1,27.4,11.2,28.5,10.6z
	"/>
<path class="st0" d="M19.5,36.9c2.4,1.7,5.3,2.5,8.2,2.5c2.4,0,4.7-0.5,6.8-1.6c1.3-0.7,2.1-2.1,2-3.6c0-0.8-0.2-1.6-0.7-2.3
	c-4.2,3.3-9.4,5.1-14.8,5.1H19.5z"/>
<path class="st0" d="M32.9,30.1c-0.6,0-1.1,0.2-1.6,0.5c-1,0.6-2.2,0.9-3.3,0.9c-3.5,0-5.9-2.6-5.9-6.4c0-3.2,1.7-5.6,4.4-6.3
	c-1-1.6-1.2-3.7-0.4-5.5c-3.6,0.4-7,1.7-10,3.6c-1.5,2.5-2.3,5.4-2.2,8.3c-0.1,4.6,2,9,5.7,11.8H21c5.4,0,10.6-1.8,14.8-5.1
	C35.2,30.8,34.1,30.2,32.9,30.1z"/>
<path class="st1" d="M34.2,12.1c0.4,0.2,0.7,0.6,0.9,0.9h0.5c-0.9-1.9-2.7-3.1-4.8-3.1c-0.8,0-1.7,0.2-2.4,0.6
	c1.5,0.1,2.9,0.4,4.3,0.9C33.3,11.6,33.8,11.8,34.2,12.1z"/>
<path class="st1" d="M35.1,13.1L35.1,13.1c-0.3-0.4-0.6-0.7-0.9-0.9C34.5,12.4,34.8,12.7,35.1,13.1z"/>
<path class="st1" d="M26,13.3c0.9-0.1,1.7-0.2,2.6-0.2c0.7-1,1.9-1.7,3.2-1.7c0.3,0,0.6,0,0.9,0.1c-1.4-0.5-2.8-0.8-4.3-0.9
	C27.4,11.2,26.5,12.1,26,13.3z"/>
<path class="st1" d="M35.9,15.6c0,1.6-0.9,3.1-2.4,3.9C35,18.8,36,17.3,35.9,15.6c0-0.9-0.3-1.8-0.8-2.5l0,0
	C35.6,13.8,35.9,14.7,35.9,15.6z"/>
<path class="st0" d="M34.2,12.1c-0.4-0.3-0.9-0.5-1.4-0.6c0.4,0.1,0.7,0.3,1,0.4C34,12,34.1,12.1,34.2,12.1z"/>
<path class="st0" d="M30.8,19.2c-0.5-0.3-1.1-0.5-1.8-0.6c0.7,0.8,1.8,1.2,2.8,1.2c0.6,0,1.1-0.1,1.6-0.4c-0.3,0.1-0.7,0.2-1.1,0.2
	C31.9,19.6,31.3,19.5,30.8,19.2z"/>
<path class="st0" d="M35.1,13.1c-0.3-0.4-0.6-0.7-0.9-0.9c-0.1-0.1-0.2-0.1-0.3-0.2c-0.3-0.2-0.7-0.3-1-0.4
	c-0.3-0.1-0.6-0.1-0.9-0.1c-1.3,0-2.5,0.6-3.2,1.7H35.1z"/>
<path class="st0" d="M29.1,18.6c0.6,0.1,1.2,0.3,1.8,0.6c0.5,0.3,1,0.4,1.6,0.4c0.4,0,0.7-0.1,1.1-0.2c1.5-0.7,2.4-2.2,2.4-3.9
	c0-0.9-0.3-1.8-0.8-2.5h-6.4C27.4,14.8,27.6,17.1,29.1,18.6z"/>
<path class="st2" d="M16,16.9C9.2,21.3,5.1,28.8,5.1,36.9l9.8-5.9c-0.7-1.9-1.1-3.9-1.1-5.9C13.8,22.2,14.5,19.4,16,16.9z"/>
<path class="st3" d="M5.1,36.9h14.4c-2.1-1.5-3.6-3.6-4.5-5.9L5.1,36.9z"/>
<path class="st2" d="M30.9,21.2c-1.8,0-3.5-0.9-4.4-2.5c-2.6,0.7-4.4,3.1-4.4,6.3c0,0.5,0.1,1.1,0.2,1.6l9.2-5.5
	C31.3,21.2,31.1,21.2,30.9,21.2z"/>
<path class="st3" d="M31.5,21.1l-9.2,5.5c0.4,2.8,2.9,4.9,5.8,4.8c1.2,0,2.3-0.3,3.3-0.9c0.5-0.3,1-0.5,1.6-0.5
	c1.2,0,2.3,0.6,2.9,1.7c5.8-4.5,9.1-11.4,9.1-18.7l-9.8,5.8C34.3,20.1,32.9,20.9,31.5,21.1z"/>
<path class="st2" d="M35.6,13.1c0.4,0.8,0.6,1.6,0.6,2.5c0,1.2-0.4,2.4-1.1,3.3l9.8-5.8H35.6z"/>
<path class="st3" d="M35.2,18.9l-3.7,2.2C33,20.9,34.3,20.1,35.2,18.9z"/>
<path class="st2" d="M30.9,21.2c0.2,0,0.4,0,0.6,0l3.7-2.2c0.7-1,1.1-2.1,1.1-3.3c0-0.9-0.2-1.7-0.6-2.5h-0.5
	c0.5,0.7,0.8,1.6,0.8,2.5c0.1,1.7-0.9,3.2-2.5,3.8c-0.5,0.2-1.1,0.4-1.6,0.4c-1.1,0-2.1-0.4-2.8-1.2c-0.3-0.1-0.7-0.1-1.1-0.1
	c-0.5,0-1,0.1-1.6,0.2C27.4,20.2,29.1,21.1,30.9,21.2z"/>
<path class="st2" d="M29.1,18.6c-1.5-1.5-1.6-3.8-0.4-5.5c-0.9,0-1.8,0.1-2.6,0.2c-0.8,1.8-0.6,3.8,0.4,5.5c0.5-0.1,1-0.2,1.6-0.2
	C28.4,18.5,28.7,18.5,29.1,18.6z"/>
</svg>
