<svg xmlns="http://www.w3.org/2000/svg" viewBox="0 0 50 62.7"><title>LogoLetras</title><circle cx="25" cy="25" r="25" style="fill:#efeded"/><path d="M25,3.4A21.55,21.55,0,0,0,3.4,24.9V25A22.26,22.26,0,0,0,6.7,36.5L43.4,13.6A21.47,21.47,0,0,0,25,3.4Z" style="fill:#3a97d3"/><path d="M6.7,36.5A21.63,21.63,0,0,0,43.4,13.6Z" style="fill:#3a97d3"/><path d="M28.5,10.6h-.8A13.09,13.09,0,0,0,16,16.9a23.62,23.62,0,0,1,10-3.6A5.48,5.48,0,0,1,28.5,10.6Z" style="fill:#efeded"/><path d="M19.5,36.9a14.16,14.16,0,0,0,8.2,2.5,14.49,14.49,0,0,0,6.8-1.6,3.81,3.81,0,0,0,2-3.6,3.89,3.89,0,0,0-.7-2.3A23.92,23.92,0,0,1,21,37H19.5Z" style="fill:#efeded"/><path d="M32.9,30.1a3,3,0,0,0-1.6.5,6.56,6.56,0,0,1-3.3.9c-3.5,0-5.9-2.6-5.9-6.4,0-3.2,1.7-5.6,4.4-6.3a5.94,5.94,0,0,1-.4-5.5,23.62,23.62,0,0,0-10,3.6,15.21,15.21,0,0,0-2.2,8.3A14.4,14.4,0,0,0,19.6,37H21a23.92,23.92,0,0,0,14.8-5.1A3.55,3.55,0,0,0,32.9,30.1Z" style="fill:#efeded"/><path d="M34.2,12.1a2.58,2.58,0,0,1,.9.9h.5a5.26,5.26,0,0,0-4.8-3.1,5,5,0,0,0-2.4.6,15.69,15.69,0,0,1,4.3.9A5.23,5.23,0,0,1,34.2,12.1Z" style="fill:#3a97d3"/><path d="M35.1,13.1h0a3.82,3.82,0,0,0-.9-.9A3.82,3.82,0,0,1,35.1,13.1Z" style="fill:#3a97d3"/><path d="M26,13.3a22.75,22.75,0,0,1,2.6-.2,4,4,0,0,1,3.2-1.7,2.77,2.77,0,0,1,.9.1,15.69,15.69,0,0,0-4.3-.9A5.77,5.77,0,0,0,26,13.3Z" style="fill:#3a97d3"/><path d="M35.9,15.6a4.44,4.44,0,0,1-2.4,3.9,4.06,4.06,0,0,0,2.4-3.9,4.38,4.38,0,0,0-.8-2.5h0A4.38,4.38,0,0,1,35.9,15.6Z" style="fill:#3a97d3"/><path d="M34.2,12.1a3.51,3.51,0,0,0-1.4-.6,10.37,10.37,0,0,1,1,.4C34,12,34.1,12.1,34.2,12.1Z" style="fill:#efeded"/><path d="M30.8,19.2a4.78,4.78,0,0,0-1.8-.6,3.78,3.78,0,0,0,2.8,1.2,2.93,2.93,0,0,0,1.6-.4,3.59,3.59,0,0,1-1.1.2A3.07,3.07,0,0,1,30.8,19.2Z" style="fill:#efeded"/><path d="M35.1,13.1a3.82,3.82,0,0,0-.9-.9c-.1-.1-.2-.1-.3-.2a4.18,4.18,0,0,0-1-.4,2.77,2.77,0,0,0-.9-.1,3.73,3.73,0,0,0-3.2,1.7h6.3Z" style="fill:#efeded"/><path d="M29.1,18.6a6.36,6.36,0,0,1,1.8.6,2.93,2.93,0,0,0,1.6.4,4.25,4.25,0,0,0,1.1-.2A4.22,4.22,0,0,0,36,15.5a4.38,4.38,0,0,0-.8-2.5H28.8A4.15,4.15,0,0,0,29.1,18.6Z" style="fill:#efeded"/><path d="M16,16.9a23.79,23.79,0,0,0-10.9,20L14.9,31a17.13,17.13,0,0,1-1.1-5.9A15.77,15.77,0,0,1,16,16.9Z" style="fill:#04aa00"/><path d="M5.1,36.9H19.5A13,13,0,0,1,15,31Z" style="fill:#dc3545"/><path d="M30.9,21.2a5,5,0,0,1-4.4-2.5A6.18,6.18,0,0,0,22.1,25a8.75,8.75,0,0,0,.2,1.6l9.2-5.5A1.27,1.27,0,0,1,30.9,21.2Z" style="fill:#04aa00"/><path d="M31.5,21.1l-9.2,5.5a5.65,5.65,0,0,0,5.8,4.8,6.29,6.29,0,0,0,3.3-.9A3,3,0,0,1,33,30a3.24,3.24,0,0,1,2.9,1.7A23.59,23.59,0,0,0,45,13l-9.8,5.8A5.5,5.5,0,0,1,31.5,21.1Z" style="fill:#dc3545"/><path d="M35.6,13.1a5.5,5.5,0,0,1-.5,5.8l9.8-5.8Z" style="fill:#04aa00"/><path d="M35.2,18.9l-3.7,2.2A5.52,5.52,0,0,0,35.2,18.9Z" style="fill:#dc3545"/><path d="M30.9,21.2h.6L35.2,19a5.68,5.68,0,0,0,1.1-3.3,5.42,5.42,0,0,0-.6-2.5h-.5a4.38,4.38,0,0,1,.8,2.5,3.79,3.79,0,0,1-2.5,3.8,4.71,4.71,0,0,1-1.6.4,3.63,3.63,0,0,1-2.8-1.2,3.75,3.75,0,0,0-1.1-.1,10,10,0,0,0-1.6.2A6,6,0,0,0,30.9,21.2Z" style="fill:#04aa00"/><path d="M29.1,18.6a4.25,4.25,0,0,1-.4-5.5,21.12,21.12,0,0,0-2.6.2,6,6,0,0,0,.4,5.5,7.77,7.77,0,0,1,1.6-.2A1.7,1.7,0,0,1,29.1,18.6Z" style="fill:#04aa00"/><path d="M1.85,56.7a4.29,4.29,0,0,1,4.6-4.3,4.64,4.64,0,0,1,2.1.4A1.24,1.24,0,0,1,8,55.1a.75.75,0,0,1-.5-.1,2.92,2.92,0,0,0-.9-.2,1.9,1.9,0,1,0,0,3.8,2,2,0,0,0,1.1-.3.9.9,0,0,1,.5-.1,1.16,1.16,0,0,1,1.2,1.2,1.23,1.23,0,0,1-.7,1.1,5.56,5.56,0,0,1-2.3.5A4.31,4.31,0,0,1,1.85,56.7Z" style="fill:#efeded"/><path d="M12,60.4a1.27,1.27,0,0,1,.1-.6l2.3-5.1a1.42,1.42,0,0,1,1.5-.9H17a1.55,1.55,0,0,1,1.5.9l2.3,5.1a1.27,1.27,0,0,1,.1.6,1.43,1.43,0,0,1-1.4,1.4,1.29,1.29,0,0,1-1.3-.9l-.1-.2h-3.4l-.1.2a1.42,1.42,0,0,1-1.3.9A1.49,1.49,0,0,1,12,60.4Zm5.2-1.9-.8-2.1-.8,2.1Z" style="fill:#efeded"/><path d="M23.75,61.4V56a1.16,1.16,0,0,1,1.3-1.3H29a2.81,2.81,0,0,1,3.1,3c0,1.8-1.1,2.9-3.1,2.9h-2.4v.7a1.37,1.37,0,0,1-1.4,1.4A1.35,1.35,0,0,1,23.75,61.4Zm4.8-2.9a.81.81,0,1,0,0-1.6h-2v1.6Z" style="fill:#efeded"/><path d="M35.15,60.4V55A1.4,1.4,0,0,1,38,55v5.4a1.37,1.37,0,0,1-1.4,1.4A1.43,1.43,0,0,1,35.15,60.4Z" style="fill:#efeded"/><path d="M42.05,60.4c-.6-.3-.8-.6-.8-1.1a1.11,1.11,0,0,1,1.1-1.1.6.6,0,0,1,.4.1,5.44,5.44,0,0,0,2,.4c.6,0,.9-.2.9-.4s-.3-.4-1.9-.7c-1.8-.3-2.6-1.2-2.6-2.4,0-1.5,1.3-2.7,3.5-2.7a5.07,5.07,0,0,1,2.2.5c.5.3.7.6.7,1a1,1,0,0,1-1,1,.9.9,0,0,1-.5-.1,5.67,5.67,0,0,0-1.5-.3c-.6,0-1,.2-1,.4s.4.4,2,.7c1.9.3,2.6,1.1,2.6,2.4,0,1.7-1.3,2.7-3.5,2.7A5.35,5.35,0,0,1,42.05,60.4Z" style="fill:#efeded"/></svg>