<svg xmlns="http://www.w3.org/2000/svg" viewBox="0 0 50 50"><title>LogoNew</title><circle cx="25" cy="25" r="25" style="fill:#efeded"/><path d="M25,3.4A21.57,21.57,0,0,0,3.4,25,22,22,0,0,0,6.7,36.5L43.4,13.6A21.47,21.47,0,0,0,25,3.4Z" style="fill:#3a97d3"/><path d="M6.7,36.5A21.63,21.63,0,0,0,43.4,13.6Z" style="fill:#3a97d3"/><path d="M28.47,10.6c-.27,0-.53,0-.81,0A13.11,13.11,0,0,0,16,16.88a23.81,23.81,0,0,1,10-3.63A5.56,5.56,0,0,1,28.47,10.6Z" style="fill:#efeded"/><path d="M19.46,36.93a13.94,13.94,0,0,0,8.2,2.47,13.73,13.73,0,0,0,6.77-1.63,4,4,0,0,0,2-3.63,4.25,4.25,0,0,0-.68-2.33A23.7,23.7,0,0,1,21,36.93Z" style="fill:#efeded"/><path d="M32.92,30.15a3,3,0,0,0-1.59.45,6.64,6.64,0,0,1-3.31.85c-3.53,0-5.94-2.64-5.94-6.43,0-3.2,1.7-5.64,4.35-6.32A5.8,5.8,0,0,1,26,13.25a23.81,23.81,0,0,0-10,3.63,16,16,0,0,0-2.22,8.3,14.11,14.11,0,0,0,5.66,11.75H21A23.7,23.7,0,0,0,35.8,31.81,3.44,3.44,0,0,0,32.92,30.15Z" style="fill:#efeded"/><path d="M34.19,12.15a3.57,3.57,0,0,1,.94.92h.51A5.32,5.32,0,0,0,30.87,10a5.11,5.11,0,0,0-2.4.6,13.83,13.83,0,0,1,4.33.9A3.86,3.86,0,0,1,34.19,12.15Z" style="fill:#3a97d3"/><path d="M35.09,13.07h0a3.57,3.57,0,0,0-.94-.92A4.14,4.14,0,0,1,35.09,13.07Z" style="fill:#3a97d3"/><path d="M26,13.25q1.3-.15,2.64-.18a4,4,0,0,1,3.22-1.69,3.59,3.59,0,0,1,.93.12,13.83,13.83,0,0,0-4.33-.9A5.56,5.56,0,0,0,26,13.25Z" style="fill:#3a97d3"/><path d="M35.91,15.58a4.22,4.22,0,0,1-2.42,3.85,4,4,0,0,0,2.45-3.82,4.34,4.34,0,0,0-.81-2.54h0A4.33,4.33,0,0,1,35.91,15.58Z" style="fill:#3a97d3"/><path d="M34.19,12.15a3.86,3.86,0,0,0-1.39-.65c.36.14.71.28,1.05.45A3.79,3.79,0,0,1,34.19,12.15Z" style="fill:#efeded"/><path d="M30.83,19.2a5.29,5.29,0,0,0-1.77-.6,4,4,0,0,0,2.81,1.19,3.84,3.84,0,0,0,1.62-.36,3,3,0,0,1-1.08.21A3.08,3.08,0,0,1,30.83,19.2Z" style="fill:#efeded"/><path d="M35.09,13.07a4.14,4.14,0,0,0-.9-.92,3.79,3.79,0,0,0-.34-.2c-.34-.17-.69-.31-1.05-.45a3.59,3.59,0,0,0-.93-.12,4,4,0,0,0-3.22,1.69h6.44Z" style="fill:#efeded"/><path d="M29.06,18.6a5.29,5.29,0,0,1,1.77.6,3.08,3.08,0,0,0,1.58.44,3,3,0,0,0,1.08-.21,4.22,4.22,0,0,0,2.42-3.85,4.33,4.33,0,0,0-.82-2.51H28.65a4.29,4.29,0,0,0,.41,5.53Z" style="fill:#efeded"/><path d="M16,16.88A23.85,23.85,0,0,0,5.09,36.93L14.92,31a15.75,15.75,0,0,1-1.12-5.86A16,16,0,0,1,16,16.88Z" style="fill:#04aa00"/><path d="M5.09,36.93H19.46A13,13,0,0,1,14.92,31L5.09,36.93Z" style="fill:#dc3545"/><path d="M30.87,21.16a5.28,5.28,0,0,1-4.44-2.46c-2.65.68-4.35,3.12-4.35,6.32a7.83,7.83,0,0,0,.17,1.63l9.21-5.52A5.68,5.68,0,0,1,30.87,21.16Z" style="fill:#04aa00"/><path d="M31.46,21.13l-9.21,5.52A5.7,5.7,0,0,0,28,31.45a6.64,6.64,0,0,0,3.31-.85,3,3,0,0,1,1.59-.45,3.44,3.44,0,0,1,2.88,1.66,23.83,23.83,0,0,0,9.11-18.74l-9.75,5.84A5.35,5.35,0,0,1,31.46,21.13Z" style="fill:#dc3545"/><path d="M35.64,13.07a5.68,5.68,0,0,1,.58,2.51,5.74,5.74,0,0,1-1.06,3.33l9.75-5.84H35.64Z" style="fill:#04aa00"/><path d="M35.16,18.91l-3.7,2.22A5.35,5.35,0,0,0,35.16,18.91Z" style="fill:#dc3545"/><path d="M30.87,21.16a5.68,5.68,0,0,0,.59,0l3.7-2.22a5.74,5.74,0,0,0,1.06-3.33,5.68,5.68,0,0,0-.58-2.51h-.51a4.34,4.34,0,0,1,.81,2.54,4,4,0,0,1-2.45,3.82,3.84,3.84,0,0,1-1.62.36,4,4,0,0,1-2.81-1.19A6.17,6.17,0,0,0,28,18.5a6.53,6.53,0,0,0-1.56.2A5.28,5.28,0,0,0,30.87,21.16Z" style="fill:#04aa00"/><path d="M29.06,18.6a4.29,4.29,0,0,1-.41-5.53q-1.33,0-2.64.18a5.8,5.8,0,0,0,.42,5.45A6.53,6.53,0,0,1,28,18.5,6.17,6.17,0,0,1,29.06,18.6Z" style="fill:#04aa00"/></svg>