<?xml version="1.0" encoding="utf-8"?>
<!-- Generator: Adobe Illustrator 22.0.0, SVG Export Plug-In . SVG Version: 6.00 Build 0)  -->
<svg version="1.1" id="Layer_1" xmlns="http://www.w3.org/2000/svg" xmlns:xlink="http://www.w3.org/1999/xlink" x="0px" y="0px"
	 viewBox="0 0 50 50" style="enable-background:new 0 0 50 50;" xml:space="preserve">
<style type="text/css">
	.st0{fill:#3A97D3;}
</style>
<path class="st0" d="M17.8,38.6c-0.7-0.8-1.2-1.8-1.6-2.9c-0.4-1.1-0.6-2.1-0.7-2.8c-0.1-0.7-0.1-1.5-0.1-2.3V19.2
	c0-0.8,0-1.6,0.1-2.3s0.3-1.7,0.7-2.8c0.1-0.4,0.3-0.8,0.5-1.1C6.8,17.8,0,28,0,39.8v0.4h19.8C19,39.7,18.3,39.2,17.8,38.6z"/>
<path class="st0" d="M31.5,9.8c0.4,0.3,0.8,0.5,1.1,0.9c0.7,0.7,1.3,1.5,1.7,2.5s0.7,1.8,0.9,2.6c0.1,0.8,0.2,1.6,0.3,2.4
	c0.1,0.7-0.2,1.1-0.9,1.3l-4.4,1.2c-0.4,0.1-0.8,0-1.1-0.3c-0.3-0.3-0.5-0.7-0.5-1.1c-0.1-1.1-0.4-1.9-0.8-2.4
	c-0.5-0.5-1.2-0.8-2.2-0.8c-1.4,0-2.2,0.4-2.6,1.3c-0.4,0.9-0.6,2.3-0.6,4.3v6.5c0,2,0.2,3.5,0.6,4.3c0.4,0.9,1.2,1.3,2.6,1.3
	c1,0,1.8-0.3,2.2-0.8c0.4-0.5,0.7-1.4,0.8-2.5c0.1-0.5,0.2-0.9,0.5-1.1c0.3-0.3,0.6-0.3,1-0.2l4.5,1.1c0.6,0.1,0.9,0.6,0.9,1.3
	c0,0.8-0.1,1.6-0.3,2.4c-0.1,0.8-0.4,1.6-0.9,2.6c9.3-5.1,15.7-15,15.7-26.4V9.8H31.5z"/>
</svg>
