<?xml version="1.0" standalone="no"?><svg xmlns="http://www.w3.org/2000/svg" viewBox="0 0 1440 320"><path fill="#3A97D3" fill-opacity="10" d="M0,32L26.7,69.3C53.3,107,107,181,160,192C213.3,203,267,149,320,128C373.3,107,427,117,480,144C533.3,171,587,213,640,208C693.3,203,747,149,800,154.7C853.3,160,907,224,960,213.3C1013.3,203,1067,117,1120,85.3C1173.3,53,1227,75,1280,69.3C1333.3,64,1387,32,1413,16L1440,0L1440,0L1413.3,0C1386.7,0,1333,0,1280,0C1226.7,0,1173,0,1120,0C1066.7,0,1013,0,960,0C906.7,0,853,0,800,0C746.7,0,693,0,640,0C586.7,0,533,0,480,0C426.7,0,373,0,320,0C266.7,0,213,0,160,0C106.7,0,53,0,27,0L0,0Z"></path></svg>