<?xml version="1.0" standalone="no"?><svg xmlns="http://www.w3.org/2000/svg" viewBox="0 0 1440 320"><path fill="#3A97D3" fill-opacity="10" d="M0,32L34.3,74.7C68.6,117,137,203,206,218.7C274.3,235,343,181,411,138.7C480,96,549,64,617,80C685.7,96,754,160,823,165.3C891.4,171,960,117,1029,122.7C1097.1,128,1166,192,1234,192C1302.9,192,1371,128,1406,96L1440,64L1440,0L1405.7,0C1371.4,0,1303,0,1234,0C1165.7,0,1097,0,1029,0C960,0,891,0,823,0C754.3,0,686,0,617,0C548.6,0,480,0,411,0C342.9,0,274,0,206,0C137.1,0,69,0,34,0L0,0Z"></path></svg>